<svg xmlns="http://www.w3.org/2000/svg" xmlns:xlink="http://www.w3.org/1999/xlink" width="1080" zoomAndPan="magnify" viewBox="0 0 810 809.999993" height="1080" preserveAspectRatio="xMidYMid meet" version="1.0"><path fill="#969faa" d="M 682.257812 640.066406 L 133.742188 640.066406 C 110.460938 640.066406 91.546875 621.191406 91.546875 597.871094 L 91.546875 281.417969 C 91.546875 258.097656 110.460938 239.226562 133.742188 239.226562 L 682.257812 239.226562 C 705.578125 239.226562 724.453125 258.097656 724.453125 281.417969 L 724.453125 597.871094 C 724.453125 621.191406 705.578125 640.066406 682.257812 640.066406 " fill-opacity="1" fill-rule="nonzero"/><path fill="#ccd1d9" d="M 186.484375 576.773438 L 629.515625 576.773438 L 629.515625 682.257812 C 629.515625 705.578125 610.644531 724.453125 587.324219 724.453125 L 228.675781 724.453125 C 205.355469 724.453125 186.484375 705.578125 186.484375 682.257812 L 186.484375 576.773438 " fill-opacity="1" fill-rule="nonzero"/><path fill="#ffeaa7" d="M 661.160156 450.195312 L 661.160156 545.128906 L 629.515625 576.773438 L 186.484375 576.773438 L 154.839844 545.128906 L 154.839844 450.195312 L 661.160156 450.195312 " fill-opacity="1" fill-rule="nonzero"/><path fill="#ff826e" d="M 566.226562 492.386719 C 577.804688 492.386719 587.324219 501.90625 587.324219 513.484375 C 587.324219 525.0625 577.804688 534.582031 566.226562 534.582031 C 554.648438 534.582031 545.128906 525.0625 545.128906 513.484375 C 545.128906 501.90625 554.648438 492.386719 566.226562 492.386719 " fill-opacity="1" fill-rule="nonzero"/><path fill="#ff826e" d="M 481.839844 492.386719 C 493.417969 492.386719 502.933594 501.90625 502.933594 513.484375 C 502.933594 525.0625 493.417969 534.582031 481.839844 534.582031 C 470.261719 534.582031 460.742188 525.0625 460.742188 513.484375 C 460.742188 501.90625 470.261719 492.386719 481.839844 492.386719 " fill-opacity="1" fill-rule="nonzero"/><path fill="#69d6f4" d="M 397.453125 502.933594 L 397.453125 524.03125 C 397.453125 529.84375 392.714844 534.582031 386.902344 534.582031 L 239.226562 534.582031 C 233.414062 534.582031 228.675781 529.84375 228.675781 524.03125 L 228.675781 502.933594 C 228.675781 497.125 233.414062 492.386719 239.226562 492.386719 L 386.902344 492.386719 C 392.714844 492.386719 397.453125 497.125 397.453125 502.933594 " fill-opacity="1" fill-rule="nonzero"/><path fill="#ccd1d9" d="M 661.160156 239.226562 L 661.160156 386.902344 C 661.160156 398.523438 651.644531 408 640.066406 408 L 175.933594 408 C 164.316406 408 154.839844 398.523438 154.839844 386.902344 L 154.839844 218.128906 C 154.839844 206.507812 164.316406 197.03125 175.933594 197.03125 L 239.226562 197.03125 L 239.226562 281.417969 L 197.03125 281.417969 L 197.03125 365.804688 L 618.96875 365.804688 L 618.96875 281.417969 L 576.773438 281.417969 L 576.773438 197.03125 L 640.066406 197.03125 C 651.644531 197.03125 661.160156 206.507812 661.160156 218.128906 L 661.160156 239.226562 " fill-opacity="1" fill-rule="nonzero"/><path fill="#ffeaa7" d="M 239.226562 281.417969 L 239.226562 365.804688 L 197.03125 365.804688 L 197.03125 281.417969 L 239.226562 281.417969 " fill-opacity="1" fill-rule="nonzero"/><path fill="#ffeaa7" d="M 618.96875 281.417969 L 618.96875 365.804688 L 576.773438 365.804688 L 576.773438 281.417969 L 618.96875 281.417969 " fill-opacity="1" fill-rule="nonzero"/><path fill="#f0d0b4" d="M 576.773438 281.417969 L 576.773438 365.804688 L 239.226562 365.804688 L 239.226562 91.546875 L 576.773438 91.546875 L 576.773438 281.417969 " fill-opacity="1" fill-rule="nonzero"/><path fill="#b4dd7f" d="M 534.582031 133.742188 L 534.582031 260.324219 L 471.289062 260.324219 L 471.289062 323.613281 L 281.417969 323.613281 L 281.417969 133.742188 L 534.582031 133.742188 " fill-opacity="1" fill-rule="nonzero"/><path fill="#ff826e" d="M 534.582031 260.324219 L 534.582031 323.613281 L 471.289062 323.613281 L 471.289062 260.324219 L 534.582031 260.324219 " fill-opacity="1" fill-rule="nonzero"/><path fill="#000000" d="M 682.257812 629.515625 L 640.066406 629.515625 L 640.066406 581.140625 L 671.710938 549.496094 L 671.710938 460.742188 L 713.902344 460.742188 L 713.902344 597.871094 C 713.902344 615.339844 699.730469 629.515625 682.257812 629.515625 Z M 587.324219 713.902344 L 228.675781 713.902344 C 211.207031 713.902344 197.03125 699.730469 197.03125 682.257812 L 197.03125 587.324219 L 618.96875 587.324219 L 618.96875 682.257812 C 618.96875 699.730469 604.792969 713.902344 587.324219 713.902344 Z M 133.742188 629.515625 C 116.269531 629.515625 102.097656 615.339844 102.097656 597.871094 L 102.097656 460.742188 L 144.289062 460.742188 L 144.289062 549.496094 L 175.933594 581.140625 L 175.933594 629.515625 Z M 625.148438 566.226562 L 190.851562 566.226562 L 165.386719 540.761719 L 165.386719 460.742188 L 650.613281 460.742188 L 650.613281 540.761719 Z M 133.742188 249.773438 L 144.289062 249.773438 L 144.289062 386.902344 C 144.289062 404.375 158.464844 418.546875 175.933594 418.546875 L 640.066406 418.546875 C 657.535156 418.546875 671.710938 404.375 671.710938 386.902344 L 671.710938 249.773438 L 682.257812 249.773438 C 699.730469 249.773438 713.902344 263.949219 713.902344 281.417969 L 713.902344 439.644531 L 102.097656 439.644531 L 102.097656 281.417969 C 102.097656 263.949219 116.269531 249.773438 133.742188 249.773438 Z M 165.386719 218.128906 C 165.386719 212.320312 170.125 207.582031 175.933594 207.582031 L 228.675781 207.582031 L 228.675781 270.871094 L 186.484375 270.871094 L 186.484375 376.355469 L 629.515625 376.355469 L 629.515625 270.871094 L 587.324219 270.871094 L 587.324219 207.582031 L 640.066406 207.582031 C 645.875 207.582031 650.613281 212.320312 650.613281 218.128906 L 650.613281 386.902344 C 650.613281 392.714844 645.875 397.453125 640.066406 397.453125 L 175.933594 397.453125 C 170.125 397.453125 165.386719 392.714844 165.386719 386.902344 Z M 228.675781 355.257812 L 207.582031 355.257812 L 207.582031 291.96875 L 228.675781 291.96875 Z M 566.226562 102.097656 L 566.226562 355.257812 L 249.773438 355.257812 L 249.773438 102.097656 Z M 587.324219 291.96875 L 608.417969 291.96875 L 608.417969 355.257812 L 587.324219 355.257812 Z M 682.257812 228.675781 L 671.710938 228.675781 L 671.710938 218.128906 C 671.710938 200.660156 657.535156 186.484375 640.066406 186.484375 L 587.324219 186.484375 L 587.324219 81 L 228.675781 81 L 228.675781 186.484375 L 175.933594 186.484375 C 158.464844 186.484375 144.289062 200.660156 144.289062 218.128906 L 144.289062 228.675781 L 133.742188 228.675781 C 104.652344 228.675781 81 252.328125 81 281.417969 L 81 597.871094 C 81 626.960938 104.652344 650.613281 133.742188 650.613281 L 175.933594 650.613281 L 175.933594 682.257812 C 175.933594 711.347656 199.585938 735 228.675781 735 L 587.324219 735 C 616.414062 735 640.066406 711.347656 640.066406 682.257812 L 640.066406 650.613281 L 682.257812 650.613281 C 711.347656 650.613281 735 626.960938 735 597.871094 L 735 281.417969 C 735 252.328125 711.347656 228.675781 682.257812 228.675781 " fill-opacity="1" fill-rule="nonzero"/><path fill="#000000" d="M 239.226562 524.03125 L 239.226562 502.933594 L 386.902344 502.933594 L 386.945312 524.03125 Z M 386.902344 481.839844 L 239.226562 481.839844 C 227.605469 481.839844 218.128906 491.316406 218.128906 502.933594 L 218.128906 524.03125 C 218.128906 535.652344 227.605469 545.128906 239.226562 545.128906 L 386.902344 545.128906 C 398.523438 545.128906 408 535.652344 408 524.03125 L 408 502.933594 C 408 491.316406 398.523438 481.839844 386.902344 481.839844 " fill-opacity="1" fill-rule="nonzero"/><path fill="#000000" d="M 481.839844 524.03125 C 476.027344 524.03125 471.289062 519.292969 471.289062 513.484375 C 471.289062 507.675781 476.027344 502.933594 481.839844 502.933594 C 487.648438 502.933594 492.386719 507.675781 492.386719 513.484375 C 492.386719 519.292969 487.648438 524.03125 481.839844 524.03125 Z M 481.839844 481.839844 C 464.367188 481.839844 450.195312 496.011719 450.195312 513.484375 C 450.195312 530.953125 464.367188 545.128906 481.839844 545.128906 C 499.308594 545.128906 513.484375 530.953125 513.484375 513.484375 C 513.484375 496.011719 499.308594 481.839844 481.839844 481.839844 " fill-opacity="1" fill-rule="nonzero"/><path fill="#000000" d="M 566.226562 524.03125 C 560.414062 524.03125 555.675781 519.292969 555.675781 513.484375 C 555.675781 507.675781 560.414062 502.933594 566.226562 502.933594 C 572.035156 502.933594 576.773438 507.675781 576.773438 513.484375 C 576.773438 519.292969 572.035156 524.03125 566.226562 524.03125 Z M 566.226562 481.839844 C 548.753906 481.839844 534.582031 496.011719 534.582031 513.484375 C 534.582031 530.953125 548.753906 545.128906 566.226562 545.128906 C 583.695312 545.128906 597.871094 530.953125 597.871094 513.484375 C 597.871094 496.011719 583.695312 481.839844 566.226562 481.839844 " fill-opacity="1" fill-rule="nonzero"/><path fill="#000000" d="M 481.839844 313.066406 L 481.839844 270.871094 L 524.03125 270.871094 L 524.03125 313.066406 Z M 291.96875 144.289062 L 524.03125 144.289062 L 524.03125 249.773438 L 460.742188 249.773438 L 460.742188 313.066406 L 291.96875 313.066406 Z M 545.128906 123.195312 L 270.871094 123.195312 L 270.871094 334.160156 L 545.128906 334.160156 L 545.128906 123.195312 " fill-opacity="1" fill-rule="nonzero"/><path fill="#000000" d="M 334.160156 207.582031 L 355.257812 207.582031 L 355.257812 186.484375 L 334.160156 186.484375 L 334.160156 165.386719 L 313.066406 165.386719 L 313.066406 186.484375 C 313.066406 198.105469 322.542969 207.582031 334.160156 207.582031 " fill-opacity="1" fill-rule="nonzero"/><path fill="#000000" d="M 334.160156 228.675781 L 313.066406 228.675781 L 313.066406 270.871094 C 313.066406 282.492188 322.542969 291.96875 334.160156 291.96875 L 355.257812 291.96875 L 355.257812 270.871094 L 334.160156 270.871094 L 334.160156 228.675781 " fill-opacity="1" fill-rule="nonzero"/><path fill="#000000" d="M 376.355469 228.675781 L 355.257812 228.675781 L 355.257812 249.773438 L 376.355469 249.773438 L 376.355469 291.96875 L 397.453125 291.96875 L 397.453125 249.773438 C 397.453125 238.15625 387.972656 228.675781 376.355469 228.675781 " fill-opacity="1" fill-rule="nonzero"/><path fill="#000000" d="M 418.546875 291.96875 L 439.644531 291.96875 L 439.644531 270.871094 L 418.546875 270.871094 L 418.546875 291.96875 " fill-opacity="1" fill-rule="nonzero"/><path fill="#000000" d="M 502.933594 228.675781 L 502.933594 207.582031 L 439.644531 207.582031 C 428.027344 207.582031 418.546875 217.058594 418.546875 228.675781 L 418.546875 249.773438 L 439.644531 249.773438 L 439.644531 228.675781 L 502.933594 228.675781 " fill-opacity="1" fill-rule="nonzero"/><path fill="#000000" d="M 418.546875 165.386719 L 397.453125 165.386719 C 385.832031 165.386719 376.355469 174.863281 376.355469 186.484375 L 376.355469 207.582031 L 397.453125 207.582031 L 397.453125 186.484375 L 418.546875 186.484375 L 418.546875 165.386719 " fill-opacity="1" fill-rule="nonzero"/><path fill="#000000" d="M 460.742188 165.386719 L 439.644531 165.386719 L 439.644531 186.484375 L 460.742188 186.484375 L 460.742188 165.386719 " fill-opacity="1" fill-rule="nonzero"/><path fill="#000000" d="M 502.933594 165.386719 L 481.839844 165.386719 L 481.839844 186.484375 L 502.933594 186.484375 L 502.933594 165.386719 " fill-opacity="1" fill-rule="nonzero"/><path fill="#000000" d="M 239.226562 608.417969 L 218.128906 608.417969 L 218.128906 671.710938 C 218.128906 683.328125 227.605469 692.804688 239.226562 692.804688 L 281.417969 692.804688 L 281.417969 671.710938 L 239.226562 671.710938 L 239.226562 608.417969 " fill-opacity="1" fill-rule="nonzero"/><path fill="#000000" d="M 576.773438 629.515625 L 597.871094 629.515625 L 597.871094 608.417969 L 576.773438 608.417969 L 576.773438 629.515625 " fill-opacity="1" fill-rule="nonzero"/><path fill="#000000" d="M 492.386719 629.515625 L 513.484375 629.515625 L 513.484375 608.417969 L 492.386719 608.417969 L 492.386719 629.515625 " fill-opacity="1" fill-rule="nonzero"/><path fill="#000000" d="M 534.582031 629.515625 L 555.675781 629.515625 L 555.675781 608.417969 L 534.582031 608.417969 L 534.582031 629.515625 " fill-opacity="1" fill-rule="nonzero"/></svg>