<svg xmlns="http://www.w3.org/2000/svg" xmlns:xlink="http://www.w3.org/1999/xlink" width="1080" zoomAndPan="magnify" viewBox="0 0 810 809.999993" height="1080" preserveAspectRatio="xMidYMid meet" version="1.0"><defs><clipPath id="14f6b79933"><path d="M 30.128906 99.480469 L 780.128906 99.480469 L 780.128906 710.730469 L 30.128906 710.730469 Z M 30.128906 99.480469 " clip-rule="nonzero"/></clipPath><clipPath id="e5641758dd"><path d="M 95 602 L 198 602 L 198 710.730469 L 95 710.730469 Z M 95 602 " clip-rule="nonzero"/></clipPath><clipPath id="c5f06970ff"><path d="M 197 553 L 407 553 L 407 710.730469 L 197 710.730469 Z M 197 553 " clip-rule="nonzero"/></clipPath><clipPath id="aaf2ceb130"><path d="M 30.128906 484 L 123 484 L 123 579 L 30.128906 579 Z M 30.128906 484 " clip-rule="nonzero"/></clipPath><clipPath id="f5bad492c7"><path d="M 640 304 L 780.128906 304 L 780.128906 419 L 640 419 Z M 640 304 " clip-rule="nonzero"/></clipPath><clipPath id="80b1a1a708"><path d="M 178 99.480469 L 567 99.480469 L 567 324 L 178 324 Z M 178 99.480469 " clip-rule="nonzero"/></clipPath></defs><g clip-path="url(#14f6b79933)"><path fill="#7d7b7b" d="M 49.472656 577.507812 C 49.640625 577.667969 49.800781 577.847656 49.980469 577.992188 C 49.800781 577.847656 49.640625 577.667969 49.472656 577.507812 Z M 47.765625 575.300781 C 47.867188 575.480469 47.957031 575.667969 48.0625 575.832031 C 47.957031 575.667969 47.867188 575.480469 47.765625 575.300781 Z M 47.105469 573.957031 C 47.175781 574.125 47.234375 574.3125 47.308594 574.476562 C 47.234375 574.3125 47.175781 574.125 47.105469 573.957031 Z M 46.570312 572.410156 C 46.621094 572.585938 46.652344 572.773438 46.707031 572.941406 C 46.652344 572.773438 46.621094 572.585938 46.570312 572.410156 Z M 46.175781 570.597656 C 46.207031 570.8125 46.226562 571.039062 46.265625 571.242188 C 46.226562 571.039062 46.207031 570.8125 46.175781 570.597656 Z M 45.894531 567.339844 C 45.898438 568.042969 45.929688 568.71875 45.992188 569.367188 C 45.929688 568.71875 45.898438 568.042969 45.894531 567.339844 Z M 48.558594 576.492188 C 48.691406 576.664062 48.816406 576.847656 48.953125 577.007812 C 48.816406 576.847656 48.691406 576.664062 48.558594 576.492188 Z M 742.671875 300.269531 L 736.820312 296.867188 L 736.820312 296.859375 L 742.679688 300.269531 Z M 393.058594 328.960938 C 393.039062 328.503906 393.011719 328.039062 392.984375 327.535156 C 392.921875 326.394531 392.875 325.097656 392.621094 323.820312 C 392.511719 323.152344 392.414062 322.464844 392.289062 321.765625 C 392.109375 321.109375 391.929688 320.414062 391.734375 319.730469 C 391.621094 319.195312 391.453125 318.695312 391.273438 318.207031 L 401.492188 324.109375 Z M 337.914062 331.328125 C 338.480469 330.949219 339 330.636719 339.472656 330.339844 C 339.871094 330.097656 340.242188 329.863281 340.582031 329.632812 C 341.023438 329.410156 341.421875 329.199219 341.777344 329.015625 C 342.664062 328.542969 343.269531 328.21875 343.636719 328.023438 L 344.578125 328.023438 C 344.941406 328.214844 345.546875 328.53125 346.441406 329.007812 C 346.808594 329.199219 347.210938 329.410156 347.636719 329.640625 C 347.976562 329.851562 348.34375 330.089844 348.742188 330.347656 C 349.539062 330.84375 350.453125 331.375 351.53125 332.230469 C 352.078125 332.628906 352.632812 333.058594 353.210938 333.472656 C 353.789062 333.976562 354.375 334.484375 354.980469 335.007812 C 356.21875 336.007812 357.429688 337.351562 358.753906 338.625 C 359.867188 339.90625 361.097656 341.214844 362.230469 342.675781 L 350.777344 336.128906 L 337.878906 343.503906 Z M 386.085938 317.527344 C 386.101562 317.546875 386.121094 317.558594 386.136719 317.578125 C 386.121094 317.558594 386.101562 317.546875 386.085938 317.527344 Z M 385.183594 316.808594 C 385.273438 316.871094 385.363281 316.925781 385.453125 316.988281 C 385.363281 316.925781 385.273438 316.871094 385.183594 316.808594 Z M 383.832031 315.894531 C 384.113281 316.058594 384.386719 316.238281 384.644531 316.445312 L 384.636719 316.445312 C 384.382812 316.238281 384.113281 316.058594 383.832031 315.894531 Z M 369.976562 314.609375 C 371.234375 314.15625 372.433594 314.109375 373.761719 313.851562 C 374.226562 313.851562 374.710938 313.824219 375.199219 313.804688 C 375.410156 314.183594 375.628906 314.558594 375.828125 314.9375 C 376.050781 315.5 376.261719 316.058594 376.46875 316.585938 C 376.929688 317.609375 377.183594 318.71875 377.425781 319.6875 C 377.542969 320.175781 377.664062 320.617188 377.769531 321.03125 C 377.828125 321.488281 377.890625 321.914062 377.949219 322.285156 C 378.164062 323.792969 378.273438 324.617188 378.28125 324.65625 L 389.347656 331.089844 L 382.875 334.8125 C 382.199219 333.585938 381.503906 332.371094 380.746094 331.214844 C 379.464844 329.050781 378.007812 327.121094 376.636719 325.15625 C 375.179688 323.363281 373.808594 321.472656 372.351562 319.929688 C 371.644531 319.144531 370.9375 318.363281 370.273438 317.625 C 369.566406 316.925781 368.886719 316.265625 368.238281 315.621094 C 368.113281 315.492188 367.984375 315.386719 367.859375 315.261719 C 367.984375 315.207031 368.097656 315.164062 368.222656 315.117188 C 368.78125 314.945312 369.375 314.773438 369.976562 314.609375 Z M 770.417969 304.828125 C 767.949219 304.78125 765.152344 305.546875 762.183594 307.269531 L 761.242188 307.804688 L 762.183594 307.257812 C 765.152344 305.546875 767.949219 304.78125 770.417969 304.828125 Z M 773.023438 305.238281 C 772.746094 305.15625 772.476562 305.0625 772.183594 305.003906 C 772.476562 305.0625 772.746094 305.15625 773.023438 305.238281 Z M 774.261719 305.714844 C 774.03125 305.605469 773.804688 305.484375 773.566406 305.394531 C 773.804688 305.484375 774.03125 305.605469 774.261719 305.714844 Z M 771.730469 304.949219 C 771.394531 304.894531 771.054688 304.84375 770.703125 304.824219 C 771.054688 304.84375 771.394531 304.894531 771.730469 304.949219 Z M 774.839844 305.996094 C 774.851562 306 774.867188 306.003906 774.882812 306.011719 C 769.628906 302.964844 764.378906 299.910156 759.132812 296.855469 C 756.789062 295.5 753.792969 295.28125 750.445312 296.332031 L 701.511719 267.890625 L 706.855469 264.835938 L 667.261719 242.195312 L 667.242188 242.210938 L 667.242188 242.183594 L 667.261719 242.195312 L 706.855469 219.558594 L 627.675781 174.253906 L 588.09375 196.894531 L 548.511719 174.253906 L 505.140625 199.066406 L 332.777344 99.554688 L 178.9375 188.957031 L 178.691406 276.160156 L 178.238281 435.199219 L 173.207031 438.082031 L 173.203125 438.078125 L 169.875 439.984375 L 161.78125 444.613281 L 122.207031 467.246094 L 122.210938 467.246094 L 122.210938 484.683594 L 47.921875 527.398438 C 38.078125 533.082031 30.117188 546.855469 30.148438 558.183594 C 30.164062 563.808594 32.148438 567.757812 35.351562 569.617188 C 40.601562 572.671875 45.851562 575.722656 51.101562 578.773438 C 50.890625 578.65625 50.703125 578.496094 50.507812 578.359375 C 52.242188 579.574219 54.375 580.140625 56.796875 579.929688 C 57.222656 580.3125 57.667969 580.664062 58.15625 580.945312 C 70.710938 588.234375 83.257812 595.527344 95.808594 602.820312 L 95.988281 651.679688 L 197.496094 710.671875 L 406.027344 590.609375 L 405.902344 634.433594 L 411.6875 637.773438 L 411.6875 637.761719 L 451.613281 614.566406 L 565.527344 548.375 L 565.667969 498.703125 L 737.199219 399.945312 L 737.0625 362.816406 L 762.308594 348.242188 C 772.164062 342.542969 780.113281 328.757812 780.078125 317.457031 C 780.058594 311.804688 778.0625 307.84375 774.839844 305.996094 " fill-opacity="1" fill-rule="nonzero"/></g><path fill="#b2b1b1" d="M 216.351562 430.558594 L 271.636719 398.773438 L 271.636719 381.390625 C 271.636719 381.390625 271.632812 381.390625 271.632812 381.390625 L 295.652344 367.652344 C 295.648438 367.621094 295.648438 367.597656 295.648438 367.566406 C 295.675781 367.0625 295.703125 366.496094 295.734375 365.890625 C 295.789062 364.703125 295.828125 363.335938 296.074219 361.765625 C 296.175781 360.992188 296.277344 360.191406 296.378906 359.351562 C 296.554688 358.484375 296.742188 357.597656 296.917969 356.675781 C 297.238281 354.828125 297.882812 352.847656 298.421875 350.765625 C 299.144531 348.703125 299.800781 346.523438 300.753906 344.339844 C 301.605469 342.117188 302.710938 339.933594 303.78125 337.683594 C 304.972656 335.5 306.132812 333.269531 307.488281 331.195312 C 308.753906 329.058594 310.210938 327.128906 311.582031 325.164062 C 313.039062 323.351562 314.421875 321.453125 315.863281 319.9375 C 316.589844 319.132812 317.277344 318.359375 317.957031 317.609375 C 318.652344 316.917969 319.328125 316.261719 319.992188 315.621094 C 320.171875 315.4375 320.351562 315.289062 320.53125 315.113281 C 320.515625 315.105469 320.503906 315.101562 320.492188 315.09375 C 319.914062 314.929688 319.324219 314.761719 318.714844 314.582031 C 317.480469 314.152344 316.265625 314.101562 314.9375 313.84375 C 314.472656 313.839844 313.988281 313.8125 313.496094 313.792969 C 313.292969 314.179688 313.085938 314.566406 312.882812 314.929688 C 312.660156 315.5 312.433594 316.050781 312.226562 316.574219 C 311.765625 317.597656 311.527344 318.699219 311.289062 319.679688 C 311.152344 320.148438 311.046875 320.617188 310.945312 321.03125 C 310.871094 321.480469 310.808594 321.886719 310.761719 322.269531 C 310.550781 323.792969 310.4375 324.617188 310.429688 324.65625 L 295.769531 333.175781 C 295.769531 333.128906 295.742188 332.214844 295.671875 330.507812 C 295.660156 330.089844 295.644531 329.609375 295.632812 329.109375 C 295.664062 328.617188 295.695312 328.089844 295.722656 327.535156 C 295.777344 326.390625 295.835938 325.097656 296.078125 323.8125 C 296.179688 323.140625 296.304688 322.460938 296.40625 321.746094 C 296.585938 321.082031 296.765625 320.40625 296.960938 319.703125 C 297.277344 318.234375 297.945312 317.007812 298.496094 315.558594 C 299.222656 314.332031 299.894531 312.917969 300.855469 311.824219 C 301.703125 310.582031 302.828125 309.683594 303.894531 308.671875 C 304.21875 308.460938 304.550781 308.257812 304.878906 308.042969 C 305.339844 307.734375 305.792969 307.417969 306.273438 307.148438 L 306.148438 307.207031 L 320.808594 298.691406 C 321.285156 298.414062 321.769531 298.167969 322.285156 297.972656 C 323.574219 297.292969 325.039062 297.050781 326.398438 296.667969 C 327.878906 296.566406 329.253906 296.253906 330.71875 296.40625 C 331.253906 296.433594 331.769531 296.457031 332.289062 296.480469 C 332.828125 295.550781 333.695312 294.679688 334.941406 293.925781 C 334.9375 295.601562 334.9375 297.019531 334.933594 297.960938 C 334.929688 299.238281 335.769531 300.515625 337.457031 301.488281 C 339.78125 302.832031 343.097656 303.242188 346.023438 302.722656 C 347.3125 302.492188 348.527344 302.082031 349.546875 301.488281 C 351.199219 300.527344 352.023438 299.269531 352.03125 298.015625 C 352.035156 297.382812 352.035156 296.535156 352.039062 295.550781 L 334.953125 285.691406 L 184.703125 198.945312 L 184.476562 278.679688 L 184.042969 431.878906 L 201.351562 421.980469 L 216.351562 430.558594 " fill-opacity="1" fill-rule="nonzero"/><path fill="#b2b1b1" d="M 336.6875 332.222656 C 336.140625 332.644531 335.578125 333.046875 335.007812 333.480469 C 334.433594 333.984375 333.855469 334.484375 333.25 335.007812 C 331.996094 336 330.804688 337.351562 329.460938 338.617188 C 328.238281 340.039062 326.867188 341.441406 325.644531 343.097656 C 324.335938 344.671875 323.171875 346.429688 321.921875 348.1875 C 320.804688 350.023438 319.609375 351.847656 318.640625 353.753906 C 318.433594 354.105469 318.269531 354.46875 318.078125 354.828125 L 320.949219 353.1875 L 321.316406 352.972656 L 321.714844 352.746094 L 322.632812 352.222656 L 337.878906 343.503906 L 337.914062 331.328125 C 337.53125 331.589844 337.128906 331.875 336.6875 332.222656 " fill-opacity="1" fill-rule="nonzero"/><path fill="#605e5e" d="M 196.988281 665.199219 C 197.101562 665.304688 197.207031 665.429688 197.328125 665.53125 L 197.328125 665.519531 C 197.207031 665.425781 197.101562 665.304688 196.988281 665.199219 " fill-opacity="1" fill-rule="nonzero"/><path fill="#605e5e" d="M 193.378906 656.65625 C 193.492188 658.070312 193.734375 659.371094 194.109375 660.53125 C 193.738281 659.371094 193.496094 658.070312 193.382812 656.65625 C 193.378906 656.65625 193.378906 656.65625 193.378906 656.65625 " fill-opacity="1" fill-rule="nonzero"/><g clip-path="url(#e5641758dd)"><path fill="#605e5e" d="M 182.75 657.199219 C 180.589844 655.941406 179 653.714844 178.179688 650.683594 C 150.726562 634.726562 123.265625 618.773438 95.808594 602.820312 L 95.988281 651.679688 L 197.496094 710.671875 L 197.328125 665.671875 C 192.46875 662.84375 187.609375 660.019531 182.75 657.199219 " fill-opacity="1" fill-rule="nonzero"/></g><g clip-path="url(#c5f06970ff)"><path fill="#464344" d="M 211.179688 665.117188 C 205.957031 668.128906 201.265625 668.230469 197.992188 666 C 198.160156 666.113281 198.320312 666.246094 198.496094 666.347656 C 198.109375 666.121094 197.71875 665.898438 197.328125 665.671875 L 197.496094 710.671875 L 406.027344 590.609375 L 406.132812 553.15625 L 211.179688 665.117188 " fill-opacity="1" fill-rule="nonzero"/></g><path fill="#464344" d="M 736.820312 296.867188 L 736.820312 296.859375 L 731.292969 293.652344 L 694.183594 272.082031 L 694.179688 272.082031 L 731.292969 293.652344 L 736.820312 296.867188 " fill-opacity="1" fill-rule="nonzero"/><path fill="#464344" d="M 565.777344 461.480469 L 565.667969 498.703125 L 737.199219 399.945312 L 737.0625 362.816406 L 640.496094 418.570312 L 565.777344 461.480469 " fill-opacity="1" fill-rule="nonzero"/><path fill="#464344" d="M 197.328125 665.53125 C 197.34375 665.542969 197.359375 665.558594 197.375 665.570312 C 197.355469 665.558594 197.34375 665.539062 197.328125 665.519531 L 197.328125 665.53125 " fill-opacity="1" fill-rule="nonzero"/><path fill="#bdbcbc" d="M 412.578125 323.847656 L 412.539062 335.960938 L 412.546875 335.960938 L 412.578125 323.851562 L 491.910156 277.753906 L 491.90625 277.75 L 412.578125 323.847656 " fill-opacity="1" fill-rule="nonzero"/><path fill="#bdbcbc" d="M 393.066406 329.121094 C 393.054688 329.632812 393.035156 330.101562 393.023438 330.535156 C 392.96875 332.214844 392.941406 333.128906 392.941406 333.175781 L 389.347656 331.089844 L 382.875 334.8125 C 383.40625 335.769531 383.925781 336.734375 384.449219 337.683594 C 385.503906 339.925781 386.625 342.117188 387.460938 344.332031 C 388.199219 346.027344 388.753906 347.695312 389.300781 349.324219 L 406.738281 339.300781 L 406.773438 327.160156 L 401.492188 324.109375 L 393.058594 328.960938 C 393.058594 329.007812 393.0625 329.066406 393.066406 329.121094 " fill-opacity="1" fill-rule="nonzero"/><path fill="#bdbcbc" d="M 271.636719 398.773438 L 216.351562 430.558594 L 232.226562 439.636719 L 271.636719 416.976562 L 271.636719 398.773438 " fill-opacity="1" fill-rule="nonzero"/><g clip-path="url(#aaf2ceb130)"><path fill="#bdbcbc" d="M 49.472656 577.507812 C 49.296875 577.339844 49.117188 577.1875 48.953125 577.007812 C 48.816406 576.847656 48.691406 576.664062 48.558594 576.492188 C 48.390625 576.273438 48.214844 576.066406 48.0625 575.832031 C 47.957031 575.667969 47.867188 575.480469 47.765625 575.300781 C 47.613281 575.03125 47.449219 574.773438 47.308594 574.476562 C 47.234375 574.3125 47.175781 574.125 47.105469 573.957031 C 46.96875 573.621094 46.824219 573.300781 46.707031 572.941406 C 46.652344 572.773438 46.621094 572.585938 46.570312 572.410156 C 46.464844 572.027344 46.351562 571.648438 46.265625 571.242188 C 46.226562 571.039062 46.207031 570.8125 46.175781 570.597656 C 46.109375 570.195312 46.035156 569.792969 45.992188 569.367188 C 45.929688 568.71875 45.898438 568.042969 45.894531 567.339844 C 45.863281 556.011719 53.828125 542.234375 63.671875 536.550781 L 122.210938 502.890625 L 122.210938 484.683594 L 47.921875 527.398438 C 38.078125 533.082031 30.117188 546.855469 30.148438 558.183594 C 30.164062 563.808594 32.148438 567.757812 35.351562 569.617188 C 40.601562 572.671875 45.851562 575.722656 51.101562 578.773438 C 50.890625 578.65625 50.703125 578.496094 50.507812 578.359375 C 50.332031 578.242188 50.148438 578.128906 49.980469 577.992188 C 49.800781 577.847656 49.640625 577.667969 49.472656 577.507812 " fill-opacity="1" fill-rule="nonzero"/></g><path fill="#d7d7d7" d="M 389.796875 350.773438 C 390.199219 352.320312 390.664062 353.816406 391.003906 355.230469 L 406.714844 346.199219 L 406.738281 339.300781 L 389.300781 349.324219 C 389.464844 349.804688 389.632812 350.300781 389.796875 350.773438 " fill-opacity="1" fill-rule="nonzero"/><path fill="#d7d7d7" d="M 55.109375 559.03125 C 58.046875 551.019531 63.8125 543.390625 70.476562 539.554688 L 109.433594 517.0625 L 122.210938 509.71875 L 122.210938 502.890625 L 63.671875 536.550781 C 53.828125 542.234375 45.863281 556.011719 45.894531 567.339844 C 45.898438 568.042969 45.929688 568.71875 45.992188 569.367188 C 46.035156 569.792969 46.109375 570.195312 46.175781 570.597656 C 46.207031 570.8125 46.226562 571.039062 46.265625 571.242188 C 46.351562 571.648438 46.464844 572.027344 46.570312 572.410156 C 46.621094 572.585938 46.652344 572.773438 46.707031 572.941406 C 46.824219 573.300781 46.96875 573.621094 47.105469 573.957031 C 47.175781 574.125 47.234375 574.3125 47.308594 574.476562 C 47.449219 574.773438 47.613281 575.03125 47.765625 575.300781 C 47.867188 575.480469 47.957031 575.667969 48.0625 575.832031 C 48.214844 576.066406 48.390625 576.273438 48.558594 576.492188 C 48.691406 576.664062 48.816406 576.847656 48.953125 577.007812 C 49.117188 577.1875 49.296875 577.339844 49.472656 577.507812 C 49.640625 577.667969 49.800781 577.847656 49.980469 577.992188 C 50.148438 578.128906 50.332031 578.242188 50.507812 578.359375 C 52.242188 579.574219 54.375 580.140625 56.796875 579.929688 C 54.476562 577.855469 53.082031 574.378906 53.066406 569.726562 C 53.046875 566.289062 53.796875 562.625 55.109375 559.03125 " fill-opacity="1" fill-rule="nonzero"/><path fill="#d7d7d7" d="M 412.523438 342.863281 L 412.546875 335.960938 L 412.539062 335.960938 L 412.523438 342.863281 " fill-opacity="1" fill-rule="nonzero"/><path fill="#d7d7d7" d="M 271.636719 416.976562 L 232.226562 439.636719 L 238.199219 443.050781 L 271.636719 423.839844 L 271.636719 416.976562 " fill-opacity="1" fill-rule="nonzero"/><path fill="#545051" d="M 731.292969 293.652344 L 736.820312 296.859375 L 742.679688 300.269531 L 746.4375 298.105469 C 747.816406 297.308594 749.15625 296.734375 750.445312 296.332031 L 701.511719 267.890625 L 694.183594 272.082031 L 731.292969 293.652344 " fill-opacity="1" fill-rule="nonzero"/><path fill="#545051" d="M 635.480469 341.507812 L 653.121094 351.757812 L 675.050781 339.152344 L 657.464844 328.933594 L 635.480469 341.507812 " fill-opacity="1" fill-rule="nonzero"/><path fill="#545051" d="M 236.832031 591.109375 L 266.097656 574.28125 L 250.820312 565.398438 L 221.480469 582.183594 L 236.832031 591.109375 " fill-opacity="1" fill-rule="nonzero"/><path fill="#545051" d="M 742.671875 300.269531 L 736.820312 296.867188 L 731.292969 293.652344 L 694.179688 272.082031 L 690.132812 274.402344 L 738.632812 302.59375 L 742.671875 300.269531 " fill-opacity="1" fill-rule="nonzero"/><path fill="#545051" d="M 589.527344 388.324219 L 566.023438 374.664062 L 565.957031 397.511719 L 569.734375 399.703125 L 589.527344 388.324219 " fill-opacity="1" fill-rule="nonzero"/><path fill="#545051" d="M 122.210938 509.71875 L 109.433594 517.0625 L 122.210938 524.480469 Z M 122.210938 509.71875 " fill-opacity="1" fill-rule="nonzero"/><path fill="#545051" d="M 391.058594 355.507812 L 406.714844 346.535156 L 406.714844 346.199219 L 391.003906 355.230469 C 391.023438 355.324219 391.035156 355.414062 391.058594 355.507812 " fill-opacity="1" fill-rule="nonzero"/><path fill="#545051" d="M 271.636719 423.839844 L 238.199219 443.050781 L 238.238281 443.074219 L 271.636719 423.9375 L 271.636719 423.839844 " fill-opacity="1" fill-rule="nonzero"/><path fill="#545051" d="M 177.546875 645.761719 C 177.535156 641.339844 178.75 636.550781 180.8125 632.011719 L 55.109375 559.03125 C 53.796875 562.625 53.046875 566.289062 53.066406 569.726562 C 53.082031 574.378906 54.476562 577.855469 56.796875 579.929688 C 57.222656 580.3125 57.667969 580.664062 58.15625 580.945312 C 70.710938 588.234375 83.257812 595.527344 95.808594 602.820312 C 123.265625 618.773438 150.726562 634.726562 178.179688 650.683594 C 177.785156 649.21875 177.550781 647.589844 177.546875 645.761719 " fill-opacity="1" fill-rule="nonzero"/><path fill="#7e7b7c" d="M 565.890625 420.117188 L 565.890625 420.25 L 692.84375 347.304688 L 761.242188 307.804688 L 565.890625 420.117188 " fill-opacity="1" fill-rule="nonzero"/><path fill="#7e7b7c" d="M 406.25 511.976562 L 406.25 511.90625 L 217.617188 620.363281 Z M 406.25 511.976562 " fill-opacity="1" fill-rule="nonzero"/><path fill="#7e7b7c" d="M 193.300781 654.925781 C 193.273438 645.386719 198.902344 634.152344 206.554688 627.425781 C 198.90625 634.140625 193.269531 645.386719 193.292969 654.914062 C 193.296875 655.515625 193.328125 656.089844 193.378906 656.65625 C 193.378906 656.65625 193.378906 656.65625 193.382812 656.65625 C 193.339844 656.089844 193.300781 655.523438 193.300781 654.925781 " fill-opacity="1" fill-rule="nonzero"/><path fill="#464344" d="M 657.464844 328.933594 L 675.050781 339.152344 L 738.632812 302.59375 L 690.132812 274.402344 L 667.242188 287.5 L 667.242188 323.34375 L 657.464844 328.933594 " fill-opacity="1" fill-rule="nonzero"/><path fill="#464344" d="M 653.121094 351.757812 L 635.480469 341.507812 L 588.09375 368.609375 L 566.074219 356.015625 L 566.023438 374.664062 L 589.527344 388.324219 L 653.121094 351.757812 " fill-opacity="1" fill-rule="nonzero"/><path fill="#464344" d="M 350.777344 507.835938 L 280.5 467.640625 L 280.5 548.425781 L 250.820312 565.398438 L 266.097656 574.28125 L 406.300781 493.671875 L 406.351562 476.054688 L 350.777344 507.835938 " fill-opacity="1" fill-rule="nonzero"/><path fill="#464344" d="M 565.957031 397.511719 L 565.949219 401.882812 L 569.734375 399.703125 Z M 565.957031 397.511719 " fill-opacity="1" fill-rule="nonzero"/><path fill="#464344" d="M 391.296875 356.667969 C 391.488281 357.597656 391.664062 358.476562 391.839844 359.34375 C 391.851562 359.4375 391.863281 359.53125 391.878906 359.628906 L 406.652344 368.082031 L 406.714844 346.535156 L 391.058594 355.507812 C 391.148438 355.898438 391.230469 356.289062 391.296875 356.667969 " fill-opacity="1" fill-rule="nonzero"/><path fill="#464344" d="M 412.445312 371.394531 L 412.523438 343.207031 L 412.445312 371.394531 " fill-opacity="1" fill-rule="nonzero"/><path fill="#464344" d="M 238.238281 443.074219 L 271.636719 462.171875 L 271.636719 423.9375 Z M 238.238281 443.074219 " fill-opacity="1" fill-rule="nonzero"/><path fill="#464344" d="M 195.320312 614.976562 L 236.832031 591.109375 L 221.480469 582.183594 L 201.351562 593.695312 L 201.351562 593.6875 L 122.210938 548.425781 L 122.210938 524.480469 L 109.433594 517.0625 L 70.476562 539.554688 C 63.8125 543.390625 58.046875 551.019531 55.109375 559.03125 L 180.8125 632.011719 C 184.027344 624.917969 189.320312 618.441406 195.320312 614.976562 " fill-opacity="1" fill-rule="nonzero"/><path fill="#bdbcbc" d="M 236.832031 591.109375 L 195.320312 614.976562 C 189.320312 618.441406 184.027344 624.917969 180.8125 632.011719 C 178.75 636.550781 177.535156 641.339844 177.546875 645.761719 C 177.550781 647.589844 177.785156 649.21875 178.179688 650.683594 C 179 653.714844 180.589844 655.941406 182.75 657.199219 C 187.609375 660.019531 192.46875 662.84375 197.328125 665.671875 C 197.71875 665.898438 198.109375 666.121094 198.496094 666.347656 C 198.320312 666.246094 198.160156 666.113281 197.992188 666 C 197.785156 665.859375 197.570312 665.730469 197.375 665.570312 C 197.359375 665.558594 197.34375 665.542969 197.328125 665.53125 C 197.207031 665.429688 197.101562 665.304688 196.988281 665.199219 C 196.769531 664.996094 196.546875 664.804688 196.347656 664.582031 C 196.25 664.46875 196.164062 664.332031 196.066406 664.210938 C 195.859375 663.953125 195.644531 663.695312 195.457031 663.40625 C 195.371094 663.277344 195.304688 663.128906 195.226562 662.992188 C 195.046875 662.6875 194.863281 662.386719 194.707031 662.054688 C 194.613281 661.847656 194.539062 661.625 194.457031 661.410156 C 194.335938 661.121094 194.210938 660.839844 194.109375 660.53125 C 193.734375 659.371094 193.492188 658.070312 193.378906 656.65625 C 193.328125 656.089844 193.296875 655.515625 193.292969 654.914062 C 193.269531 645.386719 198.90625 634.140625 206.554688 627.425781 C 207.996094 626.15625 209.503906 625.03125 211.066406 624.125 C 211.070312 624.125 211.070312 624.125 211.074219 624.121094 L 217.617188 620.363281 L 406.25 511.90625 L 406.300781 493.671875 L 266.097656 574.28125 L 236.832031 591.109375 " fill-opacity="1" fill-rule="nonzero"/><path fill="#bdbcbc" d="M 742.679688 300.269531 L 742.671875 300.269531 L 738.632812 302.59375 L 675.050781 339.152344 L 653.121094 351.757812 L 589.527344 388.324219 L 569.734375 399.703125 L 565.949219 401.882812 L 565.890625 420.117188 L 761.242188 307.804688 L 762.183594 307.257812 C 765.152344 305.546875 767.949219 304.78125 770.417969 304.828125 C 770.515625 304.832031 770.613281 304.820312 770.703125 304.824219 C 771.054688 304.84375 771.394531 304.894531 771.730469 304.949219 C 771.878906 304.96875 772.035156 304.972656 772.183594 305.003906 C 772.476562 305.0625 772.746094 305.15625 773.023438 305.238281 C 773.203125 305.292969 773.390625 305.332031 773.566406 305.394531 C 773.804688 305.484375 774.03125 305.605469 774.261719 305.714844 C 774.457031 305.808594 774.65625 305.890625 774.839844 305.996094 C 774.851562 306 774.867188 306.003906 774.882812 306.011719 C 769.628906 302.964844 764.378906 299.910156 759.132812 296.855469 C 756.789062 295.5 753.792969 295.28125 750.445312 296.332031 C 749.15625 296.734375 747.816406 297.308594 746.4375 298.105469 L 742.679688 300.269531 " fill-opacity="1" fill-rule="nonzero"/><path fill="#d7d7d7" d="M 565.777344 461.480469 L 640.496094 418.570312 C 663.101562 394.859375 680.097656 370.398438 692.84375 347.304688 L 565.890625 420.25 L 565.777344 461.480469 " fill-opacity="1" fill-rule="nonzero"/><path fill="#d7d7d7" d="M 228.269531 637.90625 C 228.285156 643.828125 224.125 651.03125 218.972656 654.003906 C 213.824219 656.980469 209.640625 654.59375 209.621094 648.671875 C 209.605469 642.757812 213.761719 635.550781 218.914062 632.578125 C 224.066406 629.609375 228.253906 631.988281 228.269531 637.90625 Z M 211.074219 624.121094 C 211.070312 624.125 211.070312 624.125 211.066406 624.125 C 209.503906 625.03125 207.996094 626.15625 206.554688 627.425781 C 198.902344 634.152344 193.273438 645.386719 193.300781 654.925781 C 193.300781 655.523438 193.339844 656.089844 193.382812 656.65625 C 193.496094 658.070312 193.738281 659.371094 194.109375 660.53125 C 194.210938 660.839844 194.335938 661.121094 194.457031 661.410156 C 194.539062 661.625 194.613281 661.847656 194.707031 662.054688 C 194.863281 662.386719 195.046875 662.6875 195.226562 662.992188 C 195.304688 663.128906 195.371094 663.277344 195.457031 663.40625 C 195.644531 663.695312 195.859375 663.953125 196.066406 664.210938 C 196.164062 664.332031 196.25 664.46875 196.347656 664.582031 C 196.546875 664.804688 196.769531 664.996094 196.988281 665.199219 C 197.101562 665.304688 197.207031 665.425781 197.328125 665.519531 C 197.34375 665.539062 197.355469 665.558594 197.375 665.570312 C 197.570312 665.730469 197.785156 665.859375 197.992188 666 C 201.265625 668.230469 205.957031 668.128906 211.179688 665.117188 L 406.132812 553.15625 L 406.25 511.976562 L 217.617188 620.363281 L 211.074219 624.121094 " fill-opacity="1" fill-rule="nonzero"/><path fill="#535051" d="M 209.621094 648.671875 C 209.640625 654.59375 213.824219 656.980469 218.972656 654.003906 C 224.125 651.03125 228.285156 643.828125 228.269531 637.90625 C 228.253906 631.988281 224.066406 629.609375 218.914062 632.578125 C 213.761719 635.550781 209.605469 642.757812 209.621094 648.671875 " fill-opacity="1" fill-rule="nonzero"/><g clip-path="url(#f5bad492c7)"><path fill="#e7e6e6" d="M 761.546875 340.5 C 756.394531 343.472656 752.214844 341.085938 752.191406 335.164062 C 752.175781 329.246094 756.339844 322.046875 761.484375 319.070312 C 766.636719 316.097656 770.828125 318.484375 770.839844 324.402344 C 770.855469 330.324219 766.699219 337.523438 761.546875 340.5 Z M 774.839844 305.996094 C 774.65625 305.890625 774.457031 305.808594 774.261719 305.714844 C 774.03125 305.605469 773.804688 305.484375 773.566406 305.394531 C 773.390625 305.332031 773.203125 305.292969 773.023438 305.238281 C 772.746094 305.15625 772.476562 305.0625 772.183594 305.003906 C 772.035156 304.972656 771.878906 304.96875 771.730469 304.949219 C 771.394531 304.894531 771.054688 304.84375 770.703125 304.824219 C 770.613281 304.820312 770.515625 304.832031 770.417969 304.828125 C 767.949219 304.78125 765.152344 305.546875 762.183594 307.269531 L 761.242188 307.804688 L 692.84375 347.304688 C 680.097656 370.398438 663.101562 394.859375 640.496094 418.570312 L 737.0625 362.816406 L 762.308594 348.242188 C 772.164062 342.542969 780.113281 328.757812 780.078125 317.457031 C 780.058594 311.804688 778.0625 307.84375 774.839844 305.996094 " fill-opacity="1" fill-rule="nonzero"/></g><path fill="#535051" d="M 761.484375 319.070312 C 756.339844 322.046875 752.175781 329.246094 752.191406 335.164062 C 752.214844 341.085938 756.394531 343.472656 761.546875 340.5 C 766.699219 337.523438 770.855469 330.324219 770.839844 324.402344 C 770.828125 318.484375 766.636719 316.097656 761.484375 319.070312 " fill-opacity="1" fill-rule="nonzero"/><path fill="#f79958" d="M 276.707031 459.628906 L 276.707031 438.632812 L 301.144531 452.832031 L 301.144531 473.828125 Z M 280.5 467.640625 L 350.777344 507.835938 L 350.296875 487.539062 L 350.011719 467.246094 C 349.898438 460.480469 349.871094 453.710938 349.847656 446.945312 L 349.761719 427.242188 C 343.316406 423.605469 336.929688 419.855469 330.515625 416.171875 C 323.945312 412.355469 317.339844 408.597656 310.792969 404.738281 L 291.15625 393.164062 C 284.648438 389.246094 278.113281 385.375 271.636719 381.390625 L 271.636719 462.171875 L 280.5 467.246094 L 280.484375 467.253906 L 280.5 467.246094 L 280.5 467.640625 " fill-opacity="1" fill-rule="nonzero"/><path fill="#f9a95a" d="M 318.078125 354.828125 L 320.949219 353.1875 L 318.078125 354.828125 " fill-opacity="1" fill-rule="nonzero"/><path fill="#f9a95a" d="M 392.160156 361.785156 C 392.390625 363.34375 392.441406 364.703125 392.488281 365.898438 C 392.511719 366.492188 392.539062 367.050781 392.570312 367.578125 C 392.550781 368.0625 392.539062 368.527344 392.523438 368.921875 C 392.441406 370.546875 392.414062 371.429688 392.414062 371.476562 L 377.75 379.996094 C 377.746094 379.949219 377.632812 378.992188 377.433594 377.230469 C 377.390625 376.796875 377.332031 376.324219 377.257812 375.789062 C 377.15625 375.257812 377.054688 374.667969 376.921875 374.050781 C 376.691406 372.792969 376.445312 371.410156 376.003906 369.867188 C 375.800781 369.105469 375.578125 368.300781 375.363281 367.476562 C 375.082031 366.632812 374.804688 365.78125 374.496094 364.886719 C 373.984375 363.148438 373.121094 361.285156 372.398438 359.429688 C 371.484375 357.542969 370.667969 355.625 369.589844 353.753906 C 368.605469 351.839844 367.414062 350.015625 366.296875 348.191406 C 365.058594 346.441406 363.898438 344.671875 362.570312 343.089844 C 362.460938 342.941406 362.34375 342.820312 362.230469 342.675781 L 350.777344 336.128906 L 337.878906 343.503906 L 322.632812 352.222656 L 402.433594 396.050781 C 403.09375 395.679688 403.785156 395.296875 404.4375 394.929688 C 405.160156 394.523438 405.867188 394.132812 406.582031 393.738281 L 406.652344 368.082031 L 391.878906 359.628906 C 391.964844 360.363281 392.066406 361.085938 392.160156 361.785156 " fill-opacity="1" fill-rule="nonzero"/><path fill="#f9a95a" d="M 412.386719 390.585938 L 412.390625 390.585938 L 412.445312 371.394531 L 412.386719 390.585938 " fill-opacity="1" fill-rule="nonzero"/><path fill="#f79258" d="M 271.636719 381.390625 C 278.351562 384.949219 285 388.628906 291.679688 392.246094 L 311.617188 403.304688 C 318.257812 406.988281 324.847656 410.769531 331.46875 414.5 C 338.070312 418.261719 344.714844 421.953125 351.285156 425.765625 L 351.742188 426.03125 C 352.300781 425.671875 353.078125 425.171875 354.078125 424.527344 C 356.199219 423.21875 359.1875 421.273438 362.855469 419.070312 C 366.523438 416.875 370.75 414.230469 375.371094 411.550781 C 375.722656 411.34375 376.097656 411.125 376.449219 410.921875 L 311.359375 373.695312 C 311.339844 373.804688 311.3125 373.933594 311.292969 374.039062 C 311.175781 374.667969 311.058594 375.246094 310.960938 375.796875 C 310.902344 376.324219 310.84375 376.796875 310.785156 377.238281 C 310.582031 378.984375 310.46875 379.9375 310.464844 379.988281 L 295.808594 371.46875 C 295.804688 371.421875 295.777344 370.554688 295.710938 368.921875 C 295.695312 368.535156 295.679688 368.109375 295.652344 367.652344 L 271.632812 381.390625 C 271.632812 381.390625 271.636719 381.390625 271.636719 381.390625 " fill-opacity="1" fill-rule="nonzero"/><path fill="#f8a059" d="M 403.375 397.628906 L 403.320312 416.625 L 401.316406 414.988281 L 398.734375 420.109375 L 398.597656 420.1875 L 395.984375 418.042969 L 393.371094 423.230469 L 393.285156 423.277344 L 390.644531 421.105469 L 388.011719 426.339844 L 387.972656 426.367188 L 385.316406 424.183594 L 382.660156 429.449219 L 382.648438 429.449219 L 382.644531 429.460938 L 379.984375 427.269531 L 377.316406 432.558594 L 377.375 412.496094 C 377.011719 412.695312 376.625 412.910156 376.269531 413.113281 C 371.613281 415.738281 367.1875 418.042969 363.433594 420.085938 C 359.679688 422.128906 356.484375 423.71875 354.28125 424.878906 C 353.21875 425.421875 352.394531 425.835938 351.800781 426.136719 L 351.796875 426.652344 L 351.710938 446.945312 C 351.683594 453.710938 351.65625 460.480469 351.542969 467.246094 L 351.261719 487.539062 L 350.777344 507.835938 L 406.351562 476.054688 L 406.578125 395.753906 C 406.160156 396.003906 405.753906 396.246094 405.328125 396.492188 C 404.691406 396.863281 404.019531 397.257812 403.375 397.628906 " fill-opacity="1" fill-rule="nonzero"/><path fill="#f8a059" d="M 412.246094 441.597656 L 412.386719 392.28125 L 412.382812 392.28125 Z M 412.246094 441.597656 " fill-opacity="1" fill-rule="nonzero"/><path fill="#c76845" d="M 301.144531 452.832031 L 276.707031 438.632812 L 276.707031 459.628906 L 301.144531 473.828125 L 301.144531 452.832031 " fill-opacity="1" fill-rule="nonzero"/><path fill="#fab982" d="M 379.984375 427.269531 L 382.644531 429.460938 L 382.648438 429.449219 L 382.660156 429.449219 L 385.316406 424.183594 L 387.972656 426.367188 L 388.011719 426.339844 L 390.644531 421.105469 L 393.285156 423.277344 L 393.371094 423.230469 L 395.984375 418.042969 L 398.597656 420.1875 L 398.734375 420.109375 L 401.316406 414.988281 L 403.320312 416.625 L 403.375 397.628906 C 399.328125 399.992188 395.117188 402.445312 390.867188 404.925781 C 386.277344 407.496094 381.71875 410.054688 377.375 412.496094 L 377.316406 432.558594 L 379.984375 427.269531 " fill-opacity="1" fill-rule="nonzero"/><path fill="#f9b094" d="M 321.714844 352.746094 L 322.632812 352.222656 Z M 321.714844 352.746094 " fill-opacity="1" fill-rule="nonzero"/><path fill="#fab56b" d="M 321.316406 352.972656 L 320.949219 353.1875 L 318.078125 354.828125 C 317.269531 356.359375 316.554688 357.910156 315.820312 359.421875 C 315.613281 359.964844 315.390625 360.492188 315.175781 361.023438 L 389.308594 403.425781 C 389.488281 403.320312 389.660156 403.222656 389.835938 403.121094 C 394.113281 400.71875 398.355469 398.339844 402.433594 396.050781 L 322.632812 352.222656 L 321.714844 352.746094 L 321.316406 352.972656 " fill-opacity="1" fill-rule="nonzero"/><path stroke-linecap="round" transform="matrix(0.0441904, 0, 0, -0.0441907, -63.597841, 874.123392)" fill="none" stroke-linejoin="round" d="M 8740.142966 11810.207113 L 8740.142966 11810.207113 " stroke="#fab56b" stroke-width="1.2" stroke-opacity="1" stroke-miterlimit="4"/><path fill="#f8a268" d="M 313.722656 364.898438 C 313.425781 365.78125 313.132812 366.640625 312.859375 367.46875 C 312.640625 368.289062 312.433594 369.085938 312.226562 369.851562 C 311.8125 371.28125 311.574219 372.542969 311.359375 373.695312 L 376.449219 410.921875 C 380.59375 408.507812 384.933594 405.972656 389.308594 403.425781 L 315.175781 361.023438 C 314.632812 362.347656 314.09375 363.652344 313.722656 364.898438 " fill-opacity="1" fill-rule="nonzero"/><path fill="#fabe8e" d="M 412.382812 392.28125 L 412.386719 392.28125 L 412.390625 390.585938 L 412.382812 392.28125 " fill-opacity="1" fill-rule="nonzero"/><path fill="#fabe8e" d="M 402.433594 396.050781 C 398.355469 398.339844 394.113281 400.71875 389.835938 403.121094 C 389.660156 403.222656 389.488281 403.320312 389.308594 403.425781 C 384.933594 405.972656 380.59375 408.507812 376.449219 410.921875 C 376.097656 411.125 375.722656 411.34375 375.371094 411.550781 C 370.75 414.230469 366.523438 416.875 362.855469 419.070312 C 359.1875 421.273438 356.199219 423.21875 354.078125 424.527344 C 353.078125 425.171875 352.300781 425.671875 351.742188 426.03125 L 351.285156 425.765625 C 344.714844 421.953125 338.070312 418.261719 331.46875 414.5 C 324.847656 410.769531 318.257812 406.988281 311.617188 403.304688 L 291.679688 392.246094 C 285 388.628906 278.351562 384.949219 271.636719 381.390625 C 278.113281 385.375 284.648438 389.246094 291.15625 393.164062 L 310.792969 404.738281 C 317.339844 408.597656 323.945312 412.355469 330.515625 416.171875 C 336.929688 419.855469 343.316406 423.605469 349.761719 427.242188 L 349.847656 446.945312 C 349.871094 453.710938 349.898438 460.480469 350.011719 467.246094 L 350.296875 487.539062 L 350.777344 507.835938 L 351.261719 487.539062 L 351.542969 467.246094 C 351.65625 460.480469 351.683594 453.710938 351.710938 446.945312 L 351.796875 426.652344 L 351.800781 426.136719 C 352.394531 425.835938 353.21875 425.421875 354.28125 424.878906 C 356.484375 423.71875 359.679688 422.128906 363.433594 420.085938 C 367.1875 418.042969 371.613281 415.738281 376.269531 413.113281 C 376.625 412.910156 377.011719 412.695312 377.375 412.496094 C 381.71875 410.054688 386.277344 407.496094 390.867188 404.925781 C 395.117188 402.445312 399.328125 399.992188 403.375 397.628906 C 404.019531 397.257812 404.691406 396.863281 405.328125 396.492188 C 405.753906 396.246094 406.160156 396.003906 406.578125 395.753906 L 406.582031 393.738281 C 405.867188 394.132812 405.160156 394.523438 404.4375 394.929688 C 403.785156 395.296875 403.09375 395.679688 402.433594 396.050781 " fill-opacity="1" fill-rule="nonzero"/><path fill="#f79958" d="M 587.609375 348.3125 L 587.328125 328.015625 C 587.210938 321.253906 587.191406 314.488281 587.164062 307.71875 L 587.074219 288.078125 L 566.234375 300 L 566.074219 356.015625 L 588.09375 368.609375 L 587.609375 348.3125 " fill-opacity="1" fill-rule="nonzero"/><path fill="#f9a95a" d="M 629.402344 262.628906 C 633.613281 260.269531 637.796875 257.917969 641.753906 255.703125 C 646.40625 253.085938 650.832031 250.78125 654.585938 248.730469 C 658.339844 246.691406 661.535156 245.101562 663.742188 243.933594 C 665.929688 242.828125 667.179688 242.195312 667.222656 242.171875 L 588.09375 196.894531 L 588.09375 239 L 629.402344 262.628906 " fill-opacity="1" fill-rule="nonzero"/><path fill="#d67a4b" d="M 588.597656 286.539062 L 589.058594 286.804688 C 589.617188 286.445312 590.398438 285.945312 591.390625 285.304688 C 593.519531 283.992188 596.503906 282.046875 600.171875 279.84375 C 603.835938 277.644531 608.070312 275.003906 612.6875 272.324219 C 617.304688 269.628906 622.230469 266.761719 627.152344 263.890625 C 627.902344 263.472656 628.644531 263.054688 629.402344 262.628906 L 588.09375 239 L 566.371094 251.421875 L 566.3125 273.871094 C 567.136719 274.339844 567.960938 274.808594 568.785156 275.273438 C 575.386719 279.035156 582.03125 282.726562 588.597656 286.539062 " fill-opacity="1" fill-rule="nonzero"/><path fill="#f8a059" d="M 667.242188 242.210938 L 667.242188 242.183594 L 667.222656 242.175781 C 667.210938 242.183594 666.964844 242.339844 666.578125 242.589844 L 667.242188 242.210938 " fill-opacity="1" fill-rule="nonzero"/><path fill="#f8a059" d="M 588.859375 328.015625 L 588.578125 348.3125 L 588.09375 368.609375 L 635.480469 341.507812 L 657.464844 328.933594 L 667.242188 323.34375 L 667.242188 287.5 L 627.675781 310.140625 L 589.109375 288.078125 L 589.023438 307.71875 C 589 314.488281 588.976562 321.253906 588.859375 328.015625 " fill-opacity="1" fill-rule="nonzero"/><path fill="#f8a059" d="M 589.117188 286.914062 L 589.214844 286.855469 C 589.1875 286.875 589.144531 286.894531 589.117188 286.910156 L 589.117188 286.914062 " fill-opacity="1" fill-rule="nonzero"/><path fill="#f79057" d="M 566.417969 234.445312 L 531.785156 254.574219 C 531.785156 254.574219 531.785156 254.574219 531.789062 254.574219 L 566.425781 234.445312 L 566.371094 251.421875 L 588.09375 239 L 588.09375 196.894531 L 544.542969 221.816406 L 566.417969 234.445312 " fill-opacity="1" fill-rule="nonzero"/><path fill="#f79258" d="M 667.242188 242.167969 L 667.222656 242.175781 L 667.242188 242.183594 L 667.261719 242.195312 L 706.855469 219.558594 L 627.675781 174.253906 L 588.09375 196.894531 L 667.222656 242.171875 L 667.242188 242.167969 " fill-opacity="1" fill-rule="nonzero"/><path fill="#f8a059" d="M 588.09375 196.894531 L 548.511719 174.253906 L 505.140625 199.066406 L 544.542969 221.816406 L 588.09375 196.894531 " fill-opacity="1" fill-rule="nonzero"/><path fill="#f9a95a" d="M 666.578125 242.589844 C 666.019531 242.949219 665.15625 243.503906 663.941406 244.28125 C 661.8125 245.597656 658.828125 247.539062 655.164062 249.742188 C 651.496094 251.9375 647.261719 254.578125 642.644531 257.265625 C 638.03125 259.957031 633.105469 262.824219 628.179688 265.699219 C 623.214844 268.484375 618.242188 271.273438 613.585938 273.886719 C 608.933594 276.507812 604.503906 278.8125 600.75 280.859375 C 596.996094 282.902344 593.804688 284.492188 591.597656 285.652344 C 590.589844 286.167969 589.800781 286.558594 589.214844 286.855469 L 589.117188 286.914062 L 589.113281 287.425781 L 589.109375 288.078125 L 627.675781 310.140625 L 667.242188 287.5 L 690.132812 274.402344 L 694.179688 272.082031 L 694.183594 272.082031 L 701.511719 267.890625 L 706.855469 264.835938 L 667.261719 242.195312 L 667.242188 242.210938 L 666.578125 242.589844 " fill-opacity="1" fill-rule="nonzero"/><path fill="#f9a95a" d="M 491.90625 277.75 L 491.910156 277.753906 L 530.675781 255.21875 C 530.675781 255.21875 530.671875 255.21875 530.671875 255.21875 L 491.90625 277.75 " fill-opacity="1" fill-rule="nonzero"/><path fill="#f9a95a" d="M 587.074219 288.019531 C 580.632812 284.375 574.25 280.628906 567.828125 276.945312 C 567.324219 276.648438 566.808594 276.355469 566.304688 276.058594 L 566.289062 282.757812 L 566.234375 300 L 587.074219 288.078125 L 587.074219 288.019531 " fill-opacity="1" fill-rule="nonzero"/><path fill="#fabe8e" d="M 530.671875 255.21875 C 530.671875 255.21875 530.675781 255.21875 530.675781 255.21875 L 531.789062 254.574219 C 531.785156 254.574219 531.785156 254.574219 531.785156 254.574219 L 530.671875 255.21875 " fill-opacity="1" fill-rule="nonzero"/><path fill="#fabe8e" d="M 587.074219 288.019531 L 587.074219 288.078125 L 587.164062 307.71875 C 587.191406 314.488281 587.210938 321.253906 587.328125 328.015625 L 587.609375 348.3125 L 588.09375 368.609375 L 588.578125 348.3125 L 588.859375 328.015625 C 588.976562 321.253906 589 314.488281 589.023438 307.71875 L 589.109375 288.078125 L 589.113281 287.425781 L 589.117188 286.914062 L 589.117188 286.910156 C 589.144531 286.894531 589.1875 286.875 589.214844 286.855469 C 589.800781 286.558594 590.589844 286.167969 591.597656 285.652344 C 593.804688 284.492188 596.996094 282.902344 600.75 280.859375 C 604.503906 278.8125 608.933594 276.507812 613.585938 273.886719 C 618.242188 271.273438 623.214844 268.484375 628.179688 265.699219 C 633.105469 262.824219 638.03125 259.957031 642.644531 257.265625 C 647.261719 254.578125 651.496094 251.9375 655.164062 249.742188 C 658.828125 247.539062 661.8125 245.597656 663.941406 244.28125 C 665.15625 243.503906 666.019531 242.949219 666.578125 242.589844 C 666.964844 242.339844 667.210938 242.183594 667.222656 242.175781 L 667.242188 242.167969 L 667.222656 242.171875 C 667.179688 242.195312 665.929688 242.828125 663.742188 243.933594 C 661.535156 245.101562 658.339844 246.691406 654.585938 248.730469 C 650.832031 250.78125 646.40625 253.085938 641.753906 255.703125 C 637.796875 257.917969 633.613281 260.269531 629.402344 262.628906 C 628.644531 263.054688 627.902344 263.472656 627.152344 263.890625 C 622.230469 266.761719 617.304688 269.628906 612.6875 272.324219 C 608.070312 275.003906 603.835938 277.644531 600.171875 279.84375 C 596.503906 282.046875 593.519531 283.992188 591.390625 285.304688 C 590.398438 285.945312 589.617188 286.445312 589.058594 286.804688 L 588.597656 286.539062 C 582.03125 282.726562 575.386719 279.035156 568.785156 275.273438 C 567.960938 274.808594 567.136719 274.339844 566.3125 273.871094 L 566.304688 276.058594 C 566.808594 276.355469 567.324219 276.648438 567.828125 276.945312 C 574.25 280.628906 580.632812 284.375 587.074219 288.019531 " fill-opacity="1" fill-rule="nonzero"/><path fill="#f79958" d="M 127.28125 524.488281 L 151.71875 538.691406 L 151.71875 559.679688 L 127.28125 545.480469 Z M 122.210938 509.71875 L 122.210938 548.425781 L 201.351562 593.6875 L 200.871094 573.398438 L 200.589844 553.101562 C 200.472656 546.335938 200.449219 539.570312 200.425781 532.804688 L 200.335938 513.101562 C 193.890625 509.460938 187.507812 505.710938 181.089844 502.023438 C 174.519531 498.214844 167.914062 494.449219 161.371094 490.597656 L 141.730469 479.019531 C 135.222656 475.097656 128.6875 471.234375 122.214844 467.25 C 122.214844 467.25 122.210938 467.246094 122.210938 467.246094 L 122.210938 509.71875 " fill-opacity="1" fill-rule="nonzero"/><path fill="#f9a95a" d="M 168.820312 440.585938 L 169.875 439.984375 L 161.78125 444.613281 L 161.785156 444.617188 L 168.820312 440.585938 " fill-opacity="1" fill-rule="nonzero"/><path fill="#f9a95a" d="M 255.011719 480.785156 C 259.667969 478.171875 264.089844 475.859375 267.84375 473.8125 C 271.597656 471.777344 274.792969 470.179688 277 469.019531 C 279.191406 467.910156 280.445312 467.273438 280.484375 467.253906 L 280.5 467.246094 L 271.636719 462.171875 L 238.238281 443.074219 L 238.199219 443.050781 L 232.226562 439.636719 L 216.351562 430.558594 L 201.351562 421.980469 L 184.042969 431.878906 L 178.238281 435.199219 L 173.207031 438.082031 L 253.007812 481.910156 C 253.667969 481.539062 254.359375 481.148438 255.011719 480.785156 " fill-opacity="1" fill-rule="nonzero"/><path fill="#f79258" d="M 122.214844 467.25 C 128.929688 470.808594 135.582031 474.480469 142.257812 478.105469 L 162.191406 489.15625 C 168.835938 492.84375 175.425781 496.625 182.042969 500.359375 C 188.648438 504.121094 195.289062 507.808594 201.859375 511.625 L 202.316406 511.886719 C 202.878906 511.523438 203.652344 511.027344 204.652344 510.386719 C 206.777344 509.074219 209.765625 507.128906 213.429688 504.929688 C 217.097656 502.730469 221.328125 500.085938 225.949219 497.402344 C 226.296875 497.199219 226.671875 496.980469 227.027344 496.773438 L 148.808594 452.046875 L 161.785156 444.617188 L 161.78125 444.613281 L 122.207031 467.246094 L 122.210938 467.246094 C 122.210938 467.246094 122.214844 467.25 122.214844 467.25 " fill-opacity="1" fill-rule="nonzero"/><path fill="#f8a059" d="M 277.199219 469.367188 C 275.074219 470.675781 272.085938 472.621094 268.421875 474.828125 C 264.753906 477.015625 260.523438 479.664062 255.902344 482.351562 C 255.269531 482.71875 254.59375 483.113281 253.949219 483.488281 L 253.894531 502.484375 L 251.890625 500.839844 L 249.3125 505.960938 L 249.171875 506.046875 L 246.558594 503.898438 L 243.945312 509.082031 L 243.863281 509.132812 L 241.21875 506.960938 L 238.585938 512.195312 L 238.546875 512.222656 L 235.890625 510.039062 L 233.234375 515.308594 L 233.226562 515.308594 L 233.21875 515.3125 L 230.558594 513.125 L 227.890625 518.410156 L 227.949219 498.347656 C 227.585938 498.550781 227.203125 498.769531 226.84375 498.972656 C 222.191406 501.589844 217.761719 503.894531 214.011719 505.945312 C 210.253906 507.988281 207.0625 509.574219 204.855469 510.738281 C 203.796875 511.273438 202.96875 511.6875 202.375 511.988281 L 202.375 512.507812 L 202.285156 532.804688 C 202.257812 539.570312 202.234375 546.335938 202.121094 553.101562 L 201.835938 573.398438 L 201.351562 593.695312 L 221.480469 582.183594 L 250.820312 565.398438 L 280.5 548.425781 L 280.5 467.246094 C 280.5 467.246094 279.296875 468.015625 277.199219 469.367188 " fill-opacity="1" fill-rule="nonzero"/><path fill="#c76845" d="M 151.71875 538.691406 L 127.28125 524.488281 L 127.28125 545.480469 L 151.71875 559.679688 L 151.71875 538.691406 " fill-opacity="1" fill-rule="nonzero"/><path fill="#fab982" d="M 230.558594 513.125 L 233.21875 515.3125 L 233.226562 515.308594 L 233.234375 515.308594 L 235.890625 510.039062 L 238.546875 512.222656 L 238.585938 512.195312 L 241.21875 506.960938 L 243.863281 509.132812 L 243.945312 509.082031 L 246.558594 503.898438 L 249.171875 506.046875 L 249.3125 505.960938 L 251.890625 500.839844 L 253.894531 502.484375 L 253.949219 483.488281 C 249.902344 485.851562 245.6875 488.304688 241.441406 490.777344 C 236.855469 493.351562 232.292969 495.914062 227.949219 498.347656 L 227.890625 518.410156 L 230.558594 513.125 " fill-opacity="1" fill-rule="nonzero"/><path fill="#f9b094" d="M 173.207031 438.082031 L 173.203125 438.078125 L 169.875 439.984375 L 168.820312 440.585938 L 173.207031 438.082031 " fill-opacity="1" fill-rule="nonzero"/><path fill="#fab56b" d="M 161.785156 444.617188 L 239.886719 489.28125 C 240.0625 489.179688 240.234375 489.078125 240.410156 488.976562 C 244.6875 486.578125 248.929688 484.199219 253.007812 481.910156 L 173.207031 438.082031 L 168.820312 440.585938 L 161.785156 444.617188 " fill-opacity="1" fill-rule="nonzero"/><path fill="#f8a268" d="M 161.785156 444.617188 L 148.808594 452.046875 L 227.027344 496.773438 C 231.167969 494.363281 235.511719 491.828125 239.886719 489.28125 L 161.785156 444.617188 " fill-opacity="1" fill-rule="nonzero"/><path fill="#fabe8e" d="M 201.835938 573.398438 L 202.121094 553.101562 C 202.234375 546.335938 202.257812 539.570312 202.285156 532.804688 L 202.375 512.507812 L 202.375 511.988281 C 202.96875 511.6875 203.796875 511.273438 204.855469 510.738281 C 207.0625 509.574219 210.253906 507.988281 214.011719 505.945312 C 217.761719 503.894531 222.191406 501.589844 226.84375 498.972656 C 227.203125 498.769531 227.585938 498.550781 227.949219 498.347656 C 232.292969 495.914062 236.855469 493.351562 241.441406 490.777344 C 245.6875 488.304688 249.902344 485.851562 253.949219 483.488281 C 254.59375 483.113281 255.269531 482.71875 255.902344 482.351562 C 260.523438 479.664062 264.753906 477.015625 268.421875 474.828125 C 272.085938 472.621094 275.074219 470.675781 277.199219 469.367188 C 279.296875 468.015625 280.5 467.246094 280.5 467.246094 L 280.484375 467.253906 C 280.445312 467.273438 279.191406 467.910156 277 469.019531 C 274.792969 470.179688 271.597656 471.777344 267.84375 473.8125 C 264.089844 475.859375 259.667969 478.171875 255.011719 480.785156 C 254.359375 481.148438 253.667969 481.539062 253.007812 481.910156 C 248.929688 484.199219 244.6875 486.578125 240.410156 488.976562 C 240.234375 489.078125 240.0625 489.179688 239.886719 489.28125 C 235.511719 491.828125 231.167969 494.363281 227.027344 496.773438 C 226.671875 496.980469 226.296875 497.199219 225.949219 497.402344 C 221.328125 500.085938 217.097656 502.730469 213.429688 504.929688 C 209.765625 507.128906 206.777344 509.074219 204.652344 510.386719 C 203.652344 511.027344 202.878906 511.523438 202.316406 511.886719 L 201.859375 511.625 C 195.289062 507.808594 188.648438 504.121094 182.042969 500.359375 C 175.425781 496.625 168.835938 492.84375 162.191406 489.15625 L 142.257812 478.105469 C 135.582031 474.480469 128.929688 470.808594 122.214844 467.25 C 128.6875 471.234375 135.222656 475.097656 141.730469 479.019531 L 161.371094 490.597656 C 167.914062 494.449219 174.519531 498.214844 181.089844 502.023438 C 187.507812 505.710938 193.890625 509.460938 200.335938 513.101562 L 200.425781 532.804688 C 200.449219 539.570312 200.472656 546.335938 200.589844 553.101562 L 200.871094 573.398438 L 201.351562 593.6875 L 201.351562 593.695312 L 201.835938 573.398438 " fill-opacity="1" fill-rule="nonzero"/><path fill="#fabe8e" d="M 122.210938 467.246094 L 122.207031 467.246094 L 122.210938 467.246094 C 122.210938 467.246094 122.214844 467.25 122.214844 467.25 C 122.214844 467.25 122.210938 467.246094 122.210938 467.246094 " fill-opacity="1" fill-rule="nonzero"/><path fill="#585556" d="M 343.5 316.824219 C 343.460938 316.851562 342.691406 317.433594 341.277344 318.484375 C 340.90625 318.742188 340.523438 319.035156 340.078125 319.359375 C 339.578125 319.785156 339.015625 320.246094 338.429688 320.738281 C 337.246094 321.726562 335.921875 322.832031 334.65625 324.140625 C 333.988281 324.777344 333.3125 325.441406 332.617188 326.132812 C 331.941406 326.878906 331.25 327.652344 330.527344 328.457031 C 329.082031 329.972656 327.699219 331.875 326.242188 333.6875 C 324.871094 335.648438 323.414062 337.574219 322.148438 339.71875 C 320.796875 341.789062 319.632812 344.023438 318.441406 346.203125 C 317.371094 348.453125 316.265625 350.636719 315.417969 352.859375 C 314.460938 355.042969 313.800781 357.21875 313.085938 359.285156 C 312.546875 361.363281 311.898438 363.351562 311.578125 365.199219 C 311.40625 366.113281 311.214844 367.003906 311.039062 367.871094 C 310.9375 368.710938 310.835938 369.515625 310.738281 370.289062 C 310.488281 371.855469 310.449219 373.222656 310.394531 374.410156 C 310.367188 375.015625 310.335938 375.582031 310.308594 376.085938 C 310.339844 376.582031 310.355469 377.027344 310.371094 377.441406 C 310.433594 379.074219 310.464844 379.9375 310.464844 379.988281 C 310.46875 379.9375 310.582031 378.984375 310.785156 377.238281 C 310.84375 376.796875 310.902344 376.324219 310.960938 375.796875 C 311.058594 375.246094 311.175781 374.667969 311.292969 374.039062 C 311.3125 373.933594 311.339844 373.804688 311.359375 373.695312 C 311.574219 372.542969 311.8125 371.28125 312.226562 369.851562 C 312.433594 369.085938 312.640625 368.289062 312.859375 367.46875 C 313.132812 366.640625 313.425781 365.78125 313.722656 364.898438 C 314.09375 363.652344 314.632812 362.347656 315.175781 361.023438 C 315.390625 360.492188 315.613281 359.964844 315.820312 359.421875 C 316.554688 357.910156 317.269531 356.359375 318.078125 354.828125 C 318.269531 354.46875 318.433594 354.105469 318.640625 353.753906 C 319.609375 351.847656 320.804688 350.023438 321.921875 348.1875 C 323.171875 346.429688 324.335938 344.671875 325.644531 343.097656 C 326.867188 341.441406 328.238281 340.039062 329.460938 338.617188 C 330.804688 337.351562 331.996094 336 333.25 335.007812 C 333.855469 334.484375 334.433594 333.984375 335.007812 333.480469 C 335.578125 333.046875 336.140625 332.644531 336.6875 332.222656 C 337.128906 331.875 337.53125 331.589844 337.914062 331.328125 C 338.480469 330.949219 339 330.636719 339.472656 330.339844 C 339.871094 330.097656 340.242188 329.863281 340.582031 329.632812 C 341.023438 329.410156 341.421875 329.199219 341.777344 329.015625 C 342.664062 328.542969 343.269531 328.21875 343.636719 328.023438 L 344.578125 328.023438 C 344.941406 328.214844 345.546875 328.53125 346.441406 329.007812 C 346.808594 329.199219 347.210938 329.410156 347.636719 329.640625 C 347.976562 329.851562 348.34375 330.089844 348.742188 330.347656 C 349.539062 330.84375 350.453125 331.375 351.53125 332.230469 C 352.078125 332.628906 352.632812 333.058594 353.210938 333.472656 C 353.789062 333.976562 354.375 334.484375 354.980469 335.007812 C 356.21875 336.007812 357.429688 337.351562 358.753906 338.625 C 359.867188 339.90625 361.097656 341.214844 362.230469 342.675781 C 362.34375 342.820312 362.460938 342.941406 362.570312 343.089844 C 363.898438 344.671875 365.058594 346.441406 366.296875 348.191406 C 367.414062 350.015625 368.605469 351.839844 369.589844 353.753906 C 370.667969 355.625 371.484375 357.542969 372.398438 359.429688 C 373.121094 361.285156 373.984375 363.148438 374.496094 364.886719 C 374.804688 365.78125 375.082031 366.632812 375.363281 367.476562 C 375.578125 368.300781 375.800781 369.105469 376.003906 369.867188 C 376.445312 371.410156 376.691406 372.792969 376.921875 374.050781 C 377.054688 374.667969 377.15625 375.257812 377.257812 375.789062 C 377.332031 376.324219 377.390625 376.796875 377.433594 377.230469 C 377.632812 378.992188 377.746094 379.949219 377.75 379.996094 C 377.753906 379.949219 377.78125 379.0625 377.859375 377.445312 C 377.875 377.042969 377.890625 376.582031 377.910156 376.09375 C 377.878906 375.566406 377.851562 375.011719 377.824219 374.414062 C 377.785156 373.222656 377.726562 371.867188 377.496094 370.300781 C 377.394531 369.515625 377.28125 368.703125 377.175781 367.863281 C 377.003906 366.996094 376.828125 366.113281 376.640625 365.1875 C 376.332031 363.363281 375.675781 361.371094 375.132812 359.292969 C 374.414062 357.230469 373.753906 355.050781 372.800781 352.851562 C 371.964844 350.636719 370.847656 348.445312 369.792969 346.203125 C 368.597656 344.039062 367.4375 341.808594 366.085938 339.734375 C 364.800781 337.570312 363.34375 335.636719 361.976562 333.675781 C 360.519531 331.882812 359.148438 329.988281 357.691406 328.449219 C 356.984375 327.667969 356.277344 326.886719 355.613281 326.144531 C 354.90625 325.449219 354.226562 324.785156 353.582031 324.140625 C 352.296875 322.824219 350.96875 321.714844 349.792969 320.730469 C 349.199219 320.25 348.652344 319.785156 348.140625 319.367188 C 347.710938 319.035156 347.3125 318.738281 346.957031 318.484375 C 345.527344 317.417969 344.757812 316.84375 344.714844 316.8125 L 345.339844 316.453125 C 344.558594 316.523438 343.761719 316.535156 342.96875 316.515625 L 343.5 316.824219 " fill-opacity="1" fill-rule="nonzero"/><path fill="#585556" d="M 325.417969 310.84375 C 325.863281 310.515625 326.246094 310.226562 326.613281 309.964844 C 328.03125 308.90625 328.800781 308.332031 328.839844 308.308594 L 329.058594 308.429688 L 329.050781 308.289062 C 329.011719 308.269531 328.238281 307.953125 326.808594 307.363281 C 326.453125 307.210938 326.054688 307.050781 325.628906 306.886719 C 325.109375 306.707031 324.566406 306.542969 323.976562 306.339844 C 322.777344 305.949219 321.464844 305.535156 320.175781 305.367188 C 319.527344 305.265625 318.847656 305.144531 318.140625 305.023438 C 317.472656 304.996094 316.765625 304.960938 316.054688 304.925781 C 314.59375 304.773438 313.21875 305.085938 311.738281 305.1875 C 310.378906 305.570312 308.914062 305.816406 307.625 306.496094 C 307.152344 306.667969 306.710938 306.902344 306.273438 307.148438 C 305.792969 307.417969 305.339844 307.734375 304.878906 308.042969 C 304.550781 308.257812 304.21875 308.460938 303.894531 308.671875 C 302.828125 309.683594 301.703125 310.582031 300.855469 311.824219 C 299.894531 312.917969 299.222656 314.332031 298.496094 315.558594 C 297.945312 317.007812 297.277344 318.234375 296.960938 319.703125 C 296.765625 320.40625 296.585938 321.082031 296.40625 321.746094 C 296.304688 322.460938 296.179688 323.140625 296.078125 323.8125 C 295.835938 325.097656 295.777344 326.390625 295.722656 327.535156 C 295.695312 328.089844 295.664062 328.617188 295.632812 329.109375 C 295.644531 329.609375 295.660156 330.089844 295.671875 330.507812 C 295.742188 332.214844 295.769531 333.128906 295.769531 333.175781 C 295.777344 333.132812 295.890625 332.316406 296.105469 330.785156 C 296.148438 330.40625 296.207031 330 296.28125 329.554688 C 296.386719 329.136719 296.492188 328.667969 296.628906 328.203125 C 296.867188 327.21875 297.105469 326.121094 297.566406 325.09375 C 297.773438 324.566406 298 324.019531 298.222656 323.453125 C 298.503906 322.933594 298.789062 322.402344 299.082031 321.859375 C 299.617188 320.730469 300.492188 319.871094 301.222656 318.851562 C 301.675781 318.441406 302.105469 317.992188 302.554688 317.574219 L 302.882812 317.316406 C 303.25 316.996094 303.621094 316.667969 304.050781 316.421875 C 304.613281 315.976562 305.253906 315.648438 305.910156 315.347656 C 306.394531 315.121094 306.890625 314.90625 307.367188 314.6875 C 308.007812 314.519531 308.636719 314.324219 309.269531 314.171875 C 309.863281 314.023438 310.460938 313.910156 311.09375 313.882812 C 311.703125 313.777344 312.351562 313.761719 312.992188 313.777344 L 313.496094 313.792969 C 313.988281 313.8125 314.472656 313.839844 314.9375 313.84375 C 316.265625 314.101562 317.480469 314.152344 318.714844 314.582031 C 319.324219 314.761719 319.914062 314.929688 320.492188 315.09375 C 320.503906 315.101562 320.515625 315.105469 320.53125 315.113281 C 321.628906 314.03125 322.75 313.066406 323.765625 312.222656 C 324.355469 311.722656 324.917969 311.265625 325.417969 310.84375 " fill-opacity="1" fill-rule="nonzero"/><path fill="#464344" d="M 311.09375 313.882812 C 310.460938 313.910156 309.863281 314.023438 309.269531 314.171875 C 308.636719 314.324219 308.007812 314.519531 307.367188 314.6875 C 306.890625 314.90625 306.394531 315.121094 305.910156 315.347656 C 305.253906 315.648438 304.613281 315.976562 304.050781 316.421875 C 303.621094 316.667969 303.25 316.996094 302.882812 317.316406 L 302.554688 317.574219 C 302.105469 317.992188 301.675781 318.441406 301.222656 318.851562 C 300.492188 319.871094 299.617188 320.730469 299.082031 321.859375 C 298.789062 322.402344 298.503906 322.933594 298.222656 323.453125 C 298 324.019531 297.773438 324.566406 297.566406 325.09375 C 297.105469 326.121094 296.867188 327.21875 296.628906 328.203125 C 296.492188 328.667969 296.386719 329.136719 296.28125 329.554688 C 296.207031 330 296.148438 330.40625 296.105469 330.785156 C 295.890625 332.316406 295.777344 333.132812 295.769531 333.175781 L 310.429688 324.65625 C 310.4375 324.617188 310.550781 323.792969 310.761719 322.269531 C 310.808594 321.886719 310.871094 321.480469 310.945312 321.03125 C 311.046875 320.617188 311.152344 320.148438 311.289062 319.679688 C 311.527344 318.699219 311.765625 317.597656 312.226562 316.574219 C 312.433594 316.050781 312.660156 315.5 312.882812 314.929688 C 313.085938 314.566406 313.292969 314.179688 313.496094 313.792969 L 312.992188 313.777344 C 312.351562 313.761719 311.703125 313.777344 311.09375 313.882812 " fill-opacity="1" fill-rule="nonzero"/><path fill="#464344" d="M 332.457031 301.21875 C 332.285156 300.964844 332.175781 300.710938 332.058594 300.449219 C 332.164062 300.683594 332.246094 300.921875 332.398438 301.152344 C 332.414062 301.175781 332.441406 301.195312 332.457031 301.21875 " fill-opacity="1" fill-rule="nonzero"/><path fill="#464344" d="M 336.238281 304.109375 C 335.863281 303.941406 335.472656 303.785156 335.132812 303.585938 C 335.085938 303.566406 335.0625 303.535156 335.019531 303.507812 C 335.0625 303.535156 335.085938 303.566406 335.132812 303.589844 C 335.472656 303.785156 335.863281 303.941406 336.238281 304.109375 " fill-opacity="1" fill-rule="nonzero"/><path fill="#464344" d="M 376.46875 316.585938 C 376.929688 317.609375 377.183594 318.71875 377.425781 319.6875 C 377.542969 320.175781 377.664062 320.617188 377.769531 321.03125 C 377.828125 321.488281 377.890625 321.914062 377.949219 322.285156 C 378.164062 323.792969 378.273438 324.617188 378.28125 324.65625 L 389.347656 331.089844 L 392.941406 333.175781 C 392.9375 333.136719 392.824219 332.316406 392.613281 330.808594 C 392.550781 330.433594 392.488281 330.007812 392.429688 329.554688 C 392.324219 329.136719 392.203125 328.695312 392.085938 328.203125 C 391.847656 327.238281 391.59375 326.128906 391.128906 325.101562 C 390.921875 324.582031 390.714844 324.019531 390.488281 323.453125 C 390.207031 322.9375 389.910156 322.429688 389.613281 321.886719 C 389.078125 320.738281 388.21875 319.886719 387.476562 318.859375 C 387.027344 318.449219 386.59375 318 386.136719 317.578125 C 386.121094 317.558594 386.101562 317.546875 386.085938 317.527344 C 385.875 317.34375 385.667969 317.164062 385.453125 316.988281 C 385.363281 316.925781 385.273438 316.871094 385.183594 316.808594 C 385.011719 316.679688 384.832031 316.554688 384.648438 316.453125 L 384.644531 316.445312 L 384.636719 316.445312 C 384.382812 316.238281 384.113281 316.058594 383.832031 315.894531 C 383.039062 315.429688 382.164062 315.09375 381.347656 314.6875 C 380.089844 314.371094 378.921875 313.945312 377.601562 313.890625 C 376.835938 313.75 376.011719 313.773438 375.199219 313.804688 C 375.410156 314.183594 375.628906 314.558594 375.828125 314.9375 C 376.050781 315.5 376.261719 316.058594 376.46875 316.585938 " fill-opacity="1" fill-rule="nonzero"/><path fill="#585556" d="M 364.738281 306.359375 C 364.148438 306.542969 363.585938 306.734375 363.085938 306.886719 C 362.640625 307.074219 362.257812 307.226562 361.890625 307.375 C 360.472656 307.953125 359.6875 308.277344 359.644531 308.292969 L 359.632812 308.488281 C 359.96875 308.734375 360.621094 309.226562 361.617188 309.964844 C 361.972656 310.21875 362.371094 310.515625 362.796875 310.847656 C 363.316406 311.265625 363.863281 311.734375 364.449219 312.214844 C 365.511719 313.101562 366.699219 314.109375 367.859375 315.261719 C 367.984375 315.207031 368.097656 315.164062 368.222656 315.117188 C 368.78125 314.945312 369.375 314.773438 369.976562 314.609375 C 371.234375 314.15625 372.433594 314.109375 373.761719 313.851562 C 374.226562 313.851562 374.710938 313.824219 375.199219 313.804688 C 376.011719 313.773438 376.835938 313.75 377.601562 313.890625 C 378.921875 313.945312 380.089844 314.371094 381.347656 314.6875 C 382.164062 315.09375 383.039062 315.429688 383.832031 315.894531 C 384.113281 316.058594 384.386719 316.238281 384.644531 316.445312 L 384.648438 316.453125 C 384.832031 316.554688 385.011719 316.679688 385.183594 316.808594 C 385.273438 316.871094 385.363281 316.925781 385.453125 316.988281 C 385.667969 317.164062 385.875 317.34375 386.085938 317.527344 C 386.101562 317.546875 386.121094 317.558594 386.136719 317.578125 C 386.59375 318 387.027344 318.449219 387.476562 318.859375 C 388.21875 319.886719 389.078125 320.738281 389.613281 321.886719 C 389.910156 322.429688 390.207031 322.9375 390.488281 323.453125 C 390.714844 324.019531 390.921875 324.582031 391.128906 325.101562 C 391.59375 326.128906 391.847656 327.238281 392.085938 328.203125 C 392.203125 328.695312 392.324219 329.136719 392.429688 329.554688 C 392.488281 330.007812 392.550781 330.433594 392.613281 330.808594 C 392.824219 332.316406 392.9375 333.136719 392.941406 333.175781 C 392.941406 333.128906 392.96875 332.214844 393.023438 330.535156 C 393.035156 330.101562 393.054688 329.632812 393.066406 329.121094 C 393.0625 329.066406 393.058594 329.007812 393.058594 328.960938 C 393.039062 328.503906 393.011719 328.039062 392.984375 327.535156 C 392.921875 326.394531 392.875 325.097656 392.621094 323.820312 C 392.511719 323.152344 392.414062 322.464844 392.289062 321.765625 C 392.109375 321.109375 391.929688 320.414062 391.734375 319.730469 C 391.621094 319.195312 391.453125 318.695312 391.273438 318.207031 L 368.933594 305.308594 C 368.796875 305.332031 368.65625 305.359375 368.519531 305.382812 C 367.25 305.554688 365.917969 305.964844 364.738281 306.359375 " fill-opacity="1" fill-rule="nonzero"/><path fill="#464344" d="M 355.351562 299.269531 C 355.375 299.09375 355.4375 298.921875 355.4375 298.742188 C 355.425781 303.210938 355.414062 303.679688 355.402344 305.832031 C 355.394531 306.707031 355.394531 307.851562 355.386719 309.671875 C 355.386719 310.019531 355.304688 310.371094 355.210938 310.714844 C 354.839844 312.105469 353.769531 313.445312 351.925781 314.519531 C 350.503906 315.339844 348.816406 315.910156 347.015625 316.234375 C 346.464844 316.332031 345.90625 316.402344 345.339844 316.453125 L 344.714844 316.8125 C 344.757812 316.84375 345.527344 317.417969 346.957031 318.484375 C 347.3125 318.738281 347.710938 319.035156 348.140625 319.367188 C 348.652344 319.785156 349.199219 320.25 349.792969 320.730469 C 350.96875 321.714844 352.296875 322.824219 353.582031 324.140625 C 354.226562 324.785156 354.90625 325.449219 355.613281 326.144531 C 356.277344 326.886719 356.984375 327.667969 357.691406 328.449219 C 359.148438 329.988281 360.519531 331.882812 361.976562 333.675781 C 363.34375 335.636719 364.800781 337.570312 366.085938 339.734375 C 367.4375 341.808594 368.597656 344.039062 369.792969 346.203125 C 370.847656 348.445312 371.964844 350.636719 372.800781 352.851562 C 373.753906 355.050781 374.414062 357.230469 375.132812 359.292969 C 375.675781 361.371094 376.332031 363.363281 376.640625 365.1875 C 376.828125 366.113281 377.003906 366.996094 377.175781 367.863281 C 377.28125 368.703125 377.394531 369.515625 377.496094 370.300781 C 377.726562 371.867188 377.785156 373.222656 377.824219 374.414062 C 377.851562 375.011719 377.878906 375.566406 377.910156 376.09375 C 377.890625 376.582031 377.875 377.042969 377.859375 377.445312 C 377.78125 379.0625 377.753906 379.949219 377.75 379.996094 L 392.414062 371.476562 C 392.414062 371.429688 392.441406 370.546875 392.523438 368.921875 C 392.539062 368.527344 392.550781 368.0625 392.570312 367.578125 C 392.539062 367.050781 392.511719 366.492188 392.488281 365.898438 C 392.441406 364.703125 392.390625 363.34375 392.160156 361.785156 C 392.066406 361.085938 391.964844 360.363281 391.878906 359.628906 C 391.863281 359.53125 391.851562 359.4375 391.839844 359.34375 C 391.664062 358.476562 391.488281 357.597656 391.296875 356.667969 C 391.230469 356.289062 391.148438 355.898438 391.058594 355.507812 C 391.035156 355.414062 391.023438 355.324219 391.003906 355.230469 C 390.664062 353.816406 390.199219 352.320312 389.796875 350.773438 C 389.632812 350.300781 389.464844 349.804688 389.300781 349.324219 C 388.753906 347.695312 388.199219 346.027344 387.460938 344.332031 C 386.625 342.117188 385.503906 339.925781 384.449219 337.683594 C 383.925781 336.734375 383.40625 335.769531 382.875 334.8125 C 382.199219 333.585938 381.503906 332.371094 380.746094 331.214844 C 379.464844 329.050781 378.007812 327.121094 376.636719 325.15625 C 375.179688 323.363281 373.808594 321.472656 372.351562 319.929688 C 371.644531 319.144531 370.9375 318.363281 370.273438 317.625 C 369.566406 316.925781 368.886719 316.265625 368.238281 315.621094 C 368.113281 315.492188 367.984375 315.386719 367.859375 315.261719 C 366.699219 314.109375 365.511719 313.101562 364.449219 312.214844 C 363.863281 311.734375 363.316406 311.265625 362.796875 310.847656 C 362.371094 310.515625 361.972656 310.21875 361.617188 309.964844 C 360.621094 309.226562 359.96875 308.734375 359.632812 308.488281 L 359.644531 308.292969 C 359.6875 308.277344 360.472656 307.953125 361.890625 307.375 C 362.257812 307.226562 362.640625 307.074219 363.085938 306.886719 C 363.585938 306.734375 364.148438 306.542969 364.738281 306.359375 C 365.917969 305.964844 367.25 305.554688 368.519531 305.382812 C 368.65625 305.359375 368.796875 305.332031 368.933594 305.308594 L 355.210938 297.386719 C 355.425781 298.011719 355.433594 298.640625 355.351562 299.269531 " fill-opacity="1" fill-rule="nonzero"/><path fill="#464344" d="M 351.980469 303.589844 C 352.558594 303.25 353.0625 302.886719 353.496094 302.503906 C 353.0625 302.886719 352.558594 303.25 351.980469 303.585938 C 351.90625 303.628906 351.816406 303.660156 351.738281 303.703125 C 350.828125 304.207031 349.8125 304.589844 348.734375 304.894531 C 349.8125 304.589844 350.832031 304.207031 351.738281 303.703125 C 351.816406 303.660156 351.90625 303.628906 351.980469 303.589844 " fill-opacity="1" fill-rule="nonzero"/><path fill="#464344" d="M 295.808594 371.46875 L 310.464844 379.988281 C 310.464844 379.9375 310.433594 379.074219 310.371094 377.441406 C 310.355469 377.027344 310.339844 376.582031 310.308594 376.085938 C 310.335938 375.582031 310.367188 375.015625 310.394531 374.410156 C 310.449219 373.222656 310.488281 371.855469 310.738281 370.289062 C 310.835938 369.515625 310.9375 368.710938 311.039062 367.871094 C 311.214844 367.003906 311.40625 366.113281 311.578125 365.199219 C 311.898438 363.351562 312.546875 361.363281 313.085938 359.285156 C 313.800781 357.21875 314.460938 355.042969 315.417969 352.859375 C 316.265625 350.636719 317.371094 348.453125 318.441406 346.203125 C 319.632812 344.023438 320.796875 341.789062 322.148438 339.71875 C 323.414062 337.574219 324.871094 335.648438 326.242188 333.6875 C 327.699219 331.875 329.082031 329.972656 330.527344 328.457031 C 331.25 327.652344 331.941406 326.878906 332.617188 326.132812 C 333.3125 325.441406 333.988281 324.777344 334.65625 324.140625 C 335.921875 322.832031 337.246094 321.726562 338.429688 320.738281 C 339.015625 320.246094 339.578125 319.785156 340.078125 319.359375 C 340.523438 319.035156 340.90625 318.742188 341.277344 318.484375 C 342.691406 317.433594 343.460938 316.851562 343.5 316.824219 L 342.96875 316.515625 C 340.105469 316.441406 337.273438 315.785156 335.078125 314.519531 C 332.867188 313.242188 331.734375 311.589844 331.613281 309.914062 C 331.605469 309.8125 331.5625 309.707031 331.5625 309.605469 C 331.566406 308.433594 331.566406 307.542969 331.570312 306.820312 C 331.585938 303.65625 331.597656 303.792969 331.613281 298.683594 C 331.613281 298.691406 331.617188 298.695312 331.617188 298.699219 C 331.613281 297.949219 331.867188 297.199219 332.289062 296.480469 C 331.769531 296.457031 331.253906 296.433594 330.71875 296.40625 C 329.253906 296.253906 327.878906 296.566406 326.398438 296.667969 C 325.039062 297.050781 323.574219 297.292969 322.285156 297.972656 C 321.769531 298.167969 321.285156 298.414062 320.808594 298.691406 L 306.148438 307.207031 L 306.273438 307.148438 C 306.710938 306.902344 307.152344 306.667969 307.625 306.496094 C 308.914062 305.816406 310.378906 305.570312 311.738281 305.1875 C 313.21875 305.085938 314.59375 304.773438 316.054688 304.925781 C 316.765625 304.960938 317.472656 304.996094 318.140625 305.023438 C 318.847656 305.144531 319.527344 305.265625 320.175781 305.367188 C 321.464844 305.535156 322.777344 305.949219 323.976562 306.339844 C 324.566406 306.542969 325.109375 306.707031 325.628906 306.886719 C 326.054688 307.050781 326.453125 307.210938 326.808594 307.363281 C 328.238281 307.953125 329.011719 308.269531 329.050781 308.289062 L 329.058594 308.429688 L 328.839844 308.308594 C 328.800781 308.332031 328.03125 308.90625 326.613281 309.964844 C 326.246094 310.226562 325.863281 310.515625 325.417969 310.84375 C 324.917969 311.265625 324.355469 311.722656 323.765625 312.222656 C 322.75 313.066406 321.628906 314.03125 320.53125 315.113281 C 320.351562 315.289062 320.171875 315.4375 319.992188 315.621094 C 319.328125 316.261719 318.652344 316.917969 317.957031 317.609375 C 317.277344 318.359375 316.589844 319.132812 315.863281 319.9375 C 314.421875 321.453125 313.039062 323.351562 311.582031 325.164062 C 310.210938 327.128906 308.753906 329.058594 307.488281 331.195312 C 306.132812 333.269531 304.972656 335.5 303.78125 337.683594 C 302.710938 339.933594 301.605469 342.117188 300.753906 344.339844 C 299.800781 346.523438 299.144531 348.703125 298.421875 350.765625 C 297.882812 352.847656 297.238281 354.828125 296.917969 356.675781 C 296.742188 357.597656 296.554688 358.484375 296.378906 359.351562 C 296.277344 360.191406 296.175781 360.992188 296.074219 361.765625 C 295.828125 363.335938 295.789062 364.703125 295.734375 365.890625 C 295.703125 366.496094 295.675781 367.0625 295.648438 367.566406 C 295.648438 367.597656 295.648438 367.621094 295.652344 367.652344 C 295.679688 368.109375 295.695312 368.535156 295.710938 368.921875 C 295.777344 370.554688 295.804688 371.421875 295.808594 371.46875 " fill-opacity="1" fill-rule="nonzero"/><path fill="#b2b1b1" d="M 331.570312 306.820312 C 331.566406 307.542969 331.566406 308.433594 331.5625 309.605469 C 331.5625 309.707031 331.605469 309.8125 331.613281 309.914062 C 331.734375 311.589844 332.867188 313.242188 335.078125 314.519531 C 337.273438 315.785156 340.105469 316.441406 342.96875 316.515625 C 343.761719 316.535156 344.558594 316.523438 345.339844 316.453125 C 345.90625 316.402344 346.464844 316.332031 347.015625 316.234375 C 348.816406 315.910156 350.503906 315.339844 351.925781 314.519531 C 353.769531 313.445312 354.839844 312.105469 355.210938 310.714844 C 355.304688 310.371094 355.386719 310.019531 355.386719 309.671875 C 355.394531 307.851562 355.394531 306.707031 355.402344 305.832031 C 355.414062 303.679688 355.425781 303.210938 355.4375 298.742188 C 355.4375 298.921875 355.375 299.09375 355.351562 299.269531 C 355.316406 299.527344 355.308594 299.785156 355.222656 300.042969 C 355.132812 300.316406 354.964844 300.578125 354.816406 300.847656 C 354.726562 301 354.683594 301.160156 354.578125 301.3125 C 354.3125 301.695312 353.96875 302.0625 353.578125 302.414062 C 353.546875 302.445312 353.53125 302.476562 353.496094 302.503906 C 353.0625 302.886719 352.558594 303.25 351.980469 303.589844 C 351.90625 303.628906 351.816406 303.660156 351.738281 303.703125 C 350.832031 304.207031 349.8125 304.589844 348.734375 304.894531 C 345.472656 305.816406 341.664062 305.816406 338.386719 304.894531 C 337.632812 304.683594 336.917969 304.421875 336.238281 304.109375 C 335.863281 303.941406 335.472656 303.785156 335.132812 303.589844 C 335.085938 303.566406 335.0625 303.535156 335.019531 303.507812 C 334.46875 303.183594 333.976562 302.835938 333.5625 302.464844 C 333.414062 302.335938 333.320312 302.191406 333.1875 302.058594 C 332.921875 301.785156 332.652344 301.507812 332.457031 301.21875 C 332.441406 301.195312 332.414062 301.175781 332.398438 301.152344 C 332.246094 300.921875 332.164062 300.683594 332.058594 300.449219 C 331.988281 300.289062 331.882812 300.140625 331.832031 299.980469 C 331.722656 299.640625 331.679688 299.296875 331.65625 298.949219 C 331.652344 298.867188 331.617188 298.785156 331.617188 298.699219 C 331.617188 298.695312 331.613281 298.691406 331.613281 298.683594 C 331.597656 303.792969 331.585938 303.65625 331.570312 306.820312 " fill-opacity="1" fill-rule="nonzero"/><path fill="#696767" d="M 349.546875 301.488281 C 348.527344 302.082031 347.3125 302.492188 346.023438 302.722656 C 343.097656 303.242188 339.78125 302.832031 337.457031 301.488281 C 335.769531 300.515625 334.929688 299.238281 334.933594 297.960938 C 334.9375 297.019531 334.9375 295.601562 334.941406 293.925781 C 333.695312 294.679688 332.828125 295.550781 332.289062 296.480469 C 331.867188 297.199219 331.613281 297.949219 331.617188 298.699219 C 331.617188 298.785156 331.652344 298.867188 331.65625 298.949219 C 331.679688 299.296875 331.722656 299.640625 331.832031 299.980469 C 331.882812 300.140625 331.988281 300.289062 332.058594 300.449219 C 332.175781 300.710938 332.285156 300.964844 332.457031 301.21875 C 332.652344 301.507812 332.921875 301.785156 333.1875 302.058594 C 333.320312 302.191406 333.414062 302.335938 333.5625 302.464844 C 333.976562 302.835938 334.46875 303.183594 335.019531 303.507812 C 335.0625 303.535156 335.085938 303.566406 335.132812 303.585938 C 335.472656 303.785156 335.863281 303.941406 336.238281 304.109375 C 336.917969 304.421875 337.632812 304.683594 338.386719 304.894531 C 341.664062 305.816406 345.472656 305.816406 348.734375 304.894531 C 349.8125 304.589844 350.828125 304.207031 351.738281 303.703125 C 351.816406 303.660156 351.90625 303.628906 351.980469 303.585938 C 352.558594 303.25 353.0625 302.886719 353.496094 302.503906 C 353.53125 302.476562 353.546875 302.445312 353.578125 302.414062 C 353.96875 302.0625 354.3125 301.695312 354.578125 301.3125 C 354.683594 301.160156 354.726562 301 354.816406 300.847656 C 354.964844 300.578125 355.132812 300.316406 355.222656 300.042969 C 355.308594 299.785156 355.316406 299.527344 355.351562 299.269531 C 355.433594 298.640625 355.425781 298.011719 355.210938 297.386719 L 352.039062 295.550781 C 352.035156 296.535156 352.035156 297.382812 352.03125 298.015625 C 352.023438 299.269531 351.199219 300.527344 349.546875 301.488281 " fill-opacity="1" fill-rule="nonzero"/><path fill="#cccbcb" d="M 489.308594 398.097656 L 423.191406 436.527344 L 423.367188 399.847656 L 489.484375 361.425781 Z M 489.308594 422.578125 L 423.191406 461.007812 L 423.367188 446.601562 L 489.484375 408.179688 Z M 489.308594 448.125 L 423.191406 486.550781 L 423.367188 472.148438 L 489.484375 433.722656 Z M 566.304688 276.058594 L 566.3125 273.871094 L 566.371094 251.421875 L 566.425781 234.445312 L 531.789062 254.574219 L 530.675781 255.21875 L 491.910156 277.753906 L 412.578125 323.851562 L 412.546875 335.960938 L 412.523438 342.863281 L 412.523438 343.207031 L 412.445312 371.394531 L 412.390625 390.585938 L 412.386719 392.28125 L 412.246094 441.597656 L 411.6875 637.761719 L 451.613281 614.566406 C 514.078125 512.195312 551.6875 353.789062 566.289062 282.757812 L 566.304688 276.058594 " fill-opacity="1" fill-rule="nonzero"/><path fill="#dad9d9" d="M 397.28125 281.300781 C 397.097656 281.191406 396.933594 281.078125 396.757812 280.964844 C 396.933594 281.078125 397.09375 281.195312 397.277344 281.300781 C 405.808594 286.222656 419.59375 286.222656 428.070312 281.300781 C 428.59375 280.992188 429.089844 280.675781 429.554688 280.347656 C 429.09375 280.675781 428.59375 280.992188 428.070312 281.300781 C 419.59375 286.222656 405.808594 286.222656 397.28125 281.300781 " fill-opacity="1" fill-rule="nonzero"/><path fill="#dad9d9" d="M 392.285156 276.84375 C 392.3125 276.882812 392.34375 276.921875 392.371094 276.960938 C 392.242188 276.769531 392.136719 276.582031 392.027344 276.390625 C 392.117188 276.542969 392.1875 276.691406 392.285156 276.84375 " fill-opacity="1" fill-rule="nonzero"/><path fill="#dad9d9" d="M 364.226562 273.855469 C 364.238281 273.878906 364.261719 273.890625 364.273438 273.914062 C 364.132812 273.707031 364.042969 273.496094 363.949219 273.285156 C 364.035156 273.476562 364.101562 273.667969 364.226562 273.855469 " fill-opacity="1" fill-rule="nonzero"/><g clip-path="url(#80b1a1a708)"><path fill="#dad9d9" d="M 390.757812 292.292969 C 390.785156 280.800781 390.820312 283.8125 390.851562 272.339844 C 390.851562 272.347656 390.855469 272.355469 390.855469 272.367188 C 390.847656 269.144531 392.953125 265.921875 397.179688 263.464844 C 405.65625 258.539062 419.4375 258.539062 427.96875 263.464844 C 432.460938 266.058594 434.578125 269.503906 434.351562 272.902344 C 434.367188 272.75 434.394531 272.59375 434.394531 272.445312 C 434.363281 283.941406 434.332031 280.921875 434.300781 292.417969 C 434.285156 295.621094 432.179688 298.828125 427.972656 301.269531 C 425.378906 302.777344 422.285156 303.820312 418.996094 304.410156 C 411.554688 305.734375 403.101562 304.6875 397.183594 301.269531 C 392.890625 298.792969 390.746094 295.539062 390.757812 292.292969 Z M 381.726562 280.34375 C 381.71875 281.675781 380.84375 283.011719 379.089844 284.027344 C 378.007812 284.65625 376.71875 285.09375 375.351562 285.335938 C 372.253906 285.890625 368.730469 285.457031 366.269531 284.027344 C 364.480469 282.996094 363.585938 281.640625 363.589844 280.289062 C 363.605469 275.507812 363.617188 276.757812 363.628906 271.980469 C 363.628906 271.984375 363.628906 271.992188 363.628906 271.996094 C 363.625 270.652344 364.503906 269.308594 366.265625 268.285156 C 369.792969 266.234375 375.535156 266.234375 379.089844 268.285156 C 381.101562 269.449219 381.945312 271.027344 381.675781 272.546875 C 381.707031 272.371094 381.765625 272.199219 381.765625 272.027344 C 381.75 276.8125 381.738281 275.550781 381.726562 280.34375 Z M 491.90625 277.75 L 530.671875 255.21875 L 531.785156 254.574219 L 566.417969 234.445312 L 544.542969 221.816406 L 505.140625 199.066406 L 332.777344 99.554688 L 178.9375 188.957031 L 412.578125 323.847656 L 491.90625 277.75 " fill-opacity="1" fill-rule="nonzero"/></g><path fill="#deddde" d="M 412.382812 392.28125 L 412.386719 390.585938 L 412.445312 371.394531 L 412.523438 343.207031 L 412.523438 342.863281 L 412.539062 335.960938 L 412.578125 323.847656 L 178.9375 188.957031 L 178.691406 276.160156 L 178.238281 435.199219 L 184.042969 431.878906 L 184.476562 278.679688 L 184.703125 198.945312 L 334.953125 285.691406 L 352.039062 295.550781 L 355.210938 297.386719 L 368.933594 305.308594 L 391.273438 318.207031 L 401.492188 324.109375 L 406.773438 327.160156 L 406.738281 339.300781 L 406.714844 346.199219 L 406.714844 346.535156 L 406.652344 368.082031 L 406.582031 393.738281 L 406.578125 395.753906 L 406.351562 476.054688 L 406.300781 493.671875 L 406.25 511.90625 L 406.25 511.976562 L 406.132812 553.15625 L 406.027344 590.609375 L 405.902344 634.433594 L 411.6875 637.773438 L 411.6875 637.761719 L 412.246094 441.597656 L 412.382812 392.28125 " fill-opacity="1" fill-rule="nonzero"/><path fill="#464344" d="M 423.191406 436.527344 L 489.308594 398.097656 L 489.484375 361.425781 L 423.367188 399.847656 L 423.191406 436.527344 " fill-opacity="1" fill-rule="nonzero"/><path fill="#464344" d="M 423.191406 461.007812 L 489.308594 422.578125 L 489.484375 408.179688 L 423.367188 446.601562 L 423.191406 461.007812 " fill-opacity="1" fill-rule="nonzero"/><path fill="#464344" d="M 423.191406 486.550781 L 489.308594 448.125 L 489.484375 433.722656 L 423.367188 472.148438 L 423.191406 486.550781 " fill-opacity="1" fill-rule="nonzero"/><path fill="#b2b1b1" d="M 418.996094 304.410156 C 422.285156 303.820312 425.378906 302.777344 427.972656 301.269531 C 432.179688 298.828125 434.285156 295.621094 434.300781 292.417969 C 434.332031 280.921875 434.363281 283.941406 434.394531 272.445312 C 434.394531 272.59375 434.367188 272.75 434.351562 272.902344 C 434.339844 273.144531 434.335938 273.386719 434.296875 273.625 C 434.265625 273.800781 434.207031 273.980469 434.164062 274.160156 C 434.113281 274.378906 434.074219 274.597656 434 274.8125 C 433.933594 275.007812 433.84375 275.199219 433.765625 275.386719 C 433.679688 275.59375 433.609375 275.796875 433.511719 275.996094 C 433.40625 276.191406 433.269531 276.390625 433.152344 276.585938 C 433.039062 276.769531 432.945312 276.960938 432.816406 277.140625 C 432.675781 277.351562 432.496094 277.550781 432.335938 277.753906 C 432.195312 277.921875 432.078125 278.09375 431.925781 278.257812 C 431.746094 278.460938 431.53125 278.648438 431.328125 278.847656 C 431.167969 279.007812 431.015625 279.171875 430.839844 279.332031 C 430.605469 279.53125 430.339844 279.726562 430.085938 279.925781 C 429.902344 280.066406 429.742188 280.210938 429.554688 280.347656 C 429.089844 280.675781 428.59375 280.992188 428.070312 281.300781 C 419.59375 286.222656 405.808594 286.222656 397.277344 281.300781 C 397.09375 281.195312 396.933594 281.078125 396.757812 280.964844 C 396.410156 280.753906 396.0625 280.542969 395.746094 280.316406 C 395.558594 280.183594 395.394531 280.039062 395.21875 279.902344 C 394.941406 279.6875 394.660156 279.476562 394.410156 279.253906 C 394.246094 279.109375 394.109375 278.960938 393.960938 278.8125 C 393.726562 278.589844 393.488281 278.363281 393.285156 278.132812 C 393.148438 277.984375 393.039062 277.828125 392.914062 277.675781 C 392.726562 277.4375 392.535156 277.203125 392.371094 276.960938 C 392.34375 276.921875 392.3125 276.882812 392.285156 276.84375 C 392.1875 276.691406 392.117188 276.542969 392.027344 276.390625 C 391.921875 276.214844 391.808594 276.035156 391.71875 275.851562 C 391.613281 275.636719 391.527344 275.417969 391.4375 275.203125 C 391.375 275.035156 391.296875 274.871094 391.246094 274.707031 C 391.167969 274.464844 391.113281 274.226562 391.058594 273.984375 C 391.027344 273.832031 390.980469 273.6875 390.953125 273.542969 C 390.910156 273.25 390.890625 272.957031 390.878906 272.664062 C 390.875 272.5625 390.855469 272.460938 390.855469 272.367188 C 390.855469 272.355469 390.851562 272.347656 390.851562 272.339844 C 390.820312 283.8125 390.785156 280.800781 390.757812 292.292969 C 390.746094 295.539062 392.890625 298.792969 397.183594 301.269531 C 403.101562 304.6875 411.554688 305.734375 418.996094 304.410156 " fill-opacity="1" fill-rule="nonzero"/><path fill="#7d7b7b" d="M 390.953125 273.542969 C 390.980469 273.6875 391.027344 273.832031 391.058594 273.984375 C 391.113281 274.226562 391.167969 274.464844 391.246094 274.707031 C 391.296875 274.871094 391.375 275.035156 391.4375 275.203125 C 391.527344 275.417969 391.613281 275.636719 391.71875 275.851562 C 391.808594 276.035156 391.921875 276.214844 392.027344 276.390625 C 392.136719 276.582031 392.242188 276.769531 392.371094 276.960938 C 392.535156 277.203125 392.726562 277.4375 392.914062 277.675781 C 393.039062 277.828125 393.148438 277.984375 393.285156 278.132812 C 393.488281 278.363281 393.726562 278.589844 393.960938 278.8125 C 394.109375 278.960938 394.246094 279.109375 394.410156 279.253906 C 394.660156 279.476562 394.941406 279.6875 395.21875 279.902344 C 395.394531 280.039062 395.558594 280.183594 395.746094 280.316406 C 396.0625 280.542969 396.410156 280.753906 396.757812 280.964844 C 396.933594 281.078125 397.097656 281.191406 397.28125 281.300781 C 405.808594 286.222656 419.59375 286.222656 428.070312 281.300781 C 428.59375 280.992188 429.09375 280.675781 429.554688 280.347656 C 429.742188 280.210938 429.902344 280.066406 430.085938 279.925781 C 430.339844 279.726562 430.605469 279.53125 430.839844 279.332031 C 431.015625 279.171875 431.167969 279.007812 431.328125 278.847656 C 431.53125 278.648438 431.746094 278.460938 431.925781 278.257812 C 432.078125 278.09375 432.195312 277.921875 432.335938 277.753906 C 432.496094 277.550781 432.675781 277.351562 432.816406 277.140625 C 432.945312 276.960938 433.039062 276.769531 433.152344 276.585938 C 433.269531 276.390625 433.40625 276.191406 433.511719 275.996094 C 433.609375 275.796875 433.679688 275.59375 433.765625 275.386719 C 433.84375 275.199219 433.933594 275.007812 434 274.8125 C 434.074219 274.597656 434.113281 274.378906 434.164062 274.160156 C 434.207031 273.980469 434.265625 273.800781 434.296875 273.625 C 434.335938 273.386719 434.339844 273.144531 434.351562 272.902344 C 434.578125 269.503906 432.460938 266.058594 427.96875 263.464844 C 419.4375 258.539062 405.65625 258.539062 397.179688 263.464844 C 392.953125 265.921875 390.847656 269.144531 390.855469 272.367188 C 390.855469 272.460938 390.875 272.5625 390.878906 272.664062 C 390.890625 272.957031 390.910156 273.25 390.953125 273.542969 " fill-opacity="1" fill-rule="nonzero"/><path fill="#deddde" d="M 565.890625 420.25 L 565.890625 420.117188 L 565.949219 401.882812 L 565.957031 397.511719 L 566.023438 374.664062 L 566.074219 356.015625 L 566.234375 300 L 566.289062 282.757812 C 551.6875 353.789062 514.078125 512.195312 451.613281 614.566406 L 565.527344 548.375 L 565.667969 498.703125 L 565.777344 461.480469 L 565.890625 420.25 " fill-opacity="1" fill-rule="nonzero"/><path fill="#b2b1b1" d="M 381.597656 273.011719 C 381.527344 273.222656 381.398438 273.425781 381.285156 273.632812 C 381.21875 273.75 381.1875 273.871094 381.109375 273.980469 C 380.914062 274.257812 380.660156 274.523438 380.382812 274.78125 C 380.347656 274.8125 380.324219 274.851562 380.285156 274.890625 C 379.953125 275.179688 379.570312 275.457031 379.128906 275.710938 C 375.601562 277.761719 369.859375 277.761719 366.308594 275.710938 C 365.851562 275.445312 365.457031 275.160156 365.113281 274.859375 C 364.992188 274.753906 364.914062 274.632812 364.808594 274.523438 C 364.617188 274.324219 364.414062 274.125 364.273438 273.914062 C 364.261719 273.890625 364.238281 273.878906 364.226562 273.855469 C 364.101562 273.667969 364.035156 273.476562 363.949219 273.285156 C 363.902344 273.179688 363.832031 273.078125 363.796875 272.972656 C 363.699219 272.679688 363.65625 272.386719 363.648438 272.097656 C 363.644531 272.058594 363.628906 272.03125 363.628906 271.996094 C 363.628906 271.992188 363.628906 271.984375 363.628906 271.980469 C 363.617188 276.757812 363.605469 275.507812 363.589844 280.289062 C 363.585938 281.640625 364.480469 282.996094 366.269531 284.027344 C 368.730469 285.457031 372.253906 285.890625 375.351562 285.335938 C 376.71875 285.09375 378.007812 284.65625 379.089844 284.027344 C 380.84375 283.011719 381.71875 281.675781 381.726562 280.34375 C 381.738281 275.550781 381.75 276.8125 381.765625 272.027344 C 381.765625 272.199219 381.707031 272.371094 381.675781 272.546875 C 381.652344 272.703125 381.652344 272.855469 381.597656 273.011719 " fill-opacity="1" fill-rule="nonzero"/><path fill="#7d7b7b" d="M 363.796875 272.972656 C 363.832031 273.078125 363.902344 273.179688 363.949219 273.285156 C 364.042969 273.496094 364.132812 273.707031 364.273438 273.914062 C 364.414062 274.125 364.617188 274.324219 364.808594 274.523438 C 364.914062 274.632812 364.992188 274.753906 365.113281 274.859375 C 365.457031 275.160156 365.851562 275.445312 366.308594 275.710938 C 369.859375 277.761719 375.601562 277.761719 379.128906 275.710938 C 379.570312 275.457031 379.953125 275.179688 380.285156 274.890625 C 380.324219 274.851562 380.347656 274.8125 380.382812 274.78125 C 380.660156 274.523438 380.914062 274.257812 381.109375 273.980469 C 381.1875 273.871094 381.21875 273.75 381.285156 273.632812 C 381.398438 273.425781 381.527344 273.222656 381.597656 273.011719 C 381.652344 272.855469 381.652344 272.703125 381.675781 272.546875 C 381.945312 271.027344 381.101562 269.449219 379.089844 268.285156 C 375.535156 266.234375 369.792969 266.234375 366.265625 268.285156 C 364.503906 269.308594 363.625 270.652344 363.628906 271.996094 C 363.628906 272.03125 363.644531 272.058594 363.648438 272.097656 C 363.65625 272.386719 363.699219 272.679688 363.796875 272.972656 " fill-opacity="1" fill-rule="nonzero"/></svg>