<svg xmlns="http://www.w3.org/2000/svg" xmlns:xlink="http://www.w3.org/1999/xlink" width="1080" zoomAndPan="magnify" viewBox="0 0 810 809.999993" height="1080" preserveAspectRatio="xMidYMid meet" version="1.0"><defs><clipPath id="09b837129a"><path d="M 63.75 62 L 765.75 62 L 765.75 479 L 63.75 479 Z M 63.75 62 " clip-rule="nonzero"/></clipPath><clipPath id="6252e706b5"><path d="M 259 640 L 564 640 L 564 727.976562 L 259 727.976562 Z M 259 640 " clip-rule="nonzero"/></clipPath><clipPath id="1505634208"><path d="M 63.75 462 L 765.75 462 L 765.75 479 L 63.75 479 Z M 63.75 462 " clip-rule="nonzero"/></clipPath><clipPath id="e38c33f6bc"><path d="M 63.75 478 L 765.75 478 L 765.75 572 L 63.75 572 Z M 63.75 478 " clip-rule="nonzero"/></clipPath></defs><path fill="#333333" d="M 468.480469 657.445312 C 466.421875 657.445312 464.363281 656.621094 463.128906 654.976562 C 463.128906 659.503906 365.136719 657.445312 360.609375 657.445312 C 356.078125 657.445312 352.785156 654.152344 352.785156 649.210938 L 352.785156 563.164062 C 352.785156 558.632812 356.078125 555.339844 360.609375 555.339844 C 364.726562 555.339844 438.835938 558.632812 460.65625 562.75 C 461.070312 558.222656 464.363281 555.339844 468.480469 555.339844 C 473.421875 555.339844 476.714844 558.632812 476.714844 563.164062 L 476.714844 648.800781 C 476.714844 653.328125 473.421875 657.445312 468.480469 657.445312 Z M 468.480469 657.445312 " fill-opacity="1" fill-rule="evenodd"/><g clip-path="url(#09b837129a)"><path fill="#969697" d="M 63.75 478.761719 L 63.75 109.042969 C 63.75 83.101562 84.75 62.105469 110.277344 62.105469 L 718.8125 62.105469 C 744.75 62.105469 765.75 83.101562 765.75 109.042969 L 765.75 478.761719 Z M 63.75 478.761719 " fill-opacity="1" fill-rule="evenodd"/></g><g clip-path="url(#6252e706b5)"><path fill="#707071" d="M 554.945312 727.847656 L 267.554688 727.847656 C 263.027344 727.847656 259.734375 724.144531 259.734375 719.613281 L 259.734375 684.207031 C 259.734375 660.328125 279.085938 640.976562 302.964844 640.976562 L 519.945312 640.976562 C 544.238281 640.976562 563.589844 660.328125 563.589844 684.207031 L 563.589844 719.613281 C 563.589844 724.144531 559.472656 727.847656 554.945312 727.847656 Z M 554.945312 727.847656 " fill-opacity="1" fill-rule="evenodd"/></g><g clip-path="url(#1505634208)"><path fill="#f0f0f0" d="M 63.75 462.703125 L 765.75 462.703125 L 765.75 478.761719 L 63.75 478.761719 Z M 63.75 462.703125 " fill-opacity="1" fill-rule="evenodd"/></g><g clip-path="url(#e38c33f6bc)"><path fill="#5c5c5c" d="M 414.542969 478.761719 L 765.75 478.761719 L 765.75 524.875 C 765.75 550.398438 744.75 571.808594 718.8125 571.808594 L 110.277344 571.808594 C 84.75 571.808594 63.75 550.398438 63.75 524.875 L 63.75 478.761719 Z M 414.542969 478.761719 " fill-opacity="1" fill-rule="evenodd"/></g><path fill="#a7a7a7" d="M 671.050781 549.988281 C 655.40625 549.988281 643.054688 537.226562 643.054688 521.992188 C 643.054688 506.347656 655.40625 493.996094 671.050781 493.996094 C 686.285156 493.996094 699.050781 506.347656 699.050781 521.992188 C 699.050781 537.226562 686.285156 549.988281 671.050781 549.988281 Z M 671.050781 549.988281 " fill-opacity="1" fill-rule="evenodd"/><path fill="#a7a7a7" d="M 601.058594 549.988281 C 585.824219 549.988281 573.058594 537.226562 573.058594 521.992188 C 573.058594 506.347656 585.824219 493.996094 601.058594 493.996094 C 616.703125 493.996094 629.054688 506.347656 629.054688 521.992188 C 629.054688 537.226562 616.703125 549.988281 601.058594 549.988281 Z M 601.058594 549.988281 " fill-opacity="1" fill-rule="evenodd"/><path fill="#fbfbfb" d="M 563.589844 427.296875 L 265.910156 427.296875 C 261.378906 427.296875 257.675781 423.589844 257.675781 419.0625 L 257.675781 121.394531 C 257.675781 116.863281 261.378906 113.570312 265.910156 113.570312 L 563.589844 113.570312 C 568.121094 113.570312 571.414062 116.863281 571.414062 121.394531 L 571.414062 419.0625 C 571.414062 423.589844 568.121094 427.296875 563.589844 427.296875 Z M 563.589844 427.296875 " fill-opacity="1" fill-rule="evenodd"/><path fill="#1f1f1f" d="M 373.78125 237.085938 L 302.554688 237.085938 C 298.023438 237.085938 294.320312 233.378906 294.320312 228.851562 L 294.320312 156.800781 C 294.320312 152.273438 298.023438 148.976562 302.554688 148.976562 L 374.605469 148.976562 C 379.136719 148.976562 382.429688 152.273438 382.429688 156.800781 L 382.429688 228.851562 C 382.429688 232.96875 378.3125 237.085938 373.78125 237.085938 Z M 310.375 220.203125 L 365.960938 220.203125 L 365.960938 165.035156 L 310.375 165.035156 Z M 310.375 220.203125 " fill-opacity="1" fill-rule="evenodd"/><path fill="#282828" d="M 344.550781 207.441406 L 332.199219 207.441406 C 327.667969 207.441406 323.964844 203.734375 323.964844 199.207031 L 323.964844 186.03125 C 323.964844 181.503906 327.667969 178.210938 332.199219 178.210938 L 344.550781 178.210938 C 349.078125 178.210938 352.785156 181.503906 352.785156 186.03125 L 352.785156 198.796875 C 352.785156 203.734375 349.078125 207.441406 344.550781 207.441406 Z M 344.550781 207.441406 " fill-opacity="1" fill-rule="evenodd"/><path fill="#1f1f1f" d="M 373.78125 378.714844 L 302.554688 378.714844 C 298.023438 378.714844 294.320312 375.007812 294.320312 370.480469 L 294.320312 298.84375 C 294.320312 293.902344 298.023438 290.609375 302.554688 290.609375 L 374.605469 290.609375 C 379.136719 290.609375 382.429688 293.902344 382.429688 298.84375 L 382.429688 370.480469 C 382.429688 375.007812 378.3125 378.714844 373.78125 378.714844 Z M 310.375 362.65625 L 365.960938 362.65625 L 365.960938 307.078125 L 310.375 307.078125 Z M 310.375 362.65625 " fill-opacity="1" fill-rule="evenodd"/><path fill="#282828" d="M 344.550781 349.070312 L 332.199219 349.070312 C 327.667969 349.070312 323.964844 345.367188 323.964844 340.835938 L 323.964844 328.484375 C 323.964844 323.957031 327.667969 320.25 332.199219 320.25 L 344.550781 320.25 C 349.078125 320.25 352.785156 323.957031 352.785156 328.484375 L 352.785156 340.835938 C 352.785156 345.367188 349.078125 349.070312 344.550781 349.070312 Z M 344.550781 349.070312 " fill-opacity="1" fill-rule="evenodd"/><path fill="#1f1f1f" d="M 532.710938 237.085938 L 460.65625 237.085938 C 456.128906 237.085938 452.835938 233.378906 452.835938 228.851562 L 452.835938 156.800781 C 452.835938 152.273438 456.128906 148.976562 460.65625 148.976562 L 532.710938 148.976562 C 537.238281 148.976562 540.535156 152.273438 540.535156 156.800781 L 540.535156 228.851562 C 540.535156 232.96875 537.238281 237.085938 532.710938 237.085938 Z M 468.480469 220.203125 L 524.0625 220.203125 L 524.0625 165.035156 L 468.480469 165.035156 Z M 468.480469 220.203125 " fill-opacity="1" fill-rule="evenodd"/><path fill="#282828" d="M 503.066406 207.441406 L 490.300781 207.441406 C 485.773438 207.441406 482.480469 203.734375 482.480469 199.207031 L 482.480469 186.03125 C 482.480469 181.503906 485.773438 178.210938 490.300781 178.210938 L 503.066406 178.210938 C 507.59375 178.210938 510.890625 181.503906 510.890625 186.03125 L 510.890625 198.796875 C 510.890625 203.734375 507.59375 207.441406 503.066406 207.441406 Z M 503.066406 207.441406 " fill-opacity="1" fill-rule="evenodd"/><path fill="#1f1f1f" d="M 460.65625 378.714844 C 456.128906 378.714844 452.835938 375.007812 452.835938 370.480469 L 452.835938 298.84375 C 452.835938 293.902344 456.128906 290.609375 460.65625 290.609375 L 532.710938 290.609375 C 537.238281 290.609375 540.535156 293.902344 540.535156 298.84375 C 540.535156 303.371094 537.238281 306.664062 532.710938 306.664062 L 468.480469 306.664062 L 468.480469 370.070312 C 468.480469 375.007812 465.1875 378.714844 460.65625 378.714844 Z M 460.65625 378.714844 " fill-opacity="1" fill-rule="evenodd"/><path fill="#282828" d="M 503.066406 349.070312 L 490.300781 349.070312 C 485.773438 349.070312 482.480469 345.367188 482.480469 340.835938 L 482.480469 328.484375 C 482.480469 323.957031 485.773438 320.25 490.300781 320.25 L 503.066406 320.25 C 507.59375 320.25 510.890625 323.957031 510.890625 328.484375 L 510.890625 340.835938 C 510.890625 345.367188 507.59375 349.070312 503.066406 349.070312 Z M 503.066406 349.070312 " fill-opacity="1" fill-rule="evenodd"/><path fill="#1f1f1f" d="M 366.785156 275.375 L 292.261719 275.375 C 287.730469 275.375 284.027344 271.667969 284.027344 267.140625 C 284.027344 262.609375 287.730469 259.316406 292.261719 259.316406 L 366.785156 259.316406 C 371.722656 259.316406 375.019531 262.609375 375.019531 267.140625 C 375.019531 271.667969 371.722656 275.375 366.785156 275.375 Z M 366.785156 275.375 " fill-opacity="1" fill-rule="evenodd"/><path fill="#1f1f1f" d="M 405.898438 275.375 L 394.371094 275.375 C 389.839844 275.375 386.546875 271.667969 386.546875 267.140625 C 386.546875 262.609375 389.839844 259.316406 394.371094 259.316406 L 405.898438 259.316406 C 410.425781 259.316406 413.71875 262.609375 413.71875 267.140625 C 413.71875 271.667969 410.425781 275.375 405.898438 275.375 Z M 405.898438 275.375 " fill-opacity="1" fill-rule="evenodd"/><path fill="#1f1f1f" d="M 506.359375 275.375 L 429.777344 275.375 C 425.25 275.375 421.957031 271.667969 421.957031 267.140625 C 421.957031 262.609375 425.25 259.316406 429.777344 259.316406 L 506.359375 259.316406 C 510.890625 259.316406 514.183594 262.609375 514.183594 267.140625 C 514.183594 271.667969 510.890625 275.375 506.359375 275.375 Z M 506.359375 275.375 " fill-opacity="1" fill-rule="evenodd"/><path fill="#1f1f1f" d="M 537.238281 275.375 L 525.710938 275.375 C 521.183594 275.375 517.886719 271.667969 517.886719 267.140625 C 517.886719 262.609375 521.183594 259.316406 525.710938 259.316406 L 537.238281 259.316406 C 541.769531 259.316406 545.0625 262.609375 545.0625 267.140625 C 545.0625 271.667969 541.769531 275.375 537.238281 275.375 Z M 537.238281 275.375 " fill-opacity="1" fill-rule="evenodd"/><path fill="#1f1f1f" d="M 417.425781 401.359375 C 412.484375 401.359375 409.191406 398.066406 409.191406 393.535156 L 409.191406 321.484375 C 409.191406 316.957031 412.484375 313.664062 417.425781 313.664062 C 421.957031 313.664062 425.25 316.957031 425.25 321.484375 L 425.25 392.714844 C 425.25 397.652344 421.957031 401.359375 417.425781 401.359375 Z M 417.425781 401.359375 " fill-opacity="1" fill-rule="evenodd"/><path fill="#1f1f1f" d="M 417.425781 311.195312 C 412.484375 311.195312 409.191406 307.898438 409.191406 303.371094 L 409.191406 291.019531 C 409.191406 286.492188 412.484375 283.195312 417.425781 283.195312 C 421.957031 283.195312 425.25 286.492188 425.25 291.019531 L 425.25 303.371094 C 425.25 307.078125 421.957031 311.195312 417.425781 311.195312 Z M 417.425781 311.195312 " fill-opacity="1" fill-rule="evenodd"/><path fill="#1f1f1f" d="M 417.425781 250.671875 C 412.484375 250.671875 409.191406 247.378906 409.191406 242.847656 L 409.191406 156.800781 C 409.191406 152.273438 412.484375 148.976562 417.425781 148.976562 C 421.957031 148.976562 425.25 152.273438 425.25 156.800781 L 425.25 242.023438 C 425.25 246.554688 421.957031 250.671875 417.425781 250.671875 Z M 417.425781 250.671875 " fill-opacity="1" fill-rule="evenodd"/><path fill="#1f1f1f" d="M 417.425781 167.917969 C 412.484375 167.917969 409.191406 164.210938 409.191406 159.683594 L 409.191406 147.742188 C 409.191406 143.214844 412.484375 139.921875 417.425781 139.921875 C 421.957031 139.921875 425.25 143.214844 425.25 147.742188 L 425.25 159.683594 C 425.25 163.800781 421.957031 167.917969 417.425781 167.917969 Z M 417.425781 167.917969 " fill-opacity="1" fill-rule="evenodd"/></svg>