<svg xmlns="http://www.w3.org/2000/svg" xmlns:xlink="http://www.w3.org/1999/xlink" width="1080" zoomAndPan="magnify" viewBox="0 0 810 809.999993" height="1080" preserveAspectRatio="xMidYMid meet" version="1.0"><defs><clipPath id="0b14374fe6"><path d="M 55.175781 68.085938 L 200 68.085938 L 200 213 L 55.175781 213 Z M 55.175781 68.085938 " clip-rule="nonzero"/></clipPath><clipPath id="5e37e4294c"><path d="M 583.390625 68.085938 L 728.664062 68.085938 L 728.664062 213 L 583.390625 213 Z M 583.390625 68.085938 " clip-rule="nonzero"/></clipPath><clipPath id="a9268d142b"><path d="M 55.175781 596 L 200 596 L 200 741.585938 L 55.175781 741.585938 Z M 55.175781 596 " clip-rule="nonzero"/></clipPath><clipPath id="70a030e4d3"><path d="M 583.390625 596.304688 L 728.664062 596.304688 L 728.664062 741.585938 L 583.390625 741.585938 Z M 583.390625 596.304688 " clip-rule="nonzero"/></clipPath></defs><path fill="#4d4d4d" d="M 279.589844 292.515625 L 151.695312 292.515625 L 151.695312 164.613281 L 279.589844 164.613281 Z M 127.152344 140.070312 L 127.152344 317.054688 L 304.136719 317.054688 L 304.136719 140.070312 Z M 252.847656 191.363281 L 178.441406 191.363281 L 178.441406 265.769531 L 252.847656 265.769531 L 252.847656 191.363281 " fill-opacity="1" fill-rule="nonzero"/><path fill="#4d4d4d" d="M 632.140625 292.515625 L 504.246094 292.515625 L 504.246094 164.613281 L 632.140625 164.613281 Z M 479.699219 140.070312 L 479.699219 317.054688 L 656.6875 317.054688 L 656.6875 140.070312 Z M 605.398438 191.363281 L 530.984375 191.363281 L 530.984375 265.769531 L 605.398438 265.769531 L 605.398438 191.363281 " fill-opacity="1" fill-rule="nonzero"/><path fill="#4d4d4d" d="M 279.589844 645.0625 L 151.695312 645.0625 L 151.695312 517.160156 L 279.589844 517.160156 Z M 127.152344 492.617188 L 127.152344 669.601562 L 304.136719 669.601562 L 304.136719 492.617188 Z M 252.847656 543.910156 L 178.441406 543.910156 L 178.441406 618.320312 L 252.847656 618.320312 L 252.847656 543.910156 " fill-opacity="1" fill-rule="nonzero"/><path fill="#4d4d4d" d="M 152.367188 367.011719 L 127.152344 367.011719 L 127.152344 341.796875 L 152.367188 341.796875 L 152.367188 367.011719 " fill-opacity="1" fill-rule="nonzero"/><path fill="#4d4d4d" d="M 177.582031 367.011719 L 152.367188 367.011719 L 152.367188 341.796875 L 177.582031 341.796875 L 177.582031 367.011719 " fill-opacity="1" fill-rule="nonzero"/><path fill="#4d4d4d" d="M 202.796875 367.011719 L 177.582031 367.011719 L 177.582031 341.796875 L 202.796875 341.796875 L 202.796875 367.011719 " fill-opacity="1" fill-rule="nonzero"/><path fill="#4d4d4d" d="M 253.226562 367.011719 L 228.011719 367.011719 L 228.011719 341.796875 L 253.226562 341.796875 L 253.226562 367.011719 " fill-opacity="1" fill-rule="nonzero"/><path fill="#4d4d4d" d="M 278.441406 367.011719 L 253.226562 367.011719 L 253.226562 341.796875 L 278.441406 341.796875 L 278.441406 367.011719 " fill-opacity="1" fill-rule="nonzero"/><path fill="#4d4d4d" d="M 303.660156 367.011719 L 278.441406 367.011719 L 278.441406 341.796875 L 303.660156 341.796875 L 303.660156 367.011719 " fill-opacity="1" fill-rule="nonzero"/><path fill="#4d4d4d" d="M 328.875 367.011719 L 303.660156 367.011719 L 303.660156 341.796875 L 328.875 341.796875 L 328.875 367.011719 " fill-opacity="1" fill-rule="nonzero"/><path fill="#4d4d4d" d="M 354.089844 367.011719 L 328.875 367.011719 L 328.875 341.796875 L 354.089844 341.796875 L 354.089844 367.011719 " fill-opacity="1" fill-rule="nonzero"/><path fill="#4d4d4d" d="M 354.089844 392.226562 L 328.875 392.226562 L 328.875 367.011719 L 354.089844 367.011719 L 354.089844 392.226562 " fill-opacity="1" fill-rule="nonzero"/><path fill="#4d4d4d" d="M 328.875 392.226562 L 303.660156 392.226562 L 303.660156 367.011719 L 328.875 367.011719 L 328.875 392.226562 " fill-opacity="1" fill-rule="nonzero"/><path fill="#4d4d4d" d="M 328.875 417.441406 L 303.660156 417.441406 L 303.660156 392.226562 L 328.875 392.226562 L 328.875 417.441406 " fill-opacity="1" fill-rule="nonzero"/><path fill="#4d4d4d" d="M 303.660156 417.441406 L 278.441406 417.441406 L 278.441406 392.226562 L 303.660156 392.226562 L 303.660156 417.441406 " fill-opacity="1" fill-rule="nonzero"/><path fill="#4d4d4d" d="M 303.660156 442.65625 L 278.441406 442.65625 L 278.441406 417.441406 L 303.660156 417.441406 L 303.660156 442.65625 " fill-opacity="1" fill-rule="nonzero"/><path fill="#4d4d4d" d="M 354.089844 442.65625 L 328.875 442.65625 L 328.875 417.441406 L 354.089844 417.441406 L 354.089844 442.65625 " fill-opacity="1" fill-rule="nonzero"/><path fill="#4d4d4d" d="M 354.089844 493.085938 L 328.875 493.085938 L 328.875 467.871094 L 354.089844 467.871094 L 354.089844 493.085938 " fill-opacity="1" fill-rule="nonzero"/><path fill="#4d4d4d" d="M 354.089844 518.300781 L 328.875 518.300781 L 328.875 493.085938 L 354.089844 493.085938 L 354.089844 518.300781 " fill-opacity="1" fill-rule="nonzero"/><path fill="#4d4d4d" d="M 354.089844 543.523438 L 328.875 543.523438 L 328.875 518.300781 L 354.089844 518.300781 L 354.089844 543.523438 " fill-opacity="1" fill-rule="nonzero"/><path fill="#4d4d4d" d="M 354.089844 568.738281 L 328.875 568.738281 L 328.875 543.523438 L 354.089844 543.523438 L 354.089844 568.738281 " fill-opacity="1" fill-rule="nonzero"/><path fill="#4d4d4d" d="M 379.304688 568.738281 L 354.089844 568.738281 L 354.089844 543.523438 L 379.304688 543.523438 L 379.304688 568.738281 " fill-opacity="1" fill-rule="nonzero"/><path fill="#4d4d4d" d="M 379.304688 593.945312 L 354.089844 593.945312 L 354.089844 568.738281 L 379.304688 568.738281 L 379.304688 593.945312 " fill-opacity="1" fill-rule="nonzero"/><path fill="#4d4d4d" d="M 379.304688 619.167969 L 354.089844 619.167969 L 354.089844 593.945312 L 379.304688 593.945312 L 379.304688 619.167969 " fill-opacity="1" fill-rule="nonzero"/><path fill="#4d4d4d" d="M 379.304688 518.300781 L 354.089844 518.300781 L 354.089844 493.085938 L 379.304688 493.085938 L 379.304688 518.300781 " fill-opacity="1" fill-rule="nonzero"/><path fill="#4d4d4d" d="M 404.519531 518.300781 L 379.304688 518.300781 L 379.304688 493.085938 L 404.519531 493.085938 L 404.519531 518.300781 " fill-opacity="1" fill-rule="nonzero"/><path fill="#4d4d4d" d="M 429.734375 493.085938 L 404.519531 493.085938 L 404.519531 467.871094 L 429.734375 467.871094 L 429.734375 493.085938 " fill-opacity="1" fill-rule="nonzero"/><path fill="#4d4d4d" d="M 429.734375 467.871094 L 404.519531 467.871094 L 404.519531 442.65625 L 429.734375 442.65625 L 429.734375 467.871094 " fill-opacity="1" fill-rule="nonzero"/><path fill="#4d4d4d" d="M 404.519531 442.65625 L 379.304688 442.65625 L 379.304688 417.441406 L 404.519531 417.441406 L 404.519531 442.65625 " fill-opacity="1" fill-rule="nonzero"/><path fill="#4d4d4d" d="M 404.519531 417.441406 L 379.304688 417.441406 L 379.304688 392.226562 L 404.519531 392.226562 L 404.519531 417.441406 " fill-opacity="1" fill-rule="nonzero"/><path fill="#4d4d4d" d="M 404.519531 392.226562 L 379.304688 392.226562 L 379.304688 367.011719 L 404.519531 367.011719 L 404.519531 392.226562 " fill-opacity="1" fill-rule="nonzero"/><path fill="#4d4d4d" d="M 429.734375 367.011719 L 404.519531 367.011719 L 404.519531 341.796875 L 429.734375 341.796875 L 429.734375 367.011719 " fill-opacity="1" fill-rule="nonzero"/><path fill="#4d4d4d" d="M 454.953125 367.011719 L 429.734375 367.011719 L 429.734375 341.796875 L 454.953125 341.796875 L 454.953125 367.011719 " fill-opacity="1" fill-rule="nonzero"/><path fill="#4d4d4d" d="M 480.164062 367.011719 L 454.953125 367.011719 L 454.953125 341.796875 L 480.164062 341.796875 L 480.164062 367.011719 " fill-opacity="1" fill-rule="nonzero"/><path fill="#4d4d4d" d="M 454.953125 392.226562 L 429.734375 392.226562 L 429.734375 367.011719 L 454.953125 367.011719 L 454.953125 392.226562 " fill-opacity="1" fill-rule="nonzero"/><path fill="#4d4d4d" d="M 454.953125 417.441406 L 429.734375 417.441406 L 429.734375 392.226562 L 454.953125 392.226562 L 454.953125 417.441406 " fill-opacity="1" fill-rule="nonzero"/><path fill="#4d4d4d" d="M 454.953125 442.65625 L 429.734375 442.65625 L 429.734375 417.441406 L 454.953125 417.441406 L 454.953125 442.65625 " fill-opacity="1" fill-rule="nonzero"/><path fill="#4d4d4d" d="M 480.164062 467.871094 L 454.953125 467.871094 L 454.953125 442.65625 L 480.164062 442.65625 L 480.164062 467.871094 " fill-opacity="1" fill-rule="nonzero"/><path fill="#4d4d4d" d="M 505.378906 467.871094 L 480.164062 467.871094 L 480.164062 442.65625 L 505.378906 442.65625 L 505.378906 467.871094 " fill-opacity="1" fill-rule="nonzero"/><path fill="#4d4d4d" d="M 530.59375 467.871094 L 505.378906 467.871094 L 505.378906 442.65625 L 530.59375 442.65625 L 530.59375 467.871094 " fill-opacity="1" fill-rule="nonzero"/><path fill="#4d4d4d" d="M 505.378906 493.085938 L 480.164062 493.085938 L 480.164062 467.871094 L 505.378906 467.871094 L 505.378906 493.085938 " fill-opacity="1" fill-rule="nonzero"/><path fill="#4d4d4d" d="M 530.59375 442.65625 L 505.378906 442.65625 L 505.378906 417.441406 L 530.59375 417.441406 L 530.59375 442.65625 " fill-opacity="1" fill-rule="nonzero"/><path fill="#4d4d4d" d="M 530.59375 417.441406 L 505.378906 417.441406 L 505.378906 392.226562 L 530.59375 392.226562 L 530.59375 417.441406 " fill-opacity="1" fill-rule="nonzero"/><path fill="#4d4d4d" d="M 530.59375 392.226562 L 505.378906 392.226562 L 505.378906 367.011719 L 530.59375 367.011719 L 530.59375 392.226562 " fill-opacity="1" fill-rule="nonzero"/><path fill="#4d4d4d" d="M 581.03125 417.441406 L 555.808594 417.441406 L 555.808594 392.226562 L 581.03125 392.226562 L 581.03125 417.441406 " fill-opacity="1" fill-rule="nonzero"/><path fill="#4d4d4d" d="M 581.03125 442.65625 L 555.808594 442.65625 L 555.808594 417.441406 L 581.03125 417.441406 L 581.03125 442.65625 " fill-opacity="1" fill-rule="nonzero"/><path fill="#4d4d4d" d="M 555.808594 442.65625 L 530.59375 442.65625 L 530.59375 417.441406 L 555.808594 417.441406 L 555.808594 442.65625 " fill-opacity="1" fill-rule="nonzero"/><path fill="#4d4d4d" d="M 606.238281 392.226562 L 581.03125 392.226562 L 581.03125 367.011719 L 606.238281 367.011719 L 606.238281 392.226562 " fill-opacity="1" fill-rule="nonzero"/><path fill="#4d4d4d" d="M 606.238281 367.011719 L 581.03125 367.011719 L 581.03125 341.796875 L 606.238281 341.796875 L 606.238281 367.011719 " fill-opacity="1" fill-rule="nonzero"/><path fill="#4d4d4d" d="M 631.453125 367.011719 L 606.238281 367.011719 L 606.238281 341.796875 L 631.453125 341.796875 L 631.453125 367.011719 " fill-opacity="1" fill-rule="nonzero"/><path fill="#4d4d4d" d="M 656.675781 367.011719 L 631.453125 367.011719 L 631.453125 341.796875 L 656.675781 341.796875 L 656.675781 367.011719 " fill-opacity="1" fill-rule="nonzero"/><path fill="#4d4d4d" d="M 656.675781 392.226562 L 631.453125 392.226562 L 631.453125 367.011719 L 656.675781 367.011719 L 656.675781 392.226562 " fill-opacity="1" fill-rule="nonzero"/><path fill="#4d4d4d" d="M 656.675781 417.441406 L 631.453125 417.441406 L 631.453125 392.226562 L 656.675781 392.226562 L 656.675781 417.441406 " fill-opacity="1" fill-rule="nonzero"/><path fill="#4d4d4d" d="M 656.675781 442.65625 L 631.453125 442.65625 L 631.453125 417.441406 L 656.675781 417.441406 L 656.675781 442.65625 " fill-opacity="1" fill-rule="nonzero"/><path fill="#4d4d4d" d="M 656.675781 467.871094 L 631.453125 467.871094 L 631.453125 442.65625 L 656.675781 442.65625 L 656.675781 467.871094 " fill-opacity="1" fill-rule="nonzero"/><path fill="#4d4d4d" d="M 631.453125 467.871094 L 606.238281 467.871094 L 606.238281 442.65625 L 631.453125 442.65625 L 631.453125 467.871094 " fill-opacity="1" fill-rule="nonzero"/><path fill="#4d4d4d" d="M 631.453125 493.085938 L 606.238281 493.085938 L 606.238281 467.871094 L 631.453125 467.871094 L 631.453125 493.085938 " fill-opacity="1" fill-rule="nonzero"/><path fill="#4d4d4d" d="M 606.238281 493.085938 L 581.03125 493.085938 L 581.03125 467.871094 L 606.238281 467.871094 L 606.238281 493.085938 " fill-opacity="1" fill-rule="nonzero"/><path fill="#4d4d4d" d="M 581.03125 493.085938 L 555.808594 493.085938 L 555.808594 467.871094 L 581.03125 467.871094 L 581.03125 493.085938 " fill-opacity="1" fill-rule="nonzero"/><path fill="#4d4d4d" d="M 581.03125 518.300781 L 555.808594 518.300781 L 555.808594 493.085938 L 581.03125 493.085938 L 581.03125 518.300781 " fill-opacity="1" fill-rule="nonzero"/><path fill="#4d4d4d" d="M 555.808594 518.300781 L 530.59375 518.300781 L 530.59375 493.085938 L 555.808594 493.085938 L 555.808594 518.300781 " fill-opacity="1" fill-rule="nonzero"/><path fill="#4d4d4d" d="M 555.808594 543.523438 L 530.59375 543.523438 L 530.59375 518.300781 L 555.808594 518.300781 L 555.808594 543.523438 " fill-opacity="1" fill-rule="nonzero"/><path fill="#4d4d4d" d="M 555.808594 568.738281 L 530.59375 568.738281 L 530.59375 543.523438 L 555.808594 543.523438 L 555.808594 568.738281 " fill-opacity="1" fill-rule="nonzero"/><path fill="#4d4d4d" d="M 530.59375 568.738281 L 505.378906 568.738281 L 505.378906 543.523438 L 530.59375 543.523438 L 530.59375 568.738281 " fill-opacity="1" fill-rule="nonzero"/><path fill="#4d4d4d" d="M 530.59375 593.945312 L 505.378906 593.945312 L 505.378906 568.738281 L 530.59375 568.738281 L 530.59375 593.945312 " fill-opacity="1" fill-rule="nonzero"/><path fill="#4d4d4d" d="M 530.59375 619.167969 L 505.378906 619.167969 L 505.378906 593.945312 L 530.59375 593.945312 L 530.59375 619.167969 " fill-opacity="1" fill-rule="nonzero"/><path fill="#4d4d4d" d="M 530.59375 644.375 L 505.378906 644.375 L 505.378906 619.167969 L 530.59375 619.167969 L 530.59375 644.375 " fill-opacity="1" fill-rule="nonzero"/><path fill="#4d4d4d" d="M 530.59375 669.589844 L 505.378906 669.589844 L 505.378906 644.375 L 530.59375 644.375 L 530.59375 669.589844 " fill-opacity="1" fill-rule="nonzero"/><path fill="#4d4d4d" d="M 505.378906 669.589844 L 480.164062 669.589844 L 480.164062 644.375 L 505.378906 644.375 L 505.378906 669.589844 " fill-opacity="1" fill-rule="nonzero"/><path fill="#4d4d4d" d="M 480.164062 669.589844 L 454.953125 669.589844 L 454.953125 644.375 L 480.164062 644.375 L 480.164062 669.589844 " fill-opacity="1" fill-rule="nonzero"/><path fill="#4d4d4d" d="M 480.164062 644.375 L 454.953125 644.375 L 454.953125 619.167969 L 480.164062 619.167969 L 480.164062 644.375 " fill-opacity="1" fill-rule="nonzero"/><path fill="#4d4d4d" d="M 480.164062 619.167969 L 454.953125 619.167969 L 454.953125 593.945312 L 480.164062 593.945312 L 480.164062 619.167969 " fill-opacity="1" fill-rule="nonzero"/><path fill="#4d4d4d" d="M 505.378906 619.167969 L 480.164062 619.167969 L 480.164062 593.945312 L 505.378906 593.945312 L 505.378906 619.167969 " fill-opacity="1" fill-rule="nonzero"/><path fill="#4d4d4d" d="M 480.164062 593.945312 L 454.953125 593.945312 L 454.953125 568.738281 L 480.164062 568.738281 L 480.164062 593.945312 " fill-opacity="1" fill-rule="nonzero"/><path fill="#4d4d4d" d="M 480.164062 568.738281 L 454.953125 568.738281 L 454.953125 543.523438 L 480.164062 543.523438 L 480.164062 568.738281 " fill-opacity="1" fill-rule="nonzero"/><path fill="#4d4d4d" d="M 505.378906 543.523438 L 480.164062 543.523438 L 480.164062 518.300781 L 505.378906 518.300781 L 505.378906 543.523438 " fill-opacity="1" fill-rule="nonzero"/><path fill="#4d4d4d" d="M 454.953125 518.300781 L 429.734375 518.300781 L 429.734375 493.085938 L 454.953125 493.085938 L 454.953125 518.300781 " fill-opacity="1" fill-rule="nonzero"/><path fill="#4d4d4d" d="M 454.953125 568.738281 L 429.734375 568.738281 L 429.734375 543.523438 L 454.953125 543.523438 L 454.953125 568.738281 " fill-opacity="1" fill-rule="nonzero"/><path fill="#4d4d4d" d="M 429.734375 593.945312 L 404.519531 593.945312 L 404.519531 568.738281 L 429.734375 568.738281 L 429.734375 593.945312 " fill-opacity="1" fill-rule="nonzero"/><path fill="#4d4d4d" d="M 429.734375 619.167969 L 404.519531 619.167969 L 404.519531 593.945312 L 429.734375 593.945312 L 429.734375 619.167969 " fill-opacity="1" fill-rule="nonzero"/><path fill="#4d4d4d" d="M 429.734375 644.375 L 404.519531 644.375 L 404.519531 619.167969 L 429.734375 619.167969 L 429.734375 644.375 " fill-opacity="1" fill-rule="nonzero"/><path fill="#4d4d4d" d="M 429.734375 669.589844 L 404.519531 669.589844 L 404.519531 644.375 L 429.734375 644.375 L 429.734375 669.589844 " fill-opacity="1" fill-rule="nonzero"/><path fill="#4d4d4d" d="M 454.953125 644.375 L 429.734375 644.375 L 429.734375 619.167969 L 454.953125 619.167969 L 454.953125 644.375 " fill-opacity="1" fill-rule="nonzero"/><path fill="#4d4d4d" d="M 404.519531 644.375 L 379.304688 644.375 L 379.304688 619.167969 L 404.519531 619.167969 L 404.519531 644.375 " fill-opacity="1" fill-rule="nonzero"/><path fill="#4d4d4d" d="M 354.089844 644.375 L 328.875 644.375 L 328.875 619.167969 L 354.089844 619.167969 L 354.089844 644.375 " fill-opacity="1" fill-rule="nonzero"/><path fill="#4d4d4d" d="M 354.089844 669.589844 L 328.875 669.589844 L 328.875 644.375 L 354.089844 644.375 L 354.089844 669.589844 " fill-opacity="1" fill-rule="nonzero"/><path fill="#4d4d4d" d="M 379.304688 669.589844 L 354.089844 669.589844 L 354.089844 644.375 L 379.304688 644.375 L 379.304688 669.589844 " fill-opacity="1" fill-rule="nonzero"/><path fill="#4d4d4d" d="M 555.808594 644.375 L 530.59375 644.375 L 530.59375 619.167969 L 555.808594 619.167969 L 555.808594 644.375 " fill-opacity="1" fill-rule="nonzero"/><path fill="#4d4d4d" d="M 581.03125 644.375 L 555.808594 644.375 L 555.808594 619.167969 L 581.03125 619.167969 L 581.03125 644.375 " fill-opacity="1" fill-rule="nonzero"/><path fill="#4d4d4d" d="M 606.238281 644.375 L 581.03125 644.375 L 581.03125 619.167969 L 606.238281 619.167969 L 606.238281 644.375 " fill-opacity="1" fill-rule="nonzero"/><path fill="#4d4d4d" d="M 631.453125 644.375 L 606.238281 644.375 L 606.238281 619.167969 L 631.453125 619.167969 L 631.453125 644.375 " fill-opacity="1" fill-rule="nonzero"/><path fill="#4d4d4d" d="M 631.453125 619.167969 L 606.238281 619.167969 L 606.238281 593.945312 L 631.453125 593.945312 L 631.453125 619.167969 " fill-opacity="1" fill-rule="nonzero"/><path fill="#4d4d4d" d="M 606.238281 619.167969 L 581.03125 619.167969 L 581.03125 593.945312 L 606.238281 593.945312 L 606.238281 619.167969 " fill-opacity="1" fill-rule="nonzero"/><path fill="#4d4d4d" d="M 606.238281 669.589844 L 581.03125 669.589844 L 581.03125 644.375 L 606.238281 644.375 L 606.238281 669.589844 " fill-opacity="1" fill-rule="nonzero"/><path fill="#4d4d4d" d="M 631.453125 669.589844 L 606.238281 669.589844 L 606.238281 644.375 L 631.453125 644.375 L 631.453125 669.589844 " fill-opacity="1" fill-rule="nonzero"/><path fill="#4d4d4d" d="M 656.675781 644.375 L 631.453125 644.375 L 631.453125 619.167969 L 656.675781 619.167969 L 656.675781 644.375 " fill-opacity="1" fill-rule="nonzero"/><path fill="#4d4d4d" d="M 631.453125 593.945312 L 606.238281 593.945312 L 606.238281 568.738281 L 631.453125 568.738281 L 631.453125 593.945312 " fill-opacity="1" fill-rule="nonzero"/><path fill="#4d4d4d" d="M 631.453125 568.738281 L 606.238281 568.738281 L 606.238281 543.523438 L 631.453125 543.523438 L 631.453125 568.738281 " fill-opacity="1" fill-rule="nonzero"/><path fill="#4d4d4d" d="M 656.675781 568.738281 L 631.453125 568.738281 L 631.453125 543.523438 L 656.675781 543.523438 L 656.675781 568.738281 " fill-opacity="1" fill-rule="nonzero"/><path fill="#4d4d4d" d="M 656.675781 543.523438 L 631.453125 543.523438 L 631.453125 518.300781 L 656.675781 518.300781 L 656.675781 543.523438 " fill-opacity="1" fill-rule="nonzero"/><path fill="#4d4d4d" d="M 656.675781 518.300781 L 631.453125 518.300781 L 631.453125 493.085938 L 656.675781 493.085938 L 656.675781 518.300781 " fill-opacity="1" fill-rule="nonzero"/><path fill="#4d4d4d" d="M 581.03125 568.738281 L 555.808594 568.738281 L 555.808594 543.523438 L 581.03125 543.523438 L 581.03125 568.738281 " fill-opacity="1" fill-rule="nonzero"/><path fill="#4d4d4d" d="M 581.03125 593.945312 L 555.808594 593.945312 L 555.808594 568.738281 L 581.03125 568.738281 L 581.03125 593.945312 " fill-opacity="1" fill-rule="nonzero"/><path fill="#4d4d4d" d="M 505.378906 417.441406 L 480.164062 417.441406 L 480.164062 392.226562 L 505.378906 392.226562 L 505.378906 417.441406 " fill-opacity="1" fill-rule="nonzero"/><path fill="#4d4d4d" d="M 480.164062 417.441406 L 454.953125 417.441406 L 454.953125 392.226562 L 480.164062 392.226562 L 480.164062 417.441406 " fill-opacity="1" fill-rule="nonzero"/><path fill="#4d4d4d" d="M 454.953125 316.582031 L 429.734375 316.582031 L 429.734375 291.363281 L 454.953125 291.363281 L 454.953125 316.582031 " fill-opacity="1" fill-rule="nonzero"/><path fill="#4d4d4d" d="M 429.734375 291.363281 L 404.519531 291.363281 L 404.519531 266.148438 L 429.734375 266.148438 L 429.734375 291.363281 " fill-opacity="1" fill-rule="nonzero"/><path fill="#4d4d4d" d="M 404.519531 291.363281 L 379.304688 291.363281 L 379.304688 266.148438 L 404.519531 266.148438 L 404.519531 291.363281 " fill-opacity="1" fill-rule="nonzero"/><path fill="#4d4d4d" d="M 379.304688 291.363281 L 354.089844 291.363281 L 354.089844 266.148438 L 379.304688 266.148438 L 379.304688 291.363281 " fill-opacity="1" fill-rule="nonzero"/><path fill="#4d4d4d" d="M 379.304688 266.148438 L 354.089844 266.148438 L 354.089844 240.933594 L 379.304688 240.933594 L 379.304688 266.148438 " fill-opacity="1" fill-rule="nonzero"/><path fill="#4d4d4d" d="M 429.734375 266.148438 L 404.519531 266.148438 L 404.519531 240.933594 L 429.734375 240.933594 L 429.734375 266.148438 " fill-opacity="1" fill-rule="nonzero"/><path fill="#4d4d4d" d="M 454.953125 266.148438 L 429.734375 266.148438 L 429.734375 240.933594 L 454.953125 240.933594 L 454.953125 266.148438 " fill-opacity="1" fill-rule="nonzero"/><path fill="#4d4d4d" d="M 454.953125 240.933594 L 429.734375 240.933594 L 429.734375 215.714844 L 454.953125 215.714844 L 454.953125 240.933594 " fill-opacity="1" fill-rule="nonzero"/><path fill="#4d4d4d" d="M 454.953125 190.5 L 429.734375 190.5 L 429.734375 165.285156 L 454.953125 165.285156 L 454.953125 190.5 " fill-opacity="1" fill-rule="nonzero"/><path fill="#4d4d4d" d="M 454.953125 165.285156 L 429.734375 165.285156 L 429.734375 140.070312 L 454.953125 140.070312 L 454.953125 165.285156 " fill-opacity="1" fill-rule="nonzero"/><path fill="#4d4d4d" d="M 404.519531 165.285156 L 379.304688 165.285156 L 379.304688 140.070312 L 404.519531 140.070312 L 404.519531 165.285156 " fill-opacity="1" fill-rule="nonzero"/><path fill="#4d4d4d" d="M 404.519531 190.5 L 379.304688 190.5 L 379.304688 165.285156 L 404.519531 165.285156 L 404.519531 190.5 " fill-opacity="1" fill-rule="nonzero"/><path fill="#4d4d4d" d="M 404.519531 215.714844 L 379.304688 215.714844 L 379.304688 190.5 L 404.519531 190.5 L 404.519531 215.714844 " fill-opacity="1" fill-rule="nonzero"/><path fill="#4d4d4d" d="M 354.089844 215.714844 L 328.875 215.714844 L 328.875 190.5 L 354.089844 190.5 L 354.089844 215.714844 " fill-opacity="1" fill-rule="nonzero"/><path fill="#4d4d4d" d="M 354.089844 240.933594 L 328.875 240.933594 L 328.875 215.714844 L 354.089844 215.714844 L 354.089844 240.933594 " fill-opacity="1" fill-rule="nonzero"/><path fill="#4d4d4d" d="M 354.089844 316.582031 L 328.875 316.582031 L 328.875 291.363281 L 354.089844 291.363281 L 354.089844 316.582031 " fill-opacity="1" fill-rule="nonzero"/><path fill="#4d4d4d" d="M 354.089844 341.796875 L 328.875 341.796875 L 328.875 316.582031 L 354.089844 316.582031 L 354.089844 341.796875 " fill-opacity="1" fill-rule="nonzero"/><path fill="#4d4d4d" d="M 404.519531 341.796875 L 379.304688 341.796875 L 379.304688 316.582031 L 404.519531 316.582031 L 404.519531 341.796875 " fill-opacity="1" fill-rule="nonzero"/><path fill="#4d4d4d" d="M 429.734375 341.796875 L 404.519531 341.796875 L 404.519531 316.582031 L 429.734375 316.582031 L 429.734375 341.796875 " fill-opacity="1" fill-rule="nonzero"/><path fill="#4d4d4d" d="M 328.875 467.871094 L 303.660156 467.871094 L 303.660156 442.65625 L 328.875 442.65625 L 328.875 467.871094 " fill-opacity="1" fill-rule="nonzero"/><path fill="#4d4d4d" d="M 303.660156 467.871094 L 278.441406 467.871094 L 278.441406 442.65625 L 303.660156 442.65625 L 303.660156 467.871094 " fill-opacity="1" fill-rule="nonzero"/><path fill="#4d4d4d" d="M 278.441406 442.65625 L 253.226562 442.65625 L 253.226562 417.441406 L 278.441406 417.441406 L 278.441406 442.65625 " fill-opacity="1" fill-rule="nonzero"/><path fill="#4d4d4d" d="M 253.226562 442.65625 L 228.011719 442.65625 L 228.011719 417.441406 L 253.226562 417.441406 L 253.226562 442.65625 " fill-opacity="1" fill-rule="nonzero"/><path fill="#4d4d4d" d="M 228.011719 442.65625 L 202.796875 442.65625 L 202.796875 417.441406 L 228.011719 417.441406 L 228.011719 442.65625 " fill-opacity="1" fill-rule="nonzero"/><path fill="#4d4d4d" d="M 202.796875 442.65625 L 177.582031 442.65625 L 177.582031 417.441406 L 202.796875 417.441406 L 202.796875 442.65625 " fill-opacity="1" fill-rule="nonzero"/><path fill="#4d4d4d" d="M 177.582031 417.441406 L 152.367188 417.441406 L 152.367188 392.226562 L 177.582031 392.226562 L 177.582031 417.441406 " fill-opacity="1" fill-rule="nonzero"/><path fill="#4d4d4d" d="M 177.582031 467.871094 L 152.367188 467.871094 L 152.367188 442.65625 L 177.582031 442.65625 L 177.582031 467.871094 " fill-opacity="1" fill-rule="nonzero"/><path fill="#4d4d4d" d="M 152.367188 467.871094 L 127.152344 467.871094 L 127.152344 442.65625 L 152.367188 442.65625 L 152.367188 467.871094 " fill-opacity="1" fill-rule="nonzero"/><path fill="#4d4d4d" d="M 152.367188 417.441406 L 127.152344 417.441406 L 127.152344 392.226562 L 152.367188 392.226562 L 152.367188 417.441406 " fill-opacity="1" fill-rule="nonzero"/><path fill="#4d4d4d" d="M 152.367188 392.226562 L 127.152344 392.226562 L 127.152344 367.011719 L 152.367188 367.011719 L 152.367188 392.226562 " fill-opacity="1" fill-rule="nonzero"/><g clip-path="url(#0b14374fe6)"><path fill="#fea621" d="M 79.019531 212.855469 C 65.855469 212.855469 55.175781 202.175781 55.175781 189.007812 L 55.175781 112.566406 C 55.175781 88.039062 75.128906 68.085938 99.648438 68.085938 L 176.097656 68.085938 C 189.261719 68.085938 199.941406 78.769531 199.941406 91.933594 C 199.941406 105.097656 189.261719 115.773438 176.097656 115.773438 L 102.859375 115.773438 L 102.859375 189.007812 C 102.859375 202.175781 92.1875 212.855469 79.019531 212.855469 " fill-opacity="1" fill-rule="nonzero"/></g><g clip-path="url(#5e37e4294c)"><path fill="#fea621" d="M 704.828125 212.855469 C 691.65625 212.855469 680.980469 202.175781 680.980469 189.007812 L 680.980469 115.773438 L 607.746094 115.773438 C 594.578125 115.773438 583.90625 105.097656 583.90625 91.933594 C 583.90625 78.769531 594.578125 68.085938 607.746094 68.085938 L 684.191406 68.085938 C 708.71875 68.085938 728.667969 88.039062 728.667969 112.566406 L 728.667969 189.007812 C 728.667969 202.175781 717.992188 212.855469 704.828125 212.855469 " fill-opacity="1" fill-rule="nonzero"/></g><g clip-path="url(#a9268d142b)"><path fill="#fea621" d="M 176.097656 741.585938 L 99.648438 741.585938 C 75.128906 741.585938 55.175781 721.632812 55.175781 697.105469 L 55.175781 620.664062 C 55.175781 607.5 65.855469 596.820312 79.019531 596.820312 C 92.1875 596.820312 102.859375 607.5 102.859375 620.664062 L 102.859375 693.902344 L 176.097656 693.902344 C 189.261719 693.902344 199.941406 704.574219 199.941406 717.738281 C 199.941406 730.914062 189.261719 741.585938 176.097656 741.585938 " fill-opacity="1" fill-rule="nonzero"/></g><g clip-path="url(#70a030e4d3)"><path fill="#fea621" d="M 684.191406 741.585938 L 607.746094 741.585938 C 594.578125 741.585938 583.90625 730.914062 583.90625 717.738281 C 583.90625 704.574219 594.578125 693.902344 607.746094 693.902344 L 680.980469 693.902344 L 680.980469 620.664062 C 680.980469 607.5 691.65625 596.820312 704.828125 596.820312 C 717.992188 596.820312 728.667969 607.5 728.667969 620.664062 L 728.667969 697.105469 C 728.667969 721.632812 708.71875 741.585938 684.191406 741.585938 " fill-opacity="1" fill-rule="nonzero"/></g></svg>