<svg xmlns="http://www.w3.org/2000/svg" xmlns:xlink="http://www.w3.org/1999/xlink" width="1080" zoomAndPan="magnify" viewBox="0 0 810 809.999993" height="1080" preserveAspectRatio="xMidYMid meet" version="1.0"><defs><clipPath id="9ce52018aa"><path d="M 54 52.800781 L 759.722656 52.800781 L 759.722656 757.050781 L 54 757.050781 Z M 54 52.800781 " clip-rule="nonzero"/></clipPath></defs><g clip-path="url(#9ce52018aa)"><path fill="#e2ece1" d="M 219.28125 52.800781 L 219.28125 292.757812 L 219.335938 292.757812 C 199.113281 341.257812 199.34375 395.839844 219.28125 443.945312 L 219.28125 533.734375 C 214.339844 531.351562 208.261719 532.371094 204.398438 536.632812 L 63.757812 691.511719 C 50.863281 705.710938 52 727.632812 66.367188 740.46875 C 73.015625 746.429688 81.421875 749.328125 89.714844 749.328125 C 99.257812 749.328125 108.800781 745.523438 115.730469 737.910156 L 219.28125 623.8125 L 219.28125 757.050781 L 759.125 757.050781 L 759.125 52.800781 Z M 219.28125 52.800781 " fill-opacity="1" fill-rule="nonzero"/></g><path fill="#e2ece1" d="M 258.871094 504.601562 L 226.890625 539.8125 L 222.347656 535.722656 C 221.382812 534.871094 220.359375 534.246094 219.28125 533.734375 L 219.28125 443.945312 C 228.367188 465.867188 241.601562 486.484375 258.871094 504.601562 Z M 258.871094 504.601562 " fill-opacity="1" fill-rule="nonzero"/><path fill="#e15c63" d="M 640.125 509.199219 L 673.183594 509.199219 L 673.183594 704.289062 L 640.125 704.289062 Z M 640.125 509.199219 " fill-opacity="1" fill-rule="nonzero"/><path fill="#ffc05a" d="M 573.148438 559.519531 L 606.265625 559.519531 L 606.265625 704.289062 L 573.148438 704.289062 Z M 573.148438 559.519531 " fill-opacity="1" fill-rule="nonzero"/><path fill="#e15c63" d="M 547.425781 368.351562 C 547.425781 382.664062 545.265625 396.464844 541.347656 409.46875 L 429.957031 352.789062 L 429.957031 228.691406 C 496.757812 240.734375 547.425781 298.664062 547.425781 368.351562 Z M 547.425781 368.351562 " fill-opacity="1" fill-rule="nonzero"/><path fill="#8bcb8f" d="M 506.242188 600.695312 L 539.359375 600.695312 L 539.359375 704.289062 L 506.242188 704.289062 Z M 506.242188 600.695312 " fill-opacity="1" fill-rule="nonzero"/><path fill="#c2e6f9" d="M 291.929688 346.824219 C 290.507812 353.8125 289.828125 360.96875 289.828125 368.351562 C 289.828125 390.046875 295.960938 410.378906 306.640625 427.585938 L 404.226562 368.351562 L 404.226562 481.824219 C 447.566406 481.824219 485.226562 457.972656 504.652344 422.875 L 404.226562 368.351562 L 404.226562 254.875 C 380.597656 254.875 358.613281 261.976562 340.382812 274.1875 C 315.617188 290.769531 297.722656 316.667969 291.929688 346.824219 Z M 404.226562 197.625 C 499.371094 197.625 576.449219 274.070312 576.449219 368.351562 C 576.449219 462.6875 499.371094 539.132812 404.226562 539.132812 C 309.140625 539.132812 232.058594 462.6875 232.058594 368.351562 C 232.058594 274.070312 309.140625 197.625 404.226562 197.625 Z M 541.347656 409.46875 C 545.265625 396.464844 547.425781 382.664062 547.425781 368.351562 C 547.425781 298.664062 496.757812 240.734375 429.957031 228.691406 L 429.957031 352.789062 Z M 377.925781 507.894531 L 381.390625 411.402344 L 299.425781 465.015625 C 319.875 486.824219 347.140625 502.214844 377.925781 507.894531 Z M 377.925781 507.894531 " fill-opacity="1" fill-rule="nonzero"/><path fill="#8bcb8f" d="M 404.226562 368.351562 L 504.652344 422.875 C 485.226562 457.972656 447.566406 481.824219 404.226562 481.824219 Z M 404.226562 368.351562 " fill-opacity="1" fill-rule="nonzero"/><path fill="#52a7d7" d="M 439.332031 664.875 L 472.390625 664.875 L 472.390625 704.289062 L 439.332031 704.289062 Z M 439.332031 664.875 " fill-opacity="1" fill-rule="nonzero"/><path fill="#f48ca7" d="M 405.476562 566.675781 L 405.476562 704.289062 L 372.359375 704.289062 L 372.359375 564.121094 C 383.324219 565.882812 394.398438 566.734375 405.476562 566.675781 Z M 405.476562 566.675781 " fill-opacity="1" fill-rule="nonzero"/><path fill="#ffa25a" d="M 404.226562 254.875 L 404.226562 368.351562 L 340.382812 274.1875 C 358.613281 261.976562 380.597656 254.875 404.226562 254.875 Z M 404.226562 254.875 " fill-opacity="1" fill-rule="nonzero"/><path fill="#52a7d7" d="M 340.382812 274.1875 L 404.226562 368.351562 L 291.929688 346.824219 C 297.722656 316.667969 315.617188 290.769531 340.382812 274.1875 Z M 340.382812 274.1875 " fill-opacity="1" fill-rule="nonzero"/><path fill="#f48ca7" d="M 404.226562 368.351562 L 306.640625 427.585938 C 295.960938 410.378906 289.828125 390.046875 289.828125 368.351562 C 289.828125 360.96875 290.507812 353.8125 291.929688 346.824219 Z M 404.226562 368.351562 " fill-opacity="1" fill-rule="nonzero"/><path fill="#ffc05a" d="M 381.390625 411.402344 L 377.925781 507.894531 C 347.140625 502.214844 319.875 486.824219 299.425781 465.015625 Z M 381.390625 411.402344 " fill-opacity="1" fill-rule="nonzero"/><path fill="#ffa25a" d="M 305.449219 600.695312 L 338.5625 600.695312 L 338.5625 704.289062 L 305.449219 704.289062 Z M 305.449219 600.695312 " fill-opacity="1" fill-rule="nonzero"/><path fill="#93b2b8" d="M 282.839844 525.953125 L 250.863281 561.167969 L 226.890625 539.8125 L 258.871094 504.601562 C 262.507812 508.40625 266.367188 512.152344 270.402344 515.730469 C 274.433594 519.308594 278.582031 522.773438 282.839844 525.953125 Z M 282.839844 525.953125 " fill-opacity="1" fill-rule="nonzero"/><path fill="#e15c63" d="M 255.40625 565.257812 C 260.632812 569.914062 261.027344 577.863281 256.316406 583.035156 L 219.28125 623.8125 L 115.730469 737.910156 C 108.800781 745.523438 99.257812 749.328125 89.714844 749.328125 C 81.421875 749.328125 73.015625 746.429688 66.367188 740.46875 C 52 727.632812 50.863281 705.710938 63.757812 691.511719 L 204.398438 536.632812 C 208.261719 532.371094 214.339844 531.351562 219.28125 533.734375 C 220.359375 534.246094 221.382812 534.871094 222.347656 535.722656 L 226.890625 539.8125 L 250.863281 561.167969 Z M 255.40625 565.257812 " fill-opacity="1" fill-rule="nonzero"/><path fill="#4d727a" d="M 694.195312 698.609375 L 271.476562 698.609375 C 268.339844 698.609375 265.796875 701.152344 265.796875 704.289062 C 265.796875 707.425781 268.339844 709.96875 271.476562 709.96875 L 694.195312 709.96875 C 697.332031 709.96875 699.875 707.425781 699.875 704.289062 C 699.875 701.152344 697.335938 698.609375 694.195312 698.609375 Z M 694.195312 698.609375 " fill-opacity="1" fill-rule="nonzero"/><path fill="#93b2b8" d="M 673.347656 139.414062 L 333.84375 139.414062 C 330.707031 139.414062 328.164062 136.867188 328.164062 133.734375 C 328.164062 130.597656 330.707031 128.054688 333.84375 128.054688 L 673.347656 128.054688 C 676.484375 128.054688 679.027344 130.597656 679.027344 133.734375 C 679.027344 136.867188 676.488281 139.414062 673.347656 139.414062 Z M 673.347656 139.414062 " fill-opacity="1" fill-rule="nonzero"/><path fill="#93b2b8" d="M 673.347656 208.304688 L 514.132812 208.304688 C 510.996094 208.304688 508.453125 205.757812 508.453125 202.625 C 508.453125 199.488281 510.996094 196.945312 514.132812 196.945312 L 673.347656 196.945312 C 676.484375 196.945312 679.027344 199.488281 679.027344 202.625 C 679.027344 205.757812 676.488281 208.304688 673.347656 208.304688 Z M 673.347656 208.304688 " fill-opacity="1" fill-rule="nonzero"/><path fill="#93b2b8" d="M 673.347656 260.554688 L 568.320312 260.554688 C 565.1875 260.554688 562.640625 258.011719 562.640625 254.875 C 562.640625 251.742188 565.1875 249.195312 568.320312 249.195312 L 673.347656 249.195312 C 676.484375 249.195312 679.027344 251.742188 679.027344 254.875 C 679.027344 258.011719 676.488281 260.554688 673.347656 260.554688 Z M 673.347656 260.554688 " fill-opacity="1" fill-rule="nonzero"/><path fill="#93b2b8" d="M 673.347656 304.96875 L 591.839844 304.96875 C 588.703125 304.96875 586.128906 302.421875 586.128906 299.289062 C 586.128906 296.152344 588.644531 293.609375 591.78125 293.609375 L 673.347656 293.609375 C 676.484375 293.609375 679.027344 296.152344 679.027344 299.289062 C 679.027344 302.421875 676.488281 304.96875 673.347656 304.96875 Z M 673.347656 304.96875 " fill-opacity="1" fill-rule="nonzero"/><path fill="#93b2b8" d="M 673.347656 349.324219 L 602.6875 349.324219 C 599.550781 349.324219 597.007812 346.78125 597.007812 343.644531 C 597.007812 340.511719 599.550781 337.964844 602.6875 337.964844 L 673.347656 337.964844 C 676.484375 337.964844 679.027344 340.511719 679.027344 343.644531 C 679.027344 346.78125 676.488281 349.324219 673.347656 349.324219 Z M 673.347656 349.324219 " fill-opacity="1" fill-rule="nonzero"/><path fill="#93b2b8" d="M 673.347656 393.679688 L 603.3125 393.679688 C 600.175781 393.679688 597.632812 391.136719 597.632812 388 C 597.632812 384.867188 600.175781 382.320312 603.3125 382.320312 L 673.347656 382.320312 C 676.484375 382.320312 679.027344 384.867188 679.027344 388 C 679.027344 391.136719 676.488281 393.679688 673.347656 393.679688 Z M 673.347656 393.679688 " fill-opacity="1" fill-rule="nonzero"/><path fill="#4d727a" d="M 602.691406 343.644531 C 609.679688 398.792969 593.378906 456.550781 552.878906 501.078125 C 513.683594 544.242188 459.777344 566.335938 405.476562 566.675781 C 394.398438 566.734375 383.324219 565.882812 372.359375 564.121094 C 340.609375 559.121094 309.820312 546.402344 282.839844 525.953125 C 278.582031 522.773438 274.433594 519.308594 270.402344 515.730469 C 266.367188 512.152344 262.507812 508.40625 258.871094 504.601562 C 241.601562 486.484375 228.367188 465.867188 219.28125 443.945312 C 199.34375 395.839844 199.113281 341.257812 219.335938 292.757812 C 227.800781 272.3125 239.898438 253 255.632812 235.679688 C 322.660156 161.847656 432.910156 149.578125 514.140625 202.625 C 522.488281 208.019531 530.496094 214.152344 538.109375 220.96875 C 549.695312 231.304688 559.808594 242.722656 568.328125 254.875 C 578.15625 268.847656 585.992188 283.785156 591.785156 299.289062 L 591.84375 299.289062 C 597.183594 313.65625 600.820312 328.539062 602.691406 343.644531 Z M 576.449219 368.351562 C 576.449219 274.070312 499.371094 197.625 404.226562 197.625 C 309.140625 197.625 232.058594 274.070312 232.058594 368.351562 C 232.058594 462.6875 309.140625 539.132812 404.226562 539.132812 C 499.371094 539.132812 576.449219 462.6875 576.449219 368.351562 Z M 576.449219 368.351562 " fill-opacity="1" fill-rule="nonzero"/></svg>