<svg xmlns="http://www.w3.org/2000/svg" xmlns:xlink="http://www.w3.org/1999/xlink" width="1080" zoomAndPan="magnify" viewBox="0 0 810 809.999993" height="1080" preserveAspectRatio="xMidYMid meet" version="1.0"><defs><clipPath id="cbcd9f4870"><path d="M 64 62.027344 L 749.871094 62.027344 L 749.871094 748.277344 L 64 748.277344 Z M 64 62.027344 " clip-rule="nonzero"/></clipPath><clipPath id="d19e81ad9e"><path d="M 181.667969 243 L 192 243 L 192 249.152344 L 181.667969 249.152344 Z M 181.667969 243 " clip-rule="nonzero"/></clipPath><clipPath id="d00987fd6c"><path d="M 177.636719 244.539062 C 177.636719 244.539062 181.457031 242.484375 185.417969 243.359375 C 189.382812 244.234375 191.980469 247.710938 191.980469 247.710938 C 191.980469 247.710938 188.160156 249.769531 184.199219 248.894531 C 180.238281 248.015625 177.636719 244.539062 177.636719 244.539062 " clip-rule="nonzero"/></clipPath></defs><g clip-path="url(#cbcd9f4870)"><path fill="#f2e6dc" d="M 749.703125 405.152344 C 749.703125 594.65625 596.203125 748.277344 406.859375 748.277344 C 217.511719 748.277344 64.011719 594.65625 64.011719 405.152344 C 64.011719 215.652344 217.511719 62.027344 406.859375 62.027344 C 596.203125 62.027344 749.703125 215.652344 749.703125 405.152344 " fill-opacity="1" fill-rule="nonzero"/></g><path fill="#e6d0be" d="M 622.8125 580.4375 C 613.519531 604.550781 586.738281 617.476562 562.097656 609.730469 C 534.890625 601.183594 520.589844 571.480469 530.847656 544.851562 C 540.144531 520.742188 566.921875 507.820312 591.5625 515.5625 C 618.769531 524.113281 633.070312 553.808594 622.8125 580.4375 Z M 663.503906 577.628906 L 655.433594 574.808594 C 656.085938 570.621094 656.390625 566.429688 656.375 562.277344 L 664.765625 560.683594 L 659.378906 532.25 L 650.964844 533.847656 C 649.445312 529.9375 647.628906 526.15625 645.515625 522.539062 L 652.003906 516.945312 L 633.128906 495.015625 L 626.660156 500.59375 C 623.425781 497.988281 619.960938 495.625 616.28125 493.523438 L 619.101562 485.449219 L 591.800781 475.902344 L 588.976562 483.976562 C 584.796875 483.324219 580.609375 483.019531 576.460938 483.039062 L 574.871094 474.644531 L 546.457031 480.035156 L 548.050781 488.449219 C 544.148438 489.96875 540.371094 491.789062 536.75 493.902344 L 531.164062 487.410156 L 509.257812 506.300781 L 514.828125 512.777344 C 512.230469 516.011719 509.863281 519.480469 507.765625 523.164062 L 499.695312 520.339844 L 490.15625 547.664062 L 498.226562 550.484375 C 497.574219 554.675781 497.265625 558.859375 497.289062 563.015625 L 488.898438 564.609375 L 494.285156 593.042969 L 502.695312 591.445312 C 504.214844 595.355469 506.03125 599.132812 508.144531 602.757812 L 501.65625 608.347656 L 520.53125 630.277344 L 527 624.699219 C 530.234375 627.300781 533.703125 629.671875 537.382812 631.765625 L 534.5625 639.839844 L 561.859375 649.386719 L 564.679688 641.3125 C 568.867188 641.964844 573.046875 642.273438 577.195312 642.253906 L 578.789062 650.652344 L 607.203125 645.257812 L 605.605469 636.84375 C 609.507812 635.324219 613.289062 633.5 616.910156 631.390625 L 622.492188 637.878906 L 644.402344 618.988281 L 638.832031 612.519531 C 641.433594 609.277344 643.796875 605.8125 645.894531 602.132812 L 653.964844 604.949219 L 663.503906 577.628906 " fill-opacity="1" fill-rule="nonzero"/><path fill="#f2e6dc" d="M 576.84375 626.792969 C 569.78125 626.792969 562.640625 625.628906 555.683594 623.195312 C 539.527344 617.542969 526.535156 605.933594 519.101562 590.5 C 511.667969 575.066406 510.683594 557.660156 516.328125 541.488281 C 521.421875 526.898438 531.601562 514.648438 544.984375 506.980469 C 558.238281 499.394531 573.75 496.773438 588.671875 499.601562 C 589.121094 499.6875 589.417969 500.121094 589.335938 500.570312 C 589.25 501.015625 588.816406 501.3125 588.367188 501.226562 C 558.300781 495.527344 528 513.074219 517.890625 542.03125 C 512.390625 557.792969 513.347656 574.75 520.589844 589.78125 C 527.832031 604.816406 540.492188 616.128906 556.234375 621.632812 C 583.082031 631.027344 612.882812 621.085938 628.691406 597.464844 C 628.945312 597.082031 629.460938 596.980469 629.839844 597.238281 C 630.214844 597.492188 630.316406 598.007812 630.0625 598.386719 C 617.929688 616.515625 597.765625 626.792969 576.84375 626.792969 " fill-opacity="1" fill-rule="nonzero"/><path fill="#d3bba3" d="M 429.960938 605.476562 C 421.9375 605.476562 414.191406 608.082031 407.667969 613.054688 C 399.445312 619.320312 394.335938 628.445312 393.273438 638.75 C 391.28125 658.101562 404.742188 675.789062 423.914062 679.015625 C 434.117188 680.730469 444.265625 678.226562 452.488281 671.964844 C 460.703125 665.703125 465.816406 656.578125 466.875 646.273438 C 468.871094 626.917969 455.410156 609.234375 436.238281 606.007812 C 434.136719 605.652344 432.039062 605.476562 429.960938 605.476562 Z M 430.195312 681.199219 C 428.023438 681.199219 425.832031 681.015625 423.640625 680.648438 C 403.609375 677.28125 389.550781 658.800781 391.628906 638.578125 C 392.738281 627.8125 398.078125 618.28125 406.664062 611.742188 C 415.25 605.195312 425.847656 602.578125 436.511719 604.375 C 456.542969 607.742188 470.601562 626.222656 468.519531 646.445312 C 467.410156 657.210938 462.070312 666.738281 453.488281 673.28125 C 446.667969 678.480469 438.574219 681.199219 430.195312 681.199219 Z M 427.226562 583.398438 L 427.234375 583.398438 Z M 411.695312 704.328125 L 431.367188 706.996094 L 432.105469 701.515625 C 432.160156 701.117188 432.484375 700.820312 432.886719 700.800781 C 435.941406 700.652344 439.015625 700.265625 442.015625 699.632812 C 442.414062 699.550781 442.796875 699.761719 442.949219 700.132812 L 445.042969 705.242188 L 463.40625 697.710938 L 461.308594 692.582031 C 461.160156 692.214844 461.289062 691.789062 461.628906 691.574219 C 464.195312 689.917969 466.660156 688.039062 468.945312 686 C 469.238281 685.734375 469.683594 685.71875 469.996094 685.960938 L 474.375 689.351562 L 486.519531 673.632812 L 482.152344 670.257812 C 481.835938 670.011719 481.742188 669.578125 481.917969 669.222656 C 483.324219 666.496094 484.519531 663.636719 485.472656 660.722656 C 485.597656 660.34375 485.976562 660.113281 486.367188 660.164062 L 491.84375 660.90625 L 494.507812 641.21875 L 489.03125 640.476562 C 488.632812 640.425781 488.335938 640.097656 488.316406 639.695312 C 488.171875 636.640625 487.78125 633.570312 487.15625 630.5625 C 487.070312 630.171875 487.277344 629.777344 487.648438 629.628906 L 492.761719 627.53125 L 485.234375 609.148438 L 480.105469 611.253906 C 479.738281 611.402344 479.316406 611.273438 479.097656 610.933594 C 477.441406 608.359375 475.566406 605.894531 473.527344 603.609375 C 473.261719 603.316406 473.246094 602.871094 473.488281 602.558594 L 476.875 598.171875 L 461.171875 586.019531 L 457.796875 590.390625 C 457.554688 590.707031 457.121094 590.804688 456.765625 590.621094 C 454.039062 589.21875 451.183594 588.023438 448.277344 587.070312 C 447.898438 586.945312 447.660156 586.566406 447.714844 586.171875 L 448.457031 580.691406 L 428.785156 578.027344 L 428.046875 583.507812 C 427.988281 583.90625 427.664062 584.203125 427.261719 584.222656 C 424.207031 584.367188 421.140625 584.757812 418.136719 585.386719 C 417.738281 585.472656 417.351562 585.257812 417.203125 584.890625 L 415.109375 579.777344 L 396.746094 587.308594 L 398.84375 592.441406 C 398.992188 592.808594 398.863281 593.230469 398.523438 593.449219 C 395.949219 595.105469 393.488281 596.984375 391.207031 599.023438 C 390.914062 599.289062 390.46875 599.304688 390.152344 599.0625 L 385.773438 595.671875 L 373.632812 611.382812 L 378 614.765625 C 378.316406 615.011719 378.410156 615.445312 378.230469 615.796875 C 376.828125 618.523438 375.636719 621.386719 374.679688 624.296875 C 374.554688 624.679688 374.175781 624.90625 373.785156 624.859375 L 368.304688 624.117188 L 365.644531 643.800781 L 371.121094 644.542969 C 371.515625 644.597656 371.816406 644.925781 371.835938 645.328125 C 371.980469 648.386719 372.371094 651.460938 372.996094 654.460938 C 373.078125 654.851562 372.871094 655.242188 372.5 655.394531 L 367.390625 657.492188 L 374.921875 675.871094 L 380.042969 673.769531 C 380.414062 673.621094 380.835938 673.75 381.050781 674.085938 C 382.710938 676.664062 384.585938 679.128906 386.625 681.410156 C 386.890625 681.707031 386.90625 682.152344 386.660156 682.464844 L 383.273438 686.851562 L 398.976562 699 L 402.355469 694.628906 C 402.597656 694.316406 403.03125 694.214844 403.386719 694.398438 C 406.113281 695.804688 408.964844 696.996094 411.875 697.949219 C 412.253906 698.074219 412.492188 698.453125 412.4375 698.851562 Z M 432.074219 708.753906 C 432.035156 708.753906 432 708.75 431.960938 708.746094 L 410.65625 705.859375 C 410.4375 705.828125 410.242188 705.710938 410.109375 705.539062 C 409.976562 705.363281 409.917969 705.144531 409.949219 704.929688 L 410.710938 699.304688 C 408.15625 698.4375 405.65625 697.386719 403.242188 696.183594 L 399.777344 700.667969 C 399.644531 700.839844 399.445312 700.953125 399.230469 700.984375 C 399.015625 701.007812 398.792969 700.949219 398.617188 700.816406 L 381.609375 687.652344 C 381.25 687.375 381.183594 686.851562 381.460938 686.492188 L 384.9375 681.992188 C 383.167969 679.96875 381.523438 677.808594 380.039062 675.558594 L 374.78125 677.714844 C 374.363281 677.890625 373.878906 677.6875 373.703125 677.265625 L 365.550781 657.351562 C 365.46875 657.148438 365.46875 656.921875 365.550781 656.71875 C 365.636719 656.515625 365.800781 656.355469 366 656.273438 L 371.242188 654.125 C 370.722656 651.480469 370.378906 648.785156 370.21875 646.089844 L 364.601562 645.328125 C 364.148438 645.265625 363.835938 644.851562 363.894531 644.398438 L 366.78125 623.078125 C 366.8125 622.855469 366.925781 622.660156 367.097656 622.53125 C 367.273438 622.394531 367.496094 622.335938 367.710938 622.363281 L 373.328125 623.128906 C 374.195312 620.578125 375.242188 618.070312 376.445312 615.65625 L 371.964844 612.1875 C 371.792969 612.054688 371.679688 611.859375 371.652344 611.640625 C 371.625 611.421875 371.683594 611.203125 371.820312 611.027344 L 384.972656 594.007812 C 385.25 593.648438 385.769531 593.578125 386.128906 593.859375 L 390.621094 597.332031 C 392.648438 595.5625 394.808594 593.921875 397.054688 592.433594 L 394.902344 587.175781 C 394.726562 586.75 394.929688 586.265625 395.351562 586.09375 L 415.246094 577.933594 C 415.667969 577.757812 416.148438 577.960938 416.324219 578.382812 L 418.472656 583.632812 C 421.117188 583.109375 423.8125 582.765625 426.5 582.609375 L 427.257812 576.984375 C 427.289062 576.769531 427.402344 576.570312 427.578125 576.4375 C 427.75 576.308594 427.976562 576.246094 428.1875 576.277344 L 449.492188 579.164062 C 449.714844 579.195312 449.910156 579.308594 450.039062 579.484375 C 450.175781 579.65625 450.234375 579.878906 450.203125 580.09375 L 449.441406 585.714844 C 451.988281 586.585938 454.496094 587.632812 456.910156 588.839844 L 460.371094 584.355469 C 460.507812 584.183594 460.703125 584.070312 460.921875 584.039062 C 461.140625 584.015625 461.359375 584.074219 461.535156 584.207031 L 478.539062 597.371094 C 478.710938 597.503906 478.828125 597.703125 478.855469 597.917969 C 478.878906 598.136719 478.820312 598.359375 478.691406 598.53125 L 475.210938 603.027344 C 476.984375 605.054688 478.625 607.214844 480.113281 609.464844 L 485.367188 607.308594 C 485.789062 607.136719 486.269531 607.335938 486.445312 607.757812 L 494.601562 627.671875 C 494.769531 628.089844 494.574219 628.574219 494.148438 628.746094 L 488.90625 630.898438 C 489.429688 633.546875 489.773438 636.242188 489.929688 638.933594 L 495.546875 639.695312 C 496 639.753906 496.316406 640.171875 496.253906 640.625 L 493.371094 661.945312 C 493.339844 662.164062 493.222656 662.363281 493.050781 662.492188 C 492.875 662.625 492.652344 662.683594 492.441406 662.65625 L 486.824219 661.894531 C 485.957031 664.445312 484.90625 666.953125 483.703125 669.363281 L 488.183594 672.832031 C 488.359375 672.96875 488.46875 673.164062 488.5 673.382812 C 488.527344 673.601562 488.464844 673.820312 488.332031 673.992188 L 475.179688 691.015625 C 474.902344 691.375 474.382812 691.445312 474.019531 691.164062 L 469.527344 687.6875 C 467.503906 689.460938 465.34375 691.101562 463.09375 692.585938 L 465.25 697.847656 C 465.332031 698.050781 465.332031 698.28125 465.25 698.484375 C 465.164062 698.683594 465.003906 698.84375 464.800781 698.929688 L 444.902344 707.089844 C 444.484375 707.265625 444 707.0625 443.828125 706.640625 L 441.675781 701.390625 C 439.03125 701.914062 436.339844 702.253906 433.652344 702.414062 L 432.890625 708.039062 C 432.835938 708.449219 432.480469 708.753906 432.074219 708.753906 " fill-opacity="1" fill-rule="nonzero"/><path fill="#8b865c" d="M 737.433594 523.84375 L 336.609375 523.84375 C 336.152344 523.84375 335.785156 523.476562 335.785156 523.019531 C 335.785156 522.5625 336.152344 522.191406 336.609375 522.191406 L 737.433594 522.191406 C 737.890625 522.191406 738.261719 522.5625 738.261719 523.019531 C 738.261719 523.476562 737.890625 523.84375 737.433594 523.84375 " fill-opacity="1" fill-rule="nonzero"/><path fill="#8b865c" d="M 737.816406 531.582031 L 336.996094 531.582031 C 336.539062 531.582031 336.171875 531.210938 336.171875 530.753906 C 336.171875 530.300781 336.539062 529.929688 336.996094 529.929688 L 737.816406 529.929688 C 738.273438 529.929688 738.648438 530.300781 738.648438 530.753906 C 738.648438 531.210938 738.273438 531.582031 737.816406 531.582031 " fill-opacity="1" fill-rule="nonzero"/><path fill="#8b865c" d="M 328.566406 619.257812 L 335.78125 619.257812 L 335.78125 272.472656 L 328.566406 272.472656 L 328.566406 619.257812 M 336.609375 620.910156 L 327.742188 620.910156 C 327.285156 620.910156 326.914062 620.542969 326.914062 620.085938 L 326.914062 271.640625 C 326.914062 271.183594 327.285156 270.816406 327.742188 270.816406 L 336.609375 270.816406 C 337.066406 270.816406 337.433594 271.183594 337.433594 271.640625 L 337.433594 620.085938 C 337.433594 620.542969 337.066406 620.910156 336.609375 620.910156 " fill-opacity="1" fill-rule="nonzero"/><path fill="#8b865c" d="M 739.375 619.820312 L 746.585938 619.820312 L 746.585938 273.035156 L 739.375 273.035156 Z M 747.414062 621.476562 L 738.542969 621.476562 C 738.085938 621.476562 737.71875 621.109375 737.71875 620.652344 L 737.71875 272.207031 C 737.71875 271.75 738.085938 271.382812 738.542969 271.382812 L 747.414062 271.382812 C 747.871094 271.382812 748.242188 271.75 748.242188 272.207031 L 748.242188 620.652344 C 748.242188 621.109375 747.871094 621.476562 747.414062 621.476562 " fill-opacity="1" fill-rule="nonzero"/><path fill="#efbc73" d="M 721.578125 521.640625 L 372.667969 521.640625 L 372.667969 262.703125 L 721.578125 262.703125 L 721.578125 521.640625 " fill-opacity="1" fill-rule="nonzero"/><path fill="#e0aa63" d="M 458.996094 507.433594 C 458.542969 507.433594 458.171875 507.066406 458.171875 506.609375 L 458.171875 277.738281 C 458.171875 277.285156 458.542969 276.914062 458.996094 276.914062 C 459.453125 276.914062 459.824219 277.285156 459.824219 277.738281 L 459.824219 506.609375 C 459.824219 507.066406 459.453125 507.433594 458.996094 507.433594 " fill-opacity="1" fill-rule="nonzero"/><path fill="#e0aa63" d="M 614.792969 507.433594 C 614.339844 507.433594 613.964844 507.066406 613.964844 506.609375 L 613.964844 354.347656 C 613.964844 353.890625 614.339844 353.519531 614.792969 353.519531 C 615.25 353.519531 615.617188 353.890625 615.617188 354.347656 L 615.617188 506.609375 C 615.617188 507.066406 615.25 507.433594 614.792969 507.433594 " fill-opacity="1" fill-rule="nonzero"/><path fill="#f7f1eb" d="M 647.855469 345.976562 C 647.640625 345.976562 647.429688 345.894531 647.273438 345.738281 L 629.953125 328.375 L 615.511719 342.84375 C 615.207031 343.152344 614.660156 343.152344 614.34375 342.84375 L 599.441406 327.902344 L 582.308594 345.070312 C 582.074219 345.308594 581.714844 345.378906 581.410156 345.253906 C 581.101562 345.121094 580.902344 344.824219 580.902344 344.484375 L 580.902344 266.140625 C 580.902344 265.679688 581.265625 265.3125 581.726562 265.3125 C 582.183594 265.3125 582.550781 265.679688 582.550781 266.140625 L 582.550781 342.488281 L 598.855469 326.144531 C 599.164062 325.835938 599.71875 325.835938 600.023438 326.144531 L 614.929688 341.085938 L 629.367188 326.617188 C 629.675781 326.3125 630.226562 326.3125 630.535156 326.617188 L 647.03125 343.152344 L 647.03125 266.140625 C 647.03125 265.679688 647.398438 265.3125 647.855469 265.3125 C 648.3125 265.3125 648.683594 265.679688 648.683594 266.140625 L 648.683594 345.148438 C 648.683594 345.484375 648.484375 345.789062 648.171875 345.917969 C 648.070312 345.957031 647.964844 345.976562 647.855469 345.976562 " fill-opacity="1" fill-rule="nonzero"/><path fill="#e0aa63" d="M 693.050781 262.632812 L 467.621094 262.632812 L 467.621094 95.335938 L 693.050781 95.335938 L 693.050781 262.632812 " fill-opacity="1" fill-rule="nonzero"/><path fill="#efbc73" d="M 523.398438 253.746094 C 522.941406 253.746094 522.574219 253.375 522.574219 252.917969 L 522.574219 105.050781 C 522.574219 104.59375 522.941406 104.222656 523.398438 104.222656 C 523.855469 104.222656 524.222656 104.59375 524.222656 105.050781 L 524.222656 252.917969 C 524.222656 253.375 523.855469 253.746094 523.398438 253.746094 " fill-opacity="1" fill-rule="nonzero"/><path fill="#efbc73" d="M 624.054688 253.742188 C 623.601562 253.742188 623.230469 253.375 623.230469 252.917969 L 623.230469 154.542969 C 623.230469 154.089844 623.601562 153.714844 624.054688 153.714844 C 624.515625 153.714844 624.878906 154.089844 624.878906 154.542969 L 624.878906 252.917969 C 624.878906 253.375 624.515625 253.742188 624.054688 253.742188 " fill-opacity="1" fill-rule="nonzero"/><path fill="#f7f1eb" d="M 645.417969 149.425781 C 645.207031 149.425781 644.992188 149.34375 644.835938 149.183594 L 633.851562 138.175781 L 624.730469 147.316406 C 624.578125 147.46875 624.371094 147.554688 624.144531 147.554688 C 623.933594 147.554688 623.71875 147.46875 623.566406 147.316406 L 614.140625 137.867188 L 603.28125 148.757812 C 603.042969 148.996094 602.683594 149.066406 602.378906 148.9375 C 602.070312 148.808594 601.871094 148.503906 601.871094 148.171875 L 601.871094 97.546875 C 601.871094 97.09375 602.242188 96.722656 602.691406 96.722656 C 603.152344 96.722656 603.523438 97.09375 603.523438 97.546875 L 603.523438 146.171875 L 613.554688 136.113281 C 613.867188 135.800781 614.417969 135.800781 614.722656 136.113281 L 624.144531 145.5625 L 633.269531 136.421875 C 633.574219 136.113281 634.125 136.113281 634.4375 136.421875 L 644.59375 146.601562 L 644.59375 97.546875 C 644.59375 97.09375 644.960938 96.722656 645.417969 96.722656 C 645.875 96.722656 646.246094 97.09375 646.246094 97.546875 L 646.246094 148.597656 C 646.246094 148.933594 646.046875 149.238281 645.738281 149.363281 C 645.632812 149.40625 645.527344 149.425781 645.417969 149.425781 " fill-opacity="1" fill-rule="nonzero"/><path fill="#e2a18d" d="M 116.679688 664.035156 L 127.144531 711.429688 L 160.21875 711.429688 L 160.21875 661.007812 L 116.679688 664.035156 " fill-opacity="1" fill-rule="nonzero"/><path fill="#e2a18d" d="M 233.210938 658.09375 L 244.996094 707.96875 L 282.917969 707.953125 L 273.742188 658.078125 L 233.210938 658.09375 " fill-opacity="1" fill-rule="nonzero"/><path fill="#363e44" d="M 244.992188 706.289062 L 249.183594 746.445312 L 354.03125 746.40625 C 339.839844 724.582031 316.753906 715.609375 282.792969 706.277344 L 244.992188 706.289062 " fill-opacity="1" fill-rule="nonzero"/><path fill="#363e44" d="M 126.714844 709.484375 C 126.714844 711.546875 113.425781 747.421875 113.425781 747.421875 L 189.519531 747.421875 L 159.585938 709.484375 L 126.714844 709.484375 " fill-opacity="1" fill-rule="nonzero"/><path fill="#8b865c" d="M 152.445312 406.375 C 152.445312 406.375 150.191406 487.367188 232.484375 688.769531 L 286.15625 688.769531 C 286.15625 688.769531 235.597656 429.070312 231.058594 398.054688 L 152.445312 406.375 " fill-opacity="1" fill-rule="nonzero"/><path fill="#8b865c" d="M 106.851562 416.207031 C 106.851562 416.207031 87.664062 535.945312 115.632812 688.769531 L 165.527344 688.769531 C 165.527344 688.769531 172.851562 453.28125 185.703125 419.992188 L 106.851562 416.207031 " fill-opacity="1" fill-rule="nonzero"/><path fill="#363e44" d="M 174.671875 522.570312 L 174.621094 522.570312 C 174.164062 522.542969 173.816406 522.148438 173.847656 521.691406 L 176.1875 483.644531 C 176.214844 483.191406 176.613281 482.851562 177.0625 482.867188 C 177.519531 482.898438 177.867188 483.289062 177.835938 483.746094 L 175.496094 521.796875 C 175.46875 522.234375 175.105469 522.570312 174.671875 522.570312 " fill-opacity="1" fill-rule="nonzero"/><path fill="#e2a18d" d="M 85.238281 382.769531 L 87.261719 383.539062 L 123.8125 333.019531 L 86.101562 299.34375 L 67.625 339.953125 C 60.039062 356.636719 68.109375 376.265625 85.238281 382.769531 " fill-opacity="1" fill-rule="nonzero"/><path fill="#e2a18d" d="M 236.945312 292.375 C 236.945312 292.375 256.484375 310.359375 267.238281 298.71875 C 278.402344 286.625 291.4375 272.699219 298.199219 266.152344 C 312.136719 252.648438 334.679688 234.742188 337.140625 237.929688 C 338.542969 239.746094 335.972656 242.824219 328.558594 250.597656 C 329.328125 250.578125 331.664062 251.097656 332.6875 252.996094 C 334.207031 255.808594 332.273438 257.65625 332.179688 257.898438 C 332.441406 257.871094 335.414062 257.722656 336.75 259.433594 C 338.25 261.351562 337.941406 263.402344 337.019531 265.082031 C 337.667969 265.035156 340.441406 265.289062 341.640625 266.996094 C 343.195312 269.210938 341.957031 271.945312 340.324219 273.472656 C 337.339844 276.285156 328.984375 283.757812 325.070312 288.277344 C 320.203125 293.898438 301.109375 317.253906 287.726562 333.671875 C 279.347656 343.953125 265.898438 348.617188 252.964844 345.742188 L 237.527344 342.308594 L 236.945312 292.375 " fill-opacity="1" fill-rule="nonzero"/><path fill="#363e44" d="M 313.257812 281.765625 C 313.132812 281.765625 313.003906 281.742188 312.886719 281.679688 C 312.476562 281.476562 312.3125 280.976562 312.519531 280.566406 C 314.34375 276.929688 314.324219 273.585938 314.3125 270.902344 C 314.296875 268.035156 314.289062 265.5625 316.828125 264.574219 C 318.207031 264.035156 319.632812 262.664062 320.945312 260.597656 C 321.261719 260.09375 320.988281 259.660156 320.894531 259.539062 C 320.800781 259.414062 320.449219 259.023438 319.867188 259.199219 L 307.792969 262.851562 C 307.359375 262.984375 306.898438 262.734375 306.765625 262.300781 C 306.632812 261.859375 306.878906 261.398438 307.316406 261.269531 L 319.386719 257.617188 C 320.433594 257.300781 321.546875 257.660156 322.210938 258.535156 C 322.875 259.410156 322.917969 260.5625 322.339844 261.484375 C 320.816406 263.882812 319.164062 265.441406 317.421875 266.117188 C 316.007812 266.664062 315.949219 268.058594 315.964844 270.894531 C 315.980469 273.601562 315.996094 277.3125 313.996094 281.308594 C 313.847656 281.601562 313.558594 281.765625 313.257812 281.765625 " fill-opacity="1" fill-rule="nonzero"/><path fill="#363e44" d="M 333.535156 277.351562 C 333.316406 277.351562 333.097656 277.265625 332.9375 277.09375 C 331.03125 275.078125 330.527344 272.199219 331.429688 269.726562 C 329.535156 270.941406 327.039062 270.699219 325.414062 269.109375 C 324.472656 268.183594 323.953125 266.945312 323.953125 265.625 C 323.957031 264.300781 324.484375 263.0625 325.433594 262.144531 L 325.984375 261.605469 C 324.894531 261.535156 323.835938 261.03125 323.101562 260.128906 C 321.796875 258.53125 321.902344 256.210938 323.347656 254.738281 L 326.570312 251.433594 C 326.894531 251.109375 327.414062 251.101562 327.742188 251.421875 C 328.066406 251.738281 328.074219 252.261719 327.757812 252.585938 L 324.527344 255.890625 C 323.671875 256.769531 323.609375 258.140625 324.378906 259.085938 C 325.199219 260.085938 326.695312 260.253906 327.714844 259.457031 L 330.21875 257.492188 C 330.566406 257.222656 331.0625 257.265625 331.351562 257.601562 C 331.640625 257.933594 331.625 258.429688 331.308594 258.734375 L 326.582031 263.332031 C 325.957031 263.941406 325.609375 264.753906 325.609375 265.625 C 325.609375 266.5 325.949219 267.3125 326.570312 267.925781 C 327.679688 269.007812 329.402344 269.148438 330.664062 268.253906 L 334.703125 265.394531 C 335.050781 265.148438 335.523438 265.207031 335.804688 265.523438 C 336.078125 265.84375 336.074219 266.316406 335.792969 266.628906 L 334.085938 268.480469 C 332.148438 270.589844 332.167969 273.878906 334.136719 275.960938 C 334.453125 276.289062 334.4375 276.8125 334.101562 277.125 C 333.945312 277.277344 333.742188 277.351562 333.535156 277.351562 " fill-opacity="1" fill-rule="nonzero"/><path fill="#d87355" d="M 104.667969 344.632812 L 67.535156 328.957031 C 67.535156 328.957031 75.964844 305.746094 84.695312 292.070312 C 93.941406 277.589844 106.742188 271.484375 123.8125 269.636719 C 148.058594 267.011719 191.804688 270.652344 223.023438 280.761719 C 262.472656 293.535156 264.214844 294.695312 264.214844 294.695312 L 243.910156 348.695312 L 230.566406 345.214844 L 246.855469 449.898438 L 87.585938 455.777344 C 87.585938 455.777344 100.027344 363.214844 104.667969 344.632812 " fill-opacity="1" fill-rule="nonzero"/><path fill="#e6d0be" d="M 163.222656 408.359375 C 163.128906 408.359375 163.035156 408.34375 162.945312 408.316406 C 162.515625 408.160156 162.289062 407.6875 162.441406 407.257812 L 196.496094 311.570312 C 196.613281 311.242188 196.921875 311.019531 197.273438 311.019531 L 197.28125 311.019531 L 271.933594 311.675781 C 272.390625 311.679688 272.757812 312.050781 272.753906 312.507812 C 272.746094 312.964844 272.378906 313.332031 271.925781 313.332031 L 271.917969 313.332031 L 197.855469 312.683594 L 164 407.8125 C 163.878906 408.148438 163.5625 408.359375 163.222656 408.359375 " fill-opacity="1" fill-rule="nonzero"/><path fill="#363e44" d="M 243.484375 414.066406 L 168.832031 414.066406 L 202.882812 318.382812 L 277.535156 318.382812 L 243.484375 414.066406 " fill-opacity="1" fill-rule="nonzero"/><path fill="#e2a18d" d="M 94.5625 344.640625 C 112.992188 345.875 156.53125 346.628906 160.777344 346.871094 C 168.71875 347.324219 206.105469 349.910156 206.257812 356.109375 C 206.332031 359.070312 203.265625 359.71875 200.488281 359.535156 C 202.65625 360.789062 205.90625 362.316406 205.128906 365.546875 C 204.210938 369.339844 198.546875 368.675781 198.34375 368.742188 C 200.675781 369.796875 203.230469 370.90625 202.738281 373.351562 C 202.097656 376.527344 199.136719 378.328125 196.195312 377.914062 C 196.449219 378.359375 200.824219 379.34375 200.222656 383.164062 C 199.78125 385.96875 195.863281 386.457031 191.9375 386.097656 C 184.878906 385.699219 102.585938 385.511719 87.296875 383.519531 C 81.308594 382.742188 86.46875 350.414062 94.5625 344.640625 " fill-opacity="1" fill-rule="nonzero"/><path fill="#363e44" d="M 111.484375 345.800781 L 110.921875 345.785156 C 102.875 345.519531 94.589844 345.160156 87.59375 344.769531 C 87.140625 344.746094 86.792969 344.355469 86.816406 343.902344 C 86.84375 343.445312 87.234375 343.082031 87.6875 343.121094 C 94.507812 343.5 102.554688 343.851562 110.410156 344.113281 L 118.132812 326.0625 C 118.3125 325.640625 118.796875 325.445312 119.214844 325.628906 C 119.636719 325.808594 119.832031 326.289062 119.652344 326.710938 L 111.484375 345.800781 " fill-opacity="1" fill-rule="nonzero"/><path fill="#363e44" d="M 200.601562 360.070312 C 200.492188 360.070312 200.382812 360.046875 200.277344 360.003906 C 198.78125 359.359375 197.226562 358.816406 195.664062 358.382812 C 192.855469 357.609375 189.9375 357.183594 186.996094 357.121094 C 186.539062 357.109375 186.179688 356.730469 186.1875 356.273438 C 186.199219 355.820312 186.546875 355.460938 187.035156 355.464844 C 190.109375 355.535156 193.164062 355.980469 196.105469 356.789062 C 197.738281 357.238281 199.363281 357.808594 200.929688 358.484375 C 201.347656 358.664062 201.542969 359.152344 201.363281 359.570312 C 201.226562 359.882812 200.921875 360.070312 200.601562 360.070312 " fill-opacity="1" fill-rule="nonzero"/><path fill="#363e44" d="M 198.511719 369.371094 C 198.429688 369.371094 198.347656 369.359375 198.269531 369.332031 C 197.941406 369.234375 197.609375 369.140625 197.269531 369.046875 C 194.457031 368.269531 191.542969 367.84375 188.601562 367.777344 C 188.144531 367.769531 187.78125 367.390625 187.792969 366.933594 C 187.800781 366.484375 188.171875 366.125 188.617188 366.125 L 188.636719 366.125 C 191.714844 366.195312 194.765625 366.640625 197.707031 367.453125 C 198.0625 367.546875 198.414062 367.648438 198.753906 367.753906 C 199.1875 367.890625 199.433594 368.351562 199.300781 368.785156 C 199.191406 369.140625 198.863281 369.371094 198.511719 369.371094 " fill-opacity="1" fill-rule="nonzero"/><path fill="#363e44" d="M 196.011719 378.644531 C 195.960938 378.644531 195.910156 378.640625 195.859375 378.628906 C 193.984375 378.285156 192.058594 378.085938 190.144531 378.046875 C 189.6875 378.035156 189.324219 377.65625 189.335938 377.203125 C 189.34375 376.742188 189.742188 376.375 190.179688 376.390625 C 192.183594 376.4375 194.195312 376.640625 196.160156 377.007812 C 196.609375 377.089844 196.90625 377.519531 196.824219 377.96875 C 196.75 378.367188 196.402344 378.644531 196.011719 378.644531 " fill-opacity="1" fill-rule="nonzero"/><path fill="#f9f3ee" d="M 372.667969 441.84375 L 337.433594 413.964844 L 337.433594 314.402344 L 372.667969 309.988281 L 372.667969 441.84375 M 335.78125 412.65625 L 328.566406 406.945312 L 328.566406 315.515625 L 335.78125 314.613281 L 335.78125 412.65625 M 326.914062 405.636719 L 264.15625 355.980469 L 267.765625 345.832031 C 275.472656 344.210938 282.5625 340.007812 287.726562 333.675781 C 291.386719 329.1875 295.472656 324.171875 299.582031 319.152344 L 326.914062 315.722656 L 326.914062 405.636719 " fill-opacity="1" fill-rule="nonzero"/><path fill="#c8c5b1" d="M 337.433594 413.964844 L 335.78125 412.65625 L 335.78125 314.613281 L 337.433594 314.402344 L 337.433594 413.964844 M 328.566406 406.945312 L 326.914062 405.636719 L 326.914062 315.722656 L 328.566406 315.515625 L 328.566406 406.945312 " fill-opacity="1" fill-rule="nonzero"/><path fill="#f7dfbc" d="M 553.90625 462.203125 L 459.820312 462.203125 L 459.820312 306.765625 L 553.90625 306.765625 L 553.90625 462.203125 M 458.171875 462.203125 L 398.394531 462.203125 L 372.664062 441.84375 L 372.664062 309.992188 L 398.394531 306.765625 L 458.171875 306.765625 L 458.171875 462.203125 " fill-opacity="1" fill-rule="nonzero"/><path fill="#f0d6b4" d="M 458.171875 462.203125 L 459.824219 462.203125 L 459.824219 306.765625 L 458.171875 306.765625 Z M 458.171875 462.203125 " fill-opacity="1" fill-rule="nonzero"/><path fill="#f1d2c8" d="M 267.765625 345.832031 L 276.222656 322.078125 L 299.582031 319.152344 C 295.472656 324.171875 291.386719 329.1875 287.726562 333.675781 C 282.5625 340.007812 275.472656 344.210938 267.765625 345.832031 " fill-opacity="1" fill-rule="nonzero"/><path fill="#9fa3a6" d="M 264.15625 355.980469 L 235.847656 333.578125 L 239.035156 326.742188 L 276.222656 322.078125 L 267.765625 345.832031 L 264.15625 355.980469 " fill-opacity="1" fill-rule="nonzero"/><path fill="#efbc73" d="M 241.609375 329.78125 C 241.609375 331.992188 239.820312 333.78125 237.613281 333.78125 C 235.410156 333.78125 233.621094 331.992188 233.621094 329.78125 C 233.621094 327.574219 235.410156 325.785156 237.613281 325.785156 C 239.820312 325.785156 241.609375 327.574219 241.609375 329.78125 " fill-opacity="1" fill-rule="nonzero"/><path fill="#e2a18d" d="M 189.417969 263.988281 C 184.449219 267.515625 170.414062 257.929688 170.414062 257.929688 L 162.382812 241.125 C 162.382812 232.542969 169.332031 225.585938 177.90625 225.585938 C 186.476562 225.585938 193.425781 232.542969 193.425781 241.125 C 193.425781 241.125 194.476562 260.390625 189.417969 263.988281 " fill-opacity="1" fill-rule="nonzero"/><path fill="#e2a18d" d="M 173.132812 283.300781 C 179.070312 283.300781 183.886719 278.484375 183.886719 272.539062 L 183.886719 234.882812 L 162.382812 234.882812 L 162.382812 272.539062 C 162.382812 278.484375 167.195312 283.300781 173.132812 283.300781 " fill-opacity="1" fill-rule="nonzero"/><path fill="#e2a18d" d="M 191.644531 245.203125 C 191.644531 245.203125 196 249.769531 195.765625 250.972656 C 195.492188 252.410156 190.640625 253.289062 190.640625 253.289062 C 190.640625 253.289062 191.761719 245.214844 191.644531 245.203125 " fill-opacity="1" fill-rule="nonzero"/><path fill="#ffffff" d="M 177.636719 244.539062 C 177.636719 244.539062 180.234375 243.140625 183.367188 243.140625 C 184.035156 243.140625 182.777344 248.476562 182.144531 248.175781 C 179.363281 246.847656 177.636719 244.539062 177.636719 244.539062 " fill-opacity="1" fill-rule="nonzero"/><g clip-path="url(#d19e81ad9e)"><g clip-path="url(#d00987fd6c)"><path fill="#363e44" d="M 183.5 243.003906 C 185.570312 240.929688 188.929688 240.929688 191 243.003906 C 193.074219 245.078125 193.074219 248.441406 191 250.511719 C 188.929688 252.585938 185.570312 252.585938 183.5 250.511719 C 181.429688 248.441406 181.429688 245.078125 183.5 243.003906 " fill-opacity="1" fill-rule="nonzero"/></g></g><path fill="#363e44" d="M 171.957031 244.011719 C 171.957031 244.011719 175.023438 251.910156 183.351562 252.351562 C 191.679688 252.785156 193.207031 252.636719 193.207031 252.636719 L 194.28125 260.566406 C 194.753906 264.066406 191.964844 267.144531 188.441406 267.011719 L 182.476562 266.785156 C 176.441406 266.558594 171.496094 261.917969 170.882812 255.90625 L 170.203125 249.28125 L 162.382812 246.457031 C 162.382812 246.457031 149.574219 240.296875 154.421875 231.289062 C 157.488281 225.585938 162.75 227.777344 162.75 227.777344 L 182.703125 212.394531 C 186.585938 209.402344 192.082031 209.757812 195.546875 213.226562 C 198.84375 216.523438 198.496094 221.96875 194.808594 224.824219 L 192.121094 226.902344 L 194.789062 226.371094 C 196.945312 225.9375 199.042969 227.339844 199.476562 229.496094 C 200.320312 233.714844 197.035156 237.65625 192.738281 237.515625 C 190.820312 237.449219 188.675781 237.179688 186.421875 236.554688 C 178.53125 234.363281 170.640625 236.992188 171.957031 244.011719 " fill-opacity="1" fill-rule="nonzero"/><path fill="#e2a18d" d="M 171.929688 246.984375 C 172.878906 249.691406 171.773438 252.550781 169.453125 253.367188 C 167.136719 254.183594 164.484375 252.648438 163.53125 249.941406 C 162.582031 247.234375 163.6875 244.378906 166.007812 243.5625 C 168.328125 242.746094 170.976562 244.277344 171.929688 246.984375 " fill-opacity="1" fill-rule="nonzero"/><path fill="#e2a18d" d="M 186.796875 256.808594 C 186.230469 256.808594 185.664062 256.644531 185.167969 256.324219 C 184.214844 255.707031 183.6875 254.578125 183.824219 253.441406 C 183.875 252.988281 184.285156 252.667969 184.738281 252.71875 C 185.191406 252.773438 185.515625 253.183594 185.464844 253.636719 C 185.402344 254.152344 185.640625 254.664062 186.066406 254.9375 C 186.511719 255.226562 187.089844 255.226562 187.539062 254.9375 C 187.921875 254.6875 188.433594 254.800781 188.679688 255.183594 C 188.925781 255.570312 188.8125 256.082031 188.429688 256.328125 C 187.933594 256.648438 187.363281 256.808594 186.796875 256.808594 " fill-opacity="1" fill-rule="nonzero"/><path fill="#363e44" d="M 169.324219 251.855469 C 169.144531 251.855469 168.964844 251.796875 168.8125 251.675781 L 166.617188 249.921875 C 166.261719 249.632812 166.203125 249.117188 166.488281 248.757812 C 166.777344 248.40625 167.296875 248.34375 167.652344 248.628906 L 169.84375 250.382812 C 170.199219 250.667969 170.257812 251.1875 169.972656 251.542969 C 169.808594 251.746094 169.570312 251.855469 169.324219 251.855469 " fill-opacity="1" fill-rule="nonzero"/><path fill="#ffffff" d="M 553.523438 462.253906 L 394.914062 462.253906 L 394.914062 303.515625 L 553.523438 303.515625 L 553.523438 462.253906 " fill-opacity="1" fill-rule="nonzero"/><path fill="#363e44" d="M 403.765625 342.734375 L 434.164062 342.734375 L 434.164062 312.644531 L 403.765625 312.644531 Z M 435.816406 344.390625 L 402.109375 344.390625 L 402.109375 310.992188 L 435.816406 310.992188 L 435.816406 344.390625 " fill-opacity="1" fill-rule="nonzero"/><path fill="#363e44" d="M 429.523438 338.640625 L 408.652344 338.640625 L 408.652344 317.964844 L 429.523438 317.964844 L 429.523438 338.640625 " fill-opacity="1" fill-rule="nonzero"/><path fill="#363e44" d="M 403.410156 453.601562 L 433.808594 453.601562 L 433.808594 423.515625 L 403.410156 423.515625 Z M 435.460938 455.257812 L 401.757812 455.257812 L 401.757812 421.859375 L 435.460938 421.859375 L 435.460938 455.257812 " fill-opacity="1" fill-rule="nonzero"/><path fill="#363e44" d="M 429.167969 449.503906 L 408.296875 449.503906 L 408.296875 428.835938 L 429.167969 428.835938 L 429.167969 449.503906 " fill-opacity="1" fill-rule="nonzero"/><path fill="#363e44" d="M 513.417969 342.738281 L 543.820312 342.738281 L 543.820312 312.644531 L 513.417969 312.644531 Z M 545.472656 344.390625 L 511.765625 344.390625 L 511.765625 310.992188 L 545.472656 310.992188 L 545.472656 344.390625 " fill-opacity="1" fill-rule="nonzero"/><path fill="#363e44" d="M 539.175781 338.640625 L 518.308594 338.640625 L 518.308594 317.96875 L 539.175781 317.96875 L 539.175781 338.640625 " fill-opacity="1" fill-rule="nonzero"/><path fill="#363e44" d="M 511.648438 447.289062 L 542.046875 447.289062 L 542.046875 417.199219 L 511.648438 417.199219 Z M 543.699219 448.941406 L 509.996094 448.941406 L 509.996094 415.546875 L 543.699219 415.546875 L 543.699219 448.941406 " fill-opacity="1" fill-rule="nonzero"/><path fill="#363e44" d="M 449.773438 343.671875 L 464.378906 343.671875 L 464.378906 329.222656 L 449.773438 329.222656 Z M 466.03125 345.328125 L 448.121094 345.328125 L 448.121094 327.574219 L 466.03125 327.574219 L 466.03125 345.328125 " fill-opacity="1" fill-rule="nonzero"/><path fill="#363e44" d="M 531.917969 443.191406 L 516.535156 443.191406 L 516.535156 427.953125 L 531.917969 427.953125 L 531.917969 443.191406 " fill-opacity="1" fill-rule="nonzero"/><path fill="#363e44" d="M 395.300781 461.152344 L 552.703125 461.152344 L 552.703125 305.277344 L 395.300781 305.277344 Z M 554.351562 462.808594 L 393.648438 462.808594 L 393.648438 303.625 L 554.351562 303.625 L 554.351562 462.808594 " fill-opacity="1" fill-rule="nonzero"/><path fill="#363e44" d="M 512.789062 414.03125 L 456.464844 414.03125 L 456.464844 406.195312 L 512.789062 406.195312 L 512.789062 414.03125 " fill-opacity="1" fill-rule="nonzero"/><path fill="#363e44" d="M 464.261719 411.808594 L 457.175781 411.808594 L 457.175781 386.546875 L 464.261719 386.546875 L 464.261719 411.808594 " fill-opacity="1" fill-rule="nonzero"/><path fill="#363e44" d="M 485.871094 392.511719 L 463.550781 392.511719 L 463.550781 381.636719 L 485.871094 381.636719 L 485.871094 392.511719 " fill-opacity="1" fill-rule="nonzero"/><path fill="#363e44" d="M 492.246094 384.09375 L 479.847656 384.09375 L 479.847656 363.394531 L 492.246094 363.394531 L 492.246094 384.09375 " fill-opacity="1" fill-rule="nonzero"/><path fill="#363e44" d="M 491.183594 373.914062 L 501.808594 373.914062 L 501.808594 400.230469 L 491.183594 400.230469 L 491.183594 373.914062 " fill-opacity="1" fill-rule="nonzero"/><path fill="#363e44" d="M 522.710938 371.460938 L 498.621094 371.460938 L 498.621094 363.039062 L 522.710938 363.039062 L 522.710938 371.460938 " fill-opacity="1" fill-rule="nonzero"/><path fill="#363e44" d="M 517.042969 369.355469 L 527.3125 369.355469 L 527.3125 387.25 L 517.042969 387.25 L 517.042969 369.355469 " fill-opacity="1" fill-rule="nonzero"/><path fill="#363e44" d="M 485.160156 413.5625 L 495.429688 413.5625 L 495.429688 432.625 L 485.160156 432.625 L 485.160156 413.5625 " fill-opacity="1" fill-rule="nonzero"/><path fill="#363e44" d="M 523.417969 392.863281 L 511.019531 392.863281 L 511.019531 383.742188 L 523.417969 383.742188 L 523.417969 392.863281 " fill-opacity="1" fill-rule="nonzero"/><path fill="#363e44" d="M 426 362.6875 L 401.914062 362.6875 L 401.914062 354.269531 L 426 354.269531 L 426 362.6875 " fill-opacity="1" fill-rule="nonzero"/><path fill="#363e44" d="M 420.335938 370.410156 L 428.304688 370.410156 L 428.304688 378.480469 L 420.335938 378.480469 L 420.335938 370.410156 " fill-opacity="1" fill-rule="nonzero"/><path fill="#363e44" d="M 427.421875 363.394531 L 435.390625 363.394531 L 435.390625 371.460938 L 427.421875 371.460938 L 427.421875 363.394531 " fill-opacity="1" fill-rule="nonzero"/><path fill="#363e44" d="M 471.109375 318.25 L 479.078125 318.25 L 479.078125 326.316406 L 471.109375 326.316406 L 471.109375 318.25 " fill-opacity="1" fill-rule="nonzero"/><path fill="#363e44" d="M 423.875 384.96875 L 416.261719 384.96875 L 416.261719 377.25 L 423.875 377.25 L 423.875 384.96875 " fill-opacity="1" fill-rule="nonzero"/><path fill="#363e44" d="M 490.5625 340.410156 L 482.945312 340.410156 L 482.945312 332.691406 L 490.5625 332.691406 L 490.5625 340.410156 " fill-opacity="1" fill-rule="nonzero"/><path fill="#363e44" d="M 438.753906 384.441406 L 431.136719 384.441406 L 431.136719 376.726562 L 438.753906 376.726562 L 438.753906 384.441406 " fill-opacity="1" fill-rule="nonzero"/><path fill="#363e44" d="M 454.25 374.617188 L 446.640625 374.617188 L 446.640625 366.898438 L 454.25 366.898438 L 454.25 374.617188 " fill-opacity="1" fill-rule="nonzero"/><path fill="#363e44" d="M 431.316406 390.933594 L 423.34375 390.933594 L 423.34375 383.214844 L 431.316406 383.214844 L 431.316406 390.933594 " fill-opacity="1" fill-rule="nonzero"/><path fill="#363e44" d="M 442.652344 359.183594 L 434.683594 359.183594 L 434.683594 351.464844 L 442.652344 351.464844 L 442.652344 359.183594 " fill-opacity="1" fill-rule="nonzero"/><path fill="#363e44" d="M 498.089844 347.601562 L 490.117188 347.601562 L 490.117188 339.882812 L 498.089844 339.882812 L 498.089844 347.601562 " fill-opacity="1" fill-rule="nonzero"/><path fill="#363e44" d="M 449.914062 351.988281 L 441.945312 351.988281 L 441.945312 344.273438 L 449.914062 344.273438 L 449.914062 351.988281 " fill-opacity="1" fill-rule="nonzero"/><path fill="#363e44" d="M 465.027344 325.089844 L 457.058594 325.089844 L 457.058594 317.375 L 465.027344 317.375 L 465.027344 325.089844 " fill-opacity="1" fill-rule="nonzero"/><path fill="#363e44" d="M 472.113281 351.757812 L 464.140625 351.757812 L 464.140625 344.035156 L 472.113281 344.035156 L 472.113281 351.757812 " fill-opacity="1" fill-rule="nonzero"/><path fill="#363e44" d="M 543.578125 415.929688 L 535.609375 415.929688 L 535.609375 408.214844 L 543.578125 408.214844 L 543.578125 415.929688 " fill-opacity="1" fill-rule="nonzero"/><path fill="#363e44" d="M 457.707031 319.246094 L 449.738281 319.246094 L 449.738281 311.523438 L 457.707031 311.523438 L 457.707031 319.246094 " fill-opacity="1" fill-rule="nonzero"/><path fill="#363e44" d="M 472.351562 318.777344 L 464.378906 318.777344 L 464.378906 311.058594 L 472.351562 311.058594 L 472.351562 318.777344 " fill-opacity="1" fill-rule="nonzero"/><path fill="#363e44" d="M 505.171875 354.445312 L 497.203125 354.445312 L 497.203125 346.726562 L 505.171875 346.726562 L 505.171875 354.445312 " fill-opacity="1" fill-rule="nonzero"/><path fill="#363e44" d="M 546.339844 364.417969 L 538.371094 364.417969 L 538.371094 356.695312 L 546.339844 356.695312 L 546.339844 364.417969 " fill-opacity="1" fill-rule="nonzero"/><path fill="#363e44" d="M 538.898438 370.734375 L 530.929688 370.734375 L 530.929688 363.011719 L 538.898438 363.011719 L 538.898438 370.734375 " fill-opacity="1" fill-rule="nonzero"/><path fill="#363e44" d="M 432.910156 413.5625 L 424.941406 413.5625 L 424.941406 405.84375 L 432.910156 405.84375 L 432.910156 413.5625 " fill-opacity="1" fill-rule="nonzero"/><path fill="#363e44" d="M 462.136719 444.609375 L 454.164062 444.609375 L 454.164062 436.894531 L 462.136719 436.894531 L 462.136719 444.609375 " fill-opacity="1" fill-rule="nonzero"/><path fill="#363e44" d="M 468.957031 437.59375 L 460.980469 437.59375 L 460.980469 429.878906 L 468.957031 429.878906 L 468.957031 437.59375 " fill-opacity="1" fill-rule="nonzero"/><path fill="#363e44" d="M 512.789062 406.75 L 504.820312 406.75 L 504.820312 399.035156 L 512.789062 399.035156 L 512.789062 406.75 " fill-opacity="1" fill-rule="nonzero"/><path fill="#363e44" d="M 490.917969 318.484375 L 482.945312 318.484375 L 482.945312 310.765625 L 490.917969 310.765625 L 490.917969 318.484375 " fill-opacity="1" fill-rule="nonzero"/><path fill="#363e44" d="M 547.238281 393.914062 L 539.269531 393.914062 L 539.269531 386.195312 L 547.238281 386.195312 L 547.238281 393.914062 " fill-opacity="1" fill-rule="nonzero"/><path fill="#363e44" d="M 414.046875 374.96875 L 406.078125 374.96875 L 406.078125 367.253906 L 414.046875 367.253906 L 414.046875 374.96875 " fill-opacity="1" fill-rule="nonzero"/><path fill="#363e44" d="M 545.824219 377.953125 L 537.855469 377.953125 L 537.855469 370.234375 L 545.824219 370.234375 L 545.824219 377.953125 " fill-opacity="1" fill-rule="nonzero"/><path fill="#363e44" d="M 539.449219 401.285156 L 531.476562 401.285156 L 531.476562 393.566406 L 539.449219 393.566406 L 539.449219 401.285156 " fill-opacity="1" fill-rule="nonzero"/><path fill="#363e44" d="M 477.457031 450.402344 L 469.484375 450.402344 L 469.484375 442.683594 L 477.457031 442.683594 L 477.457031 450.402344 " fill-opacity="1" fill-rule="nonzero"/><path fill="#363e44" d="M 482.886719 455.546875 L 474.917969 455.546875 L 474.917969 447.828125 L 482.886719 447.828125 L 482.886719 455.546875 " fill-opacity="1" fill-rule="nonzero"/><path fill="#363e44" d="M 458.324219 453.558594 L 450.355469 453.558594 L 450.355469 443.382812 L 458.324219 443.382812 L 458.324219 453.558594 " fill-opacity="1" fill-rule="nonzero"/><path fill="#363e44" d="M 491.152344 443.382812 L 483.183594 443.382812 L 483.183594 435.667969 L 491.152344 435.667969 L 491.152344 443.382812 " fill-opacity="1" fill-rule="nonzero"/><path fill="#363e44" d="M 495.875 450.402344 L 487.902344 450.402344 L 487.902344 442.683594 L 495.875 442.683594 L 495.875 450.402344 " fill-opacity="1" fill-rule="nonzero"/><path fill="#363e44" d="M 458.089844 420.695312 L 450.121094 420.695312 L 450.121094 412.980469 L 458.089844 412.980469 L 458.089844 420.695312 " fill-opacity="1" fill-rule="nonzero"/><path fill="#363e44" d="M 458.589844 406.898438 L 432.734375 406.898438 L 432.734375 395.316406 L 458.589844 395.316406 L 458.589844 406.898438 " fill-opacity="1" fill-rule="nonzero"/><path fill="#363e44" d="M 443.714844 396.023438 L 438.046875 396.023438 L 438.046875 363.742188 L 443.714844 363.742188 L 443.714844 396.023438 " fill-opacity="1" fill-rule="nonzero"/><path fill="#363e44" d="M 482.328125 364.796875 L 441.589844 364.796875 L 441.589844 358.828125 L 482.328125 358.828125 L 482.328125 364.796875 " fill-opacity="1" fill-rule="nonzero"/><path fill="#363e44" d="M 406.871094 405.496094 L 401.914062 405.496094 L 401.914062 357.074219 L 406.871094 357.074219 L 406.871094 405.496094 " fill-opacity="1" fill-rule="nonzero"/><path fill="#363e44" d="M 532.269531 416.015625 L 526.25 416.015625 L 526.25 393.566406 L 532.269531 393.566406 L 532.269531 416.015625 " fill-opacity="1" fill-rule="nonzero"/><path fill="#363e44" d="M 483.921875 364.265625 L 478.960938 364.265625 L 478.960938 315.851562 L 483.921875 315.851562 L 483.921875 364.265625 " fill-opacity="1" fill-rule="nonzero"/><path fill="#363e44" d="M 423.167969 396.722656 L 402.976562 396.722656 L 402.976562 392.511719 L 423.167969 392.511719 L 423.167969 396.722656 " fill-opacity="1" fill-rule="nonzero"/><path fill="#363e44" d="M 510.546875 435.785156 L 490.355469 435.785156 L 490.355469 431.570312 L 510.546875 431.570312 L 510.546875 435.785156 " fill-opacity="1" fill-rule="nonzero"/><path fill="#363e44" d="M 421.042969 415.492188 L 416.4375 415.492188 L 416.4375 394.617188 L 421.042969 394.617188 L 421.042969 415.492188 " fill-opacity="1" fill-rule="nonzero"/><path fill="#363e44" d="M 454.695312 438.035156 L 450.089844 438.035156 L 450.089844 417.15625 L 454.695312 417.15625 L 454.695312 438.035156 " fill-opacity="1" fill-rule="nonzero"/><path fill="#363e44" d="M 516.863281 364.09375 L 512.257812 364.09375 L 512.257812 343.21875 L 516.863281 343.21875 L 516.863281 364.09375 " fill-opacity="1" fill-rule="nonzero"/><path fill="#363e44" d="M 427.066406 411.632812 L 417.324219 411.632812 L 417.324219 407.773438 L 427.066406 407.773438 L 427.066406 411.632812 " fill-opacity="1" fill-rule="nonzero"/><path fill="#363e44" d="M 531.386719 367.078125 L 521.648438 367.078125 L 521.648438 363.039062 L 531.386719 363.039062 L 531.386719 367.078125 " fill-opacity="1" fill-rule="nonzero"/><path fill="#363e44" d="M 454.917969 444.570312 L 445.175781 444.570312 L 445.175781 440.535156 L 454.917969 440.535156 L 454.917969 444.570312 " fill-opacity="1" fill-rule="nonzero"/><path fill="#363e44" d="M 483.65625 443.414062 L 473.914062 443.414062 L 473.914062 439.378906 L 483.65625 439.378906 L 483.65625 443.414062 " fill-opacity="1" fill-rule="nonzero"/><path fill="#ffffff" d="M 427.300781 222.113281 L 224.902344 222.113281 L 224.902344 139.015625 L 427.300781 139.015625 L 427.300781 222.113281 " fill-opacity="1" fill-rule="nonzero"/><path fill="#363e44" d="M 230.679688 224.773438 L 431.429688 224.773438 L 431.429688 133.820312 L 230.679688 133.820312 Z M 433.082031 226.425781 L 229.027344 226.425781 L 229.027344 132.167969 L 433.082031 132.167969 L 433.082031 226.425781 " fill-opacity="1" fill-rule="nonzero"/><path fill="#d3bba3" d="M 391.546875 163.296875 L 301.527344 163.296875 L 301.527344 155.894531 L 391.546875 155.894531 L 391.546875 163.296875 " fill-opacity="1" fill-rule="nonzero"/><path fill="#d3bba3" d="M 416.351562 178.582031 L 301.53125 178.582031 L 301.53125 171.179688 L 416.351562 171.179688 L 416.351562 178.582031 " fill-opacity="1" fill-rule="nonzero"/><path fill="#d3bba3" d="M 405.246094 193.042969 L 301.53125 193.042969 L 301.53125 185.640625 L 405.246094 185.640625 L 405.246094 193.042969 " fill-opacity="1" fill-rule="nonzero"/><path fill="#d3bba3" d="M 375.460938 207.507812 L 301.53125 207.507812 L 301.53125 200.105469 L 375.460938 200.105469 L 375.460938 207.507812 " fill-opacity="1" fill-rule="nonzero"/><path fill="#d3bba3" d="M 241.574219 205.761719 L 290.316406 205.761719 L 290.316406 156.976562 L 241.574219 156.976562 Z M 291.140625 207.414062 L 240.75 207.414062 C 240.292969 207.414062 239.921875 207.042969 239.921875 206.585938 L 239.921875 156.152344 C 239.921875 155.695312 240.292969 155.324219 240.75 155.324219 L 291.140625 155.324219 C 291.597656 155.324219 291.96875 155.695312 291.96875 156.152344 L 291.96875 206.585938 C 291.96875 207.042969 291.597656 207.414062 291.140625 207.414062 " fill-opacity="1" fill-rule="nonzero"/><path fill="#d3bba3" d="M 284.53125 200.800781 L 245.292969 200.800781 L 245.292969 161.527344 L 284.53125 161.527344 L 284.53125 200.800781 " fill-opacity="1" fill-rule="nonzero"/><path fill="#8b865c" d="M 166.371094 198.292969 C 166.152344 198.292969 165.945312 198.207031 165.789062 198.054688 C 165.632812 197.898438 165.546875 197.6875 165.546875 197.46875 L 165.546875 83.667969 C 165.546875 83.449219 165.632812 83.238281 165.789062 83.085938 C 165.941406 82.929688 166.152344 82.84375 166.371094 82.84375 L 166.375 82.84375 L 347.378906 83.523438 C 347.835938 83.527344 348.203125 83.894531 348.203125 84.351562 L 348.203125 128.171875 C 348.203125 128.625 347.832031 129 347.375 129 C 346.917969 129 346.550781 128.625 346.550781 128.171875 L 346.550781 85.171875 L 167.199219 84.496094 L 167.199219 196.632812 L 221.25 196.246094 L 221.253906 196.246094 C 221.707031 196.246094 222.078125 196.613281 222.078125 197.066406 C 222.082031 197.523438 221.714844 197.894531 221.261719 197.898438 L 166.378906 198.292969 L 166.371094 198.292969 " fill-opacity="1" fill-rule="nonzero"/><path fill="#8b865c" d="M 332.289062 102.417969 L 273.5 102.417969 C 273.042969 102.417969 272.671875 102.050781 272.671875 101.589844 C 272.671875 101.132812 273.042969 100.761719 273.5 100.761719 L 332.289062 100.761719 C 332.746094 100.761719 333.113281 101.132812 333.113281 101.589844 C 333.113281 102.050781 332.746094 102.417969 332.289062 102.417969 " fill-opacity="1" fill-rule="nonzero"/><path fill="#8b865c" d="M 263.589844 102.417969 L 184.242188 102.417969 C 183.785156 102.417969 183.417969 102.050781 183.417969 101.589844 C 183.417969 101.132812 183.785156 100.761719 184.242188 100.761719 L 263.589844 100.761719 C 264.046875 100.761719 264.417969 101.132812 264.417969 101.589844 C 264.417969 102.050781 264.046875 102.417969 263.589844 102.417969 " fill-opacity="1" fill-rule="nonzero"/><path fill="#8b865c" d="M 221.25 155.605469 L 183.140625 155.605469 C 182.683594 155.605469 182.316406 155.242188 182.316406 154.78125 C 182.316406 154.324219 182.683594 153.953125 183.140625 153.953125 L 221.25 153.953125 C 221.710938 153.953125 222.078125 154.324219 222.078125 154.78125 C 222.078125 155.242188 221.710938 155.605469 221.25 155.605469 " fill-opacity="1" fill-rule="nonzero"/><path fill="#8b865c" d="M 222.28125 180.6875 L 194.707031 180.6875 C 194.25 180.6875 193.882812 180.316406 193.882812 179.863281 C 193.882812 179.40625 194.25 179.035156 194.707031 179.035156 L 222.28125 179.035156 C 222.738281 179.035156 223.109375 179.40625 223.109375 179.863281 C 223.109375 180.316406 222.738281 180.6875 222.28125 180.6875 " fill-opacity="1" fill-rule="nonzero"/><path fill="#8b865c" d="M 314.167969 124.496094 L 244.289062 124.496094 C 243.832031 124.496094 243.464844 124.128906 243.464844 123.667969 C 243.464844 123.210938 243.832031 122.84375 244.289062 122.84375 L 314.167969 122.84375 C 314.625 122.84375 314.992188 123.210938 314.992188 123.667969 C 314.992188 124.128906 314.625 124.496094 314.167969 124.496094 " fill-opacity="1" fill-rule="nonzero"/><path fill="#8b865c" d="M 224.605469 124.496094 L 184.242188 124.496094 C 183.785156 124.496094 183.414062 124.128906 183.414062 123.667969 C 183.414062 123.210938 183.785156 122.84375 184.242188 122.84375 L 224.605469 122.84375 C 225.0625 122.84375 225.429688 123.210938 225.429688 123.667969 C 225.429688 124.128906 225.0625 124.496094 224.605469 124.496094 " fill-opacity="1" fill-rule="nonzero"/></svg>