<svg xmlns="http://www.w3.org/2000/svg" xmlns:xlink="http://www.w3.org/1999/xlink" width="1080" zoomAndPan="magnify" viewBox="0 0 810 809.999993" height="1080" preserveAspectRatio="xMidYMid meet" version="1.0"><defs><clipPath id="413d71b80b"><path d="M 65 51.332031 L 757 51.332031 L 757 108 L 65 108 Z M 65 51.332031 " clip-rule="nonzero"/></clipPath><clipPath id="bb2ea236b4"><path d="M 13 442 L 201 442 L 201 758.582031 L 13 758.582031 Z M 13 442 " clip-rule="nonzero"/></clipPath></defs><path fill="#ffffff" d="M 80.105469 678.539062 C 72.335938 678.539062 65.992188 672.199219 65.992188 664.433594 L 65.992188 90.484375 C 65.832031 78.4375 75.664062 68.769531 87.554688 68.769531 L 734.023438 68.769531 C 745.917969 68.769531 755.746094 78.4375 755.746094 90.484375 L 755.746094 664.433594 C 755.746094 672.199219 749.40625 678.539062 741.636719 678.539062 Z M 80.105469 678.539062 " fill-opacity="1" fill-rule="nonzero"/><path fill="#569bc4" d="M 734.023438 69.402344 C 745.597656 69.402344 754.953125 78.753906 754.953125 90.324219 L 754.953125 664.273438 C 754.953125 671.722656 748.929688 677.746094 741.476562 677.746094 L 80.105469 677.746094 C 72.652344 677.746094 66.625 671.722656 66.625 664.273438 L 66.625 90.484375 C 66.625 78.914062 75.980469 69.5625 87.554688 69.5625 L 734.023438 69.5625 M 734.023438 68.136719 L 87.554688 68.136719 C 75.1875 68.136719 65.199219 78.121094 65.199219 90.484375 L 65.199219 664.433594 C 65.199219 672.675781 71.859375 679.332031 80.105469 679.332031 L 741.636719 679.332031 C 749.878906 679.332031 756.539062 672.675781 756.539062 664.433594 L 756.539062 90.484375 C 756.539062 78.121094 746.390625 68.136719 734.023438 68.136719 Z M 734.023438 68.136719 " fill-opacity="1" fill-rule="nonzero"/><path fill="#64b3e4" d="M 65.199219 242.648438 L 756.539062 242.648438 L 756.539062 457.425781 L 65.199219 457.425781 Z M 65.199219 242.648438 " fill-opacity="1" fill-rule="nonzero"/><path fill="#f58989" d="M 756.539062 457.425781 L 65.039062 457.425781 L 65.039062 242.492188 L 756.699219 242.492188 L 756.699219 457.425781 Z M 65.355469 457.265625 L 756.382812 457.265625 L 756.382812 242.808594 L 65.355469 242.808594 Z M 65.355469 457.265625 " fill-opacity="1" fill-rule="nonzero"/><path fill="#64b3e4" d="M 688.515625 198.742188 L 130.527344 198.742188 C 126.40625 198.742188 123.074219 195.414062 123.074219 191.292969 L 123.074219 160.226562 C 123.074219 156.105469 126.40625 152.777344 130.527344 152.777344 L 688.515625 152.777344 C 692.636719 152.777344 695.96875 156.105469 695.96875 160.226562 L 695.96875 191.292969 C 695.96875 195.414062 692.636719 198.742188 688.515625 198.742188 Z M 688.515625 198.742188 " fill-opacity="1" fill-rule="nonzero"/><g clip-path="url(#413d71b80b)"><path fill="#569bc4" d="M 756.539062 107.445312 L 65.199219 107.445312 L 65.199219 64.171875 C 65.199219 57.039062 70.90625 51.332031 78.042969 51.332031 L 743.695312 51.332031 C 750.832031 51.332031 756.539062 57.039062 756.539062 64.171875 Z M 756.539062 107.445312 " fill-opacity="1" fill-rule="nonzero"/></g><path fill="#64b3e4" d="M 121.011719 606.734375 L 348.078125 606.734375 L 348.078125 614.183594 L 121.011719 614.183594 Z M 121.011719 606.734375 " fill-opacity="1" fill-rule="nonzero"/><path fill="#64b3e4" d="M 360.445312 606.734375 L 696.445312 606.734375 L 696.445312 614.183594 L 360.445312 614.183594 Z M 360.445312 606.734375 " fill-opacity="1" fill-rule="nonzero"/><path fill="#64b3e4" d="M 121.011719 622.585938 L 218.53125 622.585938 L 218.53125 630.035156 L 121.011719 630.035156 Z M 121.011719 622.585938 " fill-opacity="1" fill-rule="nonzero"/><path fill="#64b3e4" d="M 231.691406 622.585938 L 444.328125 622.585938 L 444.328125 630.035156 L 231.691406 630.035156 Z M 231.691406 622.585938 " fill-opacity="1" fill-rule="nonzero"/><path fill="#569bc4" d="M 121.011719 582.167969 L 621.601562 582.167969 L 621.601562 593.261719 L 121.011719 593.261719 Z M 121.011719 582.167969 " fill-opacity="1" fill-rule="nonzero"/><path fill="#64b3e4" d="M 121.011719 523.363281 L 480.003906 523.363281 L 480.003906 530.8125 L 121.011719 530.8125 Z M 121.011719 523.363281 " fill-opacity="1" fill-rule="nonzero"/><path fill="#64b3e4" d="M 492.371094 523.363281 L 696.445312 523.363281 L 696.445312 530.8125 L 492.371094 530.8125 Z M 492.371094 523.363281 " fill-opacity="1" fill-rule="nonzero"/><path fill="#64b3e4" d="M 121.011719 539.210938 L 218.53125 539.210938 L 218.53125 546.664062 L 121.011719 546.664062 Z M 121.011719 539.210938 " fill-opacity="1" fill-rule="nonzero"/><path fill="#64b3e4" d="M 231.691406 539.210938 L 444.328125 539.210938 L 444.328125 546.664062 L 231.691406 546.664062 Z M 231.691406 539.210938 " fill-opacity="1" fill-rule="nonzero"/><path fill="#64b3e4" d="M 461.769531 539.210938 L 656.960938 539.210938 L 656.960938 546.664062 L 461.769531 546.664062 Z M 461.769531 539.210938 " fill-opacity="1" fill-rule="nonzero"/><path fill="#569bc4" d="M 121.011719 498.792969 L 545.171875 498.792969 L 545.171875 509.890625 L 121.011719 509.890625 Z M 121.011719 498.792969 " fill-opacity="1" fill-rule="nonzero"/><path fill="#569bc4" d="M 123.707031 317.78125 L 230.421875 317.78125 L 230.421875 328.558594 L 123.707031 328.558594 Z M 123.707031 317.78125 " fill-opacity="1" fill-rule="nonzero"/><path fill="#569bc4" d="M 240.730469 317.78125 L 384.863281 317.78125 L 384.863281 328.558594 L 240.730469 328.558594 Z M 240.730469 317.78125 " fill-opacity="1" fill-rule="nonzero"/><path fill="#569bc4" d="M 395.171875 317.78125 L 454.949219 317.78125 L 454.949219 328.558594 L 395.171875 328.558594 Z M 395.171875 317.78125 " fill-opacity="1" fill-rule="nonzero"/><path fill="#569bc4" d="M 123.707031 288.457031 L 166.679688 288.457031 L 166.679688 299.234375 L 123.707031 299.234375 Z M 123.707031 288.457031 " fill-opacity="1" fill-rule="nonzero"/><path fill="#569bc4" d="M 176.988281 288.457031 L 298.921875 288.457031 L 298.921875 299.234375 L 176.988281 299.234375 Z M 176.988281 288.457031 " fill-opacity="1" fill-rule="nonzero"/><path fill="#569bc4" d="M 309.230469 288.457031 L 455.109375 288.457031 L 455.109375 299.234375 L 309.230469 299.234375 Z M 309.230469 288.457031 " fill-opacity="1" fill-rule="nonzero"/><path fill="#569bc4" d="M 123.707031 344.566406 L 195.695312 344.566406 L 195.695312 355.347656 L 123.707031 355.347656 Z M 123.707031 344.566406 " fill-opacity="1" fill-rule="nonzero"/><path fill="#569bc4" d="M 205.84375 344.566406 L 316.683594 344.566406 L 316.683594 355.347656 L 205.84375 355.347656 Z M 205.84375 344.566406 " fill-opacity="1" fill-rule="nonzero"/><path fill="#569bc4" d="M 327.148438 344.566406 L 430.054688 344.566406 L 430.054688 355.347656 L 327.148438 355.347656 Z M 327.148438 344.566406 " fill-opacity="1" fill-rule="nonzero"/><path fill="#569bc4" d="M 123.707031 371.671875 L 259.28125 371.671875 L 259.28125 382.449219 L 123.707031 382.449219 Z M 123.707031 371.671875 " fill-opacity="1" fill-rule="nonzero"/><path fill="#569bc4" d="M 269.589844 371.671875 L 316.839844 371.671875 L 316.839844 382.449219 L 269.589844 382.449219 Z M 269.589844 371.671875 " fill-opacity="1" fill-rule="nonzero"/><path fill="#569bc4" d="M 123.707031 409.554688 L 203.785156 409.554688 L 203.785156 420.332031 L 123.707031 420.332031 Z M 123.707031 409.554688 " fill-opacity="1" fill-rule="nonzero"/><path fill="#569bc4" d="M 213.933594 409.554688 L 349.1875 409.554688 L 349.1875 420.332031 L 213.933594 420.332031 Z M 213.933594 409.554688 " fill-opacity="1" fill-rule="nonzero"/><path fill="#ffffff" d="M 574.824219 420.492188 L 500.457031 420.492188 C 495.859375 420.492188 492.210938 416.847656 492.210938 412.25 L 492.210938 296.542969 C 492.210938 291.945312 495.859375 288.300781 500.457031 288.300781 L 574.824219 288.300781 C 579.421875 288.300781 583.070312 291.945312 583.070312 296.542969 L 583.070312 412.25 C 583.070312 416.6875 579.421875 420.492188 574.824219 420.492188 Z M 574.824219 420.492188 " fill-opacity="1" fill-rule="nonzero"/><path fill="#ffffff" d="M 583.070312 349.957031 L 492.210938 349.957031 L 492.210938 296.542969 C 492.210938 291.945312 495.859375 288.300781 500.457031 288.300781 L 574.824219 288.300781 C 579.421875 288.300781 583.070312 291.945312 583.070312 296.542969 Z M 583.070312 349.957031 " fill-opacity="1" fill-rule="nonzero"/><path fill="#569bc4" d="M 501.886719 366.285156 L 574.824219 366.285156 L 574.824219 367.074219 L 501.886719 367.074219 Z M 501.886719 366.285156 " fill-opacity="1" fill-rule="nonzero"/><path fill="#569bc4" d="M 501.886719 374.207031 L 574.824219 374.207031 L 574.824219 375 L 501.886719 375 Z M 501.886719 374.207031 " fill-opacity="1" fill-rule="nonzero"/><path fill="#569bc4" d="M 501.886719 382.292969 L 542.636719 382.292969 L 542.636719 383.085938 L 501.886719 383.085938 Z M 501.886719 382.292969 " fill-opacity="1" fill-rule="nonzero"/><path fill="#569bc4" d="M 514.410156 406.226562 C 514.410156 406.675781 514.367188 407.117188 514.28125 407.554688 C 514.195312 407.996094 514.0625 408.421875 513.894531 408.835938 C 513.722656 409.25 513.511719 409.640625 513.261719 410.011719 C 513.015625 410.386719 512.730469 410.730469 512.414062 411.046875 C 512.097656 411.363281 511.753906 411.644531 511.382812 411.894531 C 511.007812 412.140625 510.617188 412.351562 510.203125 412.523438 C 509.789062 412.695312 509.363281 412.824219 508.921875 412.910156 C 508.484375 413 508.042969 413.042969 507.59375 413.042969 C 507.144531 413.042969 506.703125 413 506.261719 412.910156 C 505.824219 412.824219 505.398438 412.695312 504.984375 412.523438 C 504.570312 412.351562 504.179688 412.140625 503.804688 411.894531 C 503.433594 411.644531 503.089844 411.363281 502.773438 411.046875 C 502.457031 410.730469 502.171875 410.386719 501.925781 410.011719 C 501.675781 409.640625 501.464844 409.25 501.292969 408.835938 C 501.121094 408.421875 500.992188 407.996094 500.90625 407.554688 C 500.820312 407.117188 500.773438 406.675781 500.773438 406.226562 C 500.773438 405.777344 500.820312 405.335938 500.90625 404.898438 C 500.992188 404.457031 501.121094 404.03125 501.292969 403.617188 C 501.464844 403.203125 501.675781 402.8125 501.925781 402.441406 C 502.171875 402.066406 502.457031 401.722656 502.773438 401.40625 C 503.089844 401.089844 503.433594 400.808594 503.804688 400.558594 C 504.179688 400.3125 504.570312 400.101562 504.984375 399.929688 C 505.398438 399.757812 505.824219 399.628906 506.261719 399.542969 C 506.703125 399.453125 507.144531 399.410156 507.59375 399.410156 C 508.042969 399.410156 508.484375 399.453125 508.921875 399.542969 C 509.363281 399.628906 509.789062 399.757812 510.203125 399.929688 C 510.617188 400.101562 511.007812 400.3125 511.382812 400.558594 C 511.753906 400.808594 512.097656 401.089844 512.414062 401.40625 C 512.730469 401.722656 513.015625 402.066406 513.261719 402.441406 C 513.511719 402.8125 513.722656 403.203125 513.894531 403.617188 C 514.0625 404.03125 514.195312 404.457031 514.28125 404.898438 C 514.367188 405.335938 514.410156 405.777344 514.410156 406.226562 Z M 514.410156 406.226562 " fill-opacity="1" fill-rule="nonzero"/><path fill="#569bc4" d="M 519.804688 405.75 L 561.1875 405.75 L 561.1875 406.542969 L 519.804688 406.542969 Z M 519.804688 405.75 " fill-opacity="1" fill-rule="nonzero"/><path fill="#ffffff" d="M 685.660156 420.492188 L 611.292969 420.492188 C 606.695312 420.492188 603.050781 416.847656 603.050781 412.25 L 603.050781 296.542969 C 603.050781 291.945312 606.695312 288.300781 611.292969 288.300781 L 685.660156 288.300781 C 690.261719 288.300781 693.90625 291.945312 693.90625 296.542969 L 693.90625 412.25 C 693.75 416.6875 690.101562 420.492188 685.660156 420.492188 Z M 685.660156 420.492188 " fill-opacity="1" fill-rule="nonzero"/><path fill="#ffffff" d="M 693.75 349.957031 L 602.890625 349.957031 L 602.890625 296.542969 C 602.890625 291.945312 606.539062 288.300781 611.136719 288.300781 L 685.503906 288.300781 C 690.101562 288.300781 693.75 291.945312 693.75 296.542969 Z M 693.75 349.957031 " fill-opacity="1" fill-rule="nonzero"/><path fill="#569bc4" d="M 612.5625 366.285156 L 685.503906 366.285156 L 685.503906 367.074219 L 612.5625 367.074219 Z M 612.5625 366.285156 " fill-opacity="1" fill-rule="nonzero"/><path fill="#569bc4" d="M 612.5625 374.207031 L 685.503906 374.207031 L 685.503906 375 L 612.5625 375 Z M 612.5625 374.207031 " fill-opacity="1" fill-rule="nonzero"/><path fill="#569bc4" d="M 612.5625 382.292969 L 653.3125 382.292969 L 653.3125 383.085938 L 612.5625 383.085938 Z M 612.5625 382.292969 " fill-opacity="1" fill-rule="nonzero"/><path fill="#569bc4" d="M 625.089844 406.226562 C 625.089844 406.675781 625.046875 407.117188 624.957031 407.554688 C 624.871094 407.996094 624.742188 408.421875 624.570312 408.835938 C 624.398438 409.25 624.1875 409.640625 623.941406 410.011719 C 623.691406 410.386719 623.410156 410.730469 623.09375 411.046875 C 622.777344 411.363281 622.433594 411.644531 622.058594 411.894531 C 621.6875 412.140625 621.292969 412.351562 620.878906 412.523438 C 620.46875 412.695312 620.039062 412.824219 619.601562 412.910156 C 619.164062 413 618.71875 413.042969 618.273438 413.042969 C 617.824219 413.042969 617.378906 413 616.941406 412.910156 C 616.503906 412.824219 616.074219 412.695312 615.664062 412.523438 C 615.25 412.351562 614.855469 412.140625 614.484375 411.894531 C 614.109375 411.644531 613.765625 411.363281 613.449219 411.046875 C 613.132812 410.730469 612.851562 410.386719 612.601562 410.011719 C 612.355469 409.640625 612.144531 409.25 611.972656 408.835938 C 611.800781 408.421875 611.671875 407.996094 611.585938 407.554688 C 611.496094 407.117188 611.453125 406.675781 611.453125 406.226562 C 611.453125 405.777344 611.496094 405.335938 611.585938 404.898438 C 611.671875 404.457031 611.800781 404.03125 611.972656 403.617188 C 612.144531 403.203125 612.355469 402.8125 612.601562 402.441406 C 612.851562 402.066406 613.132812 401.722656 613.449219 401.40625 C 613.765625 401.089844 614.109375 400.808594 614.484375 400.558594 C 614.855469 400.3125 615.25 400.101562 615.664062 399.929688 C 616.074219 399.757812 616.503906 399.628906 616.941406 399.542969 C 617.378906 399.453125 617.824219 399.410156 618.273438 399.410156 C 618.71875 399.410156 619.164062 399.453125 619.601562 399.542969 C 620.039062 399.628906 620.46875 399.757812 620.878906 399.929688 C 621.292969 400.101562 621.6875 400.3125 622.058594 400.558594 C 622.433594 400.808594 622.777344 401.089844 623.09375 401.40625 C 623.410156 401.722656 623.691406 402.066406 623.941406 402.441406 C 624.191406 402.8125 624.398438 403.203125 624.570312 403.617188 C 624.742188 404.03125 624.871094 404.457031 624.957031 404.898438 C 625.046875 405.335938 625.089844 405.777344 625.089844 406.226562 Z M 625.089844 406.226562 " fill-opacity="1" fill-rule="nonzero"/><path fill="#569bc4" d="M 630.480469 405.75 L 671.867188 405.75 L 671.867188 406.542969 L 630.480469 406.542969 Z M 630.480469 405.75 " fill-opacity="1" fill-rule="nonzero"/><path fill="#ffffff" d="M 676.464844 183.84375 L 669.011719 177.980469 C 669.011719 177.980469 668.855469 177.980469 668.855469 177.820312 C 669.171875 177.34375 669.488281 176.710938 669.804688 176.078125 C 670.28125 174.96875 670.4375 173.699219 670.4375 172.433594 C 670.4375 171.164062 670.121094 169.894531 669.644531 168.785156 C 669.171875 167.675781 668.378906 166.566406 667.425781 165.617188 C 665.683594 163.871094 663.304688 162.921875 660.765625 162.921875 C 659.5 162.921875 658.230469 163.238281 657.121094 163.714844 C 655.851562 164.1875 654.742188 164.980469 653.949219 165.933594 C 652.996094 166.882812 652.363281 167.992188 651.886719 169.101562 C 651.410156 170.210938 651.253906 171.480469 651.253906 172.75 C 651.253906 174.015625 651.570312 175.285156 652.046875 176.394531 C 652.523438 177.503906 653.3125 178.613281 654.265625 179.5625 C 656.011719 181.308594 658.386719 182.257812 660.925781 182.257812 C 662.195312 182.257812 663.460938 181.941406 664.574219 181.464844 C 665.207031 181.148438 665.683594 180.832031 666.316406 180.515625 C 666.316406 180.515625 666.476562 180.675781 666.476562 180.675781 L 672.976562 187.488281 C 673.453125 187.964844 674.085938 188.125 674.5625 188.125 C 675.195312 188.125 675.988281 187.808594 676.464844 187.332031 C 676.941406 186.855469 677.257812 186.0625 677.257812 185.429688 C 677.257812 184.953125 676.941406 184.320312 676.464844 183.84375 Z M 660.765625 179.5625 C 659.023438 179.5625 657.4375 178.929688 656.167969 177.664062 C 653.472656 175.125 653.3125 170.847656 656.011719 168.152344 C 657.277344 166.726562 659.179688 166.089844 660.925781 166.089844 C 662.667969 166.089844 664.253906 166.726562 665.523438 167.992188 C 668.21875 170.53125 668.378906 174.808594 665.683594 177.503906 C 664.414062 178.773438 662.667969 179.5625 660.765625 179.5625 Z M 660.765625 179.5625 " fill-opacity="1" fill-rule="nonzero"/><path fill="#ffffff" d="M 107.058594 81.132812 C 107.058594 81.890625 106.984375 82.644531 106.835938 83.390625 C 106.6875 84.136719 106.46875 84.859375 106.179688 85.5625 C 105.886719 86.261719 105.53125 86.929688 105.109375 87.5625 C 104.6875 88.191406 104.207031 88.777344 103.667969 89.316406 C 103.132812 89.851562 102.546875 90.332031 101.914062 90.753906 C 101.285156 91.175781 100.617188 91.53125 99.914062 91.824219 C 99.210938 92.113281 98.488281 92.332031 97.742188 92.480469 C 96.996094 92.628906 96.246094 92.703125 95.484375 92.703125 C 94.722656 92.703125 93.972656 92.628906 93.226562 92.480469 C 92.480469 92.332031 91.757812 92.113281 91.054688 91.824219 C 90.351562 91.53125 89.6875 91.175781 89.054688 90.753906 C 88.421875 90.332031 87.835938 89.851562 87.300781 89.316406 C 86.761719 88.777344 86.28125 88.191406 85.859375 87.5625 C 85.4375 86.929688 85.082031 86.261719 84.789062 85.5625 C 84.5 84.859375 84.28125 84.136719 84.132812 83.390625 C 83.984375 82.644531 83.910156 81.890625 83.910156 81.132812 C 83.910156 80.371094 83.984375 79.621094 84.132812 78.875 C 84.28125 78.128906 84.5 77.40625 84.789062 76.703125 C 85.082031 76.003906 85.4375 75.335938 85.859375 74.703125 C 86.28125 74.074219 86.761719 73.488281 87.300781 72.949219 C 87.835938 72.414062 88.421875 71.933594 89.054688 71.511719 C 89.6875 71.089844 90.351562 70.734375 91.054688 70.441406 C 91.757812 70.152344 92.480469 69.933594 93.226562 69.785156 C 93.972656 69.636719 94.722656 69.5625 95.484375 69.5625 C 96.246094 69.5625 96.996094 69.636719 97.742188 69.785156 C 98.488281 69.933594 99.210938 70.152344 99.914062 70.441406 C 100.617188 70.734375 101.285156 71.089844 101.914062 71.511719 C 102.546875 71.933594 103.132812 72.414062 103.667969 72.949219 C 104.207031 73.488281 104.6875 74.074219 105.109375 74.703125 C 105.53125 75.335938 105.886719 76.003906 106.179688 76.703125 C 106.46875 77.40625 106.6875 78.128906 106.835938 78.875 C 106.984375 79.621094 107.058594 80.371094 107.058594 81.132812 Z M 107.058594 81.132812 " fill-opacity="1" fill-rule="nonzero"/><path fill="#ffffff" d="M 139.089844 81.132812 C 139.089844 81.890625 139.015625 82.644531 138.867188 83.390625 C 138.71875 84.136719 138.5 84.859375 138.207031 85.5625 C 137.917969 86.261719 137.5625 86.929688 137.140625 87.5625 C 136.714844 88.191406 136.238281 88.777344 135.699219 89.316406 C 135.160156 89.851562 134.578125 90.332031 133.945312 90.753906 C 133.3125 91.175781 132.644531 91.53125 131.945312 91.824219 C 131.242188 92.113281 130.519531 92.332031 129.773438 92.480469 C 129.027344 92.628906 128.273438 92.703125 127.515625 92.703125 C 126.753906 92.703125 126 92.628906 125.257812 92.480469 C 124.511719 92.332031 123.785156 92.113281 123.085938 91.824219 C 122.382812 91.53125 121.714844 91.175781 121.082031 90.753906 C 120.453125 90.332031 119.867188 89.851562 119.328125 89.316406 C 118.792969 88.777344 118.3125 88.191406 117.890625 87.5625 C 117.46875 86.929688 117.109375 86.261719 116.820312 85.5625 C 116.53125 84.859375 116.308594 84.136719 116.160156 83.390625 C 116.011719 82.644531 115.9375 81.890625 115.9375 81.132812 C 115.9375 80.371094 116.011719 79.621094 116.160156 78.875 C 116.308594 78.128906 116.53125 77.40625 116.820312 76.703125 C 117.109375 76.003906 117.46875 75.335938 117.890625 74.703125 C 118.3125 74.074219 118.792969 73.488281 119.328125 72.949219 C 119.867188 72.414062 120.453125 71.933594 121.082031 71.511719 C 121.714844 71.089844 122.382812 70.734375 123.085938 70.441406 C 123.785156 70.152344 124.511719 69.933594 125.257812 69.785156 C 126 69.636719 126.753906 69.5625 127.515625 69.5625 C 128.273438 69.5625 129.027344 69.636719 129.773438 69.785156 C 130.519531 69.933594 131.242188 70.152344 131.945312 70.441406 C 132.644531 70.734375 133.3125 71.089844 133.945312 71.511719 C 134.578125 71.933594 135.160156 72.414062 135.699219 72.949219 C 136.238281 73.488281 136.714844 74.074219 137.140625 74.703125 C 137.5625 75.335938 137.917969 76.003906 138.207031 76.703125 C 138.5 77.40625 138.71875 78.128906 138.867188 78.875 C 139.015625 79.621094 139.089844 80.371094 139.089844 81.132812 Z M 139.089844 81.132812 " fill-opacity="1" fill-rule="nonzero"/><path fill="#ffffff" d="M 171.121094 81.132812 C 171.121094 81.890625 171.046875 82.644531 170.898438 83.390625 C 170.75 84.136719 170.53125 84.859375 170.238281 85.5625 C 169.949219 86.261719 169.589844 86.929688 169.167969 87.5625 C 168.746094 88.191406 168.265625 88.777344 167.730469 89.316406 C 167.191406 89.851562 166.605469 90.332031 165.976562 90.753906 C 165.34375 91.175781 164.675781 91.53125 163.972656 91.824219 C 163.273438 92.113281 162.546875 92.332031 161.800781 92.480469 C 161.058594 92.628906 160.304688 92.703125 159.542969 92.703125 C 158.785156 92.703125 158.03125 92.628906 157.285156 92.480469 C 156.539062 92.332031 155.816406 92.113281 155.113281 91.824219 C 154.414062 91.53125 153.746094 91.175781 153.113281 90.753906 C 152.480469 90.332031 151.898438 89.851562 151.359375 89.316406 C 150.820312 88.777344 150.34375 88.191406 149.921875 87.5625 C 149.496094 86.929688 149.140625 86.261719 148.851562 85.5625 C 148.558594 84.859375 148.339844 84.136719 148.191406 83.390625 C 148.042969 82.644531 147.96875 81.890625 147.96875 81.132812 C 147.96875 80.371094 148.042969 79.621094 148.191406 78.875 C 148.339844 78.128906 148.558594 77.40625 148.851562 76.703125 C 149.140625 76.003906 149.496094 75.335938 149.921875 74.703125 C 150.34375 74.074219 150.820312 73.488281 151.359375 72.949219 C 151.898438 72.414062 152.480469 71.933594 153.113281 71.511719 C 153.746094 71.089844 154.414062 70.734375 155.113281 70.441406 C 155.816406 70.152344 156.539062 69.933594 157.285156 69.785156 C 158.03125 69.636719 158.785156 69.5625 159.542969 69.5625 C 160.304688 69.5625 161.058594 69.636719 161.800781 69.785156 C 162.546875 69.933594 163.273438 70.152344 163.972656 70.441406 C 164.675781 70.734375 165.34375 71.089844 165.976562 71.511719 C 166.605469 71.933594 167.191406 72.414062 167.730469 72.949219 C 168.265625 73.488281 168.746094 74.074219 169.167969 74.703125 C 169.589844 75.335938 169.949219 76.003906 170.238281 76.703125 C 170.53125 77.40625 170.75 78.128906 170.898438 78.875 C 171.046875 79.621094 171.121094 80.371094 171.121094 81.132812 Z M 171.121094 81.132812 " fill-opacity="1" fill-rule="nonzero"/><path fill="#ffffff" d="M 673.292969 351.542969 C 673.292969 353.777344 673.238281 356.007812 673.128906 358.238281 C 673.019531 360.46875 672.855469 362.695312 672.636719 364.917969 C 672.417969 367.140625 672.144531 369.359375 671.816406 371.566406 C 671.488281 373.777344 671.105469 375.976562 670.671875 378.167969 C 670.234375 380.359375 669.746094 382.535156 669.203125 384.703125 C 668.660156 386.871094 668.0625 389.019531 667.414062 391.160156 C 666.765625 393.296875 666.066406 395.414062 665.3125 397.519531 C 664.558594 399.621094 663.757812 401.703125 662.902344 403.769531 C 662.046875 405.832031 661.140625 407.875 660.1875 409.890625 C 659.230469 411.910156 658.226562 413.90625 657.171875 415.875 C 656.121094 417.84375 655.019531 419.789062 653.871094 421.703125 C 652.722656 423.621094 651.527344 425.503906 650.285156 427.363281 C 649.042969 429.21875 647.757812 431.046875 646.425781 432.839844 C 645.09375 434.632812 643.722656 436.394531 642.304688 438.121094 C 640.886719 439.847656 639.425781 441.539062 637.925781 443.191406 C 636.425781 444.847656 634.886719 446.464844 633.304688 448.042969 C 631.726562 449.621094 630.109375 451.164062 628.453125 452.664062 C 626.796875 454.164062 625.105469 455.621094 623.378906 457.039062 C 621.652344 458.453125 619.890625 459.828125 618.097656 461.160156 C 616.300781 462.488281 614.476562 463.773438 612.617188 465.015625 C 610.761719 466.257812 608.875 467.449219 606.957031 468.597656 C 605.039062 469.746094 603.097656 470.847656 601.125 471.902344 C 599.15625 472.953125 597.160156 473.957031 595.140625 474.914062 C 593.121094 475.867188 591.078125 476.773438 589.015625 477.628906 C 586.949219 478.480469 584.867188 479.285156 582.761719 480.039062 C 580.660156 480.789062 578.539062 481.492188 576.398438 482.140625 C 574.261719 482.789062 572.109375 483.382812 569.941406 483.925781 C 567.773438 484.46875 565.59375 484.957031 563.402344 485.394531 C 561.210938 485.828125 559.011719 486.210938 556.800781 486.539062 C 554.589844 486.867188 552.375 487.140625 550.152344 487.359375 C 547.925781 487.578125 545.699219 487.742188 543.46875 487.851562 C 541.238281 487.960938 539.003906 488.015625 536.769531 488.015625 C 534.535156 488.015625 532.300781 487.960938 530.070312 487.851562 C 527.839844 487.742188 525.609375 487.578125 523.386719 487.359375 C 521.164062 487.140625 518.949219 486.867188 516.738281 486.539062 C 514.527344 486.210938 512.328125 485.828125 510.136719 485.394531 C 507.945312 484.957031 505.765625 484.46875 503.597656 483.925781 C 501.429688 483.382812 499.277344 482.789062 497.136719 482.140625 C 495 481.492188 492.878906 480.789062 490.777344 480.039062 C 488.671875 479.285156 486.589844 478.480469 484.523438 477.628906 C 482.460938 476.773438 480.417969 475.867188 478.398438 474.914062 C 476.378906 473.957031 474.382812 472.953125 472.414062 471.902344 C 470.441406 470.847656 468.5 469.746094 466.582031 468.597656 C 464.664062 467.449219 462.777344 466.257812 460.921875 465.015625 C 459.0625 463.773438 457.238281 462.488281 455.441406 461.160156 C 453.648438 459.828125 451.886719 458.453125 450.160156 457.039062 C 448.433594 455.621094 446.742188 454.164062 445.085938 452.664062 C 443.429688 451.164062 441.8125 449.621094 440.230469 448.042969 C 438.652344 446.464844 437.113281 444.847656 435.613281 443.191406 C 434.109375 441.539062 432.652344 439.847656 431.234375 438.121094 C 429.816406 436.394531 428.441406 434.632812 427.113281 432.839844 C 425.78125 431.046875 424.496094 429.21875 423.253906 427.363281 C 422.011719 425.503906 420.816406 423.621094 419.667969 421.703125 C 418.519531 419.789062 417.417969 417.84375 416.367188 415.875 C 415.3125 413.90625 414.308594 411.910156 413.351562 409.890625 C 412.398438 407.875 411.492188 405.832031 410.636719 403.769531 C 409.78125 401.703125 408.980469 399.621094 408.226562 397.519531 C 407.472656 395.414062 406.773438 393.296875 406.125 391.160156 C 405.476562 389.019531 404.878906 386.871094 404.335938 384.703125 C 403.792969 382.535156 403.304688 380.359375 402.867188 378.167969 C 402.433594 375.976562 402.050781 373.777344 401.722656 371.566406 C 401.394531 369.359375 401.121094 367.140625 400.902344 364.917969 C 400.683594 362.695312 400.519531 360.46875 400.410156 358.238281 C 400.300781 356.007812 400.246094 353.777344 400.246094 351.542969 C 400.246094 349.308594 400.300781 347.078125 400.410156 344.847656 C 400.519531 342.617188 400.683594 340.386719 400.902344 338.164062 C 401.121094 335.941406 401.394531 333.726562 401.722656 331.519531 C 402.050781 329.308594 402.433594 327.109375 402.867188 324.917969 C 403.304688 322.726562 403.792969 320.550781 404.335938 318.382812 C 404.878906 316.214844 405.476562 314.0625 406.125 311.925781 C 406.773438 309.789062 407.472656 307.667969 408.226562 305.566406 C 408.980469 303.464844 409.78125 301.378906 410.636719 299.316406 C 411.492188 297.253906 412.398438 295.210938 413.351562 293.191406 C 414.308594 291.171875 415.3125 289.179688 416.367188 287.210938 C 417.417969 285.238281 418.519531 283.296875 419.667969 281.382812 C 420.816406 279.464844 422.011719 277.578125 423.253906 275.722656 C 424.496094 273.863281 425.78125 272.039062 427.113281 270.246094 C 428.441406 268.453125 429.816406 266.691406 431.234375 264.964844 C 432.652344 263.238281 434.109375 261.546875 435.613281 259.894531 C 437.113281 258.238281 438.652344 256.621094 440.230469 255.042969 C 441.8125 253.460938 443.429688 251.921875 445.085938 250.421875 C 446.742188 248.921875 448.433594 247.464844 450.160156 246.046875 C 451.886719 244.628906 453.648438 243.257812 455.441406 241.925781 C 457.238281 240.597656 459.0625 239.308594 460.921875 238.070312 C 462.777344 236.828125 464.664062 235.632812 466.582031 234.484375 C 468.5 233.335938 470.441406 232.238281 472.414062 231.183594 C 474.382812 230.132812 476.378906 229.128906 478.398438 228.171875 C 480.417969 227.21875 482.460938 226.3125 484.523438 225.457031 C 486.589844 224.601562 488.671875 223.800781 490.777344 223.046875 C 492.878906 222.292969 495 221.59375 497.136719 220.945312 C 499.277344 220.296875 501.429688 219.703125 503.597656 219.160156 C 505.765625 218.617188 507.945312 218.128906 510.136719 217.691406 C 512.328125 217.257812 514.527344 216.875 516.738281 216.546875 C 518.949219 216.21875 521.164062 215.945312 523.386719 215.726562 C 525.609375 215.507812 527.839844 215.34375 530.070312 215.234375 C 532.300781 215.125 534.535156 215.070312 536.769531 215.070312 C 539.003906 215.070312 541.238281 215.125 543.46875 215.234375 C 545.699219 215.34375 547.925781 215.507812 550.152344 215.726562 C 552.375 215.945312 554.589844 216.21875 556.800781 216.546875 C 559.011719 216.875 561.210938 217.257812 563.402344 217.691406 C 565.59375 218.128906 567.773438 218.617188 569.941406 219.160156 C 572.109375 219.703125 574.261719 220.296875 576.398438 220.945312 C 578.539062 221.59375 580.660156 222.292969 582.761719 223.046875 C 584.867188 223.800781 586.949219 224.601562 589.015625 225.457031 C 591.078125 226.3125 593.121094 227.21875 595.140625 228.171875 C 597.160156 229.128906 599.15625 230.132812 601.125 231.183594 C 603.097656 232.238281 605.039062 233.335938 606.957031 234.484375 C 608.875 235.632812 610.761719 236.828125 612.617188 238.070312 C 614.476562 239.308594 616.300781 240.597656 618.097656 241.925781 C 619.890625 243.257812 621.652344 244.628906 623.378906 246.046875 C 625.105469 247.464844 626.796875 248.921875 628.453125 250.421875 C 630.109375 251.921875 631.726562 253.460938 633.304688 255.042969 C 634.886719 256.621094 636.425781 258.238281 637.925781 259.894531 C 639.425781 261.546875 640.886719 263.238281 642.304688 264.964844 C 643.722656 266.691406 645.09375 268.453125 646.425781 270.246094 C 647.757812 272.039062 649.042969 273.863281 650.285156 275.722656 C 651.527344 277.578125 652.722656 279.464844 653.871094 281.382812 C 655.019531 283.296875 656.121094 285.238281 657.171875 287.210938 C 658.226562 289.179688 659.230469 291.171875 660.1875 293.191406 C 661.140625 295.210938 662.046875 297.253906 662.902344 299.316406 C 663.757812 301.378906 664.558594 303.464844 665.3125 305.566406 C 666.066406 307.667969 666.765625 309.789062 667.414062 311.925781 C 668.0625 314.0625 668.660156 316.214844 669.203125 318.382812 C 669.746094 320.550781 670.234375 322.726562 670.671875 324.917969 C 671.105469 327.109375 671.488281 329.308594 671.816406 331.519531 C 672.144531 333.726562 672.417969 335.941406 672.636719 338.164062 C 672.855469 340.386719 673.019531 342.617188 673.128906 344.847656 C 673.238281 347.078125 673.292969 349.308594 673.292969 351.542969 Z M 673.292969 351.542969 " fill-opacity="0.4" fill-rule="nonzero"/><path fill="#000000" d="M 632 448.378906 L 649.863281 427.359375 L 687.203125 459.074219 L 669.335938 480.09375 Z M 632 448.378906 " fill-opacity="1" fill-rule="nonzero"/><path fill="#000000" d="M 798.242188 567.742188 C 786.667969 581.214844 766.371094 582.960938 752.894531 571.390625 L 656.328125 492.613281 C 651.410156 488.332031 650.777344 480.882812 654.898438 475.96875 L 681.222656 444.902344 C 685.503906 439.988281 692.957031 439.355469 697.871094 443.476562 L 794.4375 522.253906 C 808.074219 533.824219 809.660156 554.269531 798.242188 567.742188 Z M 798.242188 567.742188 " fill-opacity="1" fill-rule="nonzero"/><path fill="#000000" d="M 536.609375 490.234375 C 525.988281 490.234375 515.523438 488.964844 505.214844 486.589844 C 487.613281 482.46875 471.28125 475.175781 456.378906 464.714844 C 441.628906 454.253906 429.105469 441.257812 419.273438 426.039062 C 409.125 410.347656 402.464844 392.914062 399.136719 374.367188 C 395.964844 355.820312 396.441406 337.117188 400.722656 319.050781 C 404.84375 301.453125 412.136719 285.128906 422.601562 270.230469 C 433.070312 255.488281 446.070312 242.964844 461.292969 233.140625 C 476.992188 222.996094 494.433594 216.335938 512.984375 213.007812 C 531.535156 209.839844 550.246094 210.316406 568.324219 214.59375 C 585.925781 218.714844 602.257812 226.007812 617.160156 236.46875 C 631.90625 246.929688 644.433594 259.925781 654.265625 275.144531 C 664.414062 290.835938 671.074219 308.269531 674.402344 326.816406 C 677.574219 345.359375 677.097656 364.0625 672.816406 382.132812 C 668.695312 399.726562 661.402344 416.054688 650.9375 430.953125 C 640.46875 445.695312 627.46875 458.214844 612.246094 468.042969 C 596.546875 478.1875 579.105469 484.84375 560.554688 488.175781 C 552.625 489.601562 544.539062 490.234375 536.609375 490.234375 Z M 513.777344 217.445312 L 514.570312 221.566406 C 497.128906 224.578125 480.796875 230.921875 466.050781 240.429688 C 451.777344 249.625 439.570312 261.351562 429.738281 275.144531 C 419.90625 289.089844 412.929688 304.464844 409.125 320.949219 C 405.160156 338.070312 404.683594 355.503906 407.699219 372.941406 C 410.710938 390.375 417.054688 406.703125 426.566406 421.441406 C 435.765625 435.707031 447.496094 447.914062 461.292969 457.742188 C 475.085938 467.566406 490.628906 474.542969 507.117188 478.347656 C 524.242188 482.308594 541.683594 482.785156 559.128906 479.773438 C 576.570312 476.761719 592.902344 470.421875 607.648438 460.910156 C 621.917969 451.71875 634.128906 439.988281 643.960938 426.199219 C 653.789062 412.25 660.765625 396.875 664.574219 380.390625 C 668.535156 363.273438 669.011719 345.835938 666 328.402344 C 662.988281 310.964844 656.644531 294.640625 647.128906 279.898438 C 637.933594 265.632812 626.199219 253.429688 612.40625 243.601562 C 598.609375 233.773438 583.070312 226.800781 566.578125 222.996094 C 549.453125 219.03125 532.011719 218.558594 514.570312 221.566406 Z M 513.777344 217.445312 " fill-opacity="1" fill-rule="nonzero"/><path fill="#ffffff" d="M 792.058594 546.34375 C 790.472656 548.246094 787.460938 548.5625 785.558594 546.820312 L 685.980469 465.347656 C 684.074219 463.765625 683.757812 460.753906 685.503906 458.851562 C 687.089844 456.949219 690.101562 456.632812 692.003906 458.375 L 791.582031 539.847656 C 793.484375 541.589844 793.644531 544.441406 792.058594 546.34375 Z M 792.058594 546.34375 " fill-opacity="1" fill-rule="nonzero"/><path fill="#ffffff" d="M 244.058594 494.988281 C 241.523438 490.074219 243.742188 491.976562 243.902344 490.710938 C 245.960938 475.652344 238.035156 473.117188 228.203125 466.300781 C 226.300781 465.03125 224.875 461.863281 224.714844 461.070312 C 223.761719 453.144531 220.910156 438.402344 213.933594 435.707031 C 210.601562 434.441406 210.761719 436.027344 210.761719 437.929688 C 211.238281 451.875 213.296875 467.886719 214.089844 481.359375 C 214.40625 488.648438 214.882812 486.429688 216.46875 494.039062 C 223.289062 525.421875 230.898438 559.027344 238.191406 590.886719 L 184.914062 586.445312 C 184.914062 586.445312 175.402344 627.183594 222.335938 644.460938 C 269.746094 661.738281 285.128906 659.359375 290.042969 656.347656 C 290.042969 656.347656 290.042969 656.347656 290.203125 656.1875 C 292.738281 654.289062 294.484375 651.75 295.433594 648.738281 C 305.265625 617.671875 271.648438 546.820312 244.058594 494.988281 Z M 244.058594 494.988281 " fill-opacity="1" fill-rule="nonzero"/><path fill="#000000" d="M 279.417969 659.199219 C 277.199219 659.199219 274.820312 659.042969 272.125 658.726562 C 259.914062 657.300781 243.109375 652.703125 222.175781 645.09375 C 211.394531 641.132812 202.515625 635.582031 196.171875 628.609375 C 191.097656 623.0625 187.453125 616.40625 185.390625 609.113281 C 181.902344 596.75 184.121094 586.605469 184.28125 586.128906 L 184.4375 585.335938 L 237.242188 589.777344 C 229.628906 556.648438 222.175781 523.679688 215.835938 494.039062 C 215.199219 491.34375 214.726562 489.917969 214.40625 488.808594 C 213.773438 486.90625 213.613281 485.953125 213.296875 481.359375 C 212.980469 475.019531 212.347656 467.886719 211.710938 460.910156 C 211.078125 453.144531 210.285156 445.21875 209.96875 437.769531 C 209.96875 436.5 209.808594 435.390625 210.761719 434.757812 C 211.554688 434.28125 212.503906 434.28125 214.25 434.917969 C 217.578125 436.183594 220.273438 439.988281 222.496094 446.171875 C 224.554688 452.035156 225.347656 458.535156 225.664062 461.070312 C 225.664062 461.546875 227.09375 464.558594 228.679688 465.667969 C 229.945312 466.617188 231.375 467.410156 232.644531 468.203125 C 240.414062 473.273438 246.597656 477.238281 244.695312 490.710938 C 244.535156 491.503906 243.902344 491.820312 243.582031 491.976562 C 243.582031 492.296875 243.902344 492.929688 244.695312 494.515625 C 262.613281 528.117188 275.613281 555.855469 284.492188 579.3125 C 296.703125 611.492188 300.667969 634.949219 296.226562 648.898438 C 295.277344 652.066406 293.371094 654.761719 290.675781 656.664062 C 290.519531 656.824219 290.359375 656.824219 290.359375 656.824219 C 287.980469 658.410156 284.175781 659.199219 279.417969 659.199219 Z M 185.707031 587.238281 C 185.230469 589.777344 184.121094 598.492188 186.976562 608.636719 C 189.039062 615.613281 192.527344 621.953125 197.441406 627.339844 C 203.625 634.15625 212.1875 639.546875 222.8125 643.351562 C 243.582031 650.957031 260.234375 655.554688 272.285156 656.824219 C 282.589844 657.933594 287.507812 656.664062 289.726562 655.238281 L 289.882812 655.078125 C 292.105469 653.335938 293.847656 650.957031 294.640625 648.265625 C 298.921875 634.632812 294.957031 611.648438 282.90625 579.789062 C 274.027344 556.488281 261.027344 528.75 243.265625 495.308594 C 241.839844 492.769531 241.839844 491.820312 242 491.183594 C 242.15625 490.550781 242.632812 490.394531 242.949219 490.394531 C 244.695312 478.03125 239.460938 474.699219 231.53125 469.46875 C 230.265625 468.679688 228.996094 467.726562 227.570312 466.777344 C 225.507812 465.347656 223.921875 462.019531 223.761719 460.910156 C 222.652344 450.925781 219.324219 438.402344 213.457031 436.183594 C 212.03125 435.550781 211.710938 435.867188 211.710938 435.867188 C 211.554688 436.027344 211.554688 436.976562 211.554688 437.453125 C 211.871094 444.742188 212.503906 452.667969 213.296875 460.433594 C 213.933594 467.25 214.566406 474.382812 214.882812 480.882812 C 215.042969 485.320312 215.359375 486.113281 215.835938 488.015625 C 216.152344 489.125 216.628906 490.550781 217.261719 493.40625 C 223.761719 523.363281 231.214844 556.804688 238.984375 590.25 L 239.300781 591.359375 Z M 185.707031 587.238281 " fill-opacity="1" fill-rule="nonzero"/><path fill="#ffffff" d="M 204.257812 445.851562 C 200.296875 452.984375 191.890625 459.324219 171.753906 459.644531 L 156.214844 505.609375 L 86.128906 473.589844 L 148.285156 332.839844 C 148.285156 332.839844 190.941406 367.394531 200.929688 395.289062 C 202.039062 398.460938 201.5625 401.789062 199.660156 404.484375 C 198.710938 405.910156 197.28125 407.496094 195.222656 408.921875 L 199.976562 419.222656 C 202.992188 425.5625 207.589844 439.671875 204.257812 445.851562 Z M 204.257812 445.851562 " fill-opacity="1" fill-rule="nonzero"/><path fill="#000000" d="M 156.691406 506.71875 L 84.859375 473.910156 L 147.8125 331.414062 L 148.605469 332.046875 C 148.761719 332.203125 159.386719 340.921875 171.277344 352.96875 C 187.136719 369.136719 197.28125 383.242188 201.5625 394.972656 C 202.832031 398.300781 202.199219 402.105469 200.136719 404.957031 C 199.027344 406.542969 197.757812 407.8125 196.171875 409.078125 L 200.769531 418.75 C 203.308594 423.980469 208.859375 439.355469 205.050781 446.171875 C 199.976562 455.363281 189.355469 459.960938 172.386719 460.277344 Z M 87.238281 473.117188 L 155.738281 504.5 L 171.121094 458.851562 L 171.753906 458.851562 C 188.402344 458.691406 198.867188 454.253906 203.625 445.535156 L 204.417969 446.011719 L 203.625 445.535156 C 205.050781 443 205.050781 438.71875 203.785156 432.855469 C 202.675781 427.785156 200.769531 422.710938 199.34375 419.699219 L 194.269531 408.761719 L 194.90625 408.289062 C 196.648438 407.019531 197.917969 405.59375 199.027344 404.007812 C 200.769531 401.628906 201.246094 398.460938 200.136719 395.605469 C 196.015625 384.351562 185.707031 369.929688 170.328125 354.238281 C 160.496094 344.25 151.457031 336.484375 148.761719 334.265625 Z M 87.238281 473.117188 " fill-opacity="1" fill-rule="nonzero"/><path fill="#ffffff" d="M 192.648438 375.773438 C 192.964844 376.53125 193.253906 377.292969 193.507812 378.0625 C 193.765625 378.828125 193.984375 379.585938 194.171875 380.328125 C 194.359375 381.074219 194.503906 381.796875 194.613281 382.492188 C 194.722656 383.1875 194.789062 383.84375 194.816406 384.460938 C 194.84375 385.082031 194.828125 385.648438 194.773438 386.167969 C 194.71875 386.6875 194.621094 387.144531 194.484375 387.542969 C 194.347656 387.941406 194.175781 388.269531 193.964844 388.53125 C 193.753906 388.792969 193.507812 388.984375 193.230469 389.097656 C 192.949219 389.214844 192.644531 389.257812 192.308594 389.222656 C 191.972656 389.1875 191.617188 389.078125 191.238281 388.898438 C 190.859375 388.714844 190.464844 388.460938 190.058594 388.132812 C 189.652344 387.808594 189.234375 387.421875 188.816406 386.964844 C 188.394531 386.511719 187.976562 386 187.554688 385.433594 C 187.136719 384.867188 186.730469 384.257812 186.332031 383.601562 C 185.929688 382.945312 185.550781 382.253906 185.183594 381.53125 C 184.820312 380.8125 184.476562 380.070312 184.160156 379.3125 C 183.84375 378.554688 183.558594 377.789062 183.300781 377.023438 C 183.046875 376.257812 182.824219 375.5 182.640625 374.753906 C 182.453125 374.007812 182.304688 373.289062 182.199219 372.59375 C 182.089844 371.898438 182.019531 371.242188 181.996094 370.621094 C 181.96875 370.003906 181.980469 369.433594 182.039062 368.917969 C 182.09375 368.398438 182.1875 367.941406 182.324219 367.542969 C 182.460938 367.144531 182.636719 366.816406 182.847656 366.554688 C 183.058594 366.292969 183.304688 366.101562 183.582031 365.984375 C 183.859375 365.871094 184.167969 365.828125 184.503906 365.863281 C 184.839844 365.898438 185.195312 366.003906 185.574219 366.1875 C 185.953125 366.371094 186.34375 366.625 186.753906 366.949219 C 187.160156 367.273438 187.574219 367.664062 187.996094 368.121094 C 188.417969 368.574219 188.835938 369.085938 189.253906 369.652344 C 189.671875 370.21875 190.082031 370.828125 190.480469 371.484375 C 190.878906 372.140625 191.261719 372.832031 191.625 373.550781 C 191.992188 374.273438 192.332031 375.015625 192.648438 375.773438 Z M 192.648438 375.773438 " fill-opacity="1" fill-rule="nonzero"/><path fill="#000000" d="M 192.683594 390.535156 C 189.355469 390.535156 185.550781 385.460938 183.171875 379.757812 C 181.902344 376.585938 180.949219 373.257812 180.949219 370.5625 C 180.792969 366.601562 182.0625 365.175781 183.328125 364.699219 C 184.4375 364.222656 186.5 364.222656 189.039062 367.234375 C 190.78125 369.136719 192.527344 371.988281 193.953125 375.316406 C 196.648438 381.660156 197.441406 388.792969 193.953125 390.375 C 193.476562 390.535156 193 390.535156 192.683594 390.535156 Z M 184.28125 367.074219 C 184.121094 367.074219 184.121094 367.074219 184.121094 367.074219 C 183.644531 367.234375 183.171875 368.34375 183.328125 370.5625 C 183.488281 372.941406 184.121094 375.953125 185.390625 378.804688 C 188.246094 385.621094 191.734375 388.472656 192.84375 388 C 193.792969 387.523438 194.269531 383.085938 191.574219 376.269531 C 190.304688 373.257812 188.71875 370.722656 187.132812 368.976562 C 185.867188 367.710938 184.914062 367.074219 184.28125 367.074219 Z M 184.28125 367.074219 " fill-opacity="1" fill-rule="nonzero"/><path fill="#000000" d="M 134.589844 392.238281 L 182.847656 377.085938 L 184.367188 381.925781 L 136.109375 397.078125 Z M 134.589844 392.238281 " fill-opacity="1" fill-rule="nonzero"/><g clip-path="url(#bb2ea236b4)"><path fill="#64b3e4" d="M 147.8125 754.460938 L 174.292969 757.949219 C 179.046875 758.582031 183.488281 757.316406 187.132812 754.9375 C 192.527344 751.292969 195.539062 745.109375 195.222656 738.613281 L 188.402344 567.902344 C 188.402344 567.902344 226.933594 506.085938 165.09375 486.746094 C 165.09375 486.746094 88.507812 499.902344 102.144531 442.367188 C 102.144531 442.367188 22.703125 431.429688 13.824219 598.019531 C 13.980469 597.859375 -5.996094 734.648438 147.8125 754.460938 Z M 147.8125 754.460938 " fill-opacity="1" fill-rule="nonzero"/><path fill="#f58989" d="M 176.667969 758.109375 C 175.875 758.109375 175.082031 758.109375 174.292969 757.949219 L 147.8125 754.621094 C 115.78125 750.5 88.984375 740.988281 67.894531 726.25 C 50.609375 714.203125 37.132812 698.511719 27.777344 679.648438 C 20.800781 665.382812 16.203125 649.375 14.140625 632.253906 C 12.554688 618.308594 13.03125 607.054688 13.507812 601.664062 C 13.664062 599.128906 13.824219 598.335938 13.980469 598.019531 C 16.042969 559.34375 22.070312 527.007812 32.058594 502.121094 C 39.988281 482.308594 50.292969 466.933594 62.820312 456.632812 C 68.6875 451.71875 78.199219 445.535156 90.410156 443.160156 C 97.703125 441.730469 102.460938 442.367188 102.621094 442.367188 L 102.777344 442.367188 L 102.777344 442.523438 C 99.289062 456.789062 101.351562 467.886719 108.488281 475.652344 C 117.207031 485.003906 132.269531 487.382812 143.371094 487.855469 C 155.421875 488.332031 165.410156 486.746094 165.570312 486.589844 C 182.535156 491.976562 193.476562 501.011719 198.234375 513.535156 C 202.992188 526.375 200.136719 540.320312 196.964844 549.992188 C 193.636719 559.976562 189.195312 567.269531 188.878906 567.902344 L 195.695312 738.613281 C 196.015625 745.109375 192.84375 751.449219 187.453125 755.097656 C 184.121094 757 180.476562 758.109375 176.667969 758.109375 Z M 147.8125 754.304688 L 174.292969 757.792969 C 178.730469 758.425781 183.328125 757.316406 187.132812 754.78125 C 192.367188 751.292969 195.378906 745.109375 195.222656 738.613281 L 188.402344 567.902344 C 188.402344 567.902344 193 560.453125 196.488281 549.992188 C 199.660156 540.480469 202.355469 526.375 197.757812 513.691406 C 193.160156 501.171875 182.21875 492.296875 165.410156 486.90625 C 164.777344 487.066406 154.945312 488.648438 143.210938 488.175781 C 132.113281 487.699219 117.050781 485.164062 108.167969 475.8125 C 100.875 468.042969 98.972656 456.949219 102.304688 442.523438 C 101.351562 442.367188 96.910156 442.050781 90.410156 443.316406 C 83.75 444.585938 73.601562 448.070312 62.980469 456.789062 C 50.609375 467.09375 40.304688 482.308594 32.375 502.121094 C 22.386719 527.007812 16.203125 559.34375 14.140625 597.859375 C 14.140625 598.019531 12.078125 612.125 14.300781 631.621094 C 15.566406 643.035156 18.105469 654.128906 21.753906 664.429688 C 26.191406 677.269531 32.535156 689.160156 40.304688 699.460938 C 63.296875 729.578125 99.449219 747.964844 147.8125 754.304688 Z M 147.8125 754.304688 " fill-opacity="1" fill-rule="nonzero"/></g><path fill="#64b3e4" d="M 163.03125 492.613281 C 163.03125 492.613281 183.328125 494.988281 194.429688 505.769531 C 207.75 518.765625 248.976562 581.535156 248.976562 581.535156 C 252.304688 584.863281 252.78125 590.09375 249.925781 593.898438 L 214.089844 639.386719 C 212.664062 641.132812 210.125 641.605469 208.066406 640.496094 C 197.441406 634.15625 165.410156 615.136719 154.3125 605.308594 C 141.625 594.214844 108.011719 563.78125 108.011719 563.78125 Z M 163.03125 492.613281 " fill-opacity="1" fill-rule="nonzero"/><path fill="#000000" d="M 180.15625 326.339844 C 177.304688 309.855469 151.933594 300.664062 125.453125 334.105469 C 108.644531 355.347656 81.371094 349.480469 76.773438 380.550781 C 72.808594 406.703125 97.386719 441.097656 105.632812 451.71875 C 107.695312 454.414062 110.867188 455.996094 114.355469 455.996094 C 120.378906 455.996094 129.734375 453.460938 136.234375 438.5625 C 137.503906 435.550781 136.550781 432.0625 133.855469 430.160156 C 128.148438 426.199219 119.585938 413.519531 126.40625 403.847656 C 133.222656 394.179688 148.285156 403.691406 158.277344 411.457031 C 160.972656 413.519531 174.132812 421.285156 165.730469 409.078125 C 161.128906 402.421875 161.921875 396.082031 160.972656 386.097656 C 158.910156 366.601562 188.71875 376.429688 180.15625 326.339844 Z M 180.15625 326.339844 " fill-opacity="1" fill-rule="nonzero"/><path fill="#000000" d="M 195.0625 408.921875 C 195.0625 408.921875 221.703125 442.050781 206.796875 451.875 C 194.585938 459.800781 182.0625 460.910156 175.402344 460.910156 C 172.707031 460.910156 170.167969 459.324219 169.058594 456.789062 C 163.03125 443.160156 137.503906 397.667969 152.886719 395.765625 C 153.203125 395.605469 186.976562 443.160156 195.0625 408.921875 Z M 195.0625 408.921875 " fill-opacity="1" fill-rule="nonzero"/><path fill="#ffffff" d="M 190.941406 631.144531 C 190.78125 631.144531 190.625 631.144531 190.625 630.988281 C 168.265625 619.734375 149.714844 607.84375 135.285156 595.640625 C 123.707031 585.8125 114.828125 575.667969 108.804688 565.683594 C 98.496094 548.40625 100.242188 537.308594 100.398438 536.835938 C 100.558594 536.359375 100.875 536.042969 101.351562 536.199219 C 101.828125 536.359375 102.144531 536.675781 101.984375 537.152344 C 101.984375 537.308594 100.242188 548.246094 110.230469 565.050781 C 116.097656 574.875 124.976562 584.863281 136.394531 594.53125 C 150.664062 606.578125 169.21875 618.464844 191.257812 629.558594 C 191.734375 629.71875 191.890625 630.351562 191.574219 630.671875 C 191.574219 630.988281 191.257812 631.144531 190.941406 631.144531 Z M 190.941406 631.144531 " fill-opacity="1" fill-rule="nonzero"/></svg>