<svg xmlns="http://www.w3.org/2000/svg" xmlns:xlink="http://www.w3.org/1999/xlink" width="1080" zoomAndPan="magnify" viewBox="0 0 810 809.999993" height="1080" preserveAspectRatio="xMidYMid meet" version="1.0"><defs><clipPath id="47def42c80"><path d="M 13.859375 11.398438 L 796.109375 11.398438 L 796.109375 798.898438 L 13.859375 798.898438 Z M 13.859375 11.398438 " clip-rule="nonzero"/></clipPath></defs><g clip-path="url(#47def42c80)"><path fill="#ff914d" d="M 740.828125 11.703125 L 69.167969 11.703125 C 38.691406 11.703125 13.894531 36.496094 13.894531 66.972656 L 13.894531 743.023438 C 13.894531 773.5 38.691406 798.292969 69.167969 798.292969 L 740.828125 798.292969 C 771.304688 798.292969 796.097656 773.5 796.097656 743.023438 L 796.097656 66.972656 C 796.097656 36.496094 771.304688 11.703125 740.828125 11.703125 Z M 714.34375 78.796875 C 714.34375 85.183594 709.167969 90.363281 702.777344 90.363281 L 432.992188 90.363281 C 426.601562 90.363281 421.425781 85.183594 421.425781 78.796875 C 421.425781 72.410156 426.601562 67.230469 432.992188 67.230469 L 702.777344 67.230469 C 709.167969 67.230469 714.34375 72.410156 714.34375 78.796875 Z M 298.246094 78.796875 C 298.246094 85.183594 293.066406 90.363281 286.679688 90.363281 L 262.820312 90.363281 C 256.429688 90.363281 251.253906 85.183594 251.253906 78.796875 C 251.253906 72.410156 256.429688 67.230469 262.820312 67.230469 L 286.679688 67.230469 C 293.066406 67.230469 298.246094 72.410156 298.246094 78.796875 Z M 218.03125 78.796875 C 218.03125 85.183594 212.851562 90.363281 206.460938 90.363281 L 182.605469 90.363281 C 176.214844 90.363281 171.035156 85.183594 171.035156 78.796875 C 171.035156 72.410156 176.214844 67.230469 182.605469 67.230469 L 206.460938 67.230469 C 212.851562 67.230469 218.03125 72.410156 218.03125 78.796875 Z M 102.390625 67.230469 L 126.25 67.230469 C 132.640625 67.230469 137.816406 72.410156 137.816406 78.796875 C 137.816406 85.183594 132.640625 90.363281 126.25 90.363281 L 102.390625 90.363281 C 96 90.363281 90.824219 85.183594 90.824219 78.796875 C 90.824219 72.410156 96 67.230469 102.390625 67.230469 Z M 772.964844 743.023438 C 772.964844 760.742188 758.546875 775.160156 740.828125 775.160156 L 69.167969 775.160156 C 51.445312 775.160156 37.03125 760.742188 37.03125 743.023438 L 37.03125 145.894531 L 772.964844 145.894531 Z M 92.507812 711.128906 L 92.507812 636.871094 C 92.507812 625.34375 101.886719 615.964844 113.414062 615.964844 L 187.667969 615.964844 C 199.195312 615.964844 208.574219 625.34375 208.574219 636.871094 L 208.574219 711.128906 C 208.574219 722.652344 199.195312 732.03125 187.667969 732.03125 L 113.410156 732.03125 C 101.886719 732.027344 92.507812 722.652344 92.507812 711.128906 Z M 92.507812 568.8125 L 92.507812 494.554688 C 92.507812 483.03125 101.886719 473.652344 113.414062 473.652344 L 187.667969 473.652344 C 199.195312 473.652344 208.574219 483.03125 208.574219 494.554688 L 208.574219 568.8125 C 208.574219 580.339844 199.195312 589.714844 187.667969 589.714844 L 113.410156 589.714844 C 101.886719 589.714844 92.507812 580.339844 92.507812 568.8125 Z M 250.019531 502.449219 C 249.40625 497.808594 251.648438 493.257812 255.703125 490.914062 C 259.757812 488.574219 264.820312 488.910156 268.53125 491.757812 L 351.773438 555.695312 L 710.308594 555.695312 C 716.695312 555.695312 721.875 560.871094 721.875 567.261719 C 721.875 573.652344 716.695312 578.832031 710.308594 578.832031 L 381.894531 578.832031 L 402.953125 595.003906 C 406.695312 597.875 408.316406 602.738281 407.046875 607.28125 C 405.785156 611.824219 401.882812 615.148438 397.195312 615.671875 L 365.796875 619.195312 L 370.21875 626.851562 L 710.308594 626.851562 C 716.695312 626.851562 721.875 632.027344 721.875 638.417969 C 721.875 644.808594 716.695312 649.984375 710.308594 649.984375 L 383.574219 649.984375 L 406.351562 689.433594 C 407.851562 692.03125 408.273438 695.105469 407.550781 698.007812 L 710.308594 698.007812 C 716.695312 698.007812 721.875 703.1875 721.875 709.578125 C 721.875 715.96875 716.695312 721.144531 710.308594 721.144531 L 374.5625 721.144531 L 368.101562 724.871094 C 366.28125 725.925781 364.292969 726.425781 362.328125 726.425781 C 358.523438 726.425781 354.835938 724.527344 352.640625 721.144531 L 277.945312 721.144531 C 271.554688 721.144531 266.378906 715.96875 266.378906 709.578125 C 266.378906 703.1875 271.554688 698.007812 277.945312 698.007812 L 339.238281 698.007812 L 311.75 650.402344 L 293 675.828125 C 290.203125 679.628906 285.382812 681.339844 280.804688 680.167969 C 276.238281 678.992188 272.84375 675.160156 272.222656 670.480469 Z M 92.507812 426.496094 L 92.507812 352.242188 C 92.507812 340.714844 101.886719 331.335938 113.414062 331.335938 L 187.667969 331.335938 C 199.195312 331.335938 208.574219 340.714844 208.574219 352.242188 L 208.574219 426.496094 C 208.574219 438.023438 199.195312 447.398438 187.667969 447.398438 L 113.410156 447.398438 C 101.886719 447.398438 92.507812 438.023438 92.507812 426.496094 Z M 266.378906 282.628906 C 266.378906 276.242188 271.554688 271.0625 277.945312 271.0625 L 710.308594 271.0625 C 716.695312 271.0625 721.875 276.242188 721.875 282.628906 C 721.875 289.019531 716.695312 294.199219 710.308594 294.199219 L 277.945312 294.199219 C 271.554688 294.199219 266.378906 289.019531 266.378906 282.628906 Z M 721.875 353.789062 C 721.875 360.175781 716.695312 365.355469 710.308594 365.355469 L 342.03125 365.355469 C 335.644531 365.355469 330.464844 360.175781 330.464844 353.789062 C 330.464844 347.402344 335.644531 342.222656 342.03125 342.222656 L 710.308594 342.222656 C 716.695312 342.222656 721.875 347.402344 721.875 353.789062 Z M 330.464844 211.472656 C 330.464844 205.085938 335.644531 199.90625 342.03125 199.90625 L 710.308594 199.90625 C 716.695312 199.90625 721.875 205.085938 721.875 211.472656 C 721.875 217.863281 716.695312 223.039062 710.308594 223.039062 L 342.03125 223.039062 C 335.644531 223.039062 330.464844 217.863281 330.464844 211.472656 Z M 92.507812 284.179688 L 92.507812 209.925781 C 92.507812 198.398438 101.886719 189.019531 113.414062 189.019531 L 187.667969 189.019531 C 199.195312 189.019531 208.574219 198.398438 208.574219 209.925781 L 208.574219 284.179688 C 208.574219 295.707031 199.195312 305.082031 187.667969 305.082031 L 113.410156 305.082031 C 101.886719 305.082031 92.507812 295.707031 92.507812 284.179688 Z M 721.875 496.105469 C 721.875 502.496094 716.695312 507.671875 710.308594 507.671875 L 342.03125 507.671875 C 335.644531 507.671875 330.464844 502.496094 330.464844 496.105469 C 330.464844 489.714844 335.644531 484.539062 342.03125 484.539062 L 710.308594 484.539062 C 716.695312 484.539062 721.875 489.714844 721.875 496.105469 Z M 266.378906 424.945312 C 266.378906 418.558594 271.554688 413.378906 277.945312 413.378906 L 710.308594 413.378906 C 716.695312 413.378906 721.875 418.558594 721.875 424.945312 C 721.875 431.335938 716.695312 436.515625 710.308594 436.515625 L 277.945312 436.515625 C 271.554688 436.515625 266.378906 431.335938 266.378906 424.945312 Z M 266.378906 424.945312 " fill-opacity="1" fill-rule="nonzero"/></g></svg>