<svg xmlns="http://www.w3.org/2000/svg" xmlns:xlink="http://www.w3.org/1999/xlink" width="1080" zoomAndPan="magnify" viewBox="0 0 810 809.999993" height="1080" preserveAspectRatio="xMidYMid meet" version="1.0"><defs><clipPath id="db25563436"><path d="M 280 62.882812 L 668.996094 62.882812 L 668.996094 771.339844 L 280 771.339844 Z M 280 62.882812 " clip-rule="nonzero"/></clipPath><clipPath id="7997ac784d"><path d="M 81 193.257812 L 531.164062 193.257812 L 531.164062 578.847656 L 81 578.847656 Z M 81 193.257812 " clip-rule="nonzero"/></clipPath><clipPath id="273d4d5231"><path d="M 513.699219 253.472656 C 510.28125 242.175781 502.984375 231.875 492.59375 223.683594 C 482.195312 215.476562 469.144531 209.726562 454.855469 207.042969 C 406.191406 197.890625 356.132812 193.257812 306.082031 193.257812 C 256.023438 193.257812 205.976562 197.890625 157.304688 207.042969 C 143.011719 209.726562 129.96875 215.476562 119.566406 223.683594 C 109.183594 231.875 101.878906 242.175781 98.464844 253.476562 C 86.878906 291.871094 81 331.359375 81 370.839844 C 81 410.328125 86.878906 449.820312 98.464844 488.226562 C 101.878906 499.511719 109.179688 509.8125 119.566406 518.019531 C 129.96875 526.222656 143.011719 531.972656 157.304688 534.652344 C 206.039062 543.800781 256.089844 548.445312 306.082031 548.445312 C 334.878906 548.445312 363.703125 546.894531 392.277344 543.835938 C 393.042969 543.757812 393.808594 543.929688 394.460938 544.339844 L 412.339844 555.503906 L 447.644531 577.558594 C 449.894531 578.964844 452.816406 577.40625 452.910156 574.761719 L 454.300781 534.75 C 454.484375 534.71875 454.667969 534.683594 454.855469 534.652344 C 484.171875 529.15625 506.710938 511.363281 513.699219 488.226562 C 525.285156 449.820312 531.164062 410.328125 531.164062 370.839844 C 531.164062 331.359375 525.285156 291.871094 513.699219 253.472656 Z M 513.699219 253.472656 " clip-rule="nonzero"/></clipPath><clipPath id="348e649d7d"><path d="M 513.699219 253.472656 C 510.28125 242.175781 502.984375 231.875 492.59375 223.683594 C 482.195312 215.476562 469.144531 209.726562 454.855469 207.042969 C 406.191406 197.890625 356.132812 193.257812 306.082031 193.257812 C 256.023438 193.257812 205.976562 197.890625 157.304688 207.042969 C 143.011719 209.726562 129.96875 215.476562 119.566406 223.683594 C 109.183594 231.875 101.878906 242.175781 98.464844 253.476562 C 86.878906 291.871094 81 331.359375 81 370.839844 C 81 410.328125 86.878906 449.820312 98.464844 488.226562 C 101.878906 499.511719 109.179688 509.8125 119.566406 518.019531 C 129.96875 526.222656 143.011719 531.972656 157.304688 534.652344 C 206.039062 543.800781 256.089844 548.445312 306.082031 548.445312 C 334.878906 548.445312 363.703125 546.894531 392.277344 543.835938 C 393.042969 543.757812 393.808594 543.929688 394.460938 544.339844 L 412.339844 555.503906 L 447.644531 577.558594 C 449.894531 578.964844 452.816406 577.40625 452.910156 574.761719 L 454.300781 534.75 C 454.484375 534.71875 454.667969 534.683594 454.855469 534.652344 C 484.171875 529.15625 506.710938 511.363281 513.699219 488.226562 C 525.285156 449.820312 531.164062 410.328125 531.164062 370.839844 C 531.164062 331.359375 525.285156 291.871094 513.699219 253.472656 " clip-rule="nonzero"/></clipPath><linearGradient x1="-0.00000000749733" gradientTransform="matrix(450.160216, 0, 0, 450.160736, 81.000003, 385.671397)" y1="0" x2="1.000006" gradientUnits="userSpaceOnUse" y2="0" id="eaa972ea09"><stop stop-opacity="1" stop-color="rgb(100%, 86.299133%, 18.798828%)" offset="0"/><stop stop-opacity="1" stop-color="rgb(100%, 86.299133%, 18.798828%)" offset="0.25"/><stop stop-opacity="1" stop-color="rgb(100%, 86.299133%, 18.603516%)" offset="0.257812"/><stop stop-opacity="1" stop-color="rgb(100%, 86.108398%, 18.212891%)" offset="0.265625"/><stop stop-opacity="1" stop-color="rgb(100%, 85.908508%, 17.997742%)" offset="0.273438"/><stop stop-opacity="1" stop-color="rgb(100%, 85.899353%, 17.788696%)" offset="0.28125"/><stop stop-opacity="1" stop-color="rgb(100%, 85.897827%, 17.597961%)" offset="0.289062"/><stop stop-opacity="1" stop-color="rgb(100%, 85.700989%, 17.449951%)" offset="0.296875"/><stop stop-opacity="1" stop-color="rgb(100%, 85.502625%, 17.112732%)" offset="0.3125"/><stop stop-opacity="1" stop-color="rgb(100%, 85.490417%, 16.903687%)" offset="0.320312"/><stop stop-opacity="1" stop-color="rgb(100%, 85.290527%, 16.688538%)" offset="0.328125"/><stop stop-opacity="1" stop-color="rgb(100%, 85.099792%, 16.297913%)" offset="0.335938"/><stop stop-opacity="1" stop-color="rgb(100%, 85.099792%, 16.101074%)" offset="0.34375"/><stop stop-opacity="1" stop-color="rgb(100%, 85.099792%, 15.910339%)" offset="0.351562"/><stop stop-opacity="1" stop-color="rgb(100%, 85.089111%, 15.699768%)" offset="0.359375"/><stop stop-opacity="1" stop-color="rgb(100%, 84.889221%, 15.489197%)" offset="0.375"/><stop stop-opacity="1" stop-color="rgb(100%, 84.698486%, 15.103149%)" offset="0.382812"/><stop stop-opacity="1" stop-color="rgb(100%, 84.698486%, 14.903259%)" offset="0.390625"/><stop stop-opacity="1" stop-color="rgb(100%, 84.498596%, 14.68811%)" offset="0.394531"/><stop stop-opacity="1" stop-color="rgb(100%, 84.298706%, 14.477539%)" offset="0.398438"/><stop stop-opacity="1" stop-color="rgb(100%, 84.298706%, 14.28833%)" offset="0.40625"/><stop stop-opacity="1" stop-color="rgb(100%, 84.298706%, 14.097595%)" offset="0.414062"/><stop stop-opacity="1" stop-color="rgb(100%, 84.298706%, 13.900757%)" offset="0.421875"/><stop stop-opacity="1" stop-color="rgb(100%, 84.106445%, 13.702393%)" offset="0.429688"/><stop stop-opacity="1" stop-color="rgb(100%, 83.906555%, 13.511658%)" offset="0.4375"/><stop stop-opacity="1" stop-color="rgb(100%, 83.898926%, 13.302612%)" offset="0.445312"/><stop stop-opacity="1" stop-color="rgb(100%, 83.898926%, 13.090515%)" offset="0.453125"/><stop stop-opacity="1" stop-color="rgb(100%, 83.705139%, 12.705994%)" offset="0.46875"/><stop stop-opacity="1" stop-color="rgb(100%, 83.505249%, 12.345886%)" offset="0.484375"/><stop stop-opacity="1" stop-color="rgb(100%, 83.494568%, 11.990356%)" offset="0.492188"/><stop stop-opacity="1" stop-color="rgb(100%, 83.294678%, 11.799622%)" offset="0.5"/><stop stop-opacity="1" stop-color="rgb(100%, 83.099365%, 11.604309%)" offset="0.507812"/><stop stop-opacity="1" stop-color="rgb(100%, 83.099365%, 11.404419%)" offset="0.515625"/><stop stop-opacity="1" stop-color="rgb(100%, 83.087158%, 11.187744%)" offset="0.519531"/><stop stop-opacity="1" stop-color="rgb(100%, 83.076477%, 10.977173%)" offset="0.523438"/><stop stop-opacity="1" stop-color="rgb(100%, 82.887268%, 10.787964%)" offset="0.53125"/><stop stop-opacity="1" stop-color="rgb(100%, 82.699585%, 10.597229%)" offset="0.539062"/><stop stop-opacity="1" stop-color="rgb(100%, 82.699585%, 10.400391%)" offset="0.546875"/><stop stop-opacity="1" stop-color="rgb(100%, 82.699585%, 10.014343%)" offset="0.5625"/><stop stop-opacity="1" stop-color="rgb(100%, 82.548523%, 9.803772%)" offset="0.570312"/><stop stop-opacity="1" stop-color="rgb(100%, 82.398987%, 9.591675%)" offset="0.578125"/><stop stop-opacity="1" stop-color="rgb(100%, 82.398987%, 9.205627%)" offset="0.59375"/><stop stop-opacity="1" stop-color="rgb(100%, 82.209778%, 8.816528%)" offset="0.601562"/><stop stop-opacity="1" stop-color="rgb(100%, 82.009888%, 8.599854%)" offset="0.609375"/><stop stop-opacity="1" stop-color="rgb(100%, 81.999207%, 8.389282%)" offset="0.625"/><stop stop-opacity="1" stop-color="rgb(100%, 81.803894%, 8.003235%)" offset="0.632812"/><stop stop-opacity="1" stop-color="rgb(100%, 81.604004%, 7.803345%)" offset="0.640625"/><stop stop-opacity="1" stop-color="rgb(100%, 81.599426%, 7.641602%)" offset="0.65625"/><stop stop-opacity="1" stop-color="rgb(100%, 81.5979%, 7.290649%)" offset="0.664062"/><stop stop-opacity="1" stop-color="rgb(100%, 81.401062%, 6.900024%)" offset="0.671875"/><stop stop-opacity="1" stop-color="rgb(100%, 81.202698%, 6.513977%)" offset="0.6875"/><stop stop-opacity="1" stop-color="rgb(100%, 81.190491%, 6.303406%)" offset="0.695312"/><stop stop-opacity="1" stop-color="rgb(100%, 80.990601%, 6.091309%)" offset="0.703125"/><stop stop-opacity="1" stop-color="rgb(100%, 80.799866%, 5.705261%)" offset="0.71875"/><stop stop-opacity="1" stop-color="rgb(100%, 80.799866%, 5.505371%)" offset="0.726562"/><stop stop-opacity="1" stop-color="rgb(100%, 80.59845%, 5.288696%)" offset="0.730469"/><stop stop-opacity="1" stop-color="rgb(100%, 80.39856%, 5.079651%)" offset="0.734375"/><stop stop-opacity="1" stop-color="rgb(100%, 80.39856%, 4.888916%)" offset="0.75"/><stop stop-opacity="1" stop-color="rgb(100%, 80.39856%, 4.504395%)" offset="0.757812"/><stop stop-opacity="1" stop-color="rgb(100%, 80.207825%, 4.304504%)" offset="0.765625"/><stop stop-opacity="1" stop-color="rgb(100%, 80.007935%, 4.098511%)" offset="0.769531"/><stop stop-opacity="1" stop-color="rgb(100%, 79.998779%, 3.898621%)" offset="0.773438"/><stop stop-opacity="1" stop-color="rgb(100%, 79.998779%, 3.892517%)" offset="0.78125"/><stop stop-opacity="1" stop-color="rgb(100%, 79.998779%, 3.692627%)" offset="0.796875"/><stop stop-opacity="1" stop-color="rgb(100%, 79.806519%, 3.30658%)" offset="0.804688"/><stop stop-opacity="1" stop-color="rgb(100%, 79.606628%, 2.919006%)" offset="0.8125"/><stop stop-opacity="1" stop-color="rgb(100%, 79.595947%, 2.560425%)" offset="0.828125"/><stop stop-opacity="1" stop-color="rgb(100%, 79.397583%, 2.398682%)" offset="0.835938"/><stop stop-opacity="1" stop-color="rgb(100%, 79.200745%, 2.204895%)" offset="0.84375"/><stop stop-opacity="1" stop-color="rgb(100%, 79.199219%, 2.005005%)" offset="0.851562"/><stop stop-opacity="1" stop-color="rgb(100%, 79.190063%, 1.789856%)" offset="0.855469"/><stop stop-opacity="1" stop-color="rgb(100%, 79.180908%, 1.580811%)" offset="0.859375"/><stop stop-opacity="1" stop-color="rgb(100%, 78.990173%, 1.390076%)" offset="0.875"/><stop stop-opacity="1" stop-color="rgb(100%, 78.799438%, 1.004028%)" offset="0.882812"/><stop stop-opacity="1" stop-color="rgb(100%, 78.799438%, 0.804138%)" offset="0.890625"/><stop stop-opacity="1" stop-color="rgb(100%, 78.787231%, 0.59967%)" offset="0.894531"/><stop stop-opacity="1" stop-color="rgb(100%, 78.77655%, 0.39978%)" offset="0.898438"/><stop stop-opacity="1" stop-color="rgb(100%, 78.587341%, 0.398254%)" offset="0.90625"/><stop stop-opacity="1" stop-color="rgb(100%, 78.399658%, 0.201416%)" offset="0.9375"/><stop stop-opacity="1" stop-color="rgb(100%, 78.399658%, 0.00305176%)" offset="1"/></linearGradient></defs><g clip-path="url(#db25563436)"><path fill="#000000" d="M 639 692.652344 C 639 695.652344 638.726562 698.574219 638.191406 701.414062 C 638.164062 701.550781 638.140625 701.6875 638.113281 701.820312 C 638.0625 702.105469 638 702.382812 637.933594 702.667969 C 637.921875 702.753906 637.898438 702.832031 637.890625 702.917969 C 637.828125 703.183594 637.761719 703.449219 637.703125 703.710938 C 637.671875 703.867188 637.625 704.019531 637.585938 704.164062 C 637.519531 704.414062 637.453125 704.667969 637.390625 704.925781 C 637.371094 705.03125 637.347656 705.121094 637.300781 705.230469 C 637.269531 705.398438 637.207031 705.578125 637.164062 705.75 C 637.007812 706.28125 636.855469 706.789062 636.683594 707.300781 C 636.085938 709.160156 635.371094 710.960938 634.5625 712.699219 C 634.34375 713.160156 634.113281 713.628906 633.886719 714.085938 C 631.335938 719.09375 627.921875 723.597656 623.847656 727.394531 C 622.871094 728.300781 621.859375 729.164062 620.808594 729.988281 C 620.808594 729.988281 620.808594 729.988281 620.808594 729.996094 C 620.363281 730.347656 619.910156 730.691406 619.453125 731.023438 C 619.226562 731.199219 618.984375 731.367188 618.753906 731.527344 C 618.292969 731.855469 617.8125 732.179688 617.335938 732.480469 C 617.085938 732.644531 616.851562 732.792969 616.613281 732.949219 C 616.601562 732.949219 616.601562 732.949219 616.601562 732.949219 C 616.148438 733.234375 615.691406 733.507812 615.222656 733.777344 C 608.242188 737.824219 600.148438 740.136719 591.523438 740.136719 L 357.960938 740.136719 C 349.332031 740.136719 341.238281 737.824219 334.253906 733.777344 C 333.785156 733.507812 333.332031 733.234375 332.875 732.949219 C 332.875 732.949219 332.875 732.949219 332.863281 732.949219 C 332.628906 732.792969 332.390625 732.644531 332.144531 732.480469 C 331.667969 732.179688 331.195312 731.855469 330.726562 731.527344 C 330.496094 731.367188 330.257812 731.199219 330.027344 731.023438 C 329.574219 730.691406 329.117188 730.347656 328.664062 729.996094 C 328.664062 729.988281 328.664062 729.988281 328.664062 729.988281 C 327.621094 729.164062 326.609375 728.300781 325.628906 727.394531 C 321.558594 723.597656 318.148438 719.09375 315.589844 714.085938 C 315.359375 713.628906 315.132812 713.160156 314.914062 712.699219 C 314.105469 710.960938 313.394531 709.160156 312.792969 707.300781 C 312.625 706.789062 312.472656 706.28125 312.316406 705.75 C 312.265625 705.578125 312.210938 705.398438 312.171875 705.230469 C 312.140625 705.121094 312.105469 705.03125 312.089844 704.925781 C 312.023438 704.667969 311.953125 704.414062 311.886719 704.164062 C 311.847656 704.019531 311.808594 703.867188 311.769531 703.710938 C 311.714844 703.449219 311.652344 703.183594 311.597656 702.917969 C 311.574219 702.832031 311.554688 702.753906 311.542969 702.667969 C 311.480469 702.382812 311.425781 702.105469 311.367188 701.820312 C 311.335938 701.6875 311.3125 701.550781 311.289062 701.414062 C 310.761719 698.574219 310.480469 695.652344 310.480469 692.652344 L 310.480469 132.492188 C 310.480469 106.300781 331.78125 85 357.960938 85 L 591.523438 85 C 617.695312 85 639 106.300781 639 132.492188 Z M 664.351562 219.609375 L 660.421875 219.609375 L 660.421875 131.789062 C 660.421875 93.789062 629.515625 62.882812 591.523438 62.882812 L 357.960938 62.882812 C 319.960938 62.882812 289.054688 93.789062 289.054688 131.789062 L 289.054688 205.328125 L 283.9375 205.328125 C 282.03125 205.328125 280.484375 206.878906 280.484375 208.777344 L 280.484375 244.714844 C 280.484375 246.636719 282.03125 248.179688 283.9375 248.179688 L 289.054688 248.179688 L 289.054688 265.316406 L 283.9375 265.316406 C 282.03125 265.316406 280.484375 266.871094 280.484375 268.773438 L 280.484375 304.707031 C 280.484375 306.628906 282.03125 308.167969 283.9375 308.167969 L 289.054688 308.167969 L 289.054688 702.441406 C 289.054688 740.4375 319.960938 771.339844 357.960938 771.339844 L 591.523438 771.339844 C 629.515625 771.339844 660.421875 740.4375 660.421875 702.441406 L 660.421875 296.738281 L 664.351562 296.738281 C 666.921875 296.738281 668.996094 294.664062 668.996094 292.101562 L 668.996094 224.242188 C 668.996094 221.679688 666.921875 219.609375 664.351562 219.609375 " fill-opacity="1" fill-rule="nonzero"/></g><path fill="#ffffff" d="M 639 132.492188 L 639 692.652344 C 639 695.652344 638.726562 698.574219 638.191406 701.414062 C 638.164062 701.550781 638.140625 701.6875 638.113281 701.820312 C 638.0625 702.105469 638 702.382812 637.933594 702.667969 C 637.921875 702.753906 637.898438 702.832031 637.890625 702.917969 C 637.828125 703.183594 637.761719 703.449219 637.703125 703.710938 C 637.671875 703.867188 637.625 704.019531 637.585938 704.164062 C 637.519531 704.414062 637.453125 704.667969 637.390625 704.925781 C 637.371094 705.03125 637.347656 705.121094 637.300781 705.230469 C 637.269531 705.398438 637.207031 705.578125 637.164062 705.75 C 637.007812 706.28125 636.855469 706.789062 636.683594 707.300781 C 636.085938 709.160156 635.371094 710.960938 634.5625 712.699219 C 634.34375 713.160156 634.113281 713.628906 633.886719 714.085938 C 631.335938 719.09375 627.921875 723.597656 623.847656 727.394531 C 622.871094 728.300781 621.859375 729.164062 620.808594 729.988281 C 620.808594 729.988281 620.808594 729.988281 620.808594 729.996094 C 620.363281 730.347656 619.910156 730.691406 619.453125 731.023438 C 619.226562 731.199219 618.984375 731.367188 618.753906 731.527344 C 618.292969 731.855469 617.8125 732.179688 617.335938 732.480469 C 617.085938 732.644531 616.851562 732.792969 616.613281 732.949219 C 616.601562 732.949219 616.601562 732.949219 616.601562 732.949219 C 616.148438 733.234375 615.691406 733.507812 615.222656 733.777344 C 608.242188 737.824219 600.148438 740.136719 591.523438 740.136719 L 357.960938 740.136719 C 349.332031 740.136719 341.238281 737.824219 334.253906 733.777344 C 333.785156 733.507812 333.332031 733.234375 332.875 732.949219 C 332.875 732.949219 332.875 732.949219 332.863281 732.949219 C 332.628906 732.792969 332.390625 732.644531 332.144531 732.480469 C 331.667969 732.179688 331.195312 731.855469 330.726562 731.527344 C 330.496094 731.367188 330.257812 731.199219 330.027344 731.023438 C 329.574219 730.691406 329.117188 730.347656 328.664062 729.996094 C 328.664062 729.988281 328.664062 729.988281 328.664062 729.988281 C 327.621094 729.164062 326.609375 728.300781 325.628906 727.394531 C 321.558594 723.597656 318.148438 719.09375 315.589844 714.085938 C 315.359375 713.628906 315.132812 713.160156 314.914062 712.699219 C 314.105469 710.960938 313.394531 709.160156 312.792969 707.300781 C 312.625 706.789062 312.472656 706.28125 312.316406 705.75 C 312.265625 705.578125 312.210938 705.398438 312.171875 705.230469 C 312.140625 705.121094 312.105469 705.03125 312.089844 704.925781 C 312.023438 704.667969 311.953125 704.414062 311.886719 704.164062 C 311.847656 704.019531 311.808594 703.867188 311.769531 703.710938 C 311.714844 703.449219 311.652344 703.183594 311.597656 702.917969 C 311.574219 702.832031 311.554688 702.753906 311.542969 702.667969 C 311.480469 702.382812 311.425781 702.105469 311.367188 701.820312 C 311.335938 701.6875 311.3125 701.550781 311.289062 701.414062 C 310.761719 698.574219 310.480469 695.652344 310.480469 692.652344 L 310.480469 132.492188 C 310.480469 106.300781 331.78125 85 357.960938 85 L 591.523438 85 C 617.695312 85 639 106.300781 639 132.492188 " fill-opacity="1" fill-rule="nonzero"/><g clip-path="url(#7997ac784d)"><g clip-path="url(#273d4d5231)"><g clip-path="url(#348e649d7d)"><path fill="url(#eaa972ea09)" d="M 81 193.257812 L 81 578.847656 L 531.164062 578.847656 L 531.164062 193.257812 Z M 81 193.257812 " fill-rule="nonzero"/></g></g></g><path fill="#000000" d="M 171.429688 420.34375 L 171.429688 402.589844 C 171.429688 400.433594 173.664062 399.011719 175.621094 399.910156 C 182.277344 402.945312 187.992188 404.464844 192.785156 404.464844 C 196.132812 404.464844 198.785156 403.640625 200.722656 401.984375 C 202.667969 400.332031 203.636719 398.144531 203.636719 395.414062 C 203.636719 393.320312 202.855469 391.351562 201.296875 389.511719 C 199.742188 387.675781 197.050781 385.449219 193.226562 382.824219 C 183.992188 376.53125 177.296875 370.671875 173.148438 365.242188 C 169.007812 359.8125 166.929688 353.769531 166.929688 347.105469 C 166.929688 338.03125 170.132812 330.640625 176.546875 324.917969 C 182.957031 319.199219 191.253906 316.34375 201.433594 316.34375 C 208.300781 316.34375 215.117188 317.542969 221.890625 319.941406 C 223.0625 320.363281 223.84375 321.476562 223.84375 322.730469 L 223.84375 339.578125 C 223.84375 341.699219 221.675781 343.140625 219.734375 342.304688 C 213.648438 339.683594 208.578125 338.371094 204.519531 338.371094 C 201.226562 338.371094 198.617188 339.09375 196.710938 340.539062 C 194.800781 341.980469 193.84375 343.960938 193.84375 346.480469 C 193.84375 350.882812 198.285156 355.84375 207.167969 361.347656 C 212.457031 364.601562 217.828125 369.175781 223.269531 375.074219 C 228.710938 380.976562 231.429688 387.8125 231.429688 395.570312 C 231.429688 404.648438 227.875 412.164062 220.753906 418.117188 C 213.636719 424.074219 204.609375 427.042969 193.667969 427.042969 C 186.839844 427.042969 180.058594 425.730469 173.328125 423.101562 C 172.1875 422.660156 171.429688 421.566406 171.429688 420.34375 " fill-opacity="1" fill-rule="nonzero"/><path fill="#000000" d="M 261.757812 319.25 L 290.539062 319.25 C 291.933594 319.25 293.140625 320.234375 293.429688 321.601562 C 297.433594 340.503906 300.703125 357.160156 303.25 371.558594 C 303.464844 372.769531 305.199219 372.769531 305.417969 371.5625 L 307.226562 361.425781 C 308.402344 355.082031 309.664062 348.890625 311.023438 342.855469 L 315.71875 321.574219 C 316.015625 320.214844 317.214844 319.25 318.597656 319.25 L 348.128906 319.25 C 349.613281 319.25 350.867188 320.363281 351.058594 321.835938 L 363.714844 420.964844 C 363.9375 422.726562 362.566406 424.289062 360.785156 424.289062 L 340.34375 424.289062 C 338.828125 424.289062 337.554688 423.140625 337.402344 421.628906 L 331.1875 358.773438 C 331.066406 357.535156 329.296875 357.421875 329.023438 358.640625 L 314.546875 421.996094 C 314.238281 423.335938 313.042969 424.289062 311.664062 424.289062 L 298.265625 424.289062 C 296.898438 424.289062 295.707031 423.351562 295.390625 422.023438 L 280.175781 358.34375 C 279.886719 357.132812 278.132812 357.253906 278.011719 358.492188 L 272.007812 421.617188 C 271.863281 423.136719 270.589844 424.289062 269.070312 424.289062 L 249.765625 424.289062 C 247.996094 424.289062 246.621094 422.742188 246.832031 420.984375 L 258.820312 321.851562 C 259 320.367188 260.261719 319.25 261.757812 319.25 " fill-opacity="1" fill-rule="nonzero"/><path fill="#000000" d="M 385.226562 420.34375 L 385.226562 402.589844 C 385.226562 400.433594 387.460938 399.011719 389.421875 399.910156 C 396.074219 402.945312 401.792969 404.464844 406.582031 404.464844 C 409.9375 404.464844 412.585938 403.640625 414.519531 401.984375 C 416.464844 400.332031 417.4375 398.144531 417.4375 395.414062 C 417.4375 393.320312 416.652344 391.351562 415.097656 389.511719 C 413.539062 387.675781 410.847656 385.449219 407.023438 382.824219 C 397.789062 376.53125 391.09375 370.671875 386.945312 365.242188 C 382.804688 359.8125 380.726562 353.769531 380.726562 347.105469 C 380.726562 338.03125 383.933594 330.640625 390.347656 324.917969 C 396.757812 319.199219 405.050781 316.34375 415.230469 316.34375 C 422.097656 316.34375 428.914062 317.542969 435.6875 319.941406 C 436.859375 320.363281 437.640625 321.476562 437.640625 322.730469 L 437.640625 339.578125 C 437.640625 341.699219 435.476562 343.140625 433.53125 342.304688 C 427.445312 339.683594 422.375 338.371094 418.316406 338.371094 C 415.023438 338.371094 412.421875 339.09375 410.507812 340.539062 C 408.597656 341.980469 407.636719 343.960938 407.636719 346.480469 C 407.636719 350.882812 412.082031 355.84375 420.964844 361.347656 C 426.257812 364.601562 431.628906 369.175781 437.070312 375.074219 C 442.507812 380.976562 445.226562 387.8125 445.226562 395.570312 C 445.226562 404.648438 441.671875 412.164062 434.554688 418.117188 C 427.433594 424.074219 418.40625 427.042969 407.464844 427.042969 C 400.636719 427.042969 393.859375 425.730469 387.125 423.101562 C 385.988281 422.660156 385.226562 421.566406 385.226562 420.34375 " fill-opacity="1" fill-rule="nonzero"/></svg>