<svg xmlns="http://www.w3.org/2000/svg" xmlns:xlink="http://www.w3.org/1999/xlink" width="1080" zoomAndPan="magnify" viewBox="0 0 810 809.999993" height="1080" preserveAspectRatio="xMidYMid meet" version="1.0"><defs><clipPath id="76081913b3"><path d="M 26.058594 382 L 589 382 L 589 761.25 L 26.058594 761.25 Z M 26.058594 382 " clip-rule="nonzero"/></clipPath><clipPath id="f9f5b370b9"><path d="M 37 537 L 578 537 L 578 761.25 L 37 761.25 Z M 37 537 " clip-rule="nonzero"/></clipPath><clipPath id="052c9df95a"><path d="M 221 81 L 784.308594 81 L 784.308594 322 L 221 322 Z M 221 81 " clip-rule="nonzero"/></clipPath><clipPath id="88b8bc9872"><path d="M 301 81 L 784.308594 81 L 784.308594 322 L 301 322 Z M 301 81 " clip-rule="nonzero"/></clipPath></defs><g clip-path="url(#76081913b3)"><path fill="#ffc338" d="M 61.511719 382.3125 L 553.234375 382.3125 C 572.734375 382.3125 588.683594 398.253906 588.683594 417.746094 L 588.683594 725.878906 C 588.683594 745.339844 572.734375 761.28125 553.234375 761.28125 L 61.511719 761.28125 C 42.007812 761.28125 26.058594 745.339844 26.058594 725.878906 L 26.058594 417.746094 C 26.058594 398.253906 42.007812 382.3125 61.511719 382.3125 Z M 61.511719 382.3125 " fill-opacity="1" fill-rule="evenodd"/></g><g clip-path="url(#f9f5b370b9)"><path fill="#ffd064" d="M 577.023438 752.046875 C 570.742188 757.792969 562.371094 761.28125 553.234375 761.28125 L 61.511719 761.28125 C 52.375 761.28125 44 757.792969 37.6875 752.046875 L 307.371094 537.769531 Z M 577.023438 752.046875 " fill-opacity="1" fill-rule="evenodd"/></g><path fill="#ffe177" d="M 61.511719 382.3125 L 553.234375 382.3125 C 562.636719 382.3125 571.242188 386.03125 577.585938 392.074219 L 307.371094 629.996094 L 37.15625 392.074219 C 43.503906 386.03125 52.105469 382.3125 61.511719 382.3125 Z M 61.511719 382.3125 " fill-opacity="1" fill-rule="evenodd"/><g clip-path="url(#052c9df95a)"><path fill="#6cf5c2" d="M 282.820312 244.890625 L 251.589844 244.890625 C 235.074219 244.890625 221.683594 231.507812 221.683594 215 L 221.683594 111.015625 C 221.683594 94.507812 235.074219 81.128906 251.589844 81.128906 L 754.40625 81.128906 C 770.921875 81.128906 784.308594 94.507812 784.308594 111.015625 L 784.308594 215 C 784.308594 231.507812 770.921875 244.890625 754.40625 244.890625 L 388.75 244.890625 C 388.75 244.890625 336.875 296.742188 314.878906 318.730469 C 312.882812 320.722656 309.976562 321.5 307.25 320.773438 C 304.523438 320.042969 302.394531 317.914062 301.664062 315.191406 C 295.355469 291.648438 282.820312 244.890625 282.820312 244.890625 Z M 282.820312 244.890625 " fill-opacity="1" fill-rule="evenodd"/></g><g clip-path="url(#88b8bc9872)"><path fill="#00e499" d="M 738.609375 81.128906 L 754.40625 81.128906 C 770.921875 81.128906 784.308594 94.507812 784.308594 111.015625 L 784.308594 215 C 784.308594 231.507812 770.921875 244.890625 754.40625 244.890625 L 738.609375 244.890625 C 755.125 244.890625 768.511719 231.507812 768.511719 215 L 768.511719 111.015625 C 768.511719 94.507812 755.125 81.128906 738.609375 81.128906 Z M 388.75 244.890625 L 314.878906 318.730469 C 312.882812 320.722656 309.976562 321.5 307.25 320.773438 C 304.769531 320.109375 302.785156 318.289062 301.898438 315.914062 L 372.953125 244.890625 Z M 388.75 244.890625 " fill-opacity="1" fill-rule="evenodd"/></g><path fill="#eceff1" d="M 374.117188 141.128906 L 374.117188 125.78125 C 374.117188 118.808594 379.78125 113.148438 386.753906 113.148438 C 393.730469 113.148438 399.390625 118.808594 399.390625 125.78125 L 399.390625 141.128906 L 412.691406 133.457031 C 418.730469 129.96875 426.464844 132.039062 429.953125 138.078125 C 433.441406 144.117188 431.367188 151.847656 425.328125 155.335938 L 412.03125 163.007812 L 425.328125 170.683594 C 431.367188 174.167969 433.441406 181.898438 429.953125 187.9375 C 426.464844 193.976562 418.730469 196.046875 412.691406 192.5625 L 399.390625 184.886719 L 399.390625 200.234375 C 399.390625 207.207031 393.730469 212.867188 386.753906 212.867188 C 379.78125 212.867188 374.117188 207.207031 374.117188 200.234375 L 374.117188 184.890625 L 360.820312 192.5625 C 354.78125 196.046875 347.046875 193.976562 343.558594 187.9375 C 340.070312 181.898438 342.144531 174.167969 348.183594 170.683594 L 361.480469 163.007812 L 348.183594 155.335938 C 342.144531 151.847656 340.070312 144.117188 343.558594 138.078125 C 347.046875 132.039062 354.78125 129.96875 360.820312 133.457031 Z M 490.359375 141.128906 L 490.359375 125.78125 C 490.359375 118.808594 496.023438 113.148438 502.996094 113.148438 C 509.972656 113.148438 515.636719 118.808594 515.636719 125.78125 L 515.636719 141.128906 L 528.933594 133.457031 C 534.972656 129.96875 542.707031 132.039062 546.195312 138.078125 C 549.683594 144.117188 547.609375 151.847656 541.570312 155.335938 L 528.273438 163.007812 L 541.570312 170.683594 C 547.609375 174.167969 549.683594 181.898438 546.195312 187.9375 C 542.707031 193.976562 534.972656 196.046875 528.933594 192.5625 L 515.636719 184.886719 L 515.636719 200.234375 C 515.636719 207.207031 509.972656 212.867188 502.996094 212.867188 C 496.023438 212.867188 490.359375 207.207031 490.359375 200.234375 L 490.359375 184.890625 L 477.0625 192.5625 C 471.023438 196.046875 463.289062 193.976562 459.800781 187.9375 C 456.3125 181.898438 458.386719 174.167969 464.425781 170.683594 L 477.722656 163.007812 L 464.425781 155.335938 C 458.386719 151.847656 456.3125 144.117188 459.800781 138.078125 C 463.289062 132.039062 471.023438 129.96875 477.0625 133.457031 Z M 606.601562 141.128906 L 606.601562 125.78125 C 606.601562 118.808594 612.265625 113.148438 619.242188 113.148438 C 626.214844 113.148438 631.878906 118.808594 631.878906 125.78125 L 631.878906 141.128906 L 645.175781 133.457031 C 651.214844 129.96875 658.949219 132.039062 662.4375 138.078125 C 665.925781 144.117188 663.851562 151.847656 657.8125 155.335938 L 644.515625 163.007812 L 657.8125 170.683594 C 663.851562 174.167969 665.925781 181.898438 662.4375 187.9375 C 658.949219 193.976562 651.214844 196.046875 645.175781 192.5625 L 631.878906 184.886719 L 631.878906 200.234375 C 631.878906 207.207031 626.214844 212.867188 619.242188 212.867188 C 612.265625 212.867188 606.601562 207.207031 606.601562 200.234375 L 606.601562 184.890625 L 593.304688 192.5625 C 587.265625 196.046875 579.53125 193.976562 576.042969 187.9375 C 572.554688 181.898438 574.628906 174.167969 580.667969 170.683594 L 593.964844 163.007812 L 580.667969 155.335938 C 574.628906 151.847656 572.554688 144.117188 576.042969 138.078125 C 579.53125 132.039062 587.265625 129.96875 593.304688 133.457031 Z M 606.601562 141.128906 " fill-opacity="1" fill-rule="evenodd"/></svg>