<svg xmlns="http://www.w3.org/2000/svg" xmlns:xlink="http://www.w3.org/1999/xlink" width="1080" zoomAndPan="magnify" viewBox="0 0 810 809.999993" height="1080" preserveAspectRatio="xMidYMid meet" version="1.0"><defs><clipPath id="0aeb4fe72d"><path d="M 29 128.0625 L 781 128.0625 L 781 275 L 29 275 Z M 29 128.0625 " clip-rule="nonzero"/></clipPath><clipPath id="c8de07983f"><path d="M 121 128.0625 L 689 128.0625 L 689 271 L 121 271 Z M 121 128.0625 " clip-rule="nonzero"/></clipPath><clipPath id="eeaf742842"><path d="M 144 572 L 332 572 L 332 681.5625 L 144 681.5625 Z M 144 572 " clip-rule="nonzero"/></clipPath><clipPath id="1396170983"><path d="M 144 572 L 247 572 L 247 681.5625 L 144 681.5625 Z M 144 572 " clip-rule="nonzero"/></clipPath><clipPath id="4d0e44df4a"><path d="M 295 572 L 483 572 L 483 681.5625 L 295 681.5625 Z M 295 572 " clip-rule="nonzero"/></clipPath><clipPath id="754ed29e45"><path d="M 295 572 L 398 572 L 398 681.5625 L 295 681.5625 Z M 295 572 " clip-rule="nonzero"/></clipPath><clipPath id="53f1e0ba0a"><path d="M 538 661 L 551 661 L 551 681.5625 L 538 681.5625 Z M 538 661 " clip-rule="nonzero"/></clipPath></defs><g clip-path="url(#0aeb4fe72d)"><path fill="#697c92" d="M 29.140625 274.804688 L 404.132812 128.070312 L 780.644531 274.769531 L 29.140625 274.804688 " fill-opacity="1" fill-rule="nonzero"/></g><path fill="#74a9c0" d="M 792.863281 660.175781 L 16.957031 660.21875 L 16.941406 289.300781 L 792.847656 289.265625 L 792.863281 660.175781 " fill-opacity="1" fill-rule="nonzero"/><g clip-path="url(#c8de07983f)"><path fill="#dfd9d0" d="M 121.070312 270.222656 L 404.316406 128.078125 L 688.710938 270.195312 L 121.070312 270.222656 " fill-opacity="1" fill-rule="nonzero"/></g><path fill="#7ecbda" d="M 681.460938 660.179688 L 128.359375 660.214844 L 128.34375 270.222656 L 681.441406 270.195312 L 681.460938 660.179688 " fill-opacity="1" fill-rule="nonzero"/><path fill="#61868d" d="M 186.988281 386.183594 L 186.996094 660.207031 L 201.222656 660.207031 L 201.210938 400.074219 L 608.585938 400.046875 L 608.597656 660.183594 L 622.828125 660.183594 L 622.808594 386.15625 L 186.988281 386.183594 " fill-opacity="1" fill-rule="nonzero"/><path fill="#191f25" d="M 201.222656 660.207031 L 201.210938 400.074219 L 608.585938 400.046875 L 608.597656 660.183594 L 201.222656 660.207031 " fill-opacity="1" fill-rule="nonzero"/><path fill="#ffffff" d="M 420.667969 443.347656 L 389.132812 443.347656 L 389.132812 434.265625 L 420.667969 434.265625 L 420.667969 443.347656 " fill-opacity="1" fill-rule="nonzero"/><path fill="#ffffff" d="M 608.585938 439.066406 L 201.214844 439.085938 L 201.210938 400.074219 L 608.585938 400.046875 L 608.585938 439.066406 " fill-opacity="1" fill-rule="nonzero"/><path fill="#bbbaba" d="M 608.585938 439.066406 L 201.214844 439.085938 L 201.214844 429.460938 L 608.585938 429.445312 L 608.585938 439.066406 " fill-opacity="1" fill-rule="nonzero"/><path fill="#bbbaba" d="M 608.585938 424.894531 L 201.210938 424.910156 L 201.210938 421.457031 L 608.585938 421.441406 L 608.585938 424.894531 " fill-opacity="1" fill-rule="nonzero"/><path fill="#bbbaba" d="M 608.585938 416.085938 L 201.210938 416.105469 L 201.210938 412.648438 L 608.585938 412.628906 L 608.585938 416.085938 " fill-opacity="1" fill-rule="nonzero"/><path fill="#bbbaba" d="M 608.585938 407.273438 L 201.210938 407.292969 L 201.210938 403.84375 L 608.585938 403.816406 L 608.585938 407.273438 " fill-opacity="1" fill-rule="nonzero"/><path fill="#697c92" d="M 269.507812 310.246094 L 279.417969 310.246094 L 269.632812 372.792969 L 260.640625 372.792969 L 255.257812 338.382812 L 250.238281 372.796875 L 241.207031 372.792969 L 230.726562 310.253906 L 240.613281 310.246094 L 245.5625 343.742188 L 250.097656 310.246094 L 259.988281 310.253906 L 264.929688 343.714844 L 269.507812 310.246094 " fill-opacity="1" fill-rule="nonzero"/><path fill="#697c92" d="M 295.296875 324.570312 L 291.800781 349.230469 L 298.796875 349.230469 Z M 290.339844 358.417969 L 288.050781 372.789062 L 278.21875 372.792969 L 288.855469 310.242188 L 301.839844 310.246094 L 312.328125 372.789062 L 302.40625 372.792969 L 300.195312 358.414062 L 290.339844 358.417969 " fill-opacity="1" fill-rule="nonzero"/><path fill="#697c92" d="M 340.792969 325.316406 C 340.792969 321.6875 338.996094 319.875 335.398438 319.875 L 329.703125 319.875 L 329.703125 339.894531 L 335.398438 339.894531 C 336.894531 339.894531 338.171875 339.363281 339.21875 338.296875 C 340.269531 337.230469 340.792969 335.949219 340.792969 334.453125 Z M 335.148438 310.238281 C 340.40625 310.242188 344.269531 311.6875 346.734375 314.585938 C 348.898438 317.117188 349.984375 320.640625 349.984375 325.164062 L 349.984375 334.25 C 349.984375 338.679688 348.300781 342.421875 344.941406 345.480469 L 351.929688 372.789062 L 341.722656 372.785156 L 335.996094 349.230469 C 335.734375 349.226562 335.449219 349.230469 335.152344 349.230469 L 329.703125 349.226562 L 329.703125 372.789062 L 320.265625 372.792969 L 320.265625 310.238281 L 335.148438 310.238281 " fill-opacity="1" fill-rule="nonzero"/><path fill="#697c92" d="M 360.019531 372.789062 L 360.019531 310.195312 L 386.886719 310.191406 L 386.886719 319.671875 L 369.457031 319.675781 L 369.460938 336.746094 L 382.191406 336.746094 L 382.191406 346.226562 L 369.460938 346.234375 L 369.460938 363.304688 L 386.886719 363.304688 L 386.886719 372.785156 L 360.019531 372.789062 " fill-opacity="1" fill-rule="nonzero"/><path fill="#697c92" d="M 402.8125 346.28125 L 402.816406 372.785156 L 393.378906 372.789062 L 393.375 310.238281 L 402.8125 310.242188 L 402.8125 336.792969 L 414.203125 336.796875 L 414.203125 310.238281 L 423.640625 310.238281 L 423.644531 372.785156 L 414.203125 372.789062 L 414.203125 346.277344 L 402.8125 346.28125 " fill-opacity="1" fill-rule="nonzero"/><path fill="#697c92" d="M 452.058594 324.210938 C 452.054688 322.710938 451.53125 321.441406 450.484375 320.394531 C 449.433594 319.34375 448.160156 318.824219 446.664062 318.824219 C 445.167969 318.820312 443.886719 319.34375 442.816406 320.398438 C 441.753906 321.445312 441.222656 322.714844 441.222656 324.214844 L 441.222656 358.453125 C 441.222656 359.953125 441.753906 361.226562 442.816406 362.273438 C 443.886719 363.324219 445.167969 363.851562 446.667969 363.851562 C 448.164062 363.851562 449.433594 363.324219 450.488281 362.273438 C 451.53125 361.226562 452.058594 359.953125 452.058594 358.457031 Z M 446.914062 309.441406 C 451.074219 309.441406 454.609375 310.90625 457.527344 313.832031 C 460.441406 316.761719 461.894531 320.28125 461.894531 324.414062 L 461.898438 358.554688 C 461.898438 362.71875 460.429688 366.257812 457.503906 369.164062 C 454.574219 372.082031 451.042969 373.535156 446.917969 373.535156 C 442.753906 373.535156 439.222656 372.070312 436.324219 369.144531 C 433.429688 366.210938 431.980469 362.683594 431.980469 358.558594 L 431.976562 324.414062 C 431.976562 320.253906 433.445312 316.71875 436.378906 313.804688 C 439.304688 310.894531 442.816406 309.441406 446.914062 309.441406 " fill-opacity="1" fill-rule="nonzero"/><path fill="#697c92" d="M 485.070312 373.484375 C 480.902344 373.480469 477.382812 372.035156 474.476562 369.144531 C 471.585938 366.25 470.136719 362.734375 470.136719 358.613281 L 470.132812 310.238281 L 479.371094 310.238281 L 479.375 358.507812 C 479.375 360.007812 479.90625 361.273438 480.972656 362.328125 C 482.039062 363.375 483.324219 363.894531 484.816406 363.898438 C 486.316406 363.898438 487.589844 363.375 488.640625 362.328125 C 489.691406 361.28125 490.210938 360.003906 490.210938 358.503906 L 490.207031 310.234375 L 500.046875 310.234375 L 500.050781 358.609375 C 500.050781 362.796875 498.585938 366.324219 495.652344 369.1875 C 492.730469 372.054688 489.195312 373.484375 485.070312 373.484375 " fill-opacity="1" fill-rule="nonzero"/><path fill="#697c92" d="M 539.054688 357.203125 C 539.121094 361.566406 537.984375 365.292969 535.65625 368.390625 C 534.125 370.484375 531.957031 371.964844 529.167969 372.832031 C 527.667969 373.296875 525.914062 373.535156 523.921875 373.535156 C 520.222656 373.53125 517.164062 372.617188 514.734375 370.78125 C 512.699219 369.285156 511.097656 367.25 509.910156 364.667969 C 508.730469 362.089844 508.042969 359.136719 507.84375 355.808594 L 516.832031 355.164062 C 517.230469 358.808594 518.191406 361.449219 519.726562 363.085938 C 520.859375 364.328125 522.152344 364.914062 523.621094 364.839844 C 525.6875 364.777344 527.335938 363.761719 528.566406 361.796875 C 529.195312 360.832031 529.515625 359.445312 529.515625 357.644531 C 529.515625 355.050781 528.332031 352.476562 525.96875 349.910156 C 524.105469 348.140625 521.308594 345.488281 517.578125 341.960938 C 514.449219 338.933594 512.234375 336.210938 510.9375 333.816406 C 509.539062 331.117188 508.839844 328.1875 508.839844 325.023438 C 508.835938 319.328125 510.75 315.015625 514.582031 312.085938 C 516.9375 310.316406 519.875 309.4375 523.371094 309.4375 C 526.730469 309.429688 529.609375 310.183594 532.011719 311.679688 C 533.875 312.847656 535.378906 314.476562 536.527344 316.570312 C 537.675781 318.667969 538.367188 321.078125 538.601562 323.808594 L 529.5625 325.457031 C 529.296875 322.894531 528.5625 320.898438 527.371094 319.464844 C 526.5 318.433594 525.25 317.917969 523.617188 317.925781 C 521.886719 317.921875 520.574219 318.6875 519.675781 320.214844 C 518.9375 321.445312 518.574219 322.980469 518.574219 324.804688 C 518.574219 327.671875 519.808594 330.582031 522.273438 333.546875 C 523.203125 334.675781 524.597656 336.003906 526.46875 337.535156 C 528.664062 339.371094 530.109375 340.652344 530.816406 341.378906 C 533.144531 343.714844 534.941406 346.003906 536.210938 348.273438 C 536.808594 349.332031 537.289062 350.316406 537.652344 351.214844 C 538.550781 353.445312 539.019531 355.4375 539.054688 357.203125 " fill-opacity="1" fill-rule="nonzero"/><path fill="#697c92" d="M 546.894531 372.78125 L 546.890625 310.183594 L 573.757812 310.183594 L 573.757812 319.664062 L 556.328125 319.664062 L 556.328125 336.734375 L 569.0625 336.738281 L 569.0625 346.21875 L 556.332031 346.222656 L 556.332031 363.296875 L 573.757812 363.296875 L 573.765625 372.773438 L 546.894531 372.78125 " fill-opacity="1" fill-rule="nonzero"/><path fill="#ffffff" d="M 274.816406 310.242188 L 284.71875 310.242188 L 274.9375 372.792969 L 265.949219 372.792969 L 260.566406 338.382812 L 255.539062 372.792969 L 246.511719 372.792969 L 236.03125 310.246094 L 245.921875 310.246094 L 250.863281 343.742188 L 255.40625 310.246094 L 265.296875 310.246094 L 270.234375 343.710938 L 274.816406 310.242188 " fill-opacity="1" fill-rule="nonzero"/><path fill="#ffffff" d="M 300.605469 324.570312 L 297.109375 349.234375 L 304.097656 349.230469 Z M 295.644531 358.417969 L 293.355469 372.789062 L 283.523438 372.789062 L 294.160156 310.246094 L 307.144531 310.242188 L 317.636719 372.789062 L 307.707031 372.792969 L 305.503906 358.417969 L 295.644531 358.417969 " fill-opacity="1" fill-rule="nonzero"/><path fill="#ffffff" d="M 346.097656 325.316406 C 346.097656 321.691406 344.300781 319.875 340.703125 319.878906 L 335.007812 319.875 L 335.011719 339.894531 L 340.707031 339.894531 C 342.203125 339.894531 343.476562 339.363281 344.527344 338.296875 C 345.578125 337.230469 346.097656 335.949219 346.101562 334.457031 Z M 340.453125 310.242188 C 345.714844 310.238281 349.578125 311.691406 352.039062 314.582031 C 354.207031 317.109375 355.285156 320.640625 355.285156 325.167969 L 355.289062 334.25 C 355.289062 338.675781 353.605469 342.421875 350.242188 345.480469 L 357.238281 372.785156 L 347.027344 372.789062 L 341.304688 349.230469 C 341.039062 349.230469 340.753906 349.226562 340.453125 349.230469 L 335.011719 349.230469 L 335.011719 372.789062 L 325.574219 372.789062 L 325.574219 310.246094 L 340.453125 310.242188 " fill-opacity="1" fill-rule="nonzero"/><path fill="#ffffff" d="M 365.324219 372.785156 L 365.320312 310.1875 L 392.191406 310.1875 L 392.191406 319.675781 L 374.761719 319.675781 L 374.761719 336.75 L 387.5 336.746094 L 387.5 346.238281 L 374.761719 346.234375 L 374.761719 363.304688 L 392.195312 363.304688 L 392.195312 372.785156 L 365.324219 372.785156 " fill-opacity="1" fill-rule="nonzero"/><path fill="#ffffff" d="M 408.121094 346.28125 L 408.125 372.789062 L 398.6875 372.785156 L 398.683594 310.242188 L 408.121094 310.238281 L 408.121094 336.792969 L 419.511719 336.789062 L 419.511719 310.242188 L 428.945312 310.238281 L 428.945312 372.785156 L 419.511719 372.785156 L 419.511719 346.28125 L 408.121094 346.28125 " fill-opacity="1" fill-rule="nonzero"/><path fill="#ffffff" d="M 457.359375 324.214844 C 457.359375 322.714844 456.839844 321.4375 455.792969 320.394531 C 454.738281 319.351562 453.46875 318.820312 451.964844 318.824219 C 450.464844 318.824219 449.1875 319.351562 448.121094 320.394531 C 447.0625 321.4375 446.523438 322.710938 446.523438 324.214844 L 446.53125 358.453125 C 446.523438 359.953125 447.0625 361.226562 448.125 362.273438 C 449.191406 363.328125 450.46875 363.851562 451.972656 363.855469 C 453.46875 363.851562 454.742188 363.328125 455.792969 362.273438 C 456.84375 361.230469 457.359375 359.953125 457.359375 358.453125 Z M 452.21875 309.441406 C 456.378906 309.4375 459.910156 310.902344 462.828125 313.828125 C 465.742188 316.757812 467.203125 320.285156 467.203125 324.414062 L 467.203125 358.558594 C 467.207031 362.71875 465.738281 366.253906 462.804688 369.167969 C 459.878906 372.078125 456.347656 373.539062 452.222656 373.535156 C 448.058594 373.535156 444.53125 372.066406 441.632812 369.144531 C 438.734375 366.210938 437.289062 362.683594 437.289062 358.558594 L 437.285156 324.414062 C 437.285156 320.25 438.753906 316.722656 441.679688 313.800781 C 444.609375 310.894531 448.121094 309.441406 452.21875 309.441406 " fill-opacity="1" fill-rule="nonzero"/><path fill="#ffffff" d="M 490.375 373.484375 C 486.210938 373.484375 482.6875 372.035156 479.785156 369.144531 C 476.890625 366.238281 475.445312 362.734375 475.441406 358.605469 L 475.441406 310.234375 L 484.679688 310.234375 L 484.683594 358.5 C 484.683594 360.003906 485.214844 361.273438 486.277344 362.328125 C 487.34375 363.371094 488.625 363.898438 490.125 363.894531 C 491.625 363.898438 492.894531 363.375 493.945312 362.328125 C 495 361.273438 495.515625 360.007812 495.515625 358.503906 L 495.515625 310.238281 L 505.355469 310.238281 L 505.355469 358.605469 C 505.355469 362.796875 503.890625 366.332031 500.960938 369.191406 C 498.03125 372.050781 494.503906 373.480469 490.375 373.484375 " fill-opacity="1" fill-rule="nonzero"/><path fill="#ffffff" d="M 544.359375 357.207031 C 544.425781 361.5625 543.292969 365.292969 540.964844 368.390625 C 539.433594 370.480469 537.265625 371.964844 534.46875 372.828125 C 532.972656 373.292969 531.226562 373.53125 529.230469 373.53125 C 525.53125 373.535156 522.472656 372.613281 520.042969 370.78125 C 518.007812 369.285156 516.398438 367.25 515.21875 364.667969 C 514.039062 362.089844 513.34375 359.136719 513.144531 355.808594 L 522.132812 355.15625 C 522.539062 358.800781 523.5 361.449219 525.03125 363.085938 C 526.167969 364.328125 527.460938 364.910156 528.929688 364.851562 C 530.992188 364.777344 532.640625 363.761719 533.871094 361.796875 C 534.503906 360.832031 534.820312 359.445312 534.820312 357.652344 C 534.820312 355.050781 533.636719 352.464844 531.277344 349.902344 C 529.414062 348.136719 526.617188 345.488281 522.882812 341.957031 C 519.753906 338.929688 517.539062 336.214844 516.246094 333.8125 C 514.84375 331.121094 514.148438 328.1875 514.148438 325.023438 C 514.148438 319.332031 516.058594 315.015625 519.886719 312.085938 C 522.246094 310.316406 525.175781 309.4375 528.675781 309.429688 C 532.039062 309.4375 534.917969 310.183594 537.320312 311.679688 C 539.179688 312.84375 540.683594 314.476562 541.835938 316.570312 C 542.984375 318.667969 543.675781 321.078125 543.910156 323.804688 L 534.871094 325.453125 C 534.597656 322.890625 533.867188 320.898438 532.667969 319.464844 C 531.800781 318.441406 530.558594 317.921875 528.921875 317.921875 C 527.195312 317.921875 525.882812 318.683594 524.984375 320.210938 C 524.246094 321.445312 523.878906 322.976562 523.878906 324.804688 C 523.882812 327.675781 525.113281 330.585938 527.578125 333.550781 C 528.511719 334.671875 529.90625 336.003906 531.777344 337.546875 C 533.96875 339.371094 535.417969 340.652344 536.117188 341.378906 C 538.445312 343.710938 540.25 346.011719 541.511719 348.269531 C 542.113281 349.332031 542.589844 350.3125 542.957031 351.214844 C 543.859375 353.445312 544.320312 355.441406 544.359375 357.207031 " fill-opacity="1" fill-rule="nonzero"/><path fill="#ffffff" d="M 552.199219 372.773438 L 552.195312 310.183594 L 579.0625 310.179688 L 579.0625 319.667969 L 561.636719 319.667969 L 561.640625 336.738281 L 574.371094 336.738281 L 574.371094 346.21875 L 561.636719 346.21875 L 561.636719 363.296875 L 579.0625 363.296875 L 579.066406 372.78125 L 552.199219 372.773438 " fill-opacity="1" fill-rule="nonzero"/><path fill="#697c92" d="M 798.773438 293.527344 L 11.015625 293.566406 L 11.015625 265.285156 L 798.769531 265.242188 L 798.773438 293.527344 " fill-opacity="1" fill-rule="nonzero"/><g clip-path="url(#eeaf742842)"><path fill="#d67343" d="M 332 681.546875 L 144.84375 681.558594 L 144.839844 572.765625 L 331.996094 572.757812 L 332 681.546875 " fill-opacity="1" fill-rule="nonzero"/></g><path fill="#e29b4c" d="M 324.78125 674.375 L 255.976562 674.375 L 255.972656 579.941406 L 324.777344 579.933594 L 324.78125 674.375 " fill-opacity="1" fill-rule="nonzero"/><path fill="#d67343" d="M 324.777344 597.011719 L 255.972656 597.011719 L 255.972656 594.464844 L 324.777344 594.464844 L 324.777344 597.011719 " fill-opacity="1" fill-rule="nonzero"/><path fill="#d67343" d="M 324.777344 612.714844 L 255.972656 612.71875 L 255.972656 610.175781 L 324.777344 610.171875 L 324.777344 612.714844 " fill-opacity="1" fill-rule="nonzero"/><path fill="#d67343" d="M 324.78125 628.425781 L 255.972656 628.429688 L 255.972656 625.882812 L 324.777344 625.882812 L 324.78125 628.425781 " fill-opacity="1" fill-rule="nonzero"/><path fill="#d67343" d="M 324.78125 644.132812 L 255.976562 644.136719 L 255.976562 641.59375 L 324.78125 641.582031 L 324.78125 644.132812 " fill-opacity="1" fill-rule="nonzero"/><path fill="#d67343" d="M 324.78125 659.839844 L 255.976562 659.847656 L 255.980469 657.296875 L 324.78125 657.296875 L 324.78125 659.839844 " fill-opacity="1" fill-rule="nonzero"/><g clip-path="url(#1396170983)"><path fill="#e29b4c" d="M 247 681.554688 L 144.84375 681.558594 L 144.839844 572.765625 L 246.992188 572.761719 L 247 681.554688 " fill-opacity="1" fill-rule="nonzero"/></g><path fill="#b56037" d="M 322.519531 671.265625 L 258.238281 671.269531 L 258.234375 583.03125 L 322.515625 583.039062 Z M 255.972656 579.941406 L 255.976562 674.375 L 324.78125 674.375 L 324.777344 579.933594 L 255.972656 579.941406 " fill-opacity="1" fill-rule="nonzero"/><path fill="#b56037" d="M 313.894531 583.777344 L 259.171875 660.0625 L 259.171875 673.464844 L 268.042969 673.457031 L 324.511719 594.382812 L 324.507812 583.769531 L 313.894531 583.777344 " fill-opacity="1" fill-rule="nonzero"/><path fill="#d67343" d="M 313.597656 579.933594 L 255.980469 660.265625 L 255.976562 674.375 L 265.320312 674.375 L 324.777344 591.109375 L 324.777344 579.933594 L 313.597656 579.933594 " fill-opacity="1" fill-rule="nonzero"/><path fill="#b56037" d="M 266.859375 583.777344 L 321.585938 660.058594 L 321.585938 673.464844 L 312.714844 673.457031 L 256.238281 594.382812 L 256.242188 583.777344 L 266.859375 583.777344 " fill-opacity="1" fill-rule="nonzero"/><path fill="#d67343" d="M 267.152344 579.941406 L 324.78125 660.261719 L 324.78125 674.375 L 315.4375 674.375 L 255.972656 591.113281 L 255.972656 579.941406 L 267.152344 579.941406 " fill-opacity="1" fill-rule="nonzero"/><path fill="#e9b476" d="M 238.421875 674.375 L 153.195312 674.382812 L 153.191406 579.941406 L 238.417969 579.933594 L 238.421875 674.375 " fill-opacity="1" fill-rule="nonzero"/><path fill="#e29b4c" d="M 238.421875 597.011719 L 153.191406 597.019531 L 153.191406 594.472656 L 238.417969 594.46875 L 238.421875 597.011719 " fill-opacity="1" fill-rule="nonzero"/><path fill="#e29b4c" d="M 238.421875 612.71875 L 153.191406 612.726562 L 153.191406 610.179688 L 238.421875 610.175781 L 238.421875 612.71875 " fill-opacity="1" fill-rule="nonzero"/><path fill="#e29b4c" d="M 238.421875 628.429688 L 153.195312 628.433594 L 153.191406 625.886719 L 238.421875 625.886719 L 238.421875 628.429688 " fill-opacity="1" fill-rule="nonzero"/><path fill="#e29b4c" d="M 238.421875 644.136719 L 153.195312 644.140625 L 153.195312 641.597656 L 238.421875 641.589844 L 238.421875 644.136719 " fill-opacity="1" fill-rule="nonzero"/><path fill="#e29b4c" d="M 238.421875 659.847656 L 153.195312 659.847656 L 153.195312 657.304688 L 238.421875 657.296875 L 238.421875 659.847656 " fill-opacity="1" fill-rule="nonzero"/><path fill="#b87e3e" d="M 235.625 671.269531 L 155.996094 671.28125 L 155.992188 583.039062 L 235.621094 583.039062 Z M 153.191406 579.941406 L 153.195312 674.382812 L 238.421875 674.375 L 238.417969 579.933594 L 153.191406 579.941406 " fill-opacity="1" fill-rule="nonzero"/><path fill="#b87e3e" d="M 224.9375 583.777344 L 157.15625 660.070312 L 157.152344 673.472656 L 168.144531 673.464844 L 238.089844 594.386719 L 238.089844 583.777344 L 224.9375 583.777344 " fill-opacity="1" fill-rule="nonzero"/><path fill="#e29b4c" d="M 224.570312 579.933594 L 153.195312 660.269531 L 153.195312 674.382812 L 164.769531 674.382812 L 238.421875 591.113281 L 238.417969 579.933594 L 224.570312 579.933594 " fill-opacity="1" fill-rule="nonzero"/><path fill="#b87e3e" d="M 166.675781 583.777344 L 234.46875 660.0625 L 234.46875 673.464844 L 223.472656 673.464844 L 153.523438 594.390625 L 153.523438 583.777344 L 166.675781 583.777344 " fill-opacity="1" fill-rule="nonzero"/><path fill="#e29b4c" d="M 167.039062 579.941406 L 238.421875 660.265625 L 238.421875 674.375 L 226.851562 674.375 L 153.191406 591.113281 L 153.191406 579.941406 L 167.039062 579.941406 " fill-opacity="1" fill-rule="nonzero"/><g clip-path="url(#4d0e44df4a)"><path fill="#d67343" d="M 482.871094 681.542969 L 295.714844 681.550781 L 295.707031 572.757812 L 482.863281 572.75 L 482.871094 681.542969 " fill-opacity="1" fill-rule="nonzero"/></g><path fill="#e29b4c" d="M 475.652344 674.359375 L 406.847656 674.367188 L 406.84375 579.925781 L 475.648438 579.925781 L 475.652344 674.359375 " fill-opacity="1" fill-rule="nonzero"/><path fill="#d67343" d="M 475.648438 597 L 406.84375 597.003906 L 406.84375 594.457031 L 475.648438 594.457031 L 475.648438 597 " fill-opacity="1" fill-rule="nonzero"/><path fill="#d67343" d="M 475.648438 612.710938 L 406.84375 612.710938 L 406.84375 610.167969 L 475.648438 610.160156 L 475.648438 612.710938 " fill-opacity="1" fill-rule="nonzero"/><path fill="#d67343" d="M 475.648438 628.417969 L 406.84375 628.417969 L 406.84375 625.878906 L 475.648438 625.875 L 475.648438 628.417969 " fill-opacity="1" fill-rule="nonzero"/><path fill="#d67343" d="M 475.652344 644.128906 L 406.84375 644.132812 L 406.84375 641.582031 L 475.652344 641.574219 L 475.652344 644.128906 " fill-opacity="1" fill-rule="nonzero"/><path fill="#d67343" d="M 475.652344 659.832031 L 406.847656 659.835938 L 406.847656 657.289062 L 475.652344 657.285156 L 475.652344 659.832031 " fill-opacity="1" fill-rule="nonzero"/><g clip-path="url(#754ed29e45)"><path fill="#e29b4c" d="M 397.871094 681.546875 L 295.714844 681.550781 L 295.707031 572.757812 L 397.863281 572.753906 L 397.871094 681.546875 " fill-opacity="1" fill-rule="nonzero"/></g><path fill="#b56037" d="M 473.394531 671.253906 L 409.109375 671.261719 L 409.101562 583.027344 L 473.386719 583.023438 Z M 406.84375 579.925781 L 406.847656 674.367188 L 475.652344 674.359375 L 475.648438 579.925781 L 406.84375 579.925781 " fill-opacity="1" fill-rule="nonzero"/><path fill="#b56037" d="M 464.761719 583.761719 L 410.035156 660.058594 L 410.039062 673.453125 L 418.914062 673.453125 L 475.378906 594.371094 L 475.378906 583.761719 L 464.761719 583.761719 " fill-opacity="1" fill-rule="nonzero"/><path fill="#d67343" d="M 464.464844 579.921875 L 406.847656 660.257812 L 406.847656 674.367188 L 416.191406 674.363281 L 475.648438 591.097656 L 475.648438 579.925781 L 464.464844 579.921875 " fill-opacity="1" fill-rule="nonzero"/><path fill="#b56037" d="M 417.726562 583.761719 L 472.457031 660.054688 L 472.457031 673.453125 L 463.582031 673.453125 L 407.109375 594.378906 L 407.105469 583.769531 L 417.726562 583.761719 " fill-opacity="1" fill-rule="nonzero"/><path fill="#d67343" d="M 418.019531 579.925781 L 475.652344 660.253906 L 475.652344 674.359375 L 466.308594 674.363281 L 406.84375 591.097656 L 406.84375 579.925781 L 418.019531 579.925781 " fill-opacity="1" fill-rule="nonzero"/><path fill="#e9b476" d="M 389.292969 674.367188 L 304.066406 674.367188 L 304.0625 579.933594 L 389.285156 579.925781 L 389.292969 674.367188 " fill-opacity="1" fill-rule="nonzero"/><path fill="#e29b4c" d="M 389.285156 597.003906 L 304.0625 597.011719 L 304.0625 594.464844 L 389.292969 594.460938 L 389.285156 597.003906 " fill-opacity="1" fill-rule="nonzero"/><path fill="#e29b4c" d="M 389.292969 612.714844 L 304.0625 612.726562 L 304.0625 610.171875 L 389.292969 610.171875 L 389.292969 612.714844 " fill-opacity="1" fill-rule="nonzero"/><path fill="#e29b4c" d="M 389.292969 628.417969 L 304.0625 628.425781 L 304.066406 625.882812 L 389.292969 625.875 L 389.292969 628.417969 " fill-opacity="1" fill-rule="nonzero"/><path fill="#e29b4c" d="M 389.292969 644.132812 L 304.066406 644.132812 L 304.066406 641.589844 L 389.292969 641.582031 L 389.292969 644.132812 " fill-opacity="1" fill-rule="nonzero"/><path fill="#e29b4c" d="M 389.292969 659.835938 L 304.066406 659.84375 L 304.066406 657.296875 L 389.292969 657.296875 L 389.292969 659.835938 " fill-opacity="1" fill-rule="nonzero"/><path fill="#b87e3e" d="M 386.496094 671.265625 L 306.863281 671.265625 L 306.859375 583.03125 L 386.492188 583.027344 Z M 304.0625 579.933594 L 304.066406 674.367188 L 389.292969 674.367188 L 389.285156 579.925781 L 304.0625 579.933594 " fill-opacity="1" fill-rule="nonzero"/><path fill="#b87e3e" d="M 375.804688 583.765625 L 308.019531 660.058594 L 308.023438 673.457031 L 319.015625 673.464844 L 388.957031 594.378906 L 388.957031 583.765625 L 375.804688 583.765625 " fill-opacity="1" fill-rule="nonzero"/><path fill="#e29b4c" d="M 375.441406 579.925781 L 304.066406 660.261719 L 304.066406 674.367188 L 315.644531 674.375 L 389.292969 591.105469 L 389.285156 579.925781 L 375.441406 579.925781 " fill-opacity="1" fill-rule="nonzero"/><path fill="#b87e3e" d="M 317.542969 583.769531 L 385.339844 660.058594 L 385.339844 673.453125 L 374.347656 673.457031 L 304.390625 594.390625 L 304.390625 583.769531 L 317.542969 583.769531 " fill-opacity="1" fill-rule="nonzero"/><path fill="#e29b4c" d="M 317.910156 579.933594 L 389.292969 660.257812 L 389.292969 674.367188 L 377.71875 674.367188 L 304.0625 591.109375 L 304.0625 579.933594 L 317.910156 579.933594 " fill-opacity="1" fill-rule="nonzero"/><path fill="#d67343" d="M 397.96875 572.753906 L 210.8125 572.765625 L 210.808594 463.96875 L 397.960938 463.960938 L 397.96875 572.753906 " fill-opacity="1" fill-rule="nonzero"/><path fill="#e29b4c" d="M 390.746094 565.574219 L 321.941406 565.578125 L 321.941406 471.140625 L 390.742188 471.140625 L 390.746094 565.574219 " fill-opacity="1" fill-rule="nonzero"/><path fill="#d67343" d="M 390.746094 488.21875 L 321.941406 488.21875 L 321.941406 485.671875 L 390.742188 485.671875 L 390.746094 488.21875 " fill-opacity="1" fill-rule="nonzero"/><path fill="#d67343" d="M 390.746094 503.921875 L 321.941406 503.921875 L 321.941406 501.378906 L 390.742188 501.378906 L 390.746094 503.921875 " fill-opacity="1" fill-rule="nonzero"/><path fill="#d67343" d="M 390.746094 519.632812 L 321.941406 519.632812 L 321.941406 517.085938 L 390.746094 517.085938 L 390.746094 519.632812 " fill-opacity="1" fill-rule="nonzero"/><path fill="#d67343" d="M 390.746094 535.339844 L 321.941406 535.34375 L 321.941406 532.792969 L 390.746094 532.789062 L 390.746094 535.339844 " fill-opacity="1" fill-rule="nonzero"/><path fill="#d67343" d="M 390.746094 551.046875 L 321.941406 551.046875 L 321.941406 548.503906 L 390.746094 548.5 L 390.746094 551.046875 " fill-opacity="1" fill-rule="nonzero"/><path fill="#e29b4c" d="M 312.96875 572.757812 L 210.8125 572.765625 L 210.808594 463.96875 L 312.960938 463.964844 L 312.96875 572.757812 " fill-opacity="1" fill-rule="nonzero"/><path fill="#b56037" d="M 388.488281 562.472656 L 324.203125 562.476562 L 324.199219 474.246094 L 388.484375 474.238281 Z M 321.941406 471.140625 L 321.941406 565.578125 L 390.746094 565.574219 L 390.742188 471.140625 L 321.941406 471.140625 " fill-opacity="1" fill-rule="nonzero"/><path fill="#b56037" d="M 379.863281 474.972656 L 325.136719 551.269531 L 325.140625 564.667969 L 334.011719 564.664062 L 390.472656 485.589844 L 390.472656 474.972656 L 379.863281 474.972656 " fill-opacity="1" fill-rule="nonzero"/><path fill="#d67343" d="M 379.5625 471.136719 L 321.941406 551.46875 L 321.941406 565.578125 L 331.289062 565.582031 L 390.742188 482.320312 L 390.742188 471.140625 L 379.5625 471.136719 " fill-opacity="1" fill-rule="nonzero"/><path fill="#b56037" d="M 332.824219 474.976562 L 387.550781 551.265625 L 387.550781 564.667969 L 378.683594 564.664062 L 322.210938 485.589844 L 322.207031 474.976562 L 332.824219 474.976562 " fill-opacity="1" fill-rule="nonzero"/><path fill="#d67343" d="M 333.121094 471.140625 L 390.746094 551.464844 L 390.746094 565.574219 L 381.40625 565.574219 L 321.941406 482.320312 L 321.941406 471.140625 L 333.121094 471.140625 " fill-opacity="1" fill-rule="nonzero"/><path fill="#e9b476" d="M 304.390625 565.582031 L 219.164062 565.589844 L 219.15625 471.148438 L 304.386719 471.140625 L 304.390625 565.582031 " fill-opacity="1" fill-rule="nonzero"/><path fill="#e29b4c" d="M 304.386719 488.21875 L 219.160156 488.230469 L 219.160156 485.675781 L 304.386719 485.671875 L 304.386719 488.21875 " fill-opacity="1" fill-rule="nonzero"/><path fill="#e29b4c" d="M 304.386719 503.925781 L 219.160156 503.925781 L 219.160156 501.382812 L 304.386719 501.378906 L 304.386719 503.925781 " fill-opacity="1" fill-rule="nonzero"/><path fill="#e29b4c" d="M 304.386719 519.632812 L 219.160156 519.636719 L 219.160156 517.09375 L 304.386719 517.089844 L 304.386719 519.632812 " fill-opacity="1" fill-rule="nonzero"/><path fill="#e29b4c" d="M 304.386719 535.339844 L 219.160156 535.347656 L 219.160156 532.800781 L 304.386719 532.792969 L 304.386719 535.339844 " fill-opacity="1" fill-rule="nonzero"/><path fill="#e29b4c" d="M 304.390625 551.050781 L 219.160156 551.054688 L 219.160156 548.511719 L 304.386719 548.5 L 304.390625 551.050781 " fill-opacity="1" fill-rule="nonzero"/><path fill="#b87e3e" d="M 301.59375 562.476562 L 221.960938 562.488281 L 221.957031 474.246094 L 301.589844 474.246094 Z M 219.15625 471.148438 L 219.164062 565.589844 L 304.390625 565.582031 L 304.386719 471.140625 L 219.15625 471.148438 " fill-opacity="1" fill-rule="nonzero"/><path fill="#b87e3e" d="M 290.902344 474.980469 L 223.121094 551.277344 L 223.121094 564.671875 L 234.109375 564.671875 L 304.058594 485.59375 L 304.054688 474.980469 L 290.902344 474.980469 " fill-opacity="1" fill-rule="nonzero"/><path fill="#e29b4c" d="M 290.535156 471.148438 L 219.160156 551.476562 L 219.164062 565.589844 L 230.734375 565.582031 L 304.386719 482.320312 L 304.386719 471.140625 L 290.535156 471.148438 " fill-opacity="1" fill-rule="nonzero"/><path fill="#b87e3e" d="M 232.640625 474.980469 L 300.433594 551.269531 L 300.433594 564.667969 L 289.445312 564.667969 L 219.488281 485.597656 L 219.488281 474.980469 L 232.640625 474.980469 " fill-opacity="1" fill-rule="nonzero"/><path fill="#e29b4c" d="M 233.007812 471.148438 L 304.390625 551.472656 L 304.390625 565.582031 L 292.820312 565.582031 L 219.160156 482.320312 L 219.15625 471.148438 L 233.007812 471.148438 " fill-opacity="1" fill-rule="nonzero"/><path fill="#e3ae80" d="M 508.375 451.613281 C 508.421875 455.144531 509.890625 458 511.667969 457.976562 C 513.449219 457.949219 514.859375 455.070312 514.8125 451.535156 C 514.773438 448.007812 513.296875 445.15625 511.519531 445.183594 C 509.742188 445.203125 508.335938 448.082031 508.375 451.613281 " fill-opacity="1" fill-rule="nonzero"/><path fill="#e3ae80" d="M 547.675781 451.148438 C 547.714844 454.675781 549.191406 457.519531 550.96875 457.507812 C 552.746094 457.484375 554.152344 454.597656 554.109375 451.066406 C 554.066406 447.53125 552.59375 444.691406 550.8125 444.707031 C 549.039062 444.734375 547.632812 447.609375 547.675781 451.148438 " fill-opacity="1" fill-rule="nonzero"/><path fill="#334a62" d="M 512.152344 607.71875 C 512.214844 607.195312 512.308594 606.679688 512.453125 606.1875 L 507.769531 550.347656 L 532.246094 575.757812 L 530.4375 608.960938 L 530.25 608.9375 L 530.199219 634.660156 L 526.230469 662.6875 L 516.714844 662.804688 L 512.082031 634.878906 L 512.027344 607.71875 L 512.152344 607.71875 " fill-opacity="1" fill-rule="nonzero"/><g clip-path="url(#53f1e0ba0a)"><path fill="#202f37" d="M 538.242188 679.050781 L 540.546875 667.632812 L 539.210938 664.890625 L 540.628906 661.128906 L 547.464844 661.050781 L 548.972656 664.773438 L 547.703125 667.550781 L 550.277344 678.90625 L 544.527344 681.171875 L 538.242188 679.050781 " fill-opacity="1" fill-rule="nonzero"/></g><path fill="#202f37" d="M 503.957031 676.617188 L 515.972656 665.199219 L 516.507812 661.9375 L 525.222656 661.828125 L 526.257812 663.660156 L 524.890625 666.933594 L 524.964844 673.273438 L 503.957031 676.617188 " fill-opacity="1" fill-rule="nonzero"/><path fill="#334a62" d="M 531.78125 526.96875 C 545.257812 526.8125 556.316406 537.601562 556.472656 551.070312 C 556.496094 552.910156 556.3125 554.695312 555.949219 556.417969 L 552.953125 606.414062 L 552.914062 606.421875 C 553.058594 607.046875 553.144531 607.695312 553.152344 608.363281 C 553.164062 609.152344 553.058594 609.902344 552.878906 610.632812 L 552.816406 634.394531 L 548.84375 662.414062 L 539.328125 662.53125 L 534.699219 634.609375 L 535.085938 608.90625 L 535.101562 608.90625 L 535.101562 608.902344 L 535.085938 608.90625 L 532.480469 575.757812 L 532.484375 575.757812 C 532.445312 575.757812 532.402344 575.757812 532.363281 575.757812 C 518.886719 575.917969 507.828125 565.125 507.664062 551.648438 C 507.503906 538.175781 518.304688 527.128906 531.78125 526.96875 " fill-opacity="1" fill-rule="nonzero"/><path fill="#263749" d="M 531.726562 575.988281 L 533.011719 575.972656 L 532.742188 553.40625 L 531.449219 553.421875 L 531.726562 575.988281 " fill-opacity="1" fill-rule="nonzero"/><path fill="#263749" d="M 515.183594 653.554688 L 514.75 650.953125 L 527.914062 650.796875 L 527.542969 653.402344 L 515.183594 653.554688 " fill-opacity="1" fill-rule="nonzero"/><path fill="#263749" d="M 537.796875 653.28125 L 537.367188 650.6875 L 550.53125 650.53125 L 550.160156 653.136719 L 537.796875 653.28125 " fill-opacity="1" fill-rule="nonzero"/><path fill="#b92534" d="M 486.265625 533.0625 C 486.265625 533.0625 491.484375 493.621094 491.480469 493.320312 C 491.367188 486.757812 496.585938 481.34375 503.152344 481.222656 C 509.714844 481.109375 515.136719 486.335938 515.25 492.898438 C 515.351562 498.390625 511.695312 503.0625 506.65625 504.511719 C 506.65625 504.511719 501.847656 526.667969 496.34375 535.167969 C 492.808594 540.621094 485.289062 540.761719 486.265625 533.0625 " fill-opacity="1" fill-rule="nonzero"/><path fill="#e3ae80" d="M 475.722656 499.355469 L 482.171875 496.84375 C 482.171875 496.84375 496.722656 532.953125 496.742188 534.269531 C 496.78125 537.21875 494.421875 539.636719 491.46875 539.671875 C 488.929688 539.699219 486.789062 537.957031 486.21875 535.59375 L 475.722656 499.355469 " fill-opacity="1" fill-rule="nonzero"/><path fill="#b92534" d="M 564.394531 480.394531 C 568.398438 482.105469 570.976562 485.75 571.507812 489.777344 L 575.234375 531.511719 C 575.785156 539.246094 568.285156 538.691406 565.058594 533.050781 C 560.03125 524.261719 555.667969 502.511719 555.667969 502.511719 L 555.703125 502.484375 C 555.492188 502.414062 555.277344 502.347656 555.0625 502.253906 C 549.027344 499.683594 546.222656 492.699219 548.796875 486.660156 C 551.371094 480.625 558.355469 477.816406 564.394531 480.394531 " fill-opacity="1" fill-rule="nonzero"/><path fill="#b92534" d="M 505.085938 508.179688 C 505 508.25 504.960938 508.289062 504.960938 508.289062 C 504.960938 508.289062 501.046875 490.601562 501.347656 484.691406 C 501.640625 478.941406 521.335938 476.675781 529.285156 477.957031 C 529.921875 477.902344 530.550781 477.863281 531.195312 477.855469 C 531.832031 477.84375 532.46875 477.871094 533.101562 477.90625 C 541.015625 476.441406 560.765625 478.230469 561.195312 483.972656 C 561.636719 489.875 558.148438 507.65625 558.148438 507.65625 C 558.148438 507.65625 558.101562 507.617188 558.019531 507.546875 C 557.769531 509.753906 557.246094 511.878906 556.488281 513.890625 L 559.820312 549.074219 C 557.984375 563.519531 532.230469 564.695312 532.230469 564.695312 C 532.230469 564.695312 506.460938 564.136719 504.28125 549.742188 C 505.03125 548.714844 506.726562 525.828125 507.417969 515.980469 C 506.265625 513.554688 505.464844 510.9375 505.085938 508.179688 " fill-opacity="1" fill-rule="nonzero"/><path fill="#e3ae80" d="M 523.082031 481.421875 L 526.390625 467.070312 L 536.472656 466.949219 L 540.128906 481.21875 L 531.570312 490.804688 L 523.082031 481.421875 " fill-opacity="1" fill-rule="nonzero"/><path fill="#fab71b" d="M 558.019531 507.546875 C 557.769531 509.753906 557.246094 511.878906 556.488281 513.890625 L 559.800781 548.921875 L 538.863281 540.058594 L 540.878906 477.410156 C 550.039062 477.152344 560.839844 479.222656 561.195312 483.972656 C 561.636719 489.875 558.148438 507.65625 558.148438 507.65625 C 558.148438 507.65625 558.101562 507.617188 558.019531 507.546875 " fill-opacity="1" fill-rule="nonzero"/><path fill="#ffffff" d="M 539.488281 520.535156 L 539.679688 514.679688 L 556.542969 514.480469 L 557.101562 520.324219 L 539.488281 520.535156 " fill-opacity="1" fill-rule="nonzero"/><path fill="#ffffff" d="M 539.925781 507.089844 L 540.109375 501.226562 L 559.355469 501 C 558.914062 503.601562 558.511719 505.765625 558.300781 506.867188 L 539.925781 507.089844 " fill-opacity="1" fill-rule="nonzero"/><path fill="#fab71b" d="M 504.109375 508.195312 C 504.410156 510.394531 504.984375 512.507812 505.789062 514.496094 L 503.3125 549.597656 L 524.039062 540.246094 L 520.519531 477.65625 C 511.355469 477.613281 500.613281 479.945312 500.371094 484.699219 C 500.070312 490.617188 503.980469 508.296875 503.980469 508.296875 C 503.980469 508.296875 504.027344 508.261719 504.109375 508.195312 " fill-opacity="1" fill-rule="nonzero"/><path fill="#ffffff" d="M 522.941406 520.734375 L 522.609375 514.878906 L 505.746094 515.085938 L 505.332031 520.945312 L 522.941406 520.734375 " fill-opacity="1" fill-rule="nonzero"/><path fill="#ffffff" d="M 522.1875 507.296875 L 521.859375 501.445312 L 502.621094 501.675781 C 503.121094 504.273438 503.574219 506.421875 503.8125 507.515625 L 522.1875 507.296875 " fill-opacity="1" fill-rule="nonzero"/><path fill="#e3ae80" d="M 559.191406 577.191406 L 556.613281 580.964844 L 554.707031 580.332031 L 556.992188 572.652344 L 561.640625 570.394531 L 564.613281 533.367188 C 564.644531 532.449219 564.910156 531.523438 565.441406 530.695312 C 567.027344 528.207031 570.328125 527.472656 572.816406 529.058594 C 574.855469 530.355469 575.710938 532.8125 575.074219 535.03125 L 568.433594 571.746094 L 567.667969 578.460938 L 564.046875 588.039062 L 558.355469 586.910156 L 559.191406 577.191406 " fill-opacity="1" fill-rule="nonzero"/><path fill="#263749" d="M 515.9375 658.097656 L 515.433594 655.070312 L 527.332031 654.921875 L 526.898438 657.960938 L 515.9375 658.097656 " fill-opacity="1" fill-rule="nonzero"/><path fill="#263749" d="M 538.546875 657.824219 L 538.046875 654.796875 L 549.949219 654.648438 L 549.519531 657.695312 L 538.546875 657.824219 " fill-opacity="1" fill-rule="nonzero"/><path fill="#6c111a" d="M 542.242188 477.617188 L 539.417969 473.910156 L 532.648438 490.785156 L 541.324219 482.78125 L 542.242188 477.617188 " fill-opacity="1" fill-rule="nonzero"/><path fill="#6c111a" d="M 520.738281 477.875 L 523.472656 474.101562 L 530.640625 490.816406 L 521.777344 483.011719 L 520.738281 477.875 " fill-opacity="1" fill-rule="nonzero"/><path fill="#b28863" d="M 538.5 474.757812 C 536.308594 476.460938 533.921875 477.488281 531.40625 477.523438 C 529.007812 477.550781 526.695312 476.667969 524.550781 475.148438 L 526.417969 467.070312 L 536.496094 466.949219 L 538.5 474.757812 " fill-opacity="1" fill-rule="nonzero"/><path fill="#e3ae80" d="M 511.464844 443.605469 C 511.613281 456.628906 520.652344 475.050781 531.527344 474.925781 C 542.398438 474.792969 550.992188 456.164062 550.832031 443.140625 C 550.679688 430.109375 541.832031 427.628906 530.960938 427.765625 C 520.089844 427.890625 511.308594 430.585938 511.464844 443.605469 " fill-opacity="1" fill-rule="nonzero"/><path fill="#381817" d="M 544.21875 448.046875 C 544.296875 454.269531 546.585938 459.296875 549.339844 459.261719 C 548.90625 448.648438 554.21875 449.816406 554.144531 443.589844 C 554.070312 437.363281 551.828125 436.675781 549.074219 436.710938 C 546.320312 436.746094 544.144531 441.820312 544.21875 448.046875 " fill-opacity="1" fill-rule="nonzero"/><path fill="#381817" d="M 518.191406 448.355469 C 518.265625 454.585938 516.09375 459.660156 513.339844 459.695312 C 513.523438 449.066406 508.238281 450.367188 508.167969 444.140625 C 508.09375 437.914062 510.316406 437.175781 513.070312 437.140625 C 515.828125 437.109375 518.117188 442.132812 518.191406 448.355469 " fill-opacity="1" fill-rule="nonzero"/><path fill="#381817" d="M 510.21875 432.625 C 510.308594 439.808594 519.683594 445.523438 531.171875 445.382812 C 542.660156 445.246094 551.902344 439.304688 551.816406 432.128906 C 551.726562 424.941406 542.34375 419.226562 530.863281 419.363281 C 519.378906 419.5 510.132812 425.4375 510.21875 432.625 " fill-opacity="1" fill-rule="nonzero"/><path fill="#fab71b" d="M 530.796875 414.023438 C 543.171875 413.871094 553.320312 423.707031 553.511719 439.476562 L 508.699219 440.015625 C 508.515625 424.890625 518.417969 414.171875 530.796875 414.023438 " fill-opacity="1" fill-rule="nonzero"/><path fill="#f68d2b" d="M 523.328125 439.835938 L 538.882812 439.652344 L 538.5625 412.761719 L 523.003906 412.949219 L 523.328125 439.835938 " fill-opacity="1" fill-rule="nonzero"/><path fill="#fab71b" d="M 524.570312 439.824219 L 537.640625 439.667969 L 537.320312 412.78125 L 524.246094 412.9375 L 524.570312 439.824219 " fill-opacity="1" fill-rule="nonzero"/><path fill="#f68d2b" d="M 506.742188 439.390625 C 506.753906 440.582031 517.722656 445.539062 531.171875 445.382812 C 544.625 445.222656 555.46875 440 555.453125 438.800781 C 555.4375 437.609375 544.523438 436.765625 531.074219 436.925781 C 517.617188 437.085938 506.726562 438.1875 506.742188 439.390625 " fill-opacity="1" fill-rule="nonzero"/><path fill="#381817" d="M 480.625 510.910156 L 511.1875 510.550781 L 505.425781 465.507812 L 472.894531 465.890625 L 480.625 510.910156 " fill-opacity="1" fill-rule="nonzero"/><path fill="#e3ae80" d="M 473.34375 490.4375 L 475.894531 483.652344 L 477.203125 485.175781 L 477.136719 491.433594 L 477.410156 491.503906 L 478.011719 490.933594 L 482.472656 488.1875 L 485.679688 493.011719 L 482.773438 498.101562 L 476.847656 501.363281 L 473.019531 495.585938 L 473.34375 490.4375 " fill-opacity="1" fill-rule="nonzero"/><path fill="#9da7b3" d="M 480.777344 469.269531 L 497.046875 469.078125 L 496.96875 462.136719 L 480.695312 462.328125 L 480.777344 469.269531 " fill-opacity="1" fill-rule="nonzero"/></svg>